<?xml version="1.0" encoding="UTF-8"?>
<svg version="1.1" xmlns="http://www.w3.org/2000/svg" width="256" height="256">
<path d="M0 0 C3.25 0.5625 3.25 0.5625 4.6171875 1.92578125 C9.61416075 9.42124113 12.43804807 18.63102872 13.25 27.5625 C14.66601714 28.04358275 16.08284437 28.52228141 17.5 29 C18.28890625 29.26683594 19.0778125 29.53367187 19.890625 29.80859375 C20.66921875 30.05738281 21.4478125 30.30617188 22.25 30.5625 C22.90226562 30.7996875 23.55453125 31.036875 24.2265625 31.28125 C27.06127025 31.67526343 28.78082075 30.77495707 31.375 29.625 C36.08728814 27.5625 36.08728814 27.5625 38.25 27.5625 C38.311875 26.345625 38.37375 25.12875 38.4375 23.875 C39.32194242 15.7868382 42.58916969 7.23980353 47.25 0.5625 C50 -0.25 50 -0.25 53.25 0.5625 C60.28703608 6.48762345 63.74167912 13.96693006 65.6875 22.75 C66.83563596 27.76520925 68.19273755 30.23346414 72.25 33.5625 C75.16822873 38.16507551 74.1715132 42.41372785 73.25 47.5625 C72.37748892 50.94233238 71.36844481 54.25640527 70.25 57.5625 C67.375 58.1875 67.375 58.1875 64.25 58.5625 C62.25 56.5625 62.25 56.5625 62.23828125 54.6796875 C62.34527344 53.93976562 62.45226562 53.19984375 62.5625 52.4375 C62.7171875 51.23673828 62.7171875 51.23673828 62.875 50.01171875 C63.11461647 48.44672365 63.38276039 46.88565909 63.6875 45.33203125 C64.15367686 42.99650168 64.15367686 42.99650168 64.25 39.5625 C62.40579697 37.0823649 60.98717673 35.93108837 58.25 34.5625 C48.72870269 33.3073384 38.52262014 36.02896351 30.18359375 40.7265625 C26.46343399 42.33487399 23.23075818 41.92801727 19.50390625 40.5390625 C18.61574219 40.09304687 17.72757812 39.64703125 16.8125 39.1875 C8.89640552 35.42655606 2.04440302 33.67898192 -6.75 34.5625 C-9.79423771 35.805046 -11.12190581 36.63186085 -12.93652344 39.32055664 C-14.03284851 42.34203118 -13.48701569 44.0822565 -12.703125 47.18359375 C-12.435 48.28509766 -12.166875 49.38660156 -11.890625 50.52148438 C-11.59671875 51.66939453 -11.3028125 52.81730469 -11 54 C-10.43780537 56.24747715 -9.88050574 58.49618445 -9.328125 60.74609375 C-9.07450195 61.74181396 -8.82087891 62.73753418 -8.55957031 63.76342773 C-7.37628866 69.31621597 -6.61329939 74.95105394 -5.75 80.5625 C15.04 80.8925 35.83 81.2225 57.25 81.5625 C57.58 77.9325 57.91 74.3025 58.25 70.5625 C58.91 68.9125 59.57 67.2625 60.25 65.5625 C62.75 64.6875 62.75 64.6875 65.25 64.5625 C67.25 65.5625 67.25 65.5625 67.93359375 67.24609375 C68.34128454 70.23079301 67.8531687 72.66015661 67.3125 75.625 C66.9377546 78.27010076 66.58122598 80.91208218 66.25 83.5625 C66.15348145 84.28453613 66.05696289 85.00657227 65.95751953 85.75048828 C64.29789954 99.80396767 68.35425249 108.30909237 76.28125 119.71044922 C78.43109689 122.82484795 80.50181977 125.98656549 82.5625 129.16015625 C93.92125499 146.58584668 105.76894525 163.69562284 119.25 179.5625 C120.21624081 180.71476411 121.18238008 181.86711338 122.1484375 183.01953125 C127.3772652 189.21908381 132.64381838 195.17407234 138.60546875 200.6953125 C140.39399192 202.72598726 140.97614465 203.88838308 141.25 206.5625 C140.09780772 210.01907685 139.41028902 210.40700975 136.4609375 212.33984375 C135.68363281 212.85353516 134.90632812 213.36722656 134.10546875 213.89648438 C133.28691406 214.42564453 132.46835938 214.95480469 131.625 215.5 C130.43197266 216.28793945 130.43197266 216.28793945 129.21484375 217.09179688 C125.63780944 219.43830789 122.11357356 221.6482028 118.2890625 223.56640625 C114.57948559 226.00290214 114.59513605 227.47961645 113.25 231.5625 C110.90949862 233.32014103 108.878368 234.6117145 106.3125 235.9375 C105.25373657 236.50549316 105.25373657 236.50549316 104.17358398 237.08496094 C90.51439832 244.24935967 76.23473305 249.89885524 61.25 253.5625 C59.98542969 253.8821875 58.72085938 254.201875 57.41796875 254.53125 C30.2618441 260.56148248 -3.13004596 258.44727816 -28.75 247.5625 C-29.74 246.5725 -29.74 246.5725 -30.75 245.5625 C-30.19444444 241.00694444 -30.19444444 241.00694444 -28.75 239.5625 C-22.51764838 239.68873145 -16.6334318 241.2838091 -10.6875 243 C25.97270123 253.0053962 66.28692184 247.11124116 99.2578125 228.3203125 C100.24523437 227.74023438 101.23265625 227.16015625 102.25 226.5625 C100.5386391 222.81947 98.24807068 219.51326223 95.9375 216.125 C46.82200789 142.98562587 46.82200789 142.98562587 48.5625 126.625 C48.9028125 125.6040625 48.9028125 125.6040625 49.25 124.5625 C52.22 124.0675 52.22 124.0675 55.25 123.5625 C57.39486204 126.27173871 59.00937901 128.90103337 60.45703125 132.03515625 C60.87138428 132.92098389 61.2857373 133.80681152 61.71264648 134.71948242 C62.15809814 135.67830322 62.6035498 136.63712402 63.0625 137.625 C76.13445389 165.29858095 90.64889351 191.52334072 108.25 216.5625 C113.19179025 216.04478864 116.44194685 213.72632832 120.4375 211 C127.00284522 206.5625 127.00284522 206.5625 129.25 206.5625 C124.75274213 200.94635913 120.21060386 195.4582013 115.3125 190.1875 C110.36027229 184.79201734 105.88318557 179.11778697 101.51220703 173.25292969 C100.2869067 171.61192785 99.04860527 169.98146178 97.80859375 168.3515625 C85.68052238 152.25836392 74.52264133 135.25603338 64.125 118 C63.62234619 117.16766846 63.11969238 116.33533691 62.60180664 115.4777832 C59.25 109.82202328 59.25 109.82202328 59.25 107.5625 C50.66918503 107.32162318 42.0930289 107.16845715 33.50916386 107.12465668 C29.52202581 107.1016092 25.53990412 107.04932668 21.55444336 106.92822266 C5.18327272 105.67405925 5.18327272 105.67405925 -9.96087646 109.99053955 C-13.28274971 113.61427602 -14.69569968 117.78560865 -16.04177856 122.44274902 C-17.18416456 125.86198164 -19.05635238 128.4339655 -21.109375 131.3984375 C-21.82601318 132.47327393 -22.54265137 133.54811035 -23.28100586 134.65551758 C-24.01327393 135.73857178 -24.74554199 136.82162598 -25.5 137.9375 C-26.28726981 139.10891497 -27.07445925 140.28038396 -27.86157227 141.4519043 C-56.6594404 184.18761734 -56.6594404 184.18761734 -74.6328125 201.30859375 C-77.09232756 203.41154333 -77.09232756 203.41154333 -76.75 206.5625 C-74.3781974 208.23618712 -72.07405681 209.69282853 -69.5625 211.125 C-68.88896484 211.52396484 -68.21542969 211.92292969 -67.52148438 212.33398438 C-64.01735348 214.38176428 -60.5830222 216.18558911 -56.75 217.5625 C-56.4718042 216.98193848 -56.1936084 216.40137695 -55.90698242 215.80322266 C-54.79974646 213.65884374 -53.58541888 211.71148018 -52.23828125 209.7109375 C-35.90618469 185.18269827 -20.60499458 159.30367766 -9.24633789 132.0546875 C-6.4412706 125.41954926 -6.4412706 125.41954926 -3.75 123.5625 C0.67105263 123.98355263 0.67105263 123.98355263 2.25 125.5625 C1.93032845 132.02504912 -0.598071 137.07723934 -3.4375 142.8125 C-3.92371826 143.80830078 -4.40993652 144.80410156 -4.91088867 145.83007812 C-6.5088748 149.08192579 -8.12658123 152.32327968 -9.75 155.5625 C-10.29946289 156.66400391 -10.84892578 157.76550781 -11.41503906 158.90039062 C-21.7844534 179.59118496 -33.18265077 199.4715046 -46.54296875 218.3828125 C-48.39954921 221.05760275 -50.11892407 223.74663601 -51.75 226.5625 C-50.67878906 227.09359375 -49.60757813 227.6246875 -48.50390625 228.171875 C-47.10640279 228.88469556 -45.70928723 229.59827698 -44.3125 230.3125 C-43.25192383 230.83457031 -43.25192383 230.83457031 -42.16992188 231.3671875 C-36.95014377 234.0644891 -36.95014377 234.0644891 -35.94897461 236.55566406 C-35.75 238.5625 -35.75 238.5625 -37.1875 240.8125 C-37.703125 241.39 -38.21875 241.9675 -38.75 242.5625 C-43.12952665 241.93330525 -46.77785648 240.2904682 -50.6875 238.3125 C-51.28240234 238.02503906 -51.87730469 237.73757812 -52.49023438 237.44140625 C-56.81521366 235.27655323 -60.25695141 232.86530692 -63.75 229.5625 C-64.125 226.75 -64.125 226.75 -63.75 224.5625 C-64.54921875 224.35625 -65.3484375 224.15 -66.171875 223.9375 C-70.92322298 222.11165449 -74.81367087 219.42540896 -79 216.5625 C-79.8146875 216.0159375 -80.629375 215.469375 -81.46875 214.90625 C-87.43941327 210.87308673 -87.43941327 210.87308673 -89.75 208.5625 C-90.12890625 206.20703125 -90.12890625 206.20703125 -89.75 203.5625 C-88.02734375 201.38671875 -88.02734375 201.38671875 -85.6875 199.25 C-59.01741581 174.58587086 -38.52896643 141.46860071 -19.98852539 110.5625 C-18.75 108.5625 -18.75 108.5625 -16.921875 106.15625 C-14.94468989 101.78008028 -15.17791669 97.30771043 -15.1875 92.5625 C-15.1870166 91.47759277 -15.1865332 90.39268555 -15.18603516 89.27490234 C-15.43266626 76.778335 -18.20585081 64.89413201 -21.01416016 52.76831055 C-22.43696124 46.56963734 -22.43696124 46.56963734 -23.078125 43.49609375 C-23.35124512 42.2285022 -23.35124512 42.2285022 -23.62988281 40.93530273 C-23.81295273 37.31892776 -22.3368547 35.013024 -20.3046875 32.12109375 C-18.75 30.5625 -18.75 30.5625 -16.6015625 29.6328125 C-15.99054688 29.27960937 -15.37953125 28.92640625 -14.75 28.5625 C-14.19363164 26.44347709 -14.19363164 26.44347709 -14.25 24 C-13.7373972 16.08313447 -8.81746699 1.80357279 0 0 Z M-0.75 12.5625 C-4.13793263 16.09773405 -4.74187307 19.90960646 -5.75 24.5625 C-2.45 24.8925 0.85 25.2225 4.25 25.5625 C2.93 21.2725 1.61 16.9825 0.25 12.5625 C-0.08 12.5625 -0.41 12.5625 -0.75 12.5625 Z M51.25 12.5625 C50.55093058 14.16165881 49.86610532 15.76705045 49.1875 17.375 C48.80464844 18.26832031 48.42179688 19.16164063 48.02734375 20.08203125 C46.95538795 22.6544236 46.95538795 22.6544236 48.25 25.5625 C50.89 25.2325 53.53 24.9025 56.25 24.5625 C55.78439347 19.81331338 55.08067342 16.45467595 52.25 12.5625 C51.92 12.5625 51.59 12.5625 51.25 12.5625 Z M-5.75 89.5625 C-5.75 92.8625 -5.75 96.1625 -5.75 99.5625 C15.04 99.5625 35.83 99.5625 57.25 99.5625 C57.25 96.2625 57.25 92.9625 57.25 89.5625 C36.46 89.5625 15.67 89.5625 -5.75 89.5625 Z " fill="#3c3a3c" transform="translate(89.75,-0.5625)"/>
</svg>
