<svg xmlns="http://www.w3.org/2000/svg" xmlns:xlink="http://www.w3.org/1999/xlink" id="baile" x="0px" y="0px" viewBox="0 0 250 236" style="enable-background:new 0 0 250 236;" xml:space="preserve"> <g> <path d="M41.7,62.3c0-0.8,0-1.6,0-2.4c1.5,0.4,1.5-0.7,2.4-0.9c4,2.1,1.5,7.7,4.3,10.9c0.4-3.1,1.8-7,0.9-9.5 c-0.6-1.8-3.1-2.5-3.3-2.8c-0.2-0.4,0.9-2.8-0.9-1.9c-1.8,3.6-6.1,3.1-7.6,6.2C38.7,62.5,39.8,61.6,41.7,62.3z"></path> <path d="M46.4,70.8c-1.9-2.3-5.9,2.4-2.4,2.8C44.2,72.1,46,72.2,46.4,70.8z"></path> <path d="M48.8,80.8c0.6,0,0.7,0.6,1.4,0.5c0.5-1.7,1.9-2.6,1.9-4.7c-3.3,1-4.3-1.6-7.1-2.4c-0.5,3.2,2.6,2.8,4.3,3.8 C49.6,79.4,48.4,79.3,48.8,80.8z"></path> <path d="M245.2,15c0.4-1.7,1.9-2.2,1.9-4.3c-0.1-0.5-0.5-0.7-0.9-0.9c-2.4,2.3-1.8,5.7-3.3,8c2.3-0.7,4.9-1.1,6.2-2.8 C247.9,13.6,247,14.7,245.2,15z"></path> <path d="M215.4,32c7.3-3.7,11.9-11.7,17-16.1c1.3,0,2.5,0,3.8,0c-0.2-2.3,4.5-3.5,1.9-5.2c-1.2,0.8-2.2,1.9-2.8,3.3 c-1.5,0.3-2.2-0.3-3.3-0.5c-8.7,8.2-17.2,16.6-25.1,25.5C209.8,38.6,214.2,35.8,215.4,32z"></path> <path d="M243.3,10.7c-2.8,0.4-3.7,2.6-4.3,5.2C241.8,15.6,242.4,13,243.3,10.7z"></path> <path d="M236.2,16.4c1,1.7,2.1,3.2,4.7,3.3C240.7,17.5,237.7,15.9,236.2,16.4z"></path> <path d="M233.9,19.2c-7.6,4.2-10.8,12.8-15.1,20.3c6.6-4.6,9-13.4,15.6-18c4.4,2.8,10.5,1,11.8-3.3 C243.6,18.8,237.9,22.5,233.9,19.2z"></path> <path d="M212.1,49.5c1.7-2.8,4.2-5.3,5.2-8c-5.3,3.2-9.4,7.7-11.4,14.2C209.7,56.9,210.6,52,212.1,49.5z"></path> <path d="M201.7,65.6c-1.3-0.3-1.4-3.2-2.8-1.9c1.3,5.4,5.6,9.8,5.7,15.6c0,3.5-3.2,6.7-3.8,10.4c-0.2,1.4,0.5,3.3,0.5,4.7 c-0.1,8.2-2.4,16.8-2.4,25.5c4.2,4.8,5,13,10.4,16.6c-0.7-5.4-5.2-10.2-6.2-16.6c-0.6-4.1,0.8-10.5,0.5-16.6 c-0.2-4.1-1-8.5-0.5-11.8c1.3-8.4,4.1-12.6,2.4-19.4c-0.4-1.7-1.8-2.9-1.9-4.7c-0.1-2.9,2.1-5.8,1.9-8.5c-0.5,0-0.9,0-1.4,0 C203.5,61.4,202.2,63.1,201.7,65.6z"></path> <path d="M161.9,68.4c2.1-2.5,6.2-4,6.6-8c-5.9,0.6-9.4,7.6-11.4,13.7C159.8,73.2,160.3,70.3,161.9,68.4z"></path> <path d="M142.5,94.9c2.3,2.9,4.3,6.1,8.5,7.1c-0.5-4.4-5.1-4.7-6.2-8.5c1.6-6.3,9.5-8.8,9.5-15.1C148.6,82.1,145.9,88.8,142.5,94.9 z"></path> <path d="M193.2,86.9c-4.1,0.3-5.8,3.1-9.9,3.3C185.3,93.1,192.8,90.3,193.2,86.9z"></path> <path d="M196.5,118.6c-1.6-4.9-7-8.4-10.9-9.5C189,112.5,191.5,116.8,196.5,118.6z"></path> <path d="M166.2,127.1c-1,13.7,0,25.4-5.2,37.4c4.6,0.1,2.4-6.7,5.7-8c0.2-3.6,0.2-7.4,0.9-10.4c3.5,1.6,5.8,4.3,10.9,4.3 c-0.8-5.5-9-3.7-11.4-7.6C167.9,137.1,169.4,131.5,166.2,127.1z"></path> <path d="M175.2,131.4c-2.8,1.1-7.3,7.1-3.8,9.9C172.6,137.9,173.9,134.7,175.2,131.4z"></path> <path d="M178.5,142.3c-0.8-0.3-2.8,0.6-2.8-0.5c0.1-2.8,2.7-3,2.8-5.7c-3.4,1.1-5.4,3.5-5.2,8C174.9,145.7,178.8,145.2,178.5,142.3 z"></path> <path d="M188.9,147.5c0.7-4.9-5.3-2.4-7.6-3.3c0-1.7,3.2-3.7,0.9-4.7c-1.3,1.7-3,3-3.3,5.7C180.4,148.5,186.1,147,188.9,147.5z"></path> <path d="M172.8,174c-12.5,13.8-28.1,24.6-29.3,49.7c-2.1-4.6-2.9-11.2-4.3-14.2c1.5-2,4.6-9.2,9-11.4c2.2-4.9,3.3-11,4.7-16.6 c1.5-5.9,4.8-9.8,6.6-13.7c-12.7,7.6-10.9,29.8-21.8,39.3c-1.3-0.4-1.2,0.7-2.4,0.5c-1.5,4.1-5.5,10.6-3.8,14.7 c0.7-2.4,2.7-3.6,4.3-5.2c1.6,1.9,1.8,6.2,2.4,10.4c2.3-0.4,3.1,0.7,3.8,1.9c-1.5,0.2-1.1-1.5-2.8-0.9c1,5,7.8,4.2,13.7,4.3 c-1.5-2.9-4.5-4.3-6.6-6.6c-2.2-28.2,20.7-33.8,27-52c1.5,0.4,1.5-0.7,2.4-0.9c2.6-7.4,5.4-14.4,7.6-22.2c-0.5,0-0.9,0-1.4,0 C179.5,158.8,172.4,164.7,172.8,174z"></path> <path d="M157.7,92.6c3.1,7.6,7.4,14.1,11.8,20.3c-5.3-2.5-10.4-5.1-14.7-8.5c2.3,6.4,8.7,8.6,14.2,11.8c-1.7,2-4.4,5.3-3.3,8.5 c3.3-1,2.3-6.2,4.7-8c1.4,0.8,2.3,2.1,4.7,1.9c-0.7-2.6,2.1-1.7,1.9-3.8c-0.2-0.9-2.3-2.4-1.4-2.8c1.6,0,2.4,0.8,4.3,0.5 c-0.4-1.9-0.1-1.6,0-3.8c-1.2-1.2-3.4-1.3-3.3-3.8c0.7-0.9,2.6-0.6,2.4-2.4c-1.7-8.1-5.7-13.9-8-21.3c3-3.4,6.3-7.2,7.1-11.4 c-0.1,5.9,0.5,11.2,3.8,13.7c3.7-0.4,0.6-7.6,3.3-9c0.1,3.2-3.2,10.2,1.4,10.9c-0.9-3-0.3-6.7,1.9-8c-0.1,1.2-0.1,2.3,0.9,2.4 c4-8.2-4.5-21.9,3.8-25.1c2.5,1.3,1.5,6,5.2,6.2c0.3-4-2.7-4.6-3.3-7.6c2.8-3.8,7-6.2,9-10.9c-5.1,2.3-7.9,6.9-12.8,9.5 c-2-3.5,2.3-4.8,2.4-8c0.1-4.5-7.8-15.8-12.3-16.6c-2.4,1.2-3,1.2-6.6,0.9c-4.2,4.1-10.2,11.1-9.5,18.5c0.4,3.8,4.6,5.5,3.3,9.5 c1.5,2.5,4.5,3.4,6.2,5.7c0.3,1.8,0.6,3.5,1.9,4.3c-3.8,11.6-15.1,15.8-20.8,25.5C156.1,92.3,157.6,91.7,157.7,92.6z M181.3,77.4 c-1,0.1-0.2-1.7-0.5-2.4c0.6,0.1,0.8-0.1,0.9-0.5C182.9,73.6,181.3,76.5,181.3,77.4z M188,56.1c-1.5-1.3-2-3.7-3.8-4.7 c2.1-2,4.4-3.8,6.2-6.2C188.5,47.7,188.5,52.4,188,56.1z M170.9,35.8c0.8-0.9,0.6-2.9,2.4-2.8C172.3,33.7,172.5,35.7,170.9,35.8z M172.8,49c-1.3-1.2,0.1-3.7,0.5-4.7C175.2,46,173.1,47.1,172.8,49z M172.8,41c-1.4-1.6,1.1-3.3,0.9-5.2 C175.4,37.6,173.1,39.5,172.8,41z M176.1,33c-1.3-0.4,1.3-0.9,0.5-2.4c-1.8-0.2-2.2,1-2.8,1.9c-1.4-1.7,4.2-3.9,4.3-0.5 c2.4,0.3,3.8-0.3,5.2-0.9c2.8,3.1,6,6,7.1,10.9c-2.2,2.2-3.8,5-6.2,7.1c-4.7-1.9-8.6-9.1-6.2-15.1C177.9,33.4,176.6,31.7,176.1,33z M177.6,110.1c-4.5,0.1-3.1,3.5-3.3,6.2c-0.4-0.3-1.3-0.7-1.4,0c-4.6-2.8-0.3-6.5,0.9-9.9C175.3,107.3,175.2,109.9,177.6,110.1z M168.6,81.7c3.2,5.9,4,14.3,6.6,20.8c-3.1,0.2-3.3,3.3-5.2,4.7c-4.2-5-8.1-10.2-11.4-16.1C160.9,87,165.8,85.4,168.6,81.7z"></path> <path d="M119.8,228.8c-5.3-8.4-5.4-19.8-0.9-29.8c-1.6-8.8,6.2-20.5,2.4-29.3c-5.6,1.2-6.5,7.1-10.4,9.9c2.6-4.8,5.1-9.7,9-13.2 c1.4,0.4,0.9,2.6,2.8,2.4c0.9-11.1-7.4-19.6-12.3-27.4c-5.1-8.2-10.2-15.1-16.1-20.3c0.3-1.4-0.5-1.7-0.5-2.8 c-1.8-0.5-0.9,1.6-1.9,1.9c-0.1-2.1-1.2-3.3-1.4-5.2c1.1,0.1,2.7,3.9,3.3,1.4c-1.3-7.2-6.2-15-11.4-19.9 c-1.8-6.4-5.7-10.7-10.4-14.2c1-15.4-5.1-38.4-3.3-53.9c9.3-0.6,1.2-10.9-0.5-14.7c0.4-4.2,2.5-14.2-3.8-13.2 c-2.9,23.9-9.2,44.4-9.5,71c-1.9-1.3-2.5-3.8-5.2-4.3c1.5,4,4.9,6.1,5.2,11.4c-3.9,4.6-8.5,3.5-13.7,5.7c-2.4-2.3-6.3-3.1-9-5.2 c-3.1-7.1,1.4-11.3,3.3-17c-1.7-0.4-2.6,2.4-3.3,1.4c-3.6-10.6-12.9-15.5-18.5-24.1c2.3-4.2-3-10.5-7.1-9.9c0.1-3-1.5-7.9-5.7-8 C2,29.8,5.4,35.9,6.7,44.3c1.9-0.2,1.9,1.6,2.8,2.4C16.3,65.6,23.9,83.7,36,97.3c-0.9,2.1-1.6,4.3-1.4,7.6c3.2,0.4,3.3-2.4,3.3-5.2 c1.2,0.1,1.5,0.9,2.4,0c-2.1-4.2,0.4-11.8,3.3-12.3c-1.6,2.5-3.8,6.4-2.8,9.9c2.4-3.3,4.1-7.2,5.7-11.4c1.1,1.5,3.5-0.8,4.3,0.5 c-0.3,4.8-4.6,7.9-5.2,10.9c3.8-0.7,4.1-4.7,7.1-6.2c-0.4,12.1-8.5,16.5-17,20.3c-0.6,2,2.3,0.6,1.9,2.4c4.6-0.8,7.1-3.6,11.8-4.3 c1.9,1.6,2.1,4.8,6.2,4.3c-0.4-4.1-3.1-4.2-3.8-6.6c-1.4-5,7.7-9.8,4.7-19.9c4.6,3.9,9.3,12.3,18,9c0.1-0.9,0.3-1.6,0.9-1.9 c0-1.6-1.1-2.1-1.9-2.8c1.3-0.1,0.8-2,1.9-2.4c8.1,8.4,5.1,28,12.3,37.4c-1.3-0.4-1.2,0.7-2.4,0.5c0.7,2.9-0.3,4.7-1.9,4.3 c-0.6-1.9,1.6-1,0.9-2.8c-7.7-5.4-24.2-7.6-34.5-4.7c1.4-3.4,5-4.8,5.7-9c-4.3,3.7-11,7.6-9.5,15.6c2,0.2,0.6-1.3,1.4-1.4 c0.7,2.3,8.9,3.1,9.9,0.5c-2-1.5-7.8,0.8-9-1.4c1.3-2.2,4.7-2.2,8-2.4c6.3,9.9,4.2,29.4,10.4,41.6c-4.4,2.7,1.1,8.8,0,12.3 c-0.7-0.2-0.4-1.5-1.9-0.9c-9.6,5.7-9,21.6-21.8,24.1c-1.4,2.5-2.7,5.2-2.8,9c5.5,5.3,7.5,13.9,9,23.2c6.1,0,12.8,0.5,14.7-3.8 c-1-1.8-3.1-2.5-5.2-3.3c-2.9-3.9-3.2-13.2-1.9-18.5c7.7-5.2,17.8-8,22.2-16.6c2.4-1.2,5.3-2.7,6.2-5.7c0.3-1-0.9-0.9-0.9-1.9 c0-1.2,0.4-3.1,0.5-3.8c0.5-6.7,2.9-15.1,2.4-22.7c1.6-1.4,3.1-3.3,2.8-5.2c3.5,1.6,2.9,8.6,9,6.2c2.2,2.7,1.7,8.1,4.7,9.9 c-0.6,2.1-0.6,4.6,0.5,6.2c-6.9,7.6,1.3,25.4-1.9,34.1c-0.5,1.3-2.2,2.1-2.4,3.3c-0.8,4.9,4.2,9.3,6.2,13.7 c1.3,2.9,0.2,5.5,2.4,7.6c6.2,0.2,11.1,1.8,15.6,1.4C124.9,232.6,121.2,231.2,119.8,228.8z M119.8,175.4c1.6,2.9-2.5,4.1-3.8,5.7 C115.5,181.1,118.8,177,119.8,175.4z M9.5,39.1c-0.2-3.6-2.7-4.9-3.3-8c2,0.2,3.3,1.1,4.7,1.9c-0.1,2.3,0.3,4.1,1.4,5.2 C11.9,39,10.4,38.7,9.5,39.1z M13.8,46.7c-1.7-1.3-0.4-4.3-0.9-5.7c1,0.4,1.2,1.7,1.9,2.4C14.8,44.8,14.1,45.6,13.8,46.7z M19.9,50.9c-0.4-0.1-0.5-0.5-0.9-0.5c-1.1,0.8-1.6,2.2-1.4,4.3c-3.5-0.8-2-5.7-1.9-9c3.4,2.1,4.6,6.5,7.6,9 c-1.2,2.2-1.7,5.3-3.3,7.1C19,59.2,19.3,53.6,19.9,50.9z M23.7,65.6c-1.3-2.4,0-6.3,0.5-8.5c1.5,0.4,1.6,2.2,2.8,2.8 C26.3,62.2,24.3,63.1,23.7,65.6z M64.9,9.8c0.8-1.3,0.3,2.8,0.5,3.8c3.9,1.3,2.9,7.5,5.2,10.4c-2.2,0.8-2.4,3.6-3.8,5.2 c-1.1-1.6-1.8-2.3-3.8-0.9C63.7,22.1,63.6,15.3,64.9,9.8z M62.5,52.4c-0.5-4.5,2.3-9.7,3.3-14.2C68.1,44.4,63.9,48.2,62.5,52.4z M61.1,44.8c-0.9-5,2.7-9.6,3.8-14.2C68.6,35.4,61.5,39.5,61.1,44.8z M66.3,48.1c4.6,7.4-3.2,11.5-4.3,17.5 C61.7,59.9,65,53.8,66.3,48.1z M64.4,69.4c-0.5-3.4,1.8-8,3.3-10.9C69.6,63.2,66.5,67,64.4,69.4z M46,212.8 c-0.7-1.2-1.9-1.9-1.9-3.8c1.5-0.2,1.8,0.7,2.8,0.9C47,211.3,45.8,211.4,46,212.8z M49.3,219.4c-2.1-1.5-1.9-4-1.4-7.1 C50.4,212.8,49.8,217,49.3,219.4z M74.3,134.7c1.1,0.2,1.8,0.7,3.3,0.5C77.3,136.3,74,136.8,74.3,134.7z M62.5,136.6 c0.6,0,1.3,0,1.9,0c-1.3,1.5,0.4,2.8,2.4,2.4c-0.5,1.7-2,2.4-2.4,4.3C62.9,141.9,63,138.9,62.5,136.6z M66.3,150.8 c-1.8-4-0.1-11.8,5.7-11.4C70.1,143.2,67.8,146.6,66.3,150.8z M78.1,145.1c-0.9-0.8,0.4-1.2,0-2.8c-2.5,1.8-5.8,2.8-7.1,5.7 c-0.1-2.5,2.3-6.6,3.8-9c2.6-0.2,5.3-0.4,7.1-1.4C82.3,139.8,79.6,143.1,78.1,145.1z M86.2,146.5c-2.4-0.8-2.4,2.2-3.8,0.9 c1.9-10.1,8.6-15.4,12.3-23.7c1.6,1.4,2.4,3.6,4.3,4.7C94.1,133.9,89.2,139.3,86.2,146.5z M93.3,151.2c-1.6,0-1.6-1.5-3.3-1.4 c1.2-8.4,5.8-13.4,9.5-19.4c2.5,1.2,2.8,4.5,4.7,6.2C100.3,141.3,95.9,145.4,93.3,151.2z M99.9,158.8c-0.9-1.8-1.4-3.9-2.8-5.2 c1.4-6,4.7-10.1,7.6-14.7c2.7,1.4,2.9,5.3,5.2,7.1C106.2,149.9,103.6,154.9,99.9,158.8z M110.8,148.4c1.5,1.8,2.9,3.7,3.8,6.2 c-3.6,1.9-4.5,6.5-8,8.5C102.1,159.3,108.7,151.8,110.8,148.4z M108.4,222.7c-1.3-1.1-2.5-2.6-1.4-6.6 C110.1,216.9,109,220,108.4,222.7z M108.4,172.1c0.1-7.4,4.1-11,6.6-16.1c1.8,0.7,2.1,3,2.8,4.7 C114.3,164.1,112.7,169.5,108.4,172.1z"></path> <path d="M218.2,150.3c-2.8-6.5-5.6-11.9-11.8-13.2c-3.3,3.1-7.1,5.4-10.9,8c-3.6,2.5-7.1,4.5-10.4,6.6c8-1.2,14.8,4.4,19.4,9.5 c-3.5,12.3,1.1,24.9-2.4,35.5c-1.9,5.9-8.5,7.7-10.4,12.8c-1.5,4-0.7,8.7-1.9,12.3c3-0.8,2-5.6,4.3-7.1c1.6,4,1.2,8.7,0,13.2 c1.5,3.6,8.4,7.5,12.8,3.8c0.6-2.9-3.4-4.2-3.8-7.1c-0.8-5.5,5.2-14.6,7.1-20.8c1.8-5.8,3.6-13.9,6.2-21.3 c2.5-7.2,7.2-15.6,6.6-21.3C222.7,158.9,220,154.5,218.2,150.3z M196,213.2c-1.9-0.5-0.4-3.2,0-4.3c1.4-0.2,1,1.5,1.4,2.4 C196.2,211.2,196.2,212.3,196,213.2z M200.7,225.1c-1.4-1.2-0.8-4.5-0.9-7.1c-0.6-1.2-2.3-0.2-2.4-0.9c0-1.1,0-2.2,0-3.3 c1,0.4,0.6,2.2,1.9,2.4c2.7-1.9-0.6-6.8-1.9-9c9.8-8.8,7.4-29.8,10.9-44.9c-0.5-1.7,2.1-0.4,1.9-1.9c-5.4-3.7-10.5-7.8-18-9.5 c5.3-3.8,13.1-5.2,17-10.4c6.7,4.5,5.8,16.6,10.9,22.7C213.7,183.8,207.9,205,200.7,225.1z"></path> <path d="M135.7,69.4c2,0.4,4.1,0,5.8-1.1c3.7-2.5,4.3-7.3,4.4-12.1l0.1-3.8c2.7-0.9,4.9-2.9,6-5.5c1-2.6,0.7-5.5-0.6-7.6 c-1-1.6-2.8-2.8-4.8-3l0.2-6.7c0-0.3,0-0.5,0-0.8c0.5-0.5,0.9-0.9,1.4-1.4c4.2-4.5,6.9-10.7,7.3-16.9c0.1-2.5-0.7-4.3-2.4-4.8 c-1.7-0.4-3.3,0.6-4.6,2.8c-3.2,6.1-3.6,13.1-3.8,19.4c-0.7,0.7-1.5,1.3-2.2,1.9c-1.5,1.3-3,2.6-4.4,4.1c-1.9,2.1-5,6.3-4.2,11.2 c0.6,4,4.3,7.4,8.3,7.8c0.6,0.1,1.3,0.1,1.9,0l-0.1,3.4c-0.1,4.4-0.6,8.7-3.6,10.7c-2,1.4-5.1,1.2-6.9-0.5 c-1.8-1.7-2.4-4.6-1.3-6.8c0.2-0.4,0-1-0.4-1.3c-0.4-0.2-1,0-1.3,0.4c-1.5,2.9-0.8,6.9,1.7,9C133.3,68.6,134.5,69.2,135.7,69.4z M150.4,9.4c0.5-0.9,1.4-2,2.2-1.9l0,0c0.8,0.2,1.1,1.7,1,2.9c-0.4,5.8-2.9,11.5-6.8,15.7C147.1,20.5,147.7,14.5,150.4,9.4z M146.5,38.1c1.4,0.3,2.7,1.1,3.5,2.3c1.1,1.6,1.3,3.9,0.5,5.9c-0.7,1.9-2.4,3.4-4.2,4.2L146.5,38.1z M142.7,51.1 c-3.3-0.3-6.1-3.1-6.7-6.3c-0.7-4.1,2.1-7.8,3.8-9.6c1.2-1.4,2.8-2.7,4.2-3.9c0.3-0.2,0.6-0.5,0.9-0.8l-0.1,5.8c0,0-0.1,0-0.2,0 c-2.8,0.6-5,3.2-4.7,6.1c0,0.5,0.5,0.9,1,0.8c0.5,0,0.9-0.5,0.8-1c-0.1-1.8,1.2-3.6,3.1-4L144.5,51 C143.8,51.1,143.2,51.1,142.7,51.1z"></path> <path d="M80,63.3l4.8,2.7c0.2,0.1,0.4,0.2,0.5,0.2c0.4,0,0.9-0.2,1-0.6c0.3-0.5,0.1-1.3-0.5-1.6L81,61.2c-0.5-0.3-1.3-0.1-1.6,0.5 C79.2,62.2,79.4,62.9,80,63.3z"></path> <path d="M87.2,60c0.2,0.4,0.6,0.6,1,0.6c0.2,0,0.4-0.1,0.5-0.2c0.5-0.3,0.7-1,0.5-1.6L87,54.9c-0.3-0.5-1-0.7-1.6-0.5 c-0.5,0.3-0.7,1-0.5,1.6L87.2,60z"></path> <path d="M93,56.7c0.1,0,0.2,0,0.2,0c0.6-0.1,1.1-0.7,1-1.3l-0.4-2.7c-0.1-0.6-0.7-1.1-1.3-1c-0.6,0.1-1.1,0.7-1,1.3l0.4,2.7 C91.9,56.2,92.4,56.7,93,56.7z"></path> <path d="M93.3,92.1c0.1,0,0.3,0,0.4,0c3,0.2,5-1.4,5.2-4.4c0.1-0.9,0.1-1.8,0-2.6c-0.3-2.3-0.6-4.6-1-6.8c-0.4-2.5-0.7-4.8-1.1-7.2 c0-0.4-0.1-0.9-0.1-1.4c-0.2-0.4,0.1-0.7,0.5-0.7c0.4-0.1,0.7-0.2,1.1-0.3c5.3-1.1,10.5-2,15.7-3.4c0.4-0.2,0.6,0,0.9,0.5 c0.7,2.3,1.4,4.6,2.1,6.8c0.5,1.6,0.5,1.6-1.1,2.3c-1.6,0.7-3,1.8-4.1,3.3c-1.4,1.8-1.6,3.9-0.7,6.2c0.6,1.6,1.7,2.5,3.4,2.6 c2.5,0,4.3-1.3,5.1-3.2c0.4-1,0.6-1.9,0.6-2.9c0-0.2,0-0.5-0.3-0.6c-0.3-3.6-0.7-7.2-1.9-10.8c-0.7-2.3-1.4-4.8-2.1-7.4 c-0.1-0.4-0.2-0.7-0.4-1.1c-0.4-1.1-0.9-1.4-2-1.1c-2.7,0.5-5.6,0.7-8.5,1.4c-2.7,0.5-5.4,1.2-8,1.9c-0.5,0.2-1,0.4-1.4,0.6 c-0.7,0.4-1.1,1-1.1,1.8c0,1.1,0,2.1,0.1,3.2c0.4,2.8,0.9,5.5,1.2,8.4c0.1,1,0.3,1.9,0.4,2.9c-0.6,0.9-1.7,1-2.5,1.4 c-1.8,1-3.3,2.5-4,4.4C88.2,88.8,90,91.8,93.3,92.1z M117.2,82.9c-0.2,0.5-0.5,0.7-0.9,1.1c-1.4,1.1-3,0.4-3.4-1.4 c-0.2-1.2,0.1-2.2,0.8-3.3c1.1-1.5,2.1-2.3,4-2.7C118.2,78.7,118,80.7,117.2,82.9z M97.3,64.7c3.4-0.3,6.6-1.5,10-2.1 c1.8-0.3,3.6-0.7,5.4-1.1c0.2-0.1,0.4-0.1,0.6-0.1c0.3,0,0.7,0,0.7,0.4c0.2,0.3-0.2,0.7-0.6,0.7c-4.5,1-8.8,2.6-13.3,3.4 c-1.1,0.2-2.1,0.4-2.9,0.6c-0.6,0-0.7-0.2-0.7-0.5C96.2,65.3,96.5,64.8,97.3,64.7z M92,85.9c0.1-0.2,0.2-0.5,0.5-0.9 c0.9-1.2,2.1-2.1,3.4-2.8c0.5-0.3,0.9-0.2,1,0.5c0.2,1.1,0.2,2.3,0.5,3.4h-0.1c0,0.4,0,0.7,0.2,1.3c-0.2,1.6-1.1,2.3-2.6,2.5 C92.4,90,91.2,88.1,92,85.9z"></path> </g> </svg>