<svg xmlns="http://www.w3.org/2000/svg" xmlns:xlink="http://www.w3.org/1999/xlink" id="copasdiseno12" x="0px" y="0px" viewBox="0 0 160 250" style="enable-background:new 0 0 160 250;" xml:space="preserve"> <style type="text/css"> .st0{fill:none;} </style> <g> <path class="st0" d="M53.4,38.24c-0.05,0.38-0.43,0.57-0.83,0.57c-0.18,0-0.31-0.09-0.41-0.2c-0.01,0.06-0.01,0.13-0.01,0.2 c0,0.43,0.43,0.85,1.06,0.85c0.43,0,0.85-0.21,0.85-0.85c0-0.21-0.21-0.43-0.21-0.64c-0.21-0.21-0.22-0.02-0.41,0 C53.42,38.2,53.41,38.22,53.4,38.24z"></path> <path class="st0" d="M62.35,16.41c0.34,0.16,0.8,0.2,1.07,0.07c0,0.39-0.19,0.6-0.55,0.8c0.18,0.05,0.38,0.05,0.55,0.05 c0.43-0.21,0.85-0.43,0.85-0.85c0.21-0.43-0.21-1.28-0.85-1.7c-0.31-0.21-0.62-0.31-0.9-0.34c-0.12,0.03-0.25,0.06-0.37,0.13 L62.35,16.41z"></path> <path class="st0" d="M42.78,28.39c-0.21,0.21-0.21,0.64-0.21,1.06c0.21,0.43,0.43,0.85,0.85,1.06c0.85,0.64,1.92,0,2.34-0.85 c0.43-1.06,0-2.13-0.85-2.55c-0.43-0.21-1.06,0-1.49,0.21c-0.21,0.1-0.41,0.26-0.55,0.44C42.94,28.05,42.9,28.26,42.78,28.39z"></path> <path class="st0" d="M33.2,40.09c0.43-0.21,0.85-0.64,1.06-1.28c0.21-0.43,0-1.06-0.43-1.28c-0.38-0.5-0.98-0.7-1.63-0.7 c0.09,0.16,0.14,0.34,0.14,0.49c-0.64,0.21-1.06,0.43-1.49,0.43c-0.21,0-0.64,0.21-0.64,0.64c-0.21,0.43,0,0.85,0.21,1.28 C30.86,40.52,32.35,40.52,33.2,40.09z"></path> <path class="st0" d="M35.54,231.63c-2.35-1.26-4.85-2.06-7.5-2.41c0.47,1.6,1.12,3.12,1.96,4.54c0.21,0.43,0,1.06-0.43,1.28 c-0.43,0.21-0.85,0.21-1.06-0.21l-0.21-0.21c-1.92-2.13-2.98-4.68-4.04-7.45c-0.79-2.57-1.2-5.13-1.43-7.52 c-0.37,2.42-0.77,4.84-1.33,7.26c0.23,0.23,0.33,0.53,0.2,0.9c-0.11,0.23-0.29,0.39-0.52,0.49c-0.53,2.31-1.07,4.6-1.6,6.74 c-0.21,0.43-0.64,0.64-1.06,0.64c-0.43-0.21-0.64-0.43-0.64-0.85v-0.21c0.24-2.06,0.44-4.11,0.63-6.16 c-2.54,0.03-5.06,0.2-7.44,1.05c-1.49,0.43-2.77,1.28-3.83,2.34c-0.64,0.43-1.06,1.06-1.49,1.7c-0.21,0.64-0.21,1.06,0,1.7 c3.41,5.11,9.36,8.73,15.75,9.36c3.19,0.21,6.38-0.21,9.36-1.06c1.49-0.43,2.98-1.06,4.47-1.92c1.28-0.64,2.77-1.7,3.41-2.77 c0.85-1.28,0.64-2.77,0-4.04C37.88,233.54,36.82,232.48,35.54,231.63z"></path> <path class="st0" d="M61.93,17.54c0.21,0,0.43,0,0.85-0.21c0.03-0.02,0.06-0.04,0.09-0.05c-0.28-0.08-0.52-0.28-0.52-0.8 l-0.01-0.07c-0.19-0.09-0.34-0.21-0.42-0.36c-0.21-0.43-0.21-1.06,0.21-1.49c-0.85,0.43-1.28,1.06-1.28,1.49 c-0.04,0.11-0.06,0.22-0.09,0.32c0.02,0.1,0.05,0.21,0.09,0.32C60.87,17.32,61.29,17.54,61.93,17.54z"></path> <path class="st0" d="M83.21,11.36c-0.06,0.06-0.13,0.08-0.2,0.08c0.03,0.37,0.23,0.54,0.63,0.35c0.43,0,0.64-0.64,0.21-1.49 c0,0,0,0,0,0v0C84.06,10.94,83.42,11.15,83.21,11.36z"></path> <path class="st0" d="M25.41,52.4c0.04,0.01,0.09,0.02,0.12,0.04c0.16,0.16,0.24,0.35,0.3,0.55c0.25,0.26,0.54,0.49,0.77,0.72 c2.34,1.7,5.32,2.98,8.51,3.41c2.98,0.43,6.17,0.64,9.36,0.43c3.19-0.21,6.17-0.43,9.15-1.28c1.22-0.35,2.42-0.71,3.41-1.29 c0-0.21-0.01-0.41-0.01-0.62v-0.21c0-0.64,0.43-1.06,1.06-1.06c0.03,0.01,0.05,0.02,0.08,0.02c-0.28-0.36-0.78-0.72-1.14-1.09 c-2.66-1.43-5.53-2.27-8.59-2.91c-0.12,0.01-0.24-0.02-0.35-0.07c-5.75-1.49-12.34-1.28-18.3,0c-1.49,0.43-2.98,0.85-4.04,1.7 c-0.43,0.43-0.64,0.85-0.43,1.49C25.35,52.29,25.39,52.34,25.41,52.4z"></path> <path class="st0" d="M83.78,9.76c-0.03,0.05-0.07,0.1-0.1,0.15c0.05,0.09,0.11,0.21,0.17,0.38L83.78,9.76z"></path> <path class="st0" d="M68.95,4.98c0.22,0,0.44,0,0.66-0.09c0.05-0.34,0.36-0.67,0.84-0.88l0.1-0.15c-0.14-0.09-0.31-0.16-0.54-0.16 c-1.06,0-1.7,0.43-1.7,0.85C68.31,4.77,68.53,4.98,68.95,4.98z"></path> <path class="st0" d="M83.01,11.44c0-0.03-0.01-0.05-0.01-0.08c0-0.37,0.32-0.9,0.68-1.45c-0.14-0.25-0.26-0.25-0.26-0.25 c-0.21,0-0.21,0-0.43,0.21c-0.21,0.21-0.43,0.43-0.43,1.06C82.57,11.25,82.8,11.45,83.01,11.44z"></path> <path class="st0" d="M69.61,4.89c0,0.03-0.02,0.06-0.02,0.09c-0.21,0.43,0,0.64,0.21,0.85c0.43,0.21,0.85-0.43,1.06-0.85 c0.21-0.43,0-0.85,0-0.85c-0.07-0.07-0.15-0.14-0.23-0.21c-0.07,0.02-0.12,0.06-0.19,0.08l-0.22,0.33 C70.02,4.65,69.82,4.81,69.61,4.89z"></path> <path class="st0" d="M99.62,48.32c0.12,0.07,0.19,0.07,0.19,0.07S99.73,48.36,99.62,48.32z"></path> <path class="st0" d="M104.92,61.59c-0.85-4.09-2.12-8.18-3.46-12.28c-1.91,2.52-4.44,4.41-7.39,5.68 c-2.77,1.49-5.75,2.55-8.73,3.41s-6.17,1.49-9.15,1.49c-1.36,0-2.9-0.02-4.46-0.34c1.77,4.69,3.56,9.22,5.52,13.75 c1.06,2.34,2.13,4.89,3.19,7.24s2.34,4.47,3.83,6.6c2.98,4.26,5.96,8.3,9.79,11.28c1.92,1.49,3.83,2.98,5.75,3.83 c1.92,0.85,4.04,1.06,5.11,0.64c0.64-0.21,1.06-0.43,1.49-1.06c0.43-0.43,0.85-1.28,1.06-2.34c0.64-1.92,0.85-4.68,1.06-7.02 c0.43-4.89,0-10.22-0.64-15.32C107.26,72.02,106.2,66.7,104.92,61.59z"></path> <path class="st0" d="M66.19,31.16c2.77-0.21,5.75-0.64,8.51-1.49c2.77-0.64,5.75-1.49,8.09-2.77c1.28-0.64,2.55-1.28,3.41-1.92 c0.43-0.21,1.06-0.85,1.49-1.28c0.06-0.06,0.13-0.13,0.19-0.19c-0.28-0.02-0.55-0.02-0.83-0.02c-2.77-0.21-5.75,0-8.73,0.21 c-2.67,0.19-5.51,0.73-8.06,1.3c-0.06,0.08-0.13,0.14-0.24,0.19l-0.21,0.21l-3.62,2.98c-0.96,0.96-1.92,1.93-2.72,2.89 C64.21,31.35,65.25,31.31,66.19,31.16z"></path> <path class="st0" d="M76.19,56.27c2.77-0.43,5.53-1.06,8.3-1.92s5.53-1.92,7.87-3.19c1.28-0.64,2.34-1.28,3.19-1.92 c0.42-0.21,0.84-0.84,1.47-1.26c-0.07,0-0.13-0.01-0.2-0.01c-2.77,0-5.75,0.21-8.73,0.64c-2.98,0.43-5.96,1.06-8.73,1.92h-0.21 c-0.18,0.06-0.34,0.07-0.48,0.04l-3.14,2.94c-0.92,0.92-1.84,1.84-2.35,2.77C73.95,56.27,75.14,56.27,76.19,56.27z"></path> <path class="st0" d="M152.38,195.45c-0.85-0.64-2.13-1.28-3.41-1.49c-2.26-0.69-4.66-0.68-7.32-0.53c0.91,1.53,1.88,3.05,2.85,4.58 c0.21,0.43,0.21,1.06-0.21,1.28c-0.43,0.21-0.85,0.21-1.06-0.21l-0.21-0.21c-4.04-4.04-7.24-8.94-9.79-14.05 c-0.06-0.12-0.12-0.25-0.18-0.37c0.06,0.2,0.13,0.38,0.18,0.58c0.64,2.55,1.28,5.11,1.49,7.66c0.03,0.35,0.05,0.7,0.07,1.05 c0.08,0.11,0.14,0.26,0.14,0.44c0.14,0.29,0.08,0.57-0.1,0.79c0.04,1.87-0.09,3.79-0.54,5.6c0,0.43-0.64,0.85-1.06,0.64 c-0.43,0-0.64-0.43-0.64-0.85v-0.21c0-1.25,0-2.49-0.2-3.54c-1.94,1.29-3.61,2.82-4.91,4.6c-0.85,1.06-1.28,2.34-1.49,3.19 c0,1.06,0.21,1.06,0.64,1.49c0.85,0.64,4.47,1.28,7.02,1.28c2.77,0,5.53-0.43,8.09-1.28s4.89-2.34,6.81-4.04 c1.06-0.85,1.92-1.92,2.77-2.98c0.43-0.64,0.85-1.06,1.06-1.7c0.21-0.21,0.43-0.64,0.43-0.85l0.27-0.41 C152.9,195.72,152.66,195.54,152.38,195.45z"></path> <path class="st0" d="M20.86,72.44c1.28-0.85,2.34-1.28,3.19-1.49c1.06-0.21,1.92-0.43,2.77-0.43c3.41-0.43,6.6-0.21,10,0.21 c1.7,0.21,3.19,0.64,4.68,0.85c1.49,0.43,3.19,0.85,4.68,1.7h0.21c0.12,0.06,0.22,0.16,0.3,0.28l1.62,0.15l2.34,0.43 c1.49,0.43,3.19,0.85,4.89,1.7c0.43,0.21,0.85,0.43,1.28,1.06c0.12,0.12,0.24,0.24,0.36,0.36c0.06-2.57,0.06-5.16,0.06-7.81 c0-3.68-0.11-7.26-0.17-10.88c-0.16,0.08-0.31,0.16-0.47,0.24c-0.85,0.43-1.7,0.64-2.55,1.06c-6.6,2.13-13.19,2.34-20.22,1.49 c-1.7-0.43-3.41-0.85-5.32-1.49c-0.85-0.43-1.7-0.85-2.55-1.28c-0.58-0.29-1.15-0.59-1.73-1.01c-1.2,3.14-2.19,6.38-2.95,9.73 c-0.42,1.87-0.77,3.73-1.09,5.6C20.42,72.74,20.65,72.58,20.86,72.44z"></path> <path class="st0" d="M153.44,196.3c0,0-0.04-0.06-0.12-0.15C153.38,196.24,153.44,196.3,153.44,196.3z"></path> <path class="st0" d="M24.05,78.83c2.34,1.92,5.11,3.19,8.09,3.83c5.96,1.28,12.34,1.28,18.09,0c1.49-0.43,2.98-0.85,4.04-1.49 c0.64-0.43,0.85-0.85,0.64-1.28c-0.21-0.43-0.64-1.06-1.28-1.49c-2.34-1.49-5.32-2.34-8.3-2.98c-5.53-1.7-12.13-1.92-17.88-0.85 c-1.49,0.21-2.98,0.64-4.04,1.49c-0.03,0.03-0.06,0.07-0.1,0.1c0.06,0.19,0.1,0.38,0.1,0.54c-0.09,0.45-0.16,0.9-0.25,1.35 C23.39,78.33,23.68,78.58,24.05,78.83z"></path> <path class="st0" d="M18.09,92.23c0.6-3.92,1.21-7.73,2.12-11.51c-0.33-0.36-0.66-0.79-0.99-1.36c-0.09,0.67-0.19,1.34-0.28,2.02 c-0.84,7.54-1.8,14.96-1.55,22.44C17.42,99.96,17.64,96.1,18.09,92.23z"></path> <path class="st0" d="M50.23,112.66c1.59-4.38,2.98-8.92,4.03-13.15c0.08-0.93,0.16-1.87,0.23-2.81c0.33-4.09,0.53-8.19,0.6-12.28 c-0.51,0.31-0.98,0.55-1.45,0.79c-0.85,0.43-1.7,0.64-2.55,0.85c-6.6,1.7-13.19,1.7-20,0.43c-1.7-0.43-3.41-0.85-5.11-1.7 c-0.85-0.43-1.7-0.85-2.34-1.28c-0.45-0.22-0.84-0.51-1.23-0.82c-0.48,3.26-0.84,6.54-1.11,9.97c-0.43,5.32-0.21,10.64,0,15.96 c0.43,5.32,1.06,10.64,2.77,15.75c0.85,2.55,1.7,5.11,2.98,7.24c1.28,2.34,3.41,4.04,5.96,4.26c2.55,0.21,5.11-1.06,7.02-2.77 c1.41-1.25,2.82-2.62,4.06-4.19c0.36-0.8,0.72-1.59,1.05-2.4C47.03,122.03,48.74,117.35,50.23,112.66z"></path> <path d="M59.81,56.49c0.07-0.08,0.14-0.15,0.21-0.22c0.21-0.21,0.43-0.64,0.64-1.06c0.21-0.64,0.43-1.06,0.43-1.7 c0-0.64,0-1.28-0.21-1.7c-0.21-0.43-0.43-0.64-0.64-1.06c-0.21-0.21-0.43-0.43-0.64-0.64c-0.43-0.43-0.85-0.64-1.28-0.85 c-1.92-0.85-3.41-1.06-5.11-1.49l-2.34-0.43l-2.23-0.2c-0.12-0.19-0.29-0.35-0.54-0.44h-0.21c-1.7-0.85-3.19-1.28-4.89-1.49 s-3.19-0.43-4.89-0.64c-1.05-0.07-2.12-0.11-3.21-0.12c0.22-0.09,0.44-0.19,0.66-0.3c1.28-0.85,2.13-1.7,2.77-3.62 c0.21-1.06,0.21-2.13,0-2.98s-0.64-1.7-1.28-2.13c-0.43-0.43-1.06-0.85-1.7-1.06c-0.85-0.21-1.28-0.21-1.92-0.21 c-1.06,0.21-1.92,0.64-2.55,1.28l-0.63,0.63c-1.4-0.09-2.58,0.92-2.99,2.14c-0.64,1.28-0.64,2.77,0.21,4.26 c0.77,1.08,1.77,1.82,2.83,2.23c-0.73,0.08-1.46,0.18-2.19,0.32c-0.85,0.21-1.7,0.21-2.77,0.64c-1.06,0.43-1.92,0.64-3.19,1.7 c-0.43,0.64-1.28,1.28-1.7,2.55c-0.21,0.43-0.21,1.28-0.21,1.92s0.21,1.28,0.43,1.7c0.67,1.33,1.25,2,1.8,2.52 c-1.7,3.43-2.99,7.05-4.14,10.67c-1.28,4.68-2.34,9.36-2.98,14.26s-1.28,9.58-1.7,14.47c-0.43,4.89-0.43,10,0.21,14.9 c0.64,4.89,1.49,9.79,2.77,14.47c1.06,4.68,2.34,9.36,3.83,13.83c2.77,8.94,5.32,18.09,6.17,27.45v0.21c0,0.43,0.43,0.85,0.85,0.85 c0.43,0,0.85-0.43,0.85-0.85c0-4.89-0.43-9.79-1.28-14.47s-1.92-9.36-2.98-14.05c-0.43-1.67-0.86-3.36-1.3-5.05 c0.21,0.4,0.42,0.8,0.66,1.22c0.85,1.28,2.13,2.77,3.62,4.04c1.49,1.06,3.62,1.92,5.75,2.13c2.13,0.21,4.04-0.43,5.75-1.06 c0.31-0.13,0.61-0.28,0.92-0.43c-0.23,0.5-0.47,0.98-0.7,1.49c-2.13,4.68-4.47,9.36-6.17,14.26c-1.49,5.11-2.98,10.22-3.19,15.32 v0.21c0,0.43,0.43,0.85,0.85,0.85c0.43,0.21,1.06-0.21,1.06-0.64c0.85-4.89,2.34-9.58,4.26-14.26c2.13-4.68,4.47-9.15,6.81-13.62 c2.11-4.03,4.21-8.06,6.16-12.24c0.07-0.11,0.15-0.21,0.22-0.32c3.19-4.89,5.32-10.22,6.6-15.75c0.33-1.43,0.66-2.86,0.93-4.29 c1.06-3.32,2.04-6.64,2.9-9.97c1.06-4.89,1.7-10,1.92-15.11c0.21-5.11,0.21-10.22-0.21-15.32C60.69,64.93,60.21,60.76,59.81,56.49z M30.22,38.39c0-0.43,0.43-0.64,0.64-0.64c0.43,0,0.85-0.21,1.49-0.43c0-0.15-0.05-0.32-0.14-0.49c0.65,0,1.25,0.2,1.63,0.7 c0.43,0.21,0.64,0.85,0.43,1.28c-0.21,0.64-0.64,1.06-1.06,1.28c-0.85,0.43-2.34,0.43-2.77-0.43 C30.22,39.24,30.01,38.82,30.22,38.39z M25.75,50.73c1.06-0.85,2.55-1.28,4.04-1.7c5.96-1.28,12.56-1.49,18.3,0 c0.11,0.06,0.24,0.08,0.35,0.07c3.06,0.63,5.92,1.47,8.59,2.91c0.36,0.36,0.86,0.72,1.14,1.09c-0.03-0.01-0.05-0.02-0.08-0.02 c-0.64,0-1.06,0.43-1.06,1.06v0.21c0,0.21,0,0.41,0.01,0.62c-0.99,0.58-2.19,0.94-3.41,1.29c-2.98,0.85-5.96,1.06-9.15,1.28 c-3.19,0.21-6.38,0-9.36-0.43c-3.19-0.43-6.17-1.7-8.51-3.41c-0.23-0.23-0.52-0.46-0.77-0.72c-0.05-0.2-0.13-0.39-0.3-0.55 c-0.04-0.02-0.08-0.03-0.12-0.04c-0.03-0.06-0.07-0.11-0.09-0.17C25.11,51.59,25.33,51.16,25.75,50.73z M24.23,57.6 c0.58,0.42,1.15,0.72,1.73,1.01c0.85,0.43,1.7,0.85,2.55,1.28c1.92,0.64,3.62,1.06,5.32,1.49c7.02,0.85,13.62,0.64,20.22-1.49 c0.85-0.43,1.7-0.64,2.55-1.06c0.15-0.08,0.31-0.16,0.47-0.24c0.06,3.62,0.17,7.2,0.17,10.88c0,2.65,0,5.24-0.06,7.81 c-0.12-0.12-0.24-0.24-0.36-0.36c-0.43-0.64-0.85-0.85-1.28-1.06c-1.7-0.85-3.41-1.28-4.89-1.7l-2.34-0.43l-1.62-0.15 c-0.08-0.12-0.18-0.22-0.3-0.28h-0.21c-1.49-0.85-3.19-1.28-4.68-1.7c-1.49-0.21-2.98-0.64-4.68-0.85c-3.41-0.43-6.6-0.64-10-0.21 c-0.85,0-1.7,0.21-2.77,0.43c-0.85,0.21-1.92,0.64-3.19,1.49c-0.2,0.14-0.43,0.3-0.66,0.49c0.32-1.87,0.66-3.73,1.09-5.6 C22.04,63.98,23.04,60.74,24.23,57.6z M23.31,76.16c0.03-0.03,0.06-0.07,0.1-0.1c1.06-0.85,2.55-1.28,4.04-1.49 c5.75-1.06,12.34-0.85,17.88,0.85c2.98,0.64,5.96,1.49,8.3,2.98c0.64,0.43,1.06,1.06,1.28,1.49c0.21,0.43,0,0.85-0.64,1.28 c-1.06,0.64-2.55,1.06-4.04,1.49c-5.75,1.28-12.13,1.28-18.09,0c-2.98-0.64-5.75-1.92-8.09-3.83c-0.37-0.25-0.66-0.5-0.88-0.78 c0.08-0.45,0.15-0.89,0.25-1.35C23.41,76.54,23.37,76.35,23.31,76.16z M18.94,81.38c0.09-0.67,0.19-1.34,0.28-2.02 c0.33,0.57,0.66,1,0.99,1.36c-0.9,3.78-1.51,7.59-2.12,11.51c-0.45,3.86-0.67,7.73-0.7,11.59C17.14,96.34,18.1,88.92,18.94,81.38z M40.01,133.09c-1.92,1.7-4.47,2.98-7.02,2.77c-2.55-0.21-4.68-1.92-5.96-4.26c-1.28-2.13-2.13-4.68-2.98-7.24 c-1.7-5.11-2.34-10.43-2.77-15.75c-0.21-5.32-0.43-10.64,0-15.96c0.26-3.44,0.63-6.71,1.11-9.97c0.39,0.31,0.78,0.6,1.23,0.82 c0.64,0.43,1.49,0.85,2.34,1.28c1.7,0.85,3.41,1.28,5.11,1.7c6.81,1.28,13.41,1.28,20-0.43c0.85-0.21,1.7-0.43,2.55-0.85 c0.47-0.24,0.95-0.48,1.45-0.79c-0.08,4.09-0.27,8.19-0.6,12.28c-0.07,0.94-0.15,1.88-0.23,2.81c-1.05,4.23-2.44,8.77-4.03,13.15 c-1.49,4.68-3.19,9.36-5.11,13.83c-0.33,0.82-0.69,1.61-1.05,2.4C42.83,130.47,41.42,131.84,40.01,133.09z"></path> <path d="M37.24,229.07c-3.15-1.38-6.49-2.02-9.67-1.77c-0.04-0.19-0.09-0.38-0.12-0.57c-0.43-2.55-0.64-5.11-0.64-7.66 c0-5.11,0.64-10.22,1.06-15.32l1.7-15.32l0.85-7.66l1.06-7.66c0-0.43-0.21-1.06-1.06-0.85c-0.43-0.21-1.06,0-1.28,0.64v0.21 c-0.97,3.2-1.84,6.49-2.57,9.81l0.44-5.76l1.06-8.3c0-0.43-0.21-0.85-0.85-0.85c-0.43-0.21-1.06,0-1.28,0.64v0.21 c-1.7,5.32-2.77,10.85-3.62,16.39c-0.85,5.53-1.49,11.07-1.92,16.6l-1.06,16.39c-0.21,2.63-0.42,5.31-0.66,8.02 c-2.77-0.32-5.56-0.19-8.49,0.5c-1.92,0.43-3.62,1.28-5.32,2.55c-0.85,0.64-1.49,1.06-2.34,2.55c-0.43,0.64-0.64,1.7-0.64,2.77 c0,1.06,0.43,1.92,0.64,2.55c0.21,0.64,0.64,1.06,0.85,1.49c0.21,0.21,0.64,0.64,0.85,1.06c0.64,0.85,1.28,1.49,1.92,2.13 c1.28,1.28,2.77,2.34,4.47,3.41c3.19,2.13,6.81,3.19,10.64,3.62c3.83,0.43,7.66-0.21,11.07-1.28c1.92-0.64,3.62-1.49,5.11-2.34 c1.7-0.85,3.62-2.13,4.89-4.47c0.64-1.06,0.85-2.55,0.85-4.04c-0.21-1.49-0.64-2.55-1.28-3.62 C40.65,231.2,38.95,229.93,37.24,229.07z M38.73,238.86c-0.64,1.06-2.13,2.13-3.41,2.77c-1.49,0.85-2.98,1.49-4.47,1.92 c-2.98,0.85-6.17,1.28-9.36,1.06c-6.38-0.64-12.34-4.26-15.75-9.36c-0.21-0.64-0.21-1.06,0-1.7c0.43-0.64,0.85-1.28,1.49-1.7 c1.06-1.06,2.34-1.92,3.83-2.34c2.38-0.85,4.9-1.02,7.44-1.05c-0.19,2.05-0.39,4.1-0.63,6.16v0.21c0,0.43,0.21,0.64,0.64,0.85 c0.43,0,0.85-0.21,1.06-0.64c0.53-2.14,1.07-4.43,1.6-6.74c0.23-0.11,0.41-0.27,0.52-0.49c0.12-0.37,0.03-0.67-0.2-0.9 c0.56-2.42,0.95-4.84,1.33-7.26c0.23,2.4,0.64,4.96,1.43,7.52c1.06,2.77,2.13,5.32,4.04,7.45l0.21,0.21 c0.21,0.43,0.64,0.43,1.06,0.21c0.43-0.21,0.64-0.85,0.43-1.28c-0.85-1.41-1.49-2.93-1.96-4.54c2.65,0.35,5.15,1.14,7.5,2.41 c1.28,0.85,2.34,1.92,3.19,3.19C39.37,236.1,39.58,237.59,38.73,238.86z"></path> <path d="M41.5,33.92c1.28,0.85,3.19,1.06,4.89,0.43c1.49-0.64,2.55-1.92,3.19-3.19c0.43-1.28,0.64-2.77,0-4.47 c-0.64-1.7-2.13-2.98-3.62-3.19c-1.28-0.21-2.55,0.21-3.62,0.85c-1.03,0.62-1.66,1.84-1.5,2.88l-0.42,0.31 c-0.85,0.64-1.28,1.92-1.06,3.19C39.58,31.79,40.22,33.07,41.5,33.92z M43.42,27.33c0.43-0.21,1.06-0.43,1.49-0.21 c0.85,0.43,1.28,1.49,0.85,2.55c-0.43,0.85-1.49,1.49-2.34,0.85c-0.43-0.21-0.64-0.64-0.85-1.06c0-0.43,0-0.85,0.21-1.06 c0.13-0.13,0.16-0.34,0.09-0.63C43,27.58,43.21,27.43,43.42,27.33z"></path> <path d="M48.52,39.46c0.43,2.77,2.34,4.04,4.47,4.26c1.06,0,2.34-0.21,3.41-1.28c1.06-0.85,1.49-2.55,1.28-3.62 c-0.21-1.28-0.85-1.92-1.7-2.55s-2.13-0.64-2.77,0l-0.01,0.01c-0.11-0.09-0.25-0.16-0.42-0.22c-0.21-0.43-1.06-0.64-1.7-0.43 s-1.06,0.43-1.49,0.85C48.95,37.11,48.31,38.18,48.52,39.46z M53.84,38.18c0,0.21,0.21,0.43,0.21,0.64c0,0.64-0.43,0.85-0.85,0.85 c-0.64,0-1.06-0.43-1.06-0.85c0-0.07,0-0.14,0.01-0.2c0.1,0.12,0.24,0.2,0.41,0.2c0.4,0,0.79-0.2,0.83-0.57 c0.01-0.02,0.02-0.05,0.03-0.07C53.63,38.16,53.64,37.97,53.84,38.18z"></path> <path d="M116.84,139.27c0.43-0.21,0.64-0.85,0.43-1.28c-2.34-4.68-5.11-8.94-8.3-12.98c-3.19-4.04-6.6-7.87-10-11.49 c-3.41-3.62-6.81-7.45-10-11.28c-3.19-3.83-5.96-8.09-8.73-12.34c-2.77-4.26-5.32-8.51-7.66-12.98c-2.13-4.47-4.04-9.15-5.32-14.05 c-1.28-4.68-2.34-9.79-3.19-14.68c-0.74-4.46-1.17-8.77-1.69-13.18c1.28,0.41,2.48,0.42,3.82,0.42c3.41,0,6.38-0.43,9.58-1.06 s6.17-1.7,9.15-2.98c2.98-1.28,5.75-2.98,7.87-5.53c0.06-0.06,0.11-0.12,0.16-0.18c3.54,6.14,6.07,12.5,8.35,19.02 c-0.07-0.04-0.14-0.07-0.21-0.11c-1.7-0.85-3.41-0.64-4.89-0.64c-3.19,0-6.38,0.64-9.36,1.49c-2.98,0.64-5.96,1.49-8.94,3.19 c-0.07,0.03-0.13,0.08-0.18,0.14c-2.49,1.86-4.98,3.54-7.27,6.04c-0.43,0.64-1.06,1.28-1.06,2.34c0,0.21,0.21,0.64,0.21,0.85 c0,0.02,0.01,0.05,0.02,0.07c-0.08,0.19-0.1,0.39-0.02,0.57c1.28,5.32,2.98,10.43,4.89,15.54c1.06,2.55,1.92,5.11,2.98,7.66 c1.06,2.55,2.34,4.89,3.62,7.24c2.77,4.47,6.17,8.94,10.22,12.56c2.13,1.7,4.26,3.41,6.81,4.47c2.34,1.06,5.32,1.7,8.09,0.85 c1.28-0.43,2.55-1.28,3.41-2.34c0.85-1.28,1.49-2.55,1.92-3.83c0.14-0.44,0.25-0.87,0.35-1.3c0.09,2.11,0.19,4.24,0.28,6.41 c0.21,4.68,0.64,9.58,1.49,14.47c1.06,4.68,2.13,9.58,4.04,14.05v0.21c0.21,0.43,0.64,0.64,1.06,0.43c0.43,0,0.85-0.64,0.64-1.06 c-1.28-4.47-2.34-9.15-2.77-13.83c-0.43-4.68-0.64-9.58-0.64-14.26c0-9.58,0.21-19.15-1.06-28.73c-1.06-9.58-4.47-18.73-7.66-27.67 c-1.7-4.68-3.41-9.15-5.53-13.41c-1.92-4.47-4.26-8.73-7.24-12.56c-0.13-0.13-0.27-0.23-0.43-0.31c0-0.2,0-0.41,0-0.54 c0-0.43,0-0.64-0.21-0.85c-0.21-0.64-0.64-0.85-1.06-1.06c-1.7-0.85-3.19-0.85-4.89-0.85c-3.19,0-6.38,0.43-9.58,1.06 c-3.19,0.64-6.38,1.28-9.36,2.77c-0.34,0.21-0.68,0.42-1.01,0.63c-0.02,0-0.03,0.01-0.05,0.01c0,0.01,0,0.01,0.01,0.02 c-2.41,1.5-4.8,3.1-7.03,5.52c-0.43,0.64-1.06,1.28-1.28,2.34c-0.21,0.21,0,0.64,0,0.85c0.21,0.21,0.21,0.43,0.43,0.64 c0,0,0.01,0.01,0.01,0.01c0.03,4.89,0.43,9.78,0.84,14.67c0.43,5.11,1.28,10.22,2.55,15.32s2.98,10,5.32,14.9 c2.34,4.68,5.11,9.15,7.87,13.41c2.77,4.26,5.75,8.51,9.15,12.56c3.41,4.04,7.02,7.87,10.64,11.28c3.62,3.62,7.24,7.02,10.43,10.85 c3.41,3.62,6.17,7.66,8.94,11.92v0.21C115.99,139.27,116.41,139.48,116.84,139.27z M99.81,48.39c0,0-0.07-0.01-0.19-0.07 C99.73,48.36,99.81,48.39,99.81,48.39z M78.69,50.56c0.14,0.03,0.3,0.02,0.48-0.04h0.21c2.77-0.85,5.75-1.49,8.73-1.92 c2.98-0.43,5.96-0.64,8.73-0.64c0.07,0,0.13,0.01,0.2,0.01c-0.63,0.43-1.05,1.05-1.47,1.26c-0.85,0.64-1.92,1.28-3.19,1.92 c-2.34,1.28-5.11,2.34-7.87,3.19s-5.53,1.49-8.3,1.92c-1.05,0-2.24,0-2.99,0c0.51-0.92,1.43-1.84,2.35-2.77L78.69,50.56z M108.54,92.45c-0.21,2.34-0.43,5.11-1.06,7.02c-0.21,1.06-0.64,1.92-1.06,2.34c-0.43,0.64-0.85,0.85-1.49,1.06 c-1.06,0.43-3.19,0.21-5.11-0.64c-1.92-0.85-3.83-2.34-5.75-3.83c-3.83-2.98-6.81-7.02-9.79-11.28c-1.49-2.13-2.77-4.26-3.83-6.6 s-2.13-4.89-3.19-7.24c-1.97-4.52-3.75-9.06-5.52-13.75c1.56,0.33,3.1,0.34,4.46,0.34c2.98,0,6.17-0.64,9.15-1.49 s5.96-1.92,8.73-3.41c2.95-1.27,5.48-3.16,7.39-5.68c1.34,4.09,2.61,8.18,3.46,12.28c1.28,5.11,2.34,10.43,2.98,15.54 C108.54,82.23,108.96,87.55,108.54,92.45z M69.8,25.41l0.21-0.21c0.1-0.05,0.18-0.12,0.24-0.19c2.56-0.57,5.39-1.11,8.06-1.3 c2.98-0.21,5.96-0.43,8.73-0.21c0.28,0,0.55,0,0.83,0.02c-0.06,0.06-0.13,0.13-0.19,0.19c-0.43,0.43-1.06,1.06-1.49,1.28 c-0.85,0.64-2.13,1.28-3.41,1.92c-2.34,1.28-5.32,2.13-8.09,2.77c-2.77,0.85-5.75,1.28-8.51,1.49c-0.93,0.16-1.98,0.2-2.72,0.12 c0.81-0.96,1.76-1.93,2.72-2.89L69.8,25.41z"></path> <path d="M157.06,193.32c-0.64-0.85-1.49-1.28-2.13-1.7c-1.49-0.85-3.19-1.28-4.89-1.49c-3.37-0.63-6.75-0.01-9.91,0.62 c-1.24-2.28-2.47-4.75-3.5-7.22c-2.13-5.11-4.04-10.22-5.96-15.54l-5.11-15.96l-2.55-7.87l-2.34-8.09 c-0.21-0.43-0.64-0.64-1.28-0.85c-0.43,0.21-0.85,0.64-0.85,1.28v0.21c0.38,3.46,0.94,6.83,1.63,10.13l-1.85-5.88 c0-0.43-0.64-0.64-1.28-1.06c-0.43,0.21-0.85,0.64-0.85,1.28v0.43c0.85,5.32,1.92,10.43,3.19,15.32c1.28,4.89,2.98,9.79,4.68,14.68 l2.77,7.24c1.06,2.34,1.92,4.68,2.77,7.02c0.85,2.34,1.49,4.68,2.13,7.02c0.08,0.49,0.16,0.94,0.24,1.4 c-2.41,1.11-4.55,2.7-6.42,4.56c-1.06,1.28-2.13,2.77-2.55,4.47c-0.43,1.7,0,3.83,1.28,5.11c1.49,1.28,3.19,1.7,4.68,2.13 c1.7,0.43,3.19,0.64,4.89,0.64c3.41,0,6.6-0.43,9.79-1.49c6.17-2.13,11.49-7.02,13.83-13.41c0.21-0.43,0.21-0.85,0.21-1.49 C157.7,194.17,157.27,193.75,157.06,193.32z M152.38,197.15c-0.21,0.64-0.64,1.06-1.06,1.7c-0.85,1.06-1.7,2.13-2.77,2.98 c-1.92,1.7-4.26,3.19-6.81,4.04s-5.32,1.28-8.09,1.28c-2.55,0-6.17-0.64-7.02-1.28c-0.43-0.43-0.64-0.43-0.64-1.49 c0.21-0.85,0.64-2.13,1.49-3.19c1.3-1.78,2.96-3.32,4.91-4.6c0.2,1.05,0.2,2.29,0.2,3.54v0.21c0,0.43,0.21,0.85,0.64,0.85 c0.43,0.21,1.06-0.21,1.06-0.64c0.45-1.81,0.58-3.72,0.54-5.6c0.18-0.22,0.24-0.5,0.1-0.79c0-0.18-0.06-0.33-0.14-0.44 c-0.02-0.35-0.04-0.7-0.07-1.05c-0.21-2.55-0.85-5.11-1.49-7.66c-0.06-0.2-0.12-0.38-0.18-0.58c0.06,0.12,0.12,0.25,0.18,0.37 c2.55,5.11,5.75,10,9.79,14.05l0.21,0.21c0.21,0.43,0.64,0.43,1.06,0.21c0.43-0.21,0.43-0.85,0.21-1.28 c-0.97-1.53-1.94-3.05-2.85-4.58c2.66-0.14,5.06-0.16,7.32,0.53c1.28,0.21,2.55,0.85,3.41,1.49c0.28,0.09,0.52,0.27,0.7,0.44 l-0.27,0.41C152.8,196.51,152.59,196.94,152.38,197.15z M153.33,196.15c0.07,0.09,0.12,0.15,0.12,0.15S153.38,196.24,153.33,196.15 z"></path> <path d="M81.93,13.92c1.49,0.43,3.19,0,4.04-1.49c0.43-0.64,0.43-1.49,0.21-2.34c-0.21-0.85-0.85-1.7-1.92-1.92 c0,0-0.21-0.21-1.06-0.43c-1.28,0.21-2.77,1.06-3.41,2.55c-0.21,0.85-0.21,1.7,0.21,2.34C80.66,13.28,81.3,13.7,81.93,13.92z M83,9.87c0.21-0.21,0.21-0.21,0.43-0.21c0,0,0.11,0,0.26,0.25c0.03-0.05,0.07-0.1,0.1-0.15l0.07,0.54c0,0,0,0,0,0 c0.43,0.85,0.21,1.49-0.21,1.49c-0.39,0.2-0.6,0.02-0.63-0.35c-0.21,0-0.44-0.19-0.44-0.51C82.57,10.3,82.79,10.09,83,9.87z"></path> <path d="M83.01,11.44c0.07,0,0.15-0.02,0.2-0.08c0.21-0.21,0.85-0.43,0.64-1.06v0c-0.06-0.17-0.11-0.29-0.17-0.38 C83.32,10.46,83,10.99,83,11.36C83,11.39,83.01,11.42,83.01,11.44z"></path> <path d="M69.61,4.89c0.21-0.08,0.41-0.24,0.62-0.55l0.22-0.33C69.98,4.22,69.66,4.54,69.61,4.89z"></path> <path d="M71.93,3.06C71.93,2.85,71.72,2.85,71.93,3.06L71.93,3.06z"></path> <path d="M68.74,7.96c0.64,0.21,1.49,0,2.13-0.43c0.64-0.43,1.06-1.06,1.28-1.92c0.19-0.57,0.19-1.47-0.11-2.27 c0.09-0.16,0.06-0.29-0.1-0.29C71.29,2.21,70.44,2,69.59,2s-1.49,0.21-2.13,0.64C66.83,3.06,66.4,3.7,66.4,4.55 s0.21,1.49,0.64,2.13C67.46,7.32,67.89,7.75,68.74,7.96z M70.02,3.7c0.23,0,0.4,0.06,0.54,0.16l-0.1,0.15 c0.06-0.03,0.12-0.06,0.19-0.08c0.08,0.06,0.16,0.13,0.23,0.21c0,0,0.21,0.43,0,0.85c-0.21,0.43-0.64,1.06-1.06,0.85 c-0.21-0.21-0.43-0.43-0.21-0.85c0-0.03,0.02-0.06,0.02-0.09c-0.22,0.09-0.44,0.09-0.66,0.09c-0.43,0-0.64-0.21-0.64-0.43 C68.31,4.13,68.95,3.7,70.02,3.7z"></path> <path d="M64.27,16.47c0,0.43-0.43,0.64-0.85,0.85c-0.17,0-0.37,0-0.55-0.05c-0.03,0.02-0.06,0.04-0.09,0.05 c-0.43,0.21-0.64,0.21-0.85,0.21c-0.64,0-1.06-0.21-1.06-0.85c-0.04-0.11-0.06-0.22-0.09-0.32c-0.11,0.47-0.09,0.82,0.09,1.17 c0,0.43,0.43,0.85,0.85,1.06c0.43,0.21,0.85,0.21,1.28,0c0.85-0.21,1.49-0.85,1.7-1.92c0-0.64-0.21-1.06-0.43-1.49 c-0.21-0.21-0.43-0.43-0.85-0.64c-0.3-0.15-0.6-0.19-0.9-0.13c0.29,0.03,0.59,0.13,0.9,0.34C64.06,15.19,64.48,16.05,64.27,16.47z"></path> <path d="M60.87,16.05c0-0.43,0.43-1.06,1.28-1.49c0.12-0.06,0.25-0.1,0.37-0.13c-0.3-0.03-0.58,0.02-0.8,0.13 c-0.78,0.19-1.19,0.75-0.94,1.81C60.8,16.26,60.83,16.16,60.87,16.05z"></path> <path d="M62.87,17.27c0.36-0.2,0.55-0.41,0.55-0.8c-0.28,0.14-0.73,0.1-1.07-0.07l0.01,0.07C62.36,16.99,62.59,17.19,62.87,17.27z"></path> <path d="M61.93,16.05c0.07,0.15,0.23,0.27,0.42,0.36l-0.21-1.85C61.72,14.98,61.72,15.62,61.93,16.05z"></path> </g> </svg>