<?xml version="1.0" encoding="UTF-8"?>
<svg version="1.1" xmlns="http://www.w3.org/2000/svg" width="256" height="256">
<path d="M0 0 C1.03454819 -0.00637985 2.06909637 -0.0127597 3.13499451 -0.01933289 C4.26099564 -0.02044571 5.38699677 -0.02155853 6.54711914 -0.02270508 C7.69515518 -0.02603348 8.84319122 -0.02936188 10.02601624 -0.03279114 C12.45972288 -0.03786534 14.89343651 -0.04019931 17.32714844 -0.04003906 C21.06269731 -0.04222487 24.79795074 -0.06037379 28.53344727 -0.0793457 C30.89217021 -0.08227958 33.25089456 -0.08426441 35.60961914 -0.08520508 C36.73359604 -0.09239059 37.85757294 -0.09957611 39.01560974 -0.10697937 C40.05331009 -0.10390274 41.09101044 -0.10082611 42.16015625 -0.09765625 C43.07647324 -0.09908127 43.99279022 -0.10050629 44.93687439 -0.10197449 C47.14477539 0.14526367 47.14477539 0.14526367 49.14477539 2.14526367 C49.43856252 5.87896342 49.55990812 9.57452964 49.62329102 13.31713867 C49.84073065 19.7660801 50.88676577 23.97311566 55.70654297 28.60961914 C59.44213676 31.63491184 63.46427484 32.99139601 67.99633789 34.44995117 C68.85045258 34.73701935 69.70456726 35.02408752 70.58456421 35.31985474 C73.30895363 36.23260833 76.03896122 37.12693883 78.76977539 38.02026367 C80.54884159 38.61144808 82.32749152 39.20388669 84.10571289 39.79760742 C84.98492905 40.09063248 85.8641452 40.38365753 86.77000427 40.68556213 C88.54611443 41.27856197 90.32171984 41.87307572 92.09681702 42.46910095 C96.64175373 43.99242833 101.19340221 45.47657756 105.77148438 46.89746094 C107.57445084 47.47829215 109.37727205 48.05957448 111.17993164 48.64135742 C112.01082306 48.88743744 112.84171448 49.13351746 113.69778442 49.38705444 C118.80958965 51.07154602 121.39894453 52.88889254 124.09663391 57.59284973 C125.06939804 59.55943618 125.94755114 61.46774929 126.61743164 63.55932617 C126.86509277 64.30085938 127.11275391 65.04239258 127.36791992 65.80639648 C127.62428223 66.57822266 127.88064453 67.35004883 128.14477539 68.14526367 C128.76265622 69.80109184 129.38652554 71.45469572 130.01586914 73.10620117 C144.60401604 112.16055071 145.69316755 153.68459614 145.40905762 194.9152832 C145.389758 198.26648772 145.38588396 201.6176384 145.38234329 204.96889114 C145.37715184 209.05374759 145.36272878 213.13855788 145.34790039 217.22338867 C145.34601967 217.96775429 145.34413895 218.7121199 145.34220123 219.47904205 C145.32843288 223.67800948 145.28390477 227.87456345 145.18934631 232.07252502 C145.15880914 233.49263428 145.13530505 234.91290723 145.11778259 236.33323669 C145.0852479 238.49959859 145.0190873 240.66259982 144.94458008 242.82788086 C144.91160828 244.090578 144.87863647 245.35327515 144.84466553 246.65423584 C144.00602228 250.83735942 142.53432214 253.58066472 139.14477539 256.14526367 C135.98229748 257.01924006 132.92059312 256.95167068 129.65563965 256.9004364 C128.69526055 256.90909078 127.73488145 256.91774516 126.74539995 256.92666179 C123.52442884 256.94826835 120.30518152 256.92694823 117.08422852 256.90576172 C114.77635369 256.9122541 112.46848487 256.92131453 110.16062927 256.93275452 C103.88991947 256.95586239 97.61981725 256.94110018 91.34912682 256.91828513 C84.79178355 256.899393 78.23448169 256.9105237 71.67712402 256.91719055 C59.95873342 256.92511817 48.24059817 256.90116278 36.52226669 256.86625115 C25.89813002 256.83535821 15.27430729 256.83298713 4.65014648 256.85205078 C-9.0042427 256.87652358 -22.65836391 256.87558239 -36.3127594 256.85328102 C-41.52800877 256.84528707 -46.74311376 256.84729613 -51.95835876 256.85730553 C-58.09805219 256.86784282 -64.23720602 256.85376875 -70.37681389 256.82056236 C-72.63228323 256.81234198 -74.88780189 256.81265448 -77.14326668 256.82204056 C-80.21814834 256.83343281 -83.29134204 256.81414225 -86.36608887 256.78691101 C-87.26248691 256.7973825 -88.15888495 256.80785399 -89.08244658 256.8186428 C-93.4903571 256.74572439 -95.298108 256.57774791 -98.88579559 253.79266071 C-101.55757451 250.20113264 -101.99220633 247.51354987 -102.16503906 243.15795898 C-102.20606247 242.1404657 -102.24708588 241.12297241 -102.28935242 240.074646 C-102.32784805 238.96873108 -102.36634369 237.86281616 -102.40600586 236.72338867 C-102.447845 235.56768372 -102.48968414 234.41197876 -102.53279114 233.22125244 C-102.97257256 220.11368276 -103.05360747 207.00921867 -103.04272461 193.89526367 C-103.0424527 192.65067383 -103.04218079 191.40608398 -103.04190063 190.1237793 C-103.02345133 171.71343839 -102.71537923 153.47410206 -100.85522461 135.14526367 C-100.7024707 133.51886963 -100.7024707 133.51886963 -100.54663086 131.85961914 C-98.54542005 110.91175968 -94.25563952 91.18367761 -86.74926758 71.51000977 C-86.15607883 69.94102391 -85.57935686 68.36570752 -85.01977539 66.78442383 C-84.2306349 64.55567978 -83.39451804 62.35070011 -82.54272461 60.14526367 C-82.31987793 59.49259521 -82.09703125 58.83992676 -81.86743164 58.16748047 C-80.7374215 55.40494754 -79.53026334 53.50067222 -76.86474609 52.09727478 C-76.07011963 51.7984993 -75.27549316 51.49972382 -74.45678711 51.19189453 C-73.55949387 50.85382782 -72.66220062 50.51576111 -71.73771667 50.16744995 C-66.84094163 48.43096078 -61.91380086 46.80406863 -56.96850586 45.21166992 C-54.70856582 44.47327122 -52.44880543 43.73432252 -50.18920898 42.99487305 C-46.66908902 41.84626447 -43.14791856 40.70138268 -39.62353516 39.56591797 C-36.19315591 38.45885945 -32.76809086 37.33650427 -29.34350586 36.21166992 C-27.77141106 35.71142052 -27.77141106 35.71142052 -26.16755676 35.20106506 C-19.19139088 32.89228796 -12.97673094 30.61039068 -8.98022461 24.08276367 C-6.78176974 18.34235373 -6.53747697 12.81543868 -6.24975586 6.7253418 C-5.89221497 0.0245324 -5.89221497 0.0245324 0 0 Z M2.14477539 8.14526367 C-0.47781798 22.77362229 -0.47781798 22.77362229 3.93383789 27.97338867 C5.77356653 29.29691814 5.77356653 29.29691814 7.76977539 30.39526367 C8.40012695 30.81420898 9.03047852 31.2331543 9.67993164 31.66479492 C10.9071174 32.47866656 12.14814248 33.2721458 13.40356445 34.04174805 C15.80155719 35.56150789 17.96824256 37.32731671 20.14477539 39.14526367 C24.94542832 37.6349459 28.0722015 34.91229813 31.76977539 31.64526367 C37.86867649 26.32932961 37.86867649 26.32932961 41.14477539 24.14526367 C40.81477539 18.86526367 40.48477539 13.58526367 40.14477539 8.14526367 C27.60477539 8.14526367 15.06477539 8.14526367 2.14477539 8.14526367 Z M45.14477539 31.14526367 C39.86477539 35.43526367 34.58477539 39.72526367 29.14477539 44.14526367 C32.29690831 47.29739659 34.14533883 48.91026784 37.89477539 50.89526367 C38.69399414 51.32323242 39.49321289 51.75120117 40.31665039 52.19213867 C40.91993164 52.50666992 41.52321289 52.82120117 42.14477539 53.14526367 C43.87609522 51.18537072 45.6010267 49.22049083 47.31665039 47.24682617 C48.74924594 45.59995351 50.19461665 43.96419225 51.64477539 42.33276367 C52.13977539 41.61088867 52.63477539 40.88901367 53.14477539 40.14526367 C51.90536154 36.42702211 50.22137909 35.47147622 47.14477539 33.14526367 C46.48477539 32.48526367 45.82477539 31.82526367 45.14477539 31.14526367 Z M-7.54272461 35.14526367 C-8.47665039 35.98057617 -8.47665039 35.98057617 -9.42944336 36.83276367 C-9.89995117 37.26588867 -10.37045898 37.69901367 -10.85522461 38.14526367 C-7.44968382 43.41156386 -3.97853599 48.41558297 0.14477539 53.14526367 C3.76753854 51.81970557 6.77982887 50.20179412 9.95727539 48.02026367 C10.7474707 47.48143555 11.53766602 46.94260742 12.35180664 46.38745117 C13.23932617 45.77256836 13.23932617 45.77256836 14.14477539 45.14526367 C9.62186734 40.32082842 4.60858925 35.87732636 -0.85522461 32.14526367 C-4.44434873 32.14526367 -4.9637949 32.80962921 -7.54272461 35.14526367 Z M63.14477539 43.14526367 C62.81437256 44.68790894 62.81437256 44.68790894 62.47729492 46.26171875 C58.06393442 66.77291886 53.30476838 87.08072929 47.33276367 107.19921875 C47.12680573 107.89496506 46.92084778 108.59071136 46.70864868 109.30754089 C46.15537616 111.16855492 45.59471221 113.02736712 45.03344727 114.88598633 C44.19357257 117.96629601 43.60730004 120.98847301 43.14477539 124.14526367 C55.95629619 108.58038972 66.39698031 88.42711111 72.14477539 69.14526367 C71.49508789 68.47430664 71.49508789 68.47430664 70.83227539 67.78979492 C70.27540039 67.18522461 69.71852539 66.5806543 69.14477539 65.95776367 C68.58790039 65.36608398 68.03102539 64.7744043 67.45727539 64.16479492 C66.14477539 62.14526367 66.14477539 62.14526367 65.58227539 59.70776367 C66.42341408 55.87590964 69.06122559 54.41971573 72.14477539 52.33276367 C72.71711914 51.92606445 73.28946289 51.51936523 73.87915039 51.1003418 C75.2906616 50.10052135 76.7164258 49.12087746 78.14477539 48.14526367 C75.52052882 46.39576595 73.58750323 45.49136386 70.64477539 44.52026367 C69.87133789 44.25987305 69.09790039 43.99948242 68.30102539 43.73120117 C66.03467987 43.0141488 66.03467987 43.0141488 63.14477539 43.14526367 Z M21.14477539 50.14526367 C18.83477539 51.79526367 16.52477539 53.44526367 14.14477539 55.14526367 C14.80477539 56.79526367 15.46477539 58.44526367 16.14477539 60.14526367 C19.77477539 60.14526367 23.40477539 60.14526367 27.14477539 60.14526367 C27.80477539 58.49526367 28.46477539 56.84526367 29.14477539 55.14526367 C26.50477539 53.49526367 23.86477539 51.84526367 21.14477539 50.14526367 Z M-30.04272461 45.14526367 C-31.1294043 45.51651367 -32.21608398 45.88776367 -33.33569336 46.27026367 C-34.16713867 46.55901367 -34.99858398 46.84776367 -35.85522461 47.14526367 C-33.09186517 50.15983761 -30.76814513 52.30247479 -27.10522461 54.14526367 C-23.85522461 56.14526367 -23.85522461 56.14526367 -22.54272461 58.39526367 C-22.983593 62.27490549 -25.13776845 64.25302121 -27.53881836 67.23901367 C-29.08241782 69.10224663 -29.08241782 69.10224663 -28.91772461 71.64526367 C-28.56709961 72.47026367 -28.21647461 73.29526367 -27.85522461 74.14526367 C-27.3251491 75.45405837 -26.8051219 76.76694734 -26.29272461 78.08276367 C-25.8944043 79.10176758 -25.8944043 79.10176758 -25.48803711 80.14135742 C-24.63185241 82.85260896 -24.64396304 85.3284427 -24.85522461 88.14526367 C-26.50522461 88.14526367 -28.15522461 88.14526367 -29.85522461 88.14526367 C-37.7091831 72.97693162 -37.7091831 72.97693162 -36.85522461 66.14526367 C-35.5669902 64.11592144 -34.23732047 62.11188229 -32.85522461 60.14526367 C-39.96429945 53.73949192 -39.96429945 53.73949192 -48.74584961 51.07495117 C-51.58844198 51.88118351 -54.15942084 52.9370603 -56.85522461 54.14526367 C-59.07869995 54.89160505 -61.30794551 55.62098391 -63.54272461 56.33276367 C-65.31459145 56.93389257 -67.08581727 57.5369334 -68.85522461 58.14526367 C-68.28512111 63.35825283 -67.43323675 68.23956745 -66.07006836 73.31713867 C-65.70419053 74.69948168 -65.33856048 76.08189029 -64.97314453 77.46435547 C-64.78078217 78.18521332 -64.5884198 78.90607117 -64.39022827 79.64877319 C-44.72696141 153.57859921 -44.72696141 153.57859921 -45.98022461 180.02026367 C-46.02099121 180.88321045 -46.06175781 181.74615723 -46.10375977 182.63525391 C-47.42503609 204.53680475 -51.61154356 226.52072332 -54.85522461 248.14526367 C-31.09522461 248.14526367 -7.33522461 248.14526367 17.14477539 248.14526367 C17.43414725 233.38083805 17.43414725 233.38083805 17.71289062 218.61621094 C17.75099618 216.77302255 17.78946381 214.9298416 17.82836914 213.08666992 C17.84484497 212.12015503 17.8613208 211.15364014 17.8782959 210.15783691 C17.89847778 209.24433472 17.91865967 208.33083252 17.93945312 207.38964844 C17.95499741 206.59244888 17.97054169 205.79524933 17.98655701 204.97389221 C18.14477539 203.14526367 18.14477539 203.14526367 19.14477539 202.14526367 C20.79477539 202.14526367 22.44477539 202.14526367 24.14477539 202.14526367 C24.47477539 217.32526367 24.80477539 232.50526367 25.14477539 248.14526367 C48.90477539 248.14526367 72.66477539 248.14526367 97.14477539 248.14526367 C95.62139923 235.80124613 95.62139923 235.80124613 93.89086914 223.49682617 C93.67405492 222.04500585 93.45725853 220.59318286 93.24047852 219.14135742 C92.9098889 216.94317036 92.57847712 214.74510946 92.24658203 212.54711914 C84.2852717 159.70821067 98.78330251 109.96834757 112.14477539 59.14526367 C111.17290283 58.75999512 111.17290283 58.75999512 110.18139648 58.36694336 C108.87549561 57.84729004 108.87549561 57.84729004 107.54321289 57.31713867 C106.62765625 56.95297852 105.71209961 56.58881836 104.76879883 56.21362305 C102.74177337 55.38832872 100.73828961 54.50507014 98.74633789 53.59838867 C93.79967441 51.59894989 90.74508614 50.50871549 85.64868164 52.53588867 C82.47486763 54.55456896 79.73746458 56.41710063 77.14477539 59.14526367 C76.71798579 63.03989999 76.71798579 63.03989999 78.70727539 65.02026367 C80.14477539 67.14526367 80.14477539 67.14526367 79.89477539 69.84838867 C77.15707118 81.88288009 70.84860552 93.2805814 65.14477539 104.14526367 C64.79495605 104.82363281 64.44513672 105.50200195 64.0847168 106.20092773 C58.94395607 116.1187491 53.09286501 125.45807729 46.83227539 134.70776367 C46.10596924 135.78888428 45.37966309 136.87000488 44.63134766 137.98388672 C41.38088597 142.74363345 38.14949749 147.29848128 34.19555664 151.50073242 C23.2389075 163.3479755 23.45761198 175.23685395 24.03027344 190.75292969 C24.06805908 191.5423999 24.10584473 192.33187012 24.14477539 193.14526367 C22.47865634 193.18798467 20.81094654 193.18590199 19.14477539 193.14526367 C18.14477539 192.14526367 18.14477539 192.14526367 18.12988281 189.71533203 C18.16960205 188.64935791 18.20932129 187.58338379 18.25024414 186.48510742 C18.53310196 170.88309722 17.64224289 161.91083827 7.1105957 150.4597168 C2.97924177 145.59567864 -0.41628791 140.15834095 -3.91772461 134.83276367 C-4.69552772 133.65850949 -5.47335961 132.48427437 -6.2512207 131.31005859 C-10.79062058 124.43065223 -15.22386602 117.49185067 -19.41772461 110.39526367 C-19.86446533 109.65236084 -20.31120605 108.90945801 -20.77148438 108.14404297 C-23.30322842 103.74267196 -24.47665135 100.21947369 -24.85522461 95.14526367 C-21.67163086 95.11401367 -21.67163086 95.11401367 -17.85522461 96.14526367 C-15.62834157 98.69640542 -14.26263431 101.61113457 -12.79272461 104.64526367 C-11.94267304 106.28994979 -11.08983112 107.93319688 -10.23413086 109.57495117 C-9.82952637 110.36482422 -9.42492187 111.15469727 -9.00805664 111.96850586 C-6.92780483 115.8964019 -4.44751765 119.54134408 -1.85522461 123.14526367 C-0.68441752 119.63284241 -1.07556146 118.72434379 -2.19116211 115.28198242 C-2.50931885 114.26821533 -2.82747559 113.25444824 -3.15527344 112.20996094 C-3.68737427 110.53824829 -3.68737427 110.53824829 -4.23022461 108.83276367 C-9.04598161 93.21044363 -12.72560049 77.36122722 -16.39105225 61.43748474 C-17.80251261 55.32056991 -19.29949279 49.22716778 -20.85522461 43.14526367 C-24.32349831 43.14526367 -26.76788948 44.01843868 -30.04272461 45.14526367 Z M-8.85522461 56.14526367 C-8.29366763 62.10098277 -7.38874016 67.69260606 -5.85913086 73.46948242 C-5.66552475 74.21937943 -5.47191864 74.96927643 -5.27244568 75.74189758 C-4.86601338 77.31143426 -4.45664642 78.88021375 -4.04443359 80.44824219 C-3.41691588 82.83584076 -2.79839197 85.22562978 -2.18139648 87.6159668 C-1.78282701 89.15060691 -1.38375577 90.68511681 -0.98413086 92.21948242 C-0.80072647 92.92586349 -0.61732208 93.63224457 -0.42835999 94.36003113 C0.62093618 98.34351953 1.79737486 102.25256244 3.14477539 106.14526367 C3.47477539 106.14526367 3.80477539 106.14526367 4.14477539 106.14526367 C4.88567218 100.82642464 5.61574961 95.50625303 6.3359375 90.18457031 C6.58233215 88.37524627 6.83165375 86.56631826 7.08398438 84.7578125 C7.44663497 82.15488246 7.79865852 79.55069929 8.14868164 76.94604492 C8.26321182 76.14064774 8.377742 75.33525055 8.4957428 74.50544739 C9.02404404 70.49537674 9.40236983 67.07716547 8.14477539 63.14526367 C6.68685679 61.35140375 6.68685679 61.35140375 5.14477539 60.14526367 C4.15477539 60.80526367 3.16477539 61.46526367 2.14477539 62.14526367 C-0.23022461 62.64526367 -0.23022461 62.64526367 -2.85522461 62.14526367 C-4.78415938 60.29176211 -6.24055126 58.29816147 -7.85522461 56.14526367 C-8.18522461 56.14526367 -8.51522461 56.14526367 -8.85522461 56.14526367 Z M51.14477539 55.14526367 C50.85344727 55.65057617 50.56211914 56.15588867 50.26196289 56.67651367 C49.00135644 58.67445597 47.7777974 60.43549389 46.14477539 62.14526367 C42.16846277 62.87560681 39.5650868 62.25007069 36.14477539 60.14526367 C31.33952961 67.35313235 34.62950585 78.43234058 35.74389648 86.60717773 C36.02285823 88.6680385 36.28545273 90.73058094 36.54711914 92.79370117 C36.72114258 94.0956543 36.89516602 95.39760742 37.07446289 96.73901367 C37.23156738 97.92172852 37.38867188 99.10444336 37.55053711 100.32299805 C37.90200178 103.26665397 37.90200178 103.26665397 40.14477539 105.14526367 C41.37436548 100.54191588 42.60102797 95.93780065 43.82519531 91.33300781 C44.2404428 89.77258185 44.65643548 88.21235396 45.07324219 86.65234375 C47.11086968 79.02411375 49.1290887 71.39047424 51.00024414 63.71948242 C51.24798584 62.70845459 51.49572754 61.69742676 51.75097656 60.65576172 C52.36038241 58.02638261 52.36038241 58.02638261 51.14477539 55.14526367 Z M17.14477539 68.14526367 C16.96825439 69.41120361 16.7917334 70.67714355 16.60986328 71.98144531 C15.95210295 76.69842131 15.29418933 81.41537591 14.63623047 86.13232422 C14.35200924 88.17007884 14.06782903 90.20783919 13.78369141 92.24560547 C13.37421398 95.18222552 12.96458681 98.11882466 12.55493164 101.05541992 C12.36580956 102.41208519 12.36580956 102.41208519 12.17286682 103.79615784 C12.05281784 104.65652145 11.93276886 105.51688507 11.80908203 106.40332031 C11.69583084 107.21702591 11.58257965 108.03073151 11.46589661 108.86909485 C11.17850409 110.90618817 10.87785016 112.94140032 10.57543945 114.97631836 C9.37335254 123.82160644 10.40555001 130.27822097 13.95727539 138.45776367 C14.49191406 139.75810547 14.49191406 139.75810547 15.03735352 141.0847168 C16.7997784 145.30483509 18.63427478 149.30427693 21.14477539 153.14526367 C24.58115695 148.78954008 26.71472694 144.13112158 28.95727539 139.08276367 C29.38975586 138.21071289 29.82223633 137.33866211 30.26782227 136.44018555 C34.11738997 127.6278472 32.89957934 119.90685247 31.51919556 110.6890564 C31.02349764 107.32130842 30.61479665 103.94507435 30.201828 100.56636047 C29.79081679 97.23718779 29.35247721 93.911889 28.91259766 90.58642578 C28.57468414 88.02522614 28.24340659 85.46321755 27.91235352 82.90112305 C27.69725129 81.2623996 27.48177184 79.6237256 27.26586914 77.98510742 C27.16793564 77.22383041 27.07000214 76.46255341 26.96910095 75.6782074 C26.49036138 71.79002879 26.49036138 71.79002879 25.14477539 68.14526367 C22.50477539 68.14526367 19.86477539 68.14526367 17.14477539 68.14526367 Z M118.14477539 69.14526367 C113.51710028 84.65560334 109.54364179 100.28887045 105.87011719 116.05200195 C105.42513278 117.9496635 104.96837435 119.84466907 104.49169922 121.73461914 C102.01192534 131.85847651 103.69141285 142.37764087 104.8737793 152.62353516 C107.11603127 172.52774393 107.52252787 192.17196464 107.35076904 212.18676758 C107.31929341 216.26467941 107.30621567 220.34265436 107.29125977 224.4206543 C107.25970966 232.32903911 107.20725662 240.23706277 107.14477539 248.14526367 C116.38477539 248.14526367 125.62477539 248.14526367 135.14477539 248.14526367 C152.41344531 213.60792384 137.78995741 123.26630177 126.13598633 88.10131836 C123.92866495 81.73579014 121.58421798 75.42525993 119.14477539 69.14526367 C118.81477539 69.14526367 118.48477539 69.14526367 118.14477539 69.14526367 Z M-76.85522461 70.14526367 C-90.16383206 104.08394879 -94.03764529 138.67382892 -93.98803711 174.94213867 C-93.988713 176.71038832 -93.98968539 178.47863787 -93.99093628 180.24688721 C-93.99239829 183.92444762 -93.99030637 187.60198349 -93.9855957 191.27954102 C-93.9798824 195.96495884 -93.9831971 200.65031956 -93.98916817 205.33573532 C-93.99280009 208.97681094 -93.99162344 212.61787324 -93.98904037 216.25894928 C-93.98837925 217.98591367 -93.98917062 219.71287931 -93.99151993 221.43984222 C-93.99409202 223.85958515 -93.9901434 226.27923828 -93.98461914 228.69897461 C-93.98664337 229.39327072 -93.9886676 230.08756683 -93.99075317 230.80290222 C-93.96620556 236.67894411 -93.39388968 242.21994792 -92.85522461 248.14526367 C-83.28522461 248.14526367 -73.71522461 248.14526367 -63.85522461 248.14526367 C-63.92741211 245.97834961 -63.99959961 243.81143555 -64.07397461 241.57885742 C-64.3572098 232.86771849 -64.5870532 224.15548254 -64.79803467 215.44232178 C-64.85035816 213.34072674 -64.90789193 211.23935126 -64.96704102 209.13793945 C-65.44394626 190.56798289 -64.22187615 172.45800889 -62.27832031 154.00073242 C-60.53580014 137.41563028 -60.98430178 123.64166825 -65.04272461 107.45776367 C-65.43529088 105.83893538 -65.82657261 104.21979504 -66.21655273 102.6003418 C-68.85983134 91.71545604 -71.79794258 80.92042691 -74.85522461 70.14526367 C-75.51522461 70.14526367 -76.17522461 70.14526367 -76.85522461 70.14526367 Z M-0.85522461 123.14526367 C0.14477539 125.14526367 0.14477539 125.14526367 0.14477539 125.14526367 Z M42.14477539 124.14526367 C43.14477539 126.14526367 43.14477539 126.14526367 43.14477539 126.14526367 Z M97.14477539 164.14526367 C95.32077292 174.63327787 96.39528867 184.75656462 97.64477539 195.27026367 C97.8594043 197.13424805 97.8594043 197.13424805 98.07836914 199.03588867 C98.42880155 202.07296952 98.78437672 205.10935217 99.14477539 208.14526367 C99.47477539 208.14526367 99.80477539 208.14526367 100.14477539 208.14526367 C100.4091979 193.33150101 99.84611135 178.86485779 98.14477539 164.14526367 C97.81477539 164.14526367 97.48477539 164.14526367 97.14477539 164.14526367 Z M-55.85522461 167.14526367 C-57.63977412 185.61226495 -57.63977412 185.61226495 -57.85522461 204.14526367 C-57.19522461 204.14526367 -56.53522461 204.14526367 -55.85522461 204.14526367 C-54.19578186 191.74389241 -53.60562011 179.6532224 -53.85522461 167.14526367 C-54.51522461 167.14526367 -55.17522461 167.14526367 -55.85522461 167.14526367 Z " fill="#3c3a3c" transform="translate(102.855224609375,-0.145263671875)"/>
<path d="M0 0 C1.01513672 -0.020625 2.03027344 -0.04125 3.07617188 -0.0625 C4.53700195 -0.07023437 4.53700195 -0.07023437 6.02734375 -0.078125 C6.9205835 -0.0874707 7.81382324 -0.09681641 8.73413086 -0.10644531 C11.0625 0.25 11.0625 0.25 12.88891602 1.60644531 C14.0625 3.25 14.0625 3.25 13.875 5.875 C13.0625 8.25 13.0625 8.25 11.0625 9.25 C7.42246889 9.51672816 3.77371401 9.48153718 0.125 9.5 C-0.89013672 9.520625 -1.90527344 9.54125 -2.95117188 9.5625 C-3.92505859 9.56765625 -4.89894531 9.5728125 -5.90234375 9.578125 C-6.7955835 9.5874707 -7.68882324 9.59681641 -8.60913086 9.60644531 C-10.9375 9.25 -10.9375 9.25 -12.76391602 7.89355469 C-13.9375 6.25 -13.9375 6.25 -13.75 3.625 C-11.92166519 -1.71936328 -4.7516504 0.02404377 0 0 Z " fill="#3c3a3c" transform="translate(176.9375,119.75)"/>
</svg>
