<svg xmlns="http://www.w3.org/2000/svg" xmlns:xlink="http://www.w3.org/1999/xlink" id="pareja" x="0px" y="0px" viewBox="0 0 240 234" style="enable-background:new 0 0 240 234;" xml:space="preserve"> <g transform="translate(0.000000,2048.000000) scale(0.100000,-0.100000)"> <path d="M1294.1,20470.5c-0.4-0.6-2.5-1.1-4.7-1.1c-3.8,0-34.8-7.8-36-9.1c-0.3-0.3-1.7,0.7-3.2,2.2c-3.9,3.9-8,3.2-12.6-1.8 c-2.2-2.5-5.4-6.1-7.3-8.1c-4.7-5-23.7-20.7-33-27.1c-24-16.9-47.6-33-48.3-33c-0.4,0-2-1.3-3.5-2.8c-1.5-1.5-4.5-2.8-6.6-2.9 c-12.6-0.3-19.8-2.9-26.3-9.6l-3.8-4.1l-8.7,4.3c-4.6,2.4-9.8,4.7-11.3,5.3c-8.8,3.2-18.4,6.4-31.4,10.5c-21.5,6.8-33,11-35.5,13.1 c-1.1,1-2.8,1.4-3.5,1c-0.8-0.6-2.5-0.3-3.9,0.4c-5.3,2.8-14.7,5.7-18.4,5.7c-2.2,0-4.7,0.8-5.6,2s-3.4,2.2-5.4,2.7 c-2.1,0.4-6.6,1.5-10.1,2.4c-7.8,2.1-25,0.8-30.9-2.2c-2.4-1.1-5.4-2.4-7-2.7c-1.4-0.3-4.9-2.1-7.8-4.1c-2.9-2-6.4-3.6-7.7-3.6 c-1.4,0-3.6-0.6-5-1.3c-1.3-0.7-8.9-2.4-17-3.6c-16.6-2.5-25-4.2-37-7.3c-7.8-2-10.3-2.8-23-7.5c-2.7-1-8.1-4.6-12.2-7.8 c-4.1-3.4-8.7-6-10.1-6c-3.4,0-3.4,0.1-15.5-17.2c-9.6-13.8-12.9-21.8-10.2-26c2-3.1,11.7-8.5,15.5-8.5c1.7,0,3.1-0.3,3.1-0.7 s-3.2-4.6-7-9.2c-3.9-4.6-8.2-10.9-9.8-14c-1.5-2.9-3.8-5.4-5-5.4c-3.6,0-9.6-3.8-24.9-15.4c-14.9-11.5-17.7-15.5-14.5-21.4 c0.7-1.5,1-4.3,0.4-6.3c-2.1-8-1.8-11.7,0.8-18.2c6.6-15.4,21.4-24.3,41.9-25.3c3.2-0.1,3.9-1.1,5.4-6.7c3.2-12.6,5.9-20.7,11-33.4 l5-12.9l12.9-2.9c7-1.5,13.7-2.9,14.8-2.9s3.2-3.4,5-8c7.5-20.5,11.3-23,28.5-18.3c5.6,1.5,12.7,3.4,15.9,4.1 c3.4,0.8,8.5,3.8,12.2,7.1c6.4,5.6,6.6,5.6,14.8,4.6c7.8-0.8,8.9-1.5,17.6-9.8c7.4-7,9.1-9.4,8.2-11.5c-0.6-1.4-1.7-6.6-2.4-11.5 c-0.7-5-2-10.2-2.7-11.5c-0.7-1.4-1.3-4.3-1.3-6.6c0-2.5-0.8-4.5-2.2-5c-1.3-0.4-2-1.8-1.5-2.8c0.4-1.1-0.1-2.8-1.3-3.6 c-1.1-1-2-2.5-2-3.5c0-0.8-1.8-4.2-3.9-7.1c-2.1-2.9-6-8.9-8.4-13.4c-2.5-4.3-8.2-12.9-12.7-19c-11.9-15.8-18.9-27.8-22.9-38.8 c-2-5.3-4.9-13.1-6.6-17.3c-1.7-4.2-4.3-11.5-5.9-16.1c-1.5-4.6-3.6-10.6-4.6-13.3c-3.9-11-4.7-15.2-5.6-26.5 c-0.6-6.6-1.8-14.9-3.1-18.7c-2.4-7.7-2.8-22.5-0.6-25.1c0.8-1,3.2-7,5.4-13.6c4.7-13.7,18.9-38.6,34.9-61.3 c17.2-24.4,30.6-47.9,33-57.8c0.6-2.2,4.9-8,9.5-12.8c7.4-7.7,9.2-8.9,13.5-8.9c4.6,0,6.8-2,28.9-24l24-24.2l1.3-9.8 c0.8-5.3,1-13.3,0.6-17.5c-0.8-7.4-1-7.8-7.4-11.2c-7-3.6-7.5-4.8-8.7-17c-0.6-5.7-5.4-16.8-8.7-19.3c-2.1-2-2.7-7.8-0.7-8.9 c0.6-0.4,1.5-3.5,2-6.8c2.2-16.1,9.9-26.4,29.2-39.4c11-7.4,10.5-22.8-1.7-48.9c-8.9-19.1-15.5-27.2-41.5-50.6 c-13.4-12.2-27.2-24.2-30.6-26.7c-3.4-2.5-6.4-5.9-6.8-7.3s-3.8-4.1-7.4-5.7c-3.9-2-11.2-8-17.7-14.8c-6.3-6.4-12.3-11.6-13.7-11.6 c-1.3,0-3.6-1.3-5.2-2.8s-4.5-2.8-6.4-2.8c-5.3,0-8.9-2.5-8.9-6.1c0-2.2-2.5-5.7-7.8-10.5c-4.2-3.9-8.2-7.1-8.8-7.1 c-0.4,0-3.4-3.2-6.4-7.1c-3.1-3.9-7.4-8-9.5-9.1c-2.1-1.1-7.3-5.2-11.6-8.9c-4.2-3.9-8.2-7-9.2-7c-0.8,0-3.9-2.2-6.6-4.9 c-15.8-15.4-26.4-24.2-33.7-27.9c-2.7-1.4-11.2-8.9-19-16.6c-7.7-7.8-17.3-16.9-21.2-20.4c-4.1-3.5-11.2-9.9-15.9-14.2 c-4.6-4.5-9.2-8.1-10.2-8.1c-2.1,0-16.1-14.8-24.2-25.6c-3.5-4.8-8-8.8-10.8-9.9c-2.7-1.1-6.3-4.3-8.1-7.4 c-3.6-5.6-29.8-32.5-31.7-32.5c-0.7,0-6.7-5.9-13.5-13.1c-13-13.8-24.4-23.6-29.5-25.1c-1.8-0.6-4.2-2.8-5.4-4.7 c-1.4-2.1-4.7-6.1-7.5-9.1l-5.2-5.2h-13.5c-13.3,0-23.6,1.8-40.2,7.1c-4.3,1.5-9.1,2.7-10.5,2.7c-2.2,0-19.6,8.4-23.3,11.2 c-0.7,0.6-3.6,1.8-6.4,2.7c-5,1.7-16.6,10.5-16.6,12.7c0,2.1-22.4,33.8-27.8,39.5c-4.9,5.2-21.9,15.8-43.4,27.2 c-15.2,8-20.4,11-29.9,17.3c-4.7,3.1-12.9,7.4-18.3,9.5c-8.5,3.4-10.5,4.9-14.9,11.3c-7.5,11-13.4,27.4-15.8,43.7 c-2.2,15.9-5,24.9-12.4,39.8c-6.1,12.3-12,20.7-17.2,24.2c-8.7,5.9-23.9,12.7-36.6,16.3c-11,3.2-15.9,3.9-27.4,3.8 c-13.1-0.3-14.8-0.6-25.1-5.4c-15.4-7.4-36.9-20.4-38.4-23.3c-0.7-1.4-3.4-3.2-5.9-4.1c-2.5-0.8-5.7-2.8-7.4-4.2 c-1.5-1.4-5.2-3.4-8-4.2c-2.8-1-5.9-2.7-6.7-3.8c-1-1-2.9-2-4.3-2c-2.2,0-10.2-2.5-22.5-7.3c-4.6-1.7-5.2-5.9-1.8-12.4 c2-3.8,2-4.2-0.1-5c-6-2.2-31.7,9.6-55.5,25.8c-7.5,5.2-16.3,10.8-19.6,12.6c-5.4,3.1-6,3.2-10.3,1.1c-9.4-4.5-17.2-14.8-17.2-22.6 c0-3.5,8.4-20.4,12.3-24.9c1.3-1.4,8.1-5.3,14.9-8.7c13.8-6.6,24-8.8,58-12.4c11.2-1.3,22.9-3.2,26.3-4.3c3.2-1.3,6.8-1.8,8-1.4 c1,0.3,9.4-0.4,18.4-2c9.1-1.4,28.1-4.2,42.3-6.3c49.3-7,78.4-12,94.7-16.3c8.9-2.2,17.9-4.6,19.8-5c7.1-1.5,12.6-7.4,19.1-21 c11.3-23.3,24.7-38,49.3-54.2c14.5-9.5,25.3-14.9,30.3-15.2c1.7,0,4.2-1.1,5.6-2.2c4.2-3.6,18.3-11,21-11c1.4,0,9.1-3.8,17.2-8.4 c8.1-4.6,16.1-8.4,17.7-8.4c2.4,0,3.9-1.5,6.1-5.9c1.7-3.4,5.4-10.1,8.4-15.1c7.4-12.6,11-24,10.1-32.1c-0.4-4.2,0-8.1,1.5-11.7 c3.5-8.4,2.8-11.2-5.9-24.9c-2.5-4.2-12.4-13-19.1-17c-2.2-1.5-4.7-3.5-5.3-4.6c-0.6-1-2-1.8-3.1-1.8c-1.1,0-6.6-3.4-12.4-7.5 c-7.4-5.3-11.3-7.3-13.7-6.8c-2.5,0.4-5.7-1.8-15.1-10.8c-6.6-6.1-14.5-12.4-17.7-14c-3.2-1.4-11-7.7-17.5-13.8 c-6.4-6.1-12.4-11.3-13.4-11.3c-3.4,0-14.1-7.1-14.9-9.9c-0.6-1.8-2.1-2.7-4.7-2.7c-3.1,0-5.7-2.1-12.9-10.5 c-4.9-5.9-9.5-12.2-10.1-14c-0.8-2.2-2.2-3.5-4.1-3.5c-4.6,0-16.1-8.1-17-12c-0.7-2.4-2.1-3.6-5.2-4.3c-2.9-0.6-6.1-3.2-10.5-8.7 c-8.4-10.6-10.9-13.1-22.2-22.1c-19.7-15.6-29.9-27.9-33.7-40.2c-3.5-11.7-3.5-39.1,0-48.9c7.1-19.8,21.4-40.8,40.5-59.1 c5-4.9,10.9-11.7,13-15.4c2.1-3.6,5.2-8.5,7-10.9c1.8-2.4,3.2-5,3.2-5.9s2-3.8,4.3-6.4c2.7-3.2,6.3-10.6,9.8-20.7 c3.1-8.7,6.4-17,7.5-18.9c1.1-1.7,2.1-5.9,2.1-9.2c0-4.1,1-7.4,2.7-9.6c2.2-2.7,2.8-5.6,2.7-13.8c0-5.7,0.7-11.9,1.5-13.8 c2.1-4.6,4.7-8.8,6.4-10.1c2.4-1.8,7.8-1.3,9.9,1c1.3,1.1,4.6,2.1,7.5,2.1c7,0,10.2,3.1,9.1,8.7c-0.8,3.5-0.3,5,3.2,8.5 c5.3,5.7,6.1,8.4,4.6,17.6c-1,5.9-0.7,8.8,1,12.6c2.8,6.7,4.3,22.3,2.7,26.3c-1.7,3.8-4.1,4.8-9.2,3.8c-5.6-1.1-9.5-8.9-12.9-25.1 c-2.8-13.8-4.6-18.7-7-18.7c-1.7,0-6.7,11.2-8.2,18.2c-4.9,22.1-20.3,50.1-51.8,94.3c-18.2,25.4-26.7,48.3-26.7,71.9 c-0.1,14.5,1.7,21.4,8,30.6c2.7,3.9,4.9,8.1,4.9,9.4c0,3.9,8.9,14.7,26.8,32c22.5,21.9,30.7,29.5,40.9,37c4.6,3.5,9.1,7.1,9.8,8.1 c0.8,0.8,4.6,4.1,8.5,7c3.9,2.8,19.3,14.4,34.2,25.6c26.7,20.1,36.3,26.8,68.9,48.8c19.3,13,18.6,14.2,7.5-15.4 c-8.5-22.5-20.4-60.6-22.1-70.5c-0.7-3.8-3.2-16.1-5.6-27.2c-2.4-11.2-5.3-25-6.4-30.7c-1.3-5.7-2.4-11-2.5-11.9 c-1.3-5-2.4-12.2-2.8-18.2c-0.4-3.8-1.3-11.7-2.1-17.5c-0.7-5.7-1.8-22.3-2.2-37c-0.4-14.5-1.3-31.8-1.7-38.4 c-0.4-6.6-0.8-32.1-1-56.7c-0.1-51.8,0.8-48.1-14.8-55.6c-5-2.4-9.2-5.3-9.5-6.6c-0.4-2.2,3.9-7.5,9.4-11.3c2.4-1.7,4.2-2,6.7-1 c5,2,9.8,1.5,10.8-0.8c0.7-2,3.8-26.1,5.6-44c0.8-7.7,1.7-13.1,5.6-34.8c1.1-6.6,1.8-12.3,1.4-12.9c-1-1.7-11-4.2-19-4.8 c-3.8-0.3-8.8-1.3-11.5-2.2c-3.5-1.3-5.7-1.3-9.2,0c-6,2.1-7.8,2-10.3-0.6c-7.8-7.8,14-12.3,40.4-8.4c6.8,1.1,12.7,1.7,13,1.4 c0.3-0.3,1.7-5.4,3.2-11.5c4.1-15.9,16.3-54.9,18.9-59.8c1.3-2.2,3.4-7.8,4.7-12.2c2.4-7.8,12.6-25.3,24.7-42.6 c6.8-9.6,17.9-22.3,29.9-33.9c4.3-4.3,8.5-9.2,9.5-10.9c1.8-3.4,17.2-12.8,21-12.8c1.4,0,5-1.8,8-3.9c7.1-5.2,17.5-10.1,21.1-10.1 c1.5,0,3.6-1,4.6-2.1c1-1.3,2.8-1.8,3.9-1.4c1.1,0.4,3.2-0.3,4.6-1.5c1.4-1.3,3.1-1.8,3.8-1.4c0.7,0.4,2.9-0.4,4.7-2 c2-1.5,3.9-2.4,4.3-2c0.4,0.4,5.9-1.5,12-4.3c16.9-7.5,33-10.6,57.4-11c11.5-0.1,34.4,1.8,38.3,3.4c2.1,0.7,6.1,1.7,8.9,2.1 c2.8,0.3,10.2,1.5,16.3,2.8c16.6,3.2,23.5,2.8,28.1-1.4c2.1-2,4.9-3.5,6.1-3.5c1.4,0,4.7-1,7.4-2.1c6.4-2.7,13.5-2.8,13.5-0.1 c0,3.8,4.3,5.4,15.4,5.9c6,0.1,12,1,13.5,1.7c1.4,0.8,4.1,1.4,6,1.5c7.3,0,13.1,2.1,20.8,7.1c11,7.4,16.9,10.1,19.1,9.2 c1.1-0.4,3.6,0.1,5.4,1.4c4.2,2.7,20,3.9,22.6,1.8c1-0.8,2.8-1.3,3.9-0.7c1.1,0.4,3.2-0.6,4.7-2.1c2-2.2,3.5-2.5,6.6-1.7 c4.9,1.3,7.4,0.8,9.9-1.8c2.4-2.2,19.3-2.8,20.7-0.6c1.1,1.8,15.6,1.8,16.8,0c0.4-0.8,7-1.4,14.8-1.4c13.5,0,14-0.1,15.5-3.6 c1.5-3.1,2.2-3.5,6.6-2.7c3.2,0.6,6.6,0.1,10.1-1.4c3.6-1.7,6.6-2.1,9.2-1.4c2.1,0.6,6.4,1,9.5,0.8c3.1,0,8.2-0.1,11.5-0.1l5.9-0.1 l-6.3-9.1c-3.4-5-7.7-11.2-9.5-13.5c-1.8-2.5-4.1-7-4.9-10.1c-1.8-6.8-2-21.7-0.3-26.3c0.8-2,1.8-6.1,2.2-9.5 c0.6-3.4,1.3-6.6,1.5-7.1c0.3-0.6,4.2-2,8.5-3.2c8.5-2.5,11.9-2.1,24.6,3.2c8.2,3.4,8.7,5.6,3.2,16.5c-3.5,6.8-4.5,10.1-3.6,11.7 c0.7,1.4,1.5,4.8,1.8,7.4c0.3,2.8,1.4,6,2.4,7.3c2.2,2.7,12.2,5.3,14.4,3.9c0.8-0.6,8.2-1.1,16.3-1.3c8.8,0,15.9-0.7,17.9-1.7 c2-1.1,6.1-8.1,11.2-18.9c8.4-17.7,18.9-33,25.3-37c2-1.3,5.7-4.1,8.2-6.1s5.4-3.9,6.6-3.9c1.1,0,2.1-0.6,2.1-1.4 c0-2,17.9-10.6,24.4-11.9c8.9-1.5,26.8-0.8,34.8,1.4c3.9,1.1,15.1,6.1,24.7,10.9c9.5,4.9,20.7,10.1,24.7,11.7 c7.1,2.9,7.3,3.2,7.4,9.1c0.1,3.4,0.3,8.2,0.4,10.9c0.1,4.3-0.3,4.9-4.7,5.9c-2.7,0.6-8.4,1.4-12.6,1.8c-4.2,0.4-9.6,1-12,1.3 c-2.4,0.3-7.4,2.1-11.2,4.2c-3.8,2-7.8,3.6-9.1,3.6s-3.1,1-4.1,2.1c-1,1.1-2.5,2.1-3.4,2.1c-2,0-10.6,7.4-10.6,8.9 c0,0.6-1.3,2.7-2.8,4.8c-4.5,6.1-8.4,19.7-9.9,34.5c-2.4,23.6-3.9,33.7-6.1,40.4c-2.5,7.1-2.1,8,8.2,20.5c2.2,2.8,6.4,8.8,9.1,13.4 c5.7,9.6,16.1,25.6,18,27.7c0.7,0.8,1.8,3.4,2.7,5.6c1,3.2,2.5,4.3,6.7,5.2c2.9,0.7,6.3,1.8,7.3,2.8c1.4,1.1,2.8,1.1,5.3-0.3 c2.1-1.1,5.9-1.5,10.1-1c3.6,0.4,7.7,0.1,9.1-0.6c1.4-0.8,3.8-0.7,6.3,0.3c2.1,0.8,10.5,1.7,18.6,2c8.2,0.1,16.2,1,17.9,2 c1.8,1,5.7,2,8.8,2.4c3.1,0.4,7.3,1.3,9.2,2.1c2.1,0.8,7.8,1,13.3,0.4c7.8-0.7,10.6-0.4,16.1,2c9.6,4.1,19,5.3,21.2,2.7 c1.4-1.8,2.1-1.7,4.9,1.1c2.1,2.1,5.7,3.6,10.1,4.2c3.8,0.4,9.1,1.7,11.7,2.8c2.7,1,7.3,1.8,10.2,1.8c2.9,0,6.7,1,8.7,2.2 c3.8,2.5,7.5,2.9,8,0.8c0.6-4.1,0.1-4.9-2.4-4.9c-2.1,0-3.1-1.4-3.9-5.6c-0.7-3.1-1.7-6.6-2.2-7.7c-0.6-1.1-2.2-5.6-3.5-9.9 c-2-6.1-2.2-8.5-1-10.9c1.3-2.1,1.3-3.8,0.1-5.7c-0.8-1.5-1.3-2.8-0.8-2.8s0-1.8-0.7-4.2c-0.8-2.4-2.4-4.2-3.2-4.2 c-1,0-3.6-2.7-6-6c-5.6-7.5-33.1-34.8-40.2-39.7c-3.1-2.1-8.7-6-12.6-8.8c-3.8-2.7-7.3-4.9-7.7-4.9s-2.2-1.4-4.2-3.1 c-1.8-1.8-4.1-3.2-5-3.2c-0.8,0-2-1-2.4-2.1c-0.6-1.1-3.2-2.9-6.1-4.2c-2.8-1.3-6.1-3.1-7.3-4.2c-1.3-1.1-6.1-5.3-10.9-9.1 c-10.6-8.7-11.7-11.5-6.8-16.6c3.6-3.8,3.6-4.1,1.7-9.5c-1.8-5-1.8-6.1,0.1-8.9c3.5-5.3,6.1-6.8,11.6-6.8c3.2,0,6.4-1.1,8.5-2.9 c3.1-2.8,4.5-2.9,18-2.2c14.9,0.7,24.2,2.4,34.2,6.3c16.1,6.1,44.4,19.7,52.8,25c16.2,10.6,31.2,14.2,61.9,15.1 c11.5,0.4,23.9,1,27.7,1.4c3.6,0.3,8,0,9.5-0.8c1.5-0.8,3.8-1,5-0.6c2.5,1.1,5.4,1.4,20.5,2.7c5.4,0.4,12,1.4,14.7,2.2 c2.7,0.8,6,1.8,7.5,2.1c1.4,0.3,3.4,1.3,4.5,2.2c1.1,0.8,3.9,1.3,6.3,1c3.8-0.6,4.9,0,8.4,5c2.2,3.2,4.7,6.6,5.6,7.5 c0.7,1,3.1,5.3,5.2,9.8c3.5,7.8,3.6,8.5,3.4,33.8c-0.7,50-0.3,60.3,2.4,73.2c3.2,15.1,2.9,36-0.6,47.1c-0.7,2.1,1.7,5.7,9.4,14.7 c21.2,24.9,31.6,39.8,43.7,63.4c3.1,5.7,7.4,13.7,9.9,17.5c2.4,3.9,5.2,9.1,6.3,11.6c1.1,2.4,2.8,4.6,3.6,4.6 c3.8,0.4,4.5,0.6,5.4,1.7c2.2,2.2,12.7,1,15.2-1.8c1.4-1.5,3.4-2.8,4.3-2.8c2.7,0,25.4-24.9,30-32.8c2.4-3.9,4.1-8.8,3.9-11.2 c0-2.2-0.1-5,0-6.1c0.1-2.1,13.7-15.5,15.6-15.5c1.7,0,5.2-7.3,4.5-9.2c-1-2.9,5-14.4,10.8-20.1c4.5-4.5,5.7-6.7,5.2-9.2 c-0.3-1.8,0.6-9.8,2.1-17.7c1.7-9.1,2.8-21.8,3.1-35.2c0.1-11.5,1-22.2,1.8-23.7s1-4.1,0.3-5.6c-2.2-5.6-1.4-15.5,1.5-18.2 c1.5-1.4,2.4-3.2,1.8-4.1c-0.6-0.8-0.8-3.2-0.7-5.3c0.3-4.2-3.9-8.8-16.9-18.2c-9.6-7-13.8-9.2-18.4-10.1c-2.1-0.4-4.7-2-5.9-3.6 c-1.1-1.5-2.9-2.8-3.9-2.8c-1.1,0-4.7-1.3-8-2.7c-3.4-1.5-9.6-4.3-14-6.4c-4.5-2-8.1-4.2-8.1-4.8c0-0.7-2-2-4.2-2.8 c-2.4-0.7-7.5-3.6-11.7-6.3c-4.1-2.8-8-5-8.7-5c-1.5,0-15.5-13.3-19.8-18.7c-2.8-3.8-2.9-4.2-0.7-5.7c2.1-1.5,2.1-1.8-0.7-3.4 c-2.4-1.3-2.9-2.7-2.5-7.1c0.8-9.2,3.5-10.8,21.8-12.2c9.8-0.7,20.7,1.5,60.5,12.3c22.5,6.1,30.5,9.4,48.5,19.8 c15.8,9.1,30.2,16.3,32.7,16.3c1,0,2.7,0.8,3.5,2c0.8,1,6.1,3.4,11.7,5c5.4,1.7,11.6,3.6,13.5,4.3c3.1,1,11.6,2.8,21.7,4.6 c6.8,1.1,15.2,4.1,21.2,7.1c7,3.8,10.3,4.2,14.4,2.1c1.8-1,4.2-0.4,8.9,2.1c3.6,2,8.2,3.5,10.5,3.5c3.4,0,13,4.3,32.3,14.7 c3.5,1.8,10.3,5.3,15.4,7.5c5,2.4,10.1,4.9,11.2,5.6c1.1,0.7,5.7,3.1,10.1,5.2c8.2,4.2,9.2,5.4,8.8,12.4c-1.4,20-2.4,32.7-2.8,35.6 c-0.3,2-1,8-1.4,13.3c-1,12-1.7,16.1-4.2,25.3c-2,6.6-2.4,7.1-9.8,10.2c-9.4,3.9-14,10.2-18.6,25.3c-1.8,5.7-4.2,12.7-5.2,15.4 c-1.1,2.7-2.4,6.4-2.8,8.4c-0.4,2-1.4,4.8-2.1,6.3c-2.2,4.7-7,20.1-7,21.9c0.1,1,1.8-0.1,3.9-2.5c4.6-5.3,8.9-6.8,13.1-4.6 c1.8,1,6,2,9.5,2.1c9.1,0.6,16.6,2.1,17.6,3.5c0.4,0.7,1.7,1.3,2.9,1.3s8.4,3.1,15.6,6.8c7.4,3.8,17.5,8.5,22.5,10.5 c5,2.1,11,4.6,13.3,5.7c2.4,1.1,9.2,3.9,15.4,6.3c6.1,2.4,12.3,4.9,13.8,5.7c1.4,0.8,5.7,2,9.6,2.7c6,0.8,7.7,0.7,11-1.8 c3.1-2.4,4.2-2.5,6-1c1.1,1,2.1,2.8,2.1,4.1c0,2.5,8.7,8.9,14.2,10.6c6.6,2,9.6,4.8,8.7,8.2c-0.6,2.4,0.3,4.1,3.2,6.6 c7,5.9,11.2,13.8,7.4,13.8c-0.8,0-4.2-2.5-7.5-5.6c-5-4.6-6.7-5.4-10.2-4.8c-4.7,1-8.1-2.1-7-6.3c0.4-2.1-0.3-2.8-3.5-3.5 c-2.4-0.4-5.6-0.8-7.1-0.8c-1.5,0-4.1-1-5.4-2.4c-3.5-3.1-17.6-8.9-23.5-9.6c-2.7-0.3-8-0.8-11.6-1.1c-3.6-0.1-7.4-1.1-8.2-2 c-1-1-5.6-1.7-10.3-1.7c-7.7,0-18-1.5-50.1-7.7c-5.3-1.1-16.1-3.9-23.7-6.3l-13.8-4.3l-3.8,2.8c-2.1,1.5-5.6,3.2-7.7,3.6 c-11.7,2.5-13.5,4.2-21.8,20.7c-4.3,8.7-11.7,24.2-16.3,34.5c-4.7,10.3-9.1,19.8-9.9,21c-0.7,1.1-4.7,8.9-8.9,17.2 c-4.3,8.2-9.2,17-11,19.6c-1.8,2.5-4.9,8-7,12.2c-2.1,4.2-5.7,10.2-8,13.3c-12,16.5-26.8,40.1-36.9,59.1 c-6.3,11.9-13.4,23.9-15.8,26.8c-7.7,8.9-4.3,12.2,4.1,3.8c19-19,68-57,81.4-63.1c3.1-1.4,6.1-3.4,6.7-4.3c0.6-1.1,2.1-2,3.4-2 s4.2-1.3,6.7-2.8c4.3-2.7,8.4-3.9,13.7-4.1c1.4-0.1,3.1-1.7,3.8-3.6c0.8-2.2,2.5-3.5,4.5-3.6c8.7-0.4,12.3-1.1,20.7-3.9 c5-1.7,10.8-3.4,12.9-3.6c4.1-0.6,20.5-5.7,26.3-8.1c2-0.8,4.5-1.7,5.6-1.8c2.9-0.4,14.5-5,25.1-9.9c5-2.4,11.7-5,14.9-5.9 c5.6-1.5,21.8-11.7,34.6-21.8c3.1-2.4,8-5.3,10.9-6.7c2.8-1.3,5.2-2.9,5.2-3.8c0-0.7,0.8-1.4,2-1.4c1,0,3.5-1.3,5.4-2.8 c2-1.5,4.6-2.8,6-2.8c1.4,0,3.8-1.3,5.3-2.7c3.2-2.9,17.2-8.4,23.9-9.4c2.4-0.3,5.9-1.3,8.1-2.1c3.4-1.4,4.6-1.1,11.5,3.5 c4.5,2.9,10.3,8.7,14.1,13.8c3.5,4.8,8,10.9,9.9,13.5c9.4,12.4,21.9,19.4,31.6,17.6c7-1.3,12.6-7.3,23-24.3 c9.1-14.8,12.4-17.3,23.3-17.7c4.6-0.3,20.7,4.6,40.5,12.3c7,2.8,17.3,5.9,23,7.1c5.7,1.1,13,3.1,16.2,4.2c6.4,2.2,23.2,5,30.3,5 c2.9,0,5.7-1,7.3-2.8c2.5-2.8,2.5-3.1,0.1-9.9c-1.4-3.8-2.2-7.3-2-7.7c0.4-0.3,2.7-1.1,4.9-1.8c6-1.7,12.3,1.4,15.8,7.8 c1.5,2.9,3.6,6.4,4.5,7.7c3.5,4.9-0.1,9.8-11.5,15.5c-9.5,4.7-11.7,5.3-24.7,6c-10.8,0.6-15.2,0.3-18.2-1.3 c-2.4-1.3-10.5-2.4-21.1-2.8c-9.4-0.6-18.3-1.5-19.7-2.4c-1.5-0.7-3.8-1-4.9-0.6c-1.3,0.6-3.1,0.3-4.1-0.6 c-0.8-0.8-3.2-1.4-5.2-1.5c-9.1,0-17.6-1-19.1-2c-1-0.7-2.4-0.7-3.2-0.3c-0.7,0.4-5-0.1-9.6-1.4c-12-3.1-15.1-2.8-17.5,1.8 c-3.6,6.8-11.3,12.8-23.3,18c-15.1,6.4-21.5,7.3-28.6,3.2c-18-9.9-23.7-15.1-35.1-31.8c-9.2-13.7-13.5-16.6-20.3-13.7 c-2.5,1-7.4,3.8-10.8,6.1c-3.5,2.2-7,3.9-8.1,3.5c-1-0.4-2.9,0.6-4.3,2.2c-2.8,3.4-9.1,8-19.4,14.1c-5.7,3.5-7.8,4.1-10.1,2.9 c-2.1-1.1-3.8-0.6-8.5,3.1c-8.1,6-8.5,6.3-12.7,7.1c-2,0.4-7.7,3.5-12.6,6.8c-4.9,3.4-14.2,8.8-20.8,12.2 c-6.6,3.2-16.2,8.1-21.4,10.8c-8.4,4.3-10.3,4.7-16.2,3.9s-7.3-0.6-9.6,2.1c-2.5,2.8-3.8,3.1-10.3,2.2c-6.8-0.8-8-0.6-11.3,2.5 c-3.8,3.5-17.2,6.4-20.5,4.3c-1-0.6-2.1-0.4-2.7,0.3c-0.4,0.7-4.3,2.9-8.7,5c-4.3,2.1-11.9,6.8-16.9,10.5 c-4.9,3.6-12.4,8.9-16.8,11.9s-12.2,9.8-17.5,15.4c-5.4,5.6-11.7,11.6-14.2,13.5c-2.4,2-7.4,6.6-11,10.5 c-3.6,3.8-9.6,9.9-13.4,13.6c-6,5.6-7.1,7.4-7.7,13.1c-0.7,6.1-1.3,6.8-5,7.7c-2.2,0.6-6,1.8-8.4,3.1c-2.2,1.1-6.8,3.2-10.1,4.6 c-3.8,1.5-6.4,3.8-7.4,6.3c-2.1,4.9-8.4,7.7-12.4,5.4c-1.7-0.8-3.6-1.1-4.3-0.7c-1.5,1-12.6,16.8-12.6,18c0,1-8.5,13.8-10.3,15.5 s-6.1,14.8-7,21.7c-0.4,2.7-3.1,16.9-5.7,31.4c-2.8,14.7-5.4,29.3-5.7,32.8c-2.1,19-8.5,46-20.3,84.9c-5.7,19-12.3,43.4-14.5,53.8 c-0.3,1.4-1,3.9-1.4,5.6c-2.7,10.1-3.5,14.2-5.6,27.5c-1.3,8.1-2.9,16.9-3.6,19.6c-0.7,2.7-2.1,10.2-3.2,16.8 c-3.2,18.2-3.2,18.3-7,27.2c-2,4.6-3.6,9.9-3.6,11.9c-0.1,5.9-3.1,10.8-11.7,19.6c-8.1,8.4-8.1,8.4-7.1,14.8 c0.6,3.8,2.2,7.8,3.9,9.5c6.4,6.6,12.2,14,12.2,15.8c0,1,0.6,1.8,1.1,1.8c0.7,0,2,1.7,2.9,3.8c2.4,5.3,18.9,26.4,27,34.5 c3.8,3.8,8.1,8.8,9.8,11c2.5,3.5,3.1,3.8,4.2,1.8c0.7-1.3,2.1-2.2,3.1-2.2c2.5,0,6.7,9.9,6.3,14.8c-0.3,2.2,0.8,6.6,2.2,9.6 c3.6,7.8,3.8,38,0.1,51c-5.2,19.1-11.6,35.8-17.7,46.1c-0.7,1.1-1.8,3.4-2.5,4.9c-0.7,1.5-3.6,6.8-6.4,11.9 c-2.9,5-6.1,10.6-7.3,12.6c-1.1,2-3.2,5.4-4.6,7.7c-1.5,2.4-3.6,6.1-4.9,8.4c-1.3,2.4-2.9,5.4-3.9,7c-3.1,4.9-6.6,11.9-6.3,12.2 s-0.8,2.4-2.5,4.6c-1.5,2.4-3.9,6.7-5.3,9.8c-1.4,3.1-3.8,8.4-5.3,11.9c-1.5,3.5-3.9,8.7-5.4,11.6c-1.4,3.1-2.7,6-2.7,6.6 c0,0.7-2.8,7.1-6.1,14.2c-7.1,15.2-12.4,27.7-14.7,34.9c-1,2.8-3.9,7.8-6.4,11.2c-2.7,3.4-4.9,6.6-4.9,7.1s-2.5,4.5-5.6,8.7 c-3.1,4.2-5.6,8.1-5.6,8.9c0,0.7-0.6,1.5-1.3,1.8s-2.8,3.6-4.7,7.5c-3.4,6.6-3.5,7.4-1.4,10.2c2.5,3.8,1.5,14.2-2.5,27.4 c-1.4,4.6-2.7,9.4-2.7,10.6c0,1.1-4.5,11.2-9.9,22.1l-9.8,20.1l4.9,19.7c2.7,10.8,6.4,28.8,8.4,40c2,11.2,4.2,23.5,4.9,27.2 c1.5,8.5,1.5,8.4,2.4,23.3c0.4,6.7,0.1,16.5-0.7,21.8c-1,6-1,11.2-0.3,13.7c0.7,2.2,2.7,10.1,4.3,17.3c1.8,7.3,5.6,21.8,8.4,32.1 c6.6,22.9,9.8,44.1,9.8,63.3c0,31.4-9.1,64.5-22.9,84c-7.8,10.9-27.4,29.5-39.3,37.4c-5,3.2-9.1,6.3-9.1,6.8s-3.5,2.4-7.7,4.1 c-4.2,1.7-7.7,3.6-7.7,4.2s7,8.1,15.4,16.8c17.6,17.9,18.3,19.8,9.8,25.6c-2.8,2-6.6,2.4-19.6,2.4c-8.8-0.1-20.8-0.7-26.5-1.4 c-9.1-1-11-0.8-15.8,1.7c-9.9,5-15.9,12.2-24.2,28.8c-4.3,8.5-8.7,15.6-9.6,15.6s-5-0.7-9.2-1.4c-7.3-1.4-7.5-1.3-15.1,3.6 c-9.6,6.4-32.4,29.2-37,37.3c-5,8.5-5.9,13.1-2.9,16.2c1.7,2,2.4,5.9,2.7,15.1c0.3,6.7,1.8,18.3,3.5,25.6 c5.3,23.6,5.6,28.5,1.5,32.8c-1.5,1.7-2.8,3.9-2.8,5s-0.6,2.7-1.4,3.5c-1.3,1.3-2.8,7-5.2,20.1c-0.8,5.2-8,16.1-11,17.3 c-1.1,0.4-2,2.8-2,5.9c0,4.2-1,6-5.6,10.2c-3.4,3.1-5.6,6.3-5.6,8.2c0,1.7-1.5,5.4-3.4,8.4c-2,2.8-3.9,7.1-4.5,9.4 c-0.6,2.4-1.5,4.9-2.1,5.7c-0.7,0.8-1.8,4.6-2.7,8.4c-1.1,5.4-3.1,8.5-9.5,15.2c-4.3,4.6-9.4,9.5-11,10.8 c-6,4.6-17.5,9.6-23.2,10.2c-3.2,0.3-10.5,1-16.1,1.7C1299.4,20471.1,1294.3,20471.1,1294.1,20470.5z M874.4,20370.8 c0-0.4-2.8-2-6.3-3.5c-3.4-1.5-11.7-6.8-18.4-12c-13-9.8-20.1-13.6-28.6-15.1c-7.4-1.4-7,1.1,1.5,10.1c8.4,8.7,11.3,10.3,30.6,16.5 C867.3,20371.2,874.4,20372.6,874.4,20370.8z M1055.3,20348c-1.3-2.1-16.2-10.3-17-9.4c-1.1,1.1,2.4,5,7.3,8.1 C1049.9,20349.4,1056.7,20350.3,1055.3,20348z M847.6,20313.7c-17.9-17.7-28.5-27.2-30.3-27.2c-1.7,0-2.9,0.6-2.9,1.3 c0,2.5,10.9,14.9,23.2,26.5c11.3,10.8,32.7,26.4,36.2,26.5C874.6,20340.8,862.7,20328.6,847.6,20313.7z M1190.1,20317.7 c6.6-1,9.1-2.7,23.5-15.5c4.9-4.3,12.2-10.1,16.1-12.6c7.4-4.7,22.2-10.2,27.9-10.2c5.6,0,17.5-4.1,18.3-6.4 c1-2.7,8.9-1.5,11.5,1.7c0.8,1.1,2.9,2,4.6,2c2,0,8.1,4.8,16.6,13c7.5,7,15.9,14.1,18.7,15.5c4.7,2.7,5.2,2.7,8.7,0.4 c2-1.4,3.6-3.6,3.6-5.2c0-4.7,4.3-13.8,7-14.7c2.9-1,3.5-2.4,5.6-13.3c1.7-9.2,6.8-22.3,8.7-22.3c1.3,0,0.6,10.2-1.1,17.5l-0.7,2.8 l2.2-2.8c1.4-1.5,5.6-9.4,9.4-17.5c9.1-18.9,12.6-23.9,29.8-42.6c16.1-17.5,20.3-23,17.2-23c-1.1,0-3.2-1-4.6-2.1 c-6.8-5.3-26.1-17.2-33.8-20.8c-8.4-3.9-8.5-4.2-7.8-8.7c0.7-4.2,0-5.4-5-10.5c-3.1-3.2-5.7-6.4-5.7-7.4c0-1.4-16.5-17-20.3-19.3 c-1-0.6-1.3,6.7-1,20.8c0.3,12.3,0,23-0.8,24.7c-0.7,1.7-2.1,4.8-2.9,6.8c-4.7,11.7-13.8,17.3-25.3,15.5c-4.9-0.8-6.4-2-11.5-9.1 c-3.1-4.5-6.8-8.5-8.2-8.9c-1.4-0.4-2.9-2.1-3.4-3.6c-0.6-1.4-2.1-2.7-3.5-2.7c-1.4,0-3.1-1.3-3.5-2.8c-0.4-1.5-1.4-2.8-2-2.8 s-3.2-1.8-5.7-4.2c-2.5-2.2-5.6-4.2-6.6-4.2c-1.1,0-2.2-1-2.8-2.1c-0.4-1.3-2.8-3.1-5.2-4.2c-2.4-1.1-5.3-2.8-6.6-3.6 c-7.4-5.4-20.5,8-24.2,24.6c-0.6,2.4-3.5,7.7-6.6,12.2c-2.9,4.3-5.4,8.8-5.4,9.9c0,1-1.3,3.1-2.8,4.5c-2.5,2.4-4.7,2.9-22.1,6.6 c-6,1.3-7.1,2.1-6.6,4.1c1.7,4.9,3.5,19,3.5,26c0,5.2-1.1,9.4-4.2,15.4c-2.2,4.5-5.3,11-6.8,14.5c-1.5,3.6-6,9.9-10.2,14l-7.4,7.5 l1.3,6.6c1,5,0.8,8-0.8,12c-2,4.9-1.8,5.9,0.4,11.6c1.4,3.4,2.5,7.5,2.5,9.4C1162.2,20319.7,1169.9,20320.6,1190.1,20317.7z M1119.6,20284.2c6-6,6.7-8.5,4.7-15.6c-1.3-4.3-2-13.8-2-28.2c0.1-22.8,0.7-25.6,7.8-34.8c1.4-1.7,2.9-5.4,3.5-8.4 c0.6-2.8,1.8-6.7,2.8-8.8c1.4-2.7,1.5-4.1,0.4-4.8c-4.1-2.5-15.1-22.1-17.3-30.9c-6.7-26.4-15.5-50.6-19.8-54.6l-3.5-3.2l-4.6,2.9 c-2.7,1.7-7,2.8-10.3,2.8c-5.3,0-7.1,1.1-19.1,11.3c-7.3,6.3-14.7,11.6-16.3,11.9c-1.7,0.1-4.9,1-7,1.8c-5.3,2.1-15.6,2-17.5-0.3 c-0.8-1-1.8-4.9-2.2-8.7c-0.6-3.9-1.5-10.2-2.5-14.2c-1.4-5.9-1.3-8,0.3-11.2c1.7-3.2,2.9-18.6,2.7-31.8c-0.3-13.4,0.3-24,1.8-33.5 c1.3-8.9,2.5-12.2,5.7-15.9c3.5-4.2,8-12.3,8-14.8c0-1.4-5.2-0.7-11.2,1.4c-5.3,1.8-7,1.8-15.1,0c-5-1.3-10.1-1.8-11.5-1.4 c-3.2,1-17-10.1-28.4-22.8c-6.6-7.5-10.3-13.4-12.9-19.8c-2-5-3.5-9.8-3.5-10.6s-1.1-3.1-2.5-4.9c-1.4-1.8-3.2-5.9-4.1-8.9 c-2-7.4-1-27.8,1.7-32.8c1.1-2.2,2.1-6.3,2.1-8.9c0-5.4,11.2-28.4,17.9-36.6c9.9-12.4,14.4-17,26-26.8c6.8-5.9,11.7-10.9,11-11 c-0.8-0.3-7.4,3.5-14.5,8.7c-7.1,5-13.5,9.1-14.2,9.1c-2.8,0-6.6-3.1-6.6-5.4c0-4.3,12.4-18,21-23.2c4.5-2.7,8.8-5.9,9.9-7.1 c1-1.3,5.6-4.8,10.3-8c4.6-3.1,11.6-8.9,15.4-12.9c8.4-8.7,14.8-13.3,18.6-13.3c1.4,0,4.3-1.3,6.1-2.8c2-1.4,5.6-3.1,8.1-3.5 c2.5-0.4,5.7-1.4,7.3-2.2c1.4-0.8,3.4-1.1,4.3-0.8c1,0.3,3.1-0.6,4.9-2c1.8-1.4,4.2-2.1,5.4-1.7c1.1,0.4,2.5,0.1,3.1-0.6 c1.1-2.1,11-7.4,13.4-7.4c1,0,3.6-1.5,5.9-3.4c4.7-3.9,30.9-21.8,31.8-21.8c0.4,0,3.2-1.7,6.3-3.6c2.9-2,6-3.2,6.8-2.8 c0.7,0.6,1.7,0.3,2.1-0.4c0.4-0.7,4.5-2.4,8.9-3.6c4.3-1.3,9.1-2.9,10.3-3.6c1.4-0.7,3.8-1.3,5.3-1.3c4.2,0,8-4.6,9.1-11.2 c1.4-8.1-1.3-10.3-16.1-14c-13-3.4-15.9-5.3-22.6-15.8c-4.7-7.4-2.7-7-20.5-4.3c-3.1,0.4-6.3,1.7-7.3,2.8c-0.8,1-2.1,1.5-2.8,1.3 c-0.6-0.4-3.9,0.7-7.1,2.4c-5,2.7-8.1,3.2-18.2,3.1h-12l-2.4,4.9c-3.6,7.5-10.5,15.5-13.3,15.5c-1.4,0-4.5,2-6.7,4.2 c-3.1,3.1-5.6,4.2-9.2,4.2c-7,0-11.2,4.5-14.8,15.9c-1.5,5.3-4.2,12.2-5.6,15.4c-4.1,8.4-17.9,21.9-25.6,25c-1.5,0.6-2.4,1.8-2,2.9 c1.3,3.2-18.2,17.6-23.9,17.6c-4.5,0-31.6,17.6-46.5,30.2c-11.3,9.6-18.4,22.9-24.9,46.7c-1.8,6.6-4.2,14.5-5.2,17.9 c-1.7,5.3-1.5,6.8,0.4,11.7c2,4.8,2,6.4,0.6,10.1c-3.8,9.2-7.1,22.8-7.1,29.1c0,3.6-0.6,7-1.4,7.4c-1.7,1-1.8,6.6-0.3,8.5 c2.5,2.7,5.7,14,5,16.9c-0.6,2,1,6.8,4.5,14c2.9,6,5.4,12.2,5.6,13.7c0.1,1.5,2.7,6.8,5.4,11.9c2.8,5,6.3,12,7.8,15.6 c1.4,3.6,5.2,10.9,8.4,16.1c13.8,22.5,19,31.6,28.2,50c5.4,10.8,12.9,23.2,16.6,27.7c4.7,5.9,6.7,9.5,6.7,12.4s1.5,6,5,9.9 c7.8,8.7,10.5,15.9,10.6,29.3c0,8.7-0.8,14.1-3.6,22.5c-4.3,13.1-4.6,19.3-1,24.4c1.5,2.1,3.5,7,4.5,10.8c2,8,3.5,10.3,6.8,10.3 c1.4,0,3.4,1.4,4.6,3.2c2.1,2.9,2.1,2.9,1-2.1c-2-9.1,1.3-16.8,4.9-11.9c1.4,2,2.4,2.1,6.1,0.6c5.7-2.1,7.7-0.8,14.8,9.4 c6,8.7,16.9,16.9,43.3,33c15.8,9.5,19.8,13.7,33.5,33.9C1112.2,20286.8,1116,20287.8,1119.6,20284.2z M1158.7,20228.6 c3.9-11.2,4.1-19,0.6-19c-4.2,0-13.4,30.7-10.6,35.6c1.1,2.1,1.5,2,3.8-1.4C1153.8,20241.7,1156.6,20234.9,1158.7,20228.6z M1182.6,20164.6c9.9,0.4,9.9,0.3,13.8-4.8c2.1-2.8,5.7-8.9,8-13.6c2.2-4.6,5.6-10.3,7.4-12.7c1.7-2.4,3.6-5.7,4.1-7.4 c1-3.2,11.3-12.2,18.4-16.1c5.4-2.8,25.6-3.1,32.3-0.4c2.4,1.1,8,4.6,12.4,8c4.3,3.4,9.4,6.8,11.2,7.8c1.8,1,4.6,3.6,6.1,5.9 c5.2,7.1,6.6,5.4,7.8-8.7c1.7-19.3,1.7-19.4-2.1-26.7c-3.1-5.7-5.2-7.5-13.1-11.6c-11.9-6-12.9-8.1-10.2-23 c2.1-11.9,1.3-19.3-2.5-23.5c-4.6-5-6.6-12.4-5-18.3c1.8-6.8,2.4-30.3,1-39.8c-0.6-3.8-1.7-10.8-2.4-15.5 c-2.4-14.7-10.9-46.9-15.9-59.9c-2.7-6.8-6.8-20-9.2-28.9c-4.9-18.7-6.3-22.9-8.2-24c-0.7-0.4-1.7-3.5-2.2-6.7 c-1.5-8.5-7.1-13.7-15.1-13.7c-6.7,0-21,6.3-25.4,11.2c-2.4,2.7-2.4,2.9,0.6,9.6c3.4,7.8,3.6,12.2,1.4,17.9 c-0.8,2.1-1.5,5.9-1.5,8.2c0.1,3.9-6.1,14.1-12.9,20.8c-1.1,1.3-2.8,4.8-3.8,8c-2.1,8.1-9.5,15.2-32,30.9 c-12.2,8.5-36.3,32.5-36.3,36.2c0,2.2-7.5,8-11.9,8.8c-14.2,2.9-31.3,18.2-40.5,35.9c-8.2,15.9-11.5,37-8,51.4 c2.8,11.6,2.9,11.6,19.6,6.1c14.4-4.8,17.2-5,34.8-2.9c9.1,1.1,15.2,10.9,20.7,33.1c3.5,13.8,10.1,32.8,14,40.5 c2.7,5.2,8,10.2,16.1,15.6c5.6,3.6,7,4.1,12.6,3.1C1169.9,20164.9,1177.2,20164.5,1182.6,20164.6z M1476.5,20152.2 c0-0.7-0.6-1.3-1.4-1.3c-0.7,0-1.4,1-1.4,2.2c0,1.1,0.7,1.7,1.4,1.3C1475.9,20154,1476.5,20153,1476.5,20152.2z M1493.3,20129.4 c0-0.3-3.4-2.7-7.4-5.3c-12.2-8.1-23.5-19.7-48.1-49.7c-8-9.6-9.4-12.8-6-12.8c0.7,0,9.4,8,19.1,17.9 c14.9,14.9,17.9,17.3,18.3,14.7c0.6-3.9-3.8-12.2-14.4-27.7c-15.5-22.2-18.9-32.4-14.1-41.2c1.7-2.9,1.7-4.2,0-8.1 c-2.8-6.7-7.5-27.7-7.5-33.2c0-8.5-13.4-53.8-23.6-79.3c-2.1-5.4-6-15.2-8.5-21.8c-6-15.2-11-25.6-20.5-41.3 c-8.2-14-17.6-34.4-33.9-74.6c-5-12.3-14.1-31.7-23.5-50.3c-3.2-6.1-5.4-8.5-10.9-11.5c-8-4.3-13.8-4.9-15.8-1.5 c-1,2-3.4,2.4-11.6,2.5c-5.6,0-11.5,0.8-13,1.7c-3.1,1.7-12.6,3.8-16.3,3.5c-1.3,0-3.1,0.8-4.1,2c-0.8,1.1-3.1,2-5,2 c-1.8,0-3.6,0.8-4.1,2c-0.4,1.1-1.8,2-3.1,2c-8.7-0.1-16.8,0.8-19.4,2.5c-1.7,1.1-4.1,1.5-5.3,1.1c-1.1-0.6-2.9-0.3-3.9,0.4 c-0.8,0.7-4.5,2.1-8,3.1c-3.5,1-7.8,2.5-9.6,3.4c-1.8,1-4.1,1.7-4.9,1.7c-0.8,0.1-3.4,0.6-5.7,1.3c-2.2,0.6-5.6,1.3-7.3,1.7 c-1.8,0.3-6.6,3.5-10.9,6.8c-4.2,3.5-7.7,6-7.7,5.6c0-2-21.5,10.5-28.6,16.8c-9.9,8.7-13.7,10.8-18,10.2c-4.6-0.6-29.3,13-41.6,23 c-6,4.9-13,11.7-15.5,15.4c-4.6,6.6-14.9,16.3-17.3,16.3c-1.5,0-22.6,21.2-24.6,24.9c-11.5,19.8-15.9,28.5-17.5,33.1 c-1,3.1-2.2,6.6-2.7,7.7c-0.6,1.1-1,2.8-1.1,3.5c-0.1,0.8-1,2.9-1.8,4.9c-7.1,16.2-8.1,21.2-4.9,28.5c7.4,16.2,14.1,29.3,16.1,31 c4.6,4.3,38.8,2.1,41.9-2.5c1.5-2.7,1.4-9.8-0.4-14.9c-1.4-3.9-1.3-5.2,1.1-8.2c2.5-3.4,3.8-3.8,9.9-3.6c5,0.1,7.3-0.3,7.8-1.8 c0.6-1.3,1.8-1.7,3.5-1.1c2.1,0.6,4.2-1,8.8-6.4c10.9-13.3,19.7-22.2,21.5-22.2c1,0,3.2-2,4.9-4.3s6.7-8,11.3-12.3 c15.4-14.7,31.7-31.6,51.8-53.6c6.8-7.5,13-13.5,13.8-13.5c0.7,0,4.7-2.5,9.1-5.4c4.2-3.1,8.4-5.3,9.4-4.9c1,0.4,6.6-3.6,12.3-8.8 c10.3-9.4,21.7-15.9,35.1-20.7c7.3-2.5,10.3-2.4,21.2,1.5c29.5,10.3,29.8,10.6,33.2,22.9c2.9,10.1,8.5,18.6,19.3,29.5 c23,23.2,35.9,41.3,56,78.6c7,12.8,9.8,21.8,22.5,70.4l2.9,11.6l-3.8,10.8c-4.1,11.7-3.9,18.6,1,35.2c1.1,4.2,2.9,10.5,3.8,14 s3.6,8.5,6.1,11.2c2.5,2.7,6.3,8.2,8.5,12.3c4.3,8.2,14,17,22.6,20.8c4.5,2,7.3,4.9,12.7,13.3c8.9,13.8,11.7,15.6,23.7,15.4 c8.7-0.3,9.8,0,13.5,3.8c3.1,3.1,4.6,3.8,6.4,2.8C1492.1,20130.5,1493.3,20129.7,1493.3,20129.4z M1595.2,20002.6 c-0.1-18.7-1.1-28.1-4.7-46c-0.4-2.1-1.8-5.9-2.9-8.4l-2-4.8l-0.1,6.3c0,3.5,1.3,15.1,2.8,25.8c1.4,10.8,3.1,26,3.6,33.9 c0.6,7.8,1.5,14.2,2.1,14.2C1594.7,20023.8,1595.2,20014.2,1595.2,20002.6z M1116.1,19925.5c0.8-1.1,2.5-1.7,3.5-1.4 c2.2,0.8,7.1-1.4,11.5-5.3c1.7-1.5,3.6-2.4,4.3-2c1.8,1.1,16.6-14.8,25.6-27.5c7.3-10.2,14.5-23.3,13-23.3 c-3.1,0-46.7,34.2-46.7,36.7c0,2-7.4,12.9-11,15.9c-1.8,1.7-3.5,4.3-3.6,5.9C1112.3,19927.8,1113.7,19928.3,1116.1,19925.5z M1558.9,19780.2c0-3.2-3.8-8.7-5.2-7.4c-0.6,0.6,3.9,10.8,4.7,10.8C1558.8,19783.5,1558.9,19782,1558.9,19780.2z M1547.9,19739.1 c3.4-4.3,3.4-10.9,0-16.6c-1.5-2.4-3.8-7.5-4.9-11.5c-1.1-3.9-3.8-10.8-5.7-15.2c-2.9-6.4-4.6-8.5-8.2-9.8c-2.5-1-4.9-1.7-5.4-1.7 c-1.5,0-1.1,16.5,0.4,17.5c0.8,0.4,1.4,2.2,1.4,3.9c0,4.5,7.5,28.2,12.2,38.1l3.8,8.2l2-4.9 C1544.3,19744.6,1546.3,19740.9,1547.9,19739.1z M1204.1,19688.4c0-1.5-3.8-1.7-4.7,0c-0.4,0.6-0.4,1.5,0,2 C1200.5,19691.5,1204.1,19690,1204.1,19688.4z M1044,19666.3c2.4-2.5,2-3.5-2.9-6.3c-2.1-1.1-4.9,3.8-3.8,6.7 C1038.4,19669.7,1041.1,19669.6,1044,19666.3z M1569.4,19648.7c2.9-7.5,8.4-17.5,13.7-24.7c4.7-6.7,10.8-16.2,13.3-21 c5-9.6,4.6-9.1-10.8,11.3c-4.9,6.6-12.3,15.9-16.5,20.7c-8.9,10.2-17.2,22.3-17.2,25c0,1.1,1,2,2.1,2c1.1,0,2.8,1.3,3.8,2.8 c1.8,2.8,1.8,2.8,4.2-0.3C1563.2,19662.7,1566.6,19655.7,1569.4,19648.7z M1110.8,19626.1c5-4.2,10.9-10.6,20-22.1 c3.1-3.8,9.4-11.2,14.1-16.2s9.4-10.5,10.2-12.2c1.4-2.7,1.3-3.1-1.3-3.1c-1.5,0-6.7-1.7-11.6-3.6c-4.7-2-9.2-3.8-10.1-3.9 c-0.7-0.3-2.9-1.1-4.9-1.8c-4.9-2.1-24-5.7-35.6-6.8c-11.9-1.1-13.8-1.1-21-0.1c-3.1,0.6-10.5,1.5-16.5,2.2 c-6.6,0.8-14.8,3.1-20.3,5.6c-5.2,2.2-11.7,5-14.8,6c-2.9,1-7.3,3.9-9.5,6.6c-3.9,4.5-4.2,5.4-3.6,13.4c0.4,4.7,1.5,10.1,2.5,11.7 c1.5,2.9,13.1,9.4,19.1,10.6c1.4,0.3,4.2,1.1,6.3,2c2.1,0.8,4.9,1.1,6,0.7c1.1-0.6,3.1-0.1,4.1,0.7c1.1,1,3.5,1.3,5.3,0.8 c1.8-0.4,5.7,0.3,8.8,1.5c3.1,1.4,6.1,2.4,6.8,2.1c0.7-0.1,4.3,1,8.2,2.7c3.8,1.7,7.1,2.7,7.5,2.4c0.3-0.4,3.2,0.4,6.4,2 C1096,19631.1,1104.9,19630.7,1110.8,19626.1z M1523.3,19564.1c4.7-14,3.4-17.5-1.7-4.2c-3.6,9.4-3.8,10.3-1.5,9.6 C1520.9,19569.3,1522.5,19566.7,1523.3,19564.1z M1192.1,19523.4c3.4-7.1,9.1-19.4,12.7-27.2l6.6-14.4l-1.5-12.2 c-3.2-26.1-4.3-58-4.1-119.2c0.1-60.9,0.7-87.9,3.4-163.4c1.4-39,1.5-116.6,0.1-133.4c-1.7-20.5-6.3-44.3-9.2-47.2 c-2.4-2.4-2,2.4,2.1,26.1c3.1,18,3.5,23.7,2.8,39.3c-1.1,24.2-2.5,31.6-7,34.5c-4.6,3.2-6.4-2.2-7.8-24.3 c-1.3-17.7-14-99.2-16.9-108.7c-2.7-8.2-8.2-22.6-11.7-30c-1.8-3.8-5.3-12.3-7.8-18.7s-7-15.4-9.9-20.1c-3.1-4.6-6.7-11.3-8.1-14.8 c-4.2-10.9-14.1-28.1-16.8-29.5c-1.5-0.8-8.1-9.5-14.7-19.3c-14.9-22.1-23.6-34.4-37-52.2c-5.7-7.8-12.6-17-15.1-20.5 s-9.5-11.7-15.5-18.3c-6-6.6-12.7-14.1-14.9-16.8c-2.1-2.7-6.4-7.8-9.6-11.3c-3.1-3.5-7.8-9.6-10.5-13.5c-2.7-4.1-6.3-7.5-8-8.1 c-3.2-0.8-20.7-18.3-25-25c-1.5-2.5-3.2-3.5-5-3.1c-1.5,0.4-4.6-1-8-3.6c-2.9-2.5-7.4-5.6-9.8-6.8c-2.8-1.5-4.3-3.5-4.3-5.6 c-0.1-3.8-7.4-12.3-11.3-13c-3.2-0.7-14.1-9.2-19.8-15.6c-2.2-2.5-5.4-4.6-7-4.6c-3.1,0-17.7-9.2-17.7-11.2c0-0.7-2.7-2.8-5.9-4.8 c-3.4-2.1-8.5-5.6-11.6-7.8c-3.1-2.2-6.8-4.1-8.5-4.2c-1.5,0-5.3-2.1-8.4-4.6c-9.8-8.1-21.9-14.9-26.7-14.9c-1.3,0-5.2-2.7-8.7-6 c-3.5-3.2-10.5-8.5-15.2-11.5c-4.9-3.1-12-7.7-15.8-10.1c-3.8-2.5-7.4-4.6-8.2-4.6c-0.7,0-1.4-0.4-1.4-1c-0.1-0.7-3.4-3.4-7.3-6 c-3.9-2.7-8.4-6.1-10.1-7.8c-1.7-1.5-4.9-4.2-7.4-5.9c-2.5-1.8-6.4-6.3-8.9-10.1c-3.8-5.7-9.5-10.9-15.5-13.7 c-0.6-0.3-2.4,0.8-4.1,2.2c-1.5,1.5-9.9,6.3-18.4,10.5c-39.5,19.3-86.2,41.5-87.2,41.5c-0.4,0-4.1,1.5-8,3.4 c-17.9,8.4-21.2,9.9-22.6,10.1c-1,0.1-6.1,2.9-11.7,6.1s-11.7,6-13.8,6.3c-2,0.1-6.3,0.8-9.5,1.4c-5.4,1-5.9,0.7-7.8-2.9 c-2.8-5.6-4.5-21.1-2.5-23.5c0.8-1,2.1-6.1,2.8-11.5c2.5-18.7,13.8-52.7,20.3-60.6c1-1.1,2.5-4.9,3.5-8.4c1-3.5,3.8-9.8,6.3-14 c4.6-7.5,6-11.2,9.2-23.6c0.8-3.4,3.8-8.9,6.4-12.6c4.5-6.1,6.3-9.4,9.1-16.6c0.7-1.7,3.2-4.1,5.9-5.3c2.5-1.3,5.6-4.1,6.8-6.3 c1.3-2.2,5.2-5.3,8.4-7c3.9-1.8,6.8-4.5,8-7.1c2.5-5.7,10.5-13.3,20.4-19.7c4.6-2.9,11.9-7.7,16.1-10.8c4.2-2.9,9.1-5.4,10.8-5.4 c1.7-0.1,4.2-1.3,5.6-2.8c1.4-1.4,8.4-5,15.5-8c8.9-3.6,13.5-6.4,14.2-8.4c3.1-7.7,18.2-15.1,24.3-11.9c2.9,1.7,3.9,1.4,7.7-1.4 c3.5-2.7,4.9-2.9,7.7-1.5c2.8,1.3,3.8,1,5.9-1.3c1.3-1.4,3.5-2.7,4.7-2.7s4.3-1,6.6-2.1c2.5-1.3,6.4-2,9.2-1.5 c3.1,0.4,8.4-0.7,14.4-2.9c6.1-2.2,13-3.6,18.7-3.8c5,0,9.4-0.8,9.6-1.5c0.4-0.8-1.5-2.8-4.2-4.5c-2.7-1.8-5.4-3.8-6.4-4.6 c-1-0.7-3.5-1.7-5.6-2s-5.7-1-7.8-1.5c-2.9-0.7-4.6-0.4-6.7,1.5c-3.6,3.2-13.4,3.2-18.4-0.1c-2-1.3-4.3-2.1-5.4-2 c-2.7,0.6-17.9-1.5-21.7-3.1c-1.8-0.7-3.2-2.4-3.2-4.1c0-7.1-22.2-10.9-46.8-7.8c-5.3,0.7-12.3,1.3-15.4,1.5 c-8.2,0.4-15.8,2-24.2,5c-4.2,1.5-8.1,2.4-8.8,1.8c-0.8-0.4-6.8,0.8-13.5,3.1c-30.7,9.6-58.2,19-60.9,20.8c-1.5,1-6.3,2.2-10.5,2.8 c-6.3,0.8-8.7,2.1-14,7c-3.5,3.2-8.5,7-11,8.2c-12.3,6.3-34.1,32.3-44.7,53.2c-8.5,16.9-22.9,53.6-21.8,55.5 c0.4,0.6-0.4,3.1-1.7,5.6c-5.6,10.9-5.2,16.5,1.5,16.5c5.4,0,7.5-1.4,9.1-6.3c1.5-4.8,4.1-6,14-7.1c11.9-1.4,17-0.6,21.7,3.4 c4.2,3.5,10.5,14,12.6,21c1.3,4.5-5,9.9-20.7,17.6c-18.9,9.1-22.9,10.6-28.6,10.6c-2.8,0-7.7,0.7-10.8,1.5c-3.1,0.8-7.4,2-9.8,2.5 c-4.5,1-4.3,0.6-7,19c-0.3,2.4-1.5,6.8-2.7,10.2c-1.3,3.4-2.5,10.9-2.9,16.8s-1.1,13-1.4,15.6c-0.3,2.7-1,10.9-1.4,18.2 s-1.1,15.5-1.4,18.2c-0.7,5.9,0.1,7.3,5.6,10.2c2.4,1.3,6,4.1,8.1,6.4c2.2,2.4,4.6,4.3,5.4,4.3c0.7,0,3.1,1.1,5,2.7 c2.1,1.4,10.8,6.1,19.1,10.5c8.5,4.5,19.4,10.5,24.3,13.6c4.7,2.9,9.1,5.4,9.4,5.4c0.4,0,4.6,2.5,9.4,5.7 c4.6,3.1,16.2,9.8,25.4,14.7c9.4,5,20.3,11.6,24.3,14.7c10.2,7.8,29.1,19.4,31.4,19.4c1,0,3.4,1.1,5.2,2.7c4.6,3.5,12,7.3,13.7,6.8 c0.7-0.3,2.2,0.8,3.4,2.2c1.1,1.5,3.2,2.8,4.6,2.9c1.5,0,6.3,2.1,10.5,4.6c4.3,2.5,8.2,4.5,8.8,4.5c0.6,0,4.5,2.7,8.8,6 c4.2,3.2,9.1,6.8,10.8,8c11.9,8.2,27,20.4,36.5,29.3c16.6,15.6,29.5,26.5,31.3,26.5c0.8,0,2,1,2.5,2.2c0.4,1.3,2.1,3.6,3.8,5.3 c29.5,30.9,33.2,35.8,66.1,83.1c6.6,9.6,12.4,18,13.1,18.9c5.6,7,8.2,10.8,11.3,16.2c12.4,22.2,16.6,29.2,18.6,30.7 c1.1,1,2.1,2.5,2.1,3.5c0,1.1,3.6,8.1,8.1,15.6c17.3,29.6,24.7,40.2,26.8,38.8c1.5-1,0.1-6.4-2.4-9.4c-1.3-1.4-1.7-3.5-1.1-5.2 c0.4-1.7,0.1-5.3-0.8-8.2c-1-2.8-1.8-6.7-2-8.7c-0.3-2-2-13.8-3.9-26.5c-3.2-20.5-4.3-30.6-3.9-35.9c0.3-2.9,2.7-2.1,3.8,1.4 c0.4,1.7,1.5,3.9,2.4,4.9c3.5,4.3,14.2,32.8,15.5,40.8c0.6,3.5,2.5,8.8,4.3,11.9c5,8.4,10.2,19.6,14.7,32.3 c2.1,6.1,9.6,22.5,16.5,36.3c25.8,51.5,56.2,116.4,62.3,132.7c3.4,9.4,8.4,25,11.2,34.9c2.7,9.9,6.6,21.8,8.5,26.4 c3.4,7.4,4.7,17.5,3.2,22.6c-0.1,0.6,0.7,2.8,2.1,4.7c1.3,2,2.8,7.5,3.2,12.6c0.6,4.9,2.1,11.7,3.4,15.2c5.9,14.8,8.4,22.2,10.3,30 c2.1,8.1,8.4,25.1,10.5,27.9c0.6,0.8,2,5.2,2.9,9.8c1.1,4.6,3.1,9.9,4.5,11.7c1.4,1.8,2.5,4.1,2.5,5c0,4.8,20.5,47.9,34.6,72.6 c3.5,6.1,12.2,20.1,19.4,31c7.1,11,16.6,26.8,21,35.1c9.9,19,10.6,19.8,17.7,19.8c3.2,0.1,11,1.3,17.6,2.7 C1186.9,19537.1,1185.3,19538,1192.1,19523.4z M1562.8,19533.2c-0.3-1.8-1-3.2-1.8-3.2c-0.7,0-1.5,1.4-1.8,3.2 c-0.3,2.1,0.3,3.1,1.8,3.1C1562.6,19536.3,1563.1,19535.3,1562.8,19533.2z M1261.4,19495.1c7.3-14.2,14.9-28.2,17.2-31 c2.1-2.9,5-8,6.6-11c2.9-6.3,12.7-15.9,15.9-15.9c1.1,0,5.9-1.7,10.5-3.6c7.4-3.2,9.1-4.7,14.4-13c3.4-5,8-11.2,10.2-13.6 c2.4-2.4,5.9-7.1,8-10.5c2.2-3.4,6-8.8,8.4-11.9c2.5-3.2,6.8-9.5,9.5-13.8c8.8-14.4,13.8-22.4,16.3-25.4c1.4-1.7,4.5-6.3,6.7-10.2 c2.4-4.1,6.1-9.6,8.5-12.4c2.4-2.8,5.3-7.8,6.7-11.3c3.4-8.4,10.6-19.1,28.9-41.9c12.6-15.6,15.9-21.4,37.9-62.9 c9.5-18,17.2-34.1,17.9-37.7c2.2-12.2,5.7-23,7.8-24.7c3.2-2.4,5.4-6.6,19.6-36.5c2.7-5.4,4.7-10.5,4.7-10.9 c0-0.4,4.6-10.6,10.3-22.6c8.9-18.9,10.9-24.4,14-39.4c5.2-25.4,12.6-50,20.5-68.4c3.8-8.8,9.5-22.5,12.6-30.3 c3.2-8.4,7.5-16.5,10.3-19.6c7.8-8.8,12.7-14.9,14.1-17.5c0.7-1.3,3.9-5.3,7.1-9.1c10.2-11.6,14.4-17.5,14.4-20 c0-2.5,10.6-18.2,12.4-18.2c0.6,0,2.2-2.7,3.5-5.9c1.4-3.4,3.1-7,3.8-8.1c0.7-1.1,1.8-3.5,2.7-5.2c1.1-2.8,3.2-5.3,11.6-14.4 c1.1-1.1,2.8-4.5,3.6-7.3c1-2.8,5.2-8.9,9.4-13.7c5.3-6,7.5-9.6,7.5-12.4c0-2.2,1-4.7,2.2-5.9c1.3-1,4.1-5.4,6.3-9.9 c3.6-7.1,4.6-8.1,8.2-8.1c3.2,0,4.9-1.1,7.5-5.2c1.8-2.9,4.7-6.6,6.4-8.1s7-7.5,11.6-13.3c12-14.8,46.8-50,52.7-53.2 c7.5-4.2,14.9-9.9,18.2-14.1c2.1-2.7,4.3-3.9,7-3.9c2.2,0,4.5-0.6,4.9-1.4c0.4-0.7,2.1-1.4,3.5-1.4c1.5,0,3.8-1.5,5-3.5 s3.4-3.5,4.7-3.5c1.4,0,3.1-1.3,3.5-2.8c0.4-1.5,1.7-2.8,2.5-2.8c2.8-0.1,8.8-6,11.3-10.9c2-3.6,2.9-4.3,5.6-3.6 c1.8,0.4,3.8,0.1,4.2-0.7c0.6-0.8,2.2-1.5,3.8-1.5c1.7,0,2.7-1,2.7-2.7c0-4.2-1.5-7.1-3.6-7.1c-1,0-2.7-1.1-3.6-2.5 c-1-1.3-3.6-3.2-6-4.3c-7.7-3.5-21-8.7-23.6-9.2c-1.5-0.4-3.4-1.3-4.2-2.1c-0.7-0.7-2.5-1.4-3.8-1.4s-5.3-1.3-8.9-2.9 c-3.6-1.5-7.7-2.7-9.1-2.2s-4.1-0.4-5.9-1.7c-2-1.4-6.4-2.4-11.6-2.5c-4.6-0.1-11.2-0.8-14.7-1.4c-4.1-0.7-10.3-0.6-17.5,0.7 c-6.1,1-15.2,2-20.3,2.2c-10.2,0.6-18.7,2.4-23.5,4.9c-2.4,1.3-4.3,1.4-8,0.1c-8-2.7-11.7-6.8-18.2-20.1c-3.4-7-7.7-15.5-9.6-19 c-2-3.5-6.1-11.6-9.2-18.2c-3.2-6.6-7.7-14.4-9.9-17.3c-2.2-3.1-4.1-6.1-4.1-6.7c0-5.3-45.5-53.2-53.1-55.7c-2.2-0.8-4.2-2-4.2-2.7 c0-0.6-2.9-2.1-6.6-3.5c-3.8-1.4-8.2-3.9-10.2-5.6c-2-1.7-6.3-3.9-9.8-4.9c-3.5-1-6.8-2.4-7.7-3.1c-0.7-0.6-2.9-1.1-4.9-1.1 c-2,0-4.3-0.7-5.2-1.5c-1.5-1.5-10.6-3.6-20.7-4.7c-2.2-0.3-7.7-2.1-11.9-3.9c-9.1-3.9-21.1-5.4-29.3-3.6c-3.9,0.8-6.4,0.8-7.5-0.1 c-1-0.7-7.3-1.8-14.1-2.2c-9.4-0.8-13-1.7-14.9-3.6c-1.5-1.5-10.3-4.6-21.8-7.5c-16.1-4.2-21.8-5-35.3-5.2 c-14-0.3-16.8-0.7-19.3-2.9c-2.5-2.4-3.6-2.5-8.2-1.1c-6,1.8-19.8,1-26.1-1.7c-2.9-1.3-5.4-1.4-8.1-0.4c-2.7,0.8-5,0.8-7-0.1 c-1.7-0.8-4.2-1.8-5.4-2.2c-2.9-0.8-15.2,3.4-17.3,6c-2.4,2.9-14.9,3.8-17.2,1c-2.1-2.5-9.2-3.1-10.6-0.8 c-0.4,0.8-5.2,1.4-10.5,1.4c-5.3,0-10.1,0.7-10.5,1.4c-0.4,0.7-2.2,1.4-3.8,1.4c-1.7,0-4.1,1-5.4,2.2c-2.2,2-2.7,1.7-6.4-3.9 c-2.2-3.4-7-11.3-10.6-17.9c-14.4-26.8-33.8-51.7-53.9-69.4c-21.9-19.3-31.8-24.9-54.3-30.7c-27.5-7-43-8.7-66.6-6.8 c-18.3,1.3-27.2,1.8-40.1,2c-9.6,0.3-12.3,0.7-12.3,2.2c0,1.7-2.2,2-11.2,1.7c-7.1-0.3-13.4,0.3-16.9,1.5c-3.2,1-7.7,1.5-10.2,1.1 c-3.2-0.7-6.3,0-10.3,2.1c-4.1,2.1-7.7,2.9-11.5,2.5c-9.2-0.8-8.7,5,1.1,10.6c3.6,2.1,7.5,4.2,8.7,4.9c3.5,2,13.1,6.1,14.9,6.6 c2.4,0.4,14.2,4.6,19.3,6.8c4.7,2.1,20.3,5.6,22.2,5c0.8-0.1,2.7,0.3,4.2,1c1.7,0.8,7.4,2.8,12.7,4.3c22.2,6.8,29.1,10.6,24.6,13.4 c-0.7,0.4-4.6-0.6-8.8-2.2c-6.8-2.8-9.9-2.9-40.5-2.9c-24.9,0-33.5-0.4-34.2-1.7c-1.3-1.8-9.1-4.9-21.9-8.5 c-4.5-1.3-11.6-3.9-16.1-5.9c-4.3-2.1-10.6-3.8-14.1-3.8c-4.1-0.1-9.6-1.8-15.8-4.9c-10.1-4.9-15.9-5.7-40.8-6.3 c-19.8-0.3-27.7,1.1-34.8,6.1c-6,4.3-6.3,4.3-9.8,2.1c-4.3-2.9-12-2-23.2,2.9c-4.2,1.8-11.2,4.3-15.4,5.6 c-7.4,2.4-21.2,10.2-23,13.1c-0.4,0.7-2.7,1.4-4.7,1.4c-2.5,0-6.6,2.1-11,5.6c-4.2,3.4-8.4,5.6-10.6,5.6c-2.7,0-5.7,2.1-10.5,7 c-3.6,3.9-7.3,7-8,7c-2.8,0-15.5,7.5-19.6,11.7c-5,5-8.7,8.1-14.1,11.6c-8.1,5.2-22.6,17.3-25.6,21.4c-1.7,2.2-5.7,6-9.1,8.4 c-5.7,3.9-7.8,7.3-8.4,12.9c-0.1,1.3-2.2,4.6-4.6,7.4c-5.2,5.7-11.5,17.6-11.5,21.2c0,1.4-3.4,9.2-7.5,17.2 c-4.1,8.1-8.5,19.1-9.9,24.4c-1.4,5.4-3.6,13.4-5.2,17.9c-1.4,4.5-2.2,8.7-1.8,9.5c1.4,2.2,18.3,1.5,20.3-0.8 c1-1.1,2.5-2.1,3.5-2.1c1,0,2.8-1.5,4.1-3.5c2.1-3.2,2.9-3.5,10.6-2.9c6,0.6,8.7,0.1,9.8-1.4c1-1.1,4.1-2,6.8-2 c4.7,0,18.2-3.9,19.7-5.7c0.4-0.4,2.7-1.5,4.9-2.4c3.6-1.3,14.1-5.7,31.8-13.4c2.8-1.3,5.2-2.9,5.2-3.8s1.3-1.3,2.7-0.8 c1.5,0.4,3.9-0.1,5.3-1.1c8.5-5.9,37.4-14.4,50.8-15.1l8.7-0.4l15.4,14.7c8.5,8.1,19,18.3,23.3,22.6s9.9,8.9,12.4,10.2 c2.5,1.4,4.9,3.4,5.3,4.5s6.8,6.4,14.4,11.9c7.5,5.3,14.4,10.6,15.4,11.7c1,1.1,2.2,2.1,2.9,2.1c1.3,0,27.8,19,38,27.2 c1,0.8,5.7,4.5,10.8,8.2c5,3.9,13.1,10.5,18.2,14.8c9.5,8.1,10.2,8.7,37,30.5c31,25.1,83.4,77.5,110.5,110.8 c34.1,41.5,79.8,113.6,100.4,158.5c4.1,8.7,7.7,17.3,8.1,19c2,7.1,2.1,1,0.3-10.1c-1.1-6.6-2.7-15.9-3.4-21 c-8.2-52.2-10.2-64.7-11.3-71.9c-0.8-4.6-1.7-9.6-2-11.2c-0.1-1.5-0.8-5-1.3-7.7c-0.6-2.7-2-11.2-3.2-18.9 c-5.3-33.5-19.7-104.2-27.8-136.2c-5.3-21.2-16.3-58.7-19.6-65.9c-0.7-1.8-0.4-2.5,1.3-2.5c5,0,17.5,32,30.7,79.1 c7.3,25.8,23.2,88.8,26.7,105.9c0.4,1.4,2.8,12.7,5.6,25.1c7,31.3,7.3,33,10.5,51.8c1.7,9.2,4.5,25.6,6.4,36.3 c1.8,10.8,3.8,21.7,4.2,24.3c0.4,2.5,1.1,6,1.4,7.7c0.7,3.2,1.5,7.5,2.7,14.2c1.3,7.1,6.1,16.2,8.4,15.4c2.4-0.8,6.3,4.2,6.3,8.2 c0,1.5,0.8,4.1,2,5.6c1,1.5,4.2,8.8,6.8,16.2c5.4,14.5,10.2,40.5,11.6,63.1c1,16.5,1.5,19.6,3.8,18.2c1.3-0.7,1.3-0.6,0,1.1 c-1.3,1.5-1.5,5.4-1,12.6c0.4,5.7,1,77.7,1.1,159.8c0.1,82.3,0.8,153.2,1.3,157.8c1.4,12.3,2.8,28.6,2.9,33.9 c0.1,6.1,3.8,5.9,7.4-0.7c3.8-7,20.7-47.6,30.5-73.8c23-60.9,38.6-107.6,57.3-172.5c33.9-117.3,54.6-182.4,72.6-227.7 c5.9-14.9,21.8-52.1,35.2-82.4c27.1-60.8,34.5-79.3,40-99.2c6.6-23.3,8.2-34.8,8.7-57.1c0.3-17.2,0.8-21.8,2.5-22.6 c4.6-2.7,9.1,6.7,10.2,21.7c2.2,26.3-5.4,52-37.9,125.9c-39.7,90.5-58.1,137.7-70.7,181.6c-2.2,7.7-5,17.2-6.1,21 c-3.6,11.7-15.2,56-28.6,109.7c-15.9,63.3-20.5,81.2-21.5,83.8c-0.4,1.1-1.1,3.6-1.4,5.6c-0.4,2-2.9,11-5.7,20.3 c-2.8,9.2-5.9,19.6-6.8,23c-3.4,11.2-15.8,46.5-20.3,57.3c-2.4,5.7-4.3,11.3-4.3,12.3s-0.7,2.8-1.4,4.2c-2,3.4-14.4,37.6-21.8,60.2 c-9.4,28.2-21.1,60.1-25,67.6c-2,3.6-3.5,7.7-3.5,9.1c0,3.5,8.8,38,9.8,38C1247.8,19520.9,1254.1,19509.2,1261.4,19495.1z M1073.5,19515.3c0.4-0.7,2.9-1.4,5.4-1.4s5-0.4,5.6-1c0.6-0.7,3.9-1.3,7.4-1.4c3.5-0.1,7.1-1,7.8-1.7c1.1-1.1,1.1-1.5,0-1.5 c-4.7,0-21.1-30-31.2-57.3c-3.2-8.8-6.8-18-7.8-20.5c-1.1-2.4-2-4.9-2-5.6c0-0.7-1.5-4.3-3.4-8.2c-1.8-3.8-4.6-10.9-6.3-15.9 c-4.7-14.9-9.4-28.2-12.7-36.3c-3.9-9.6-11.7-34.4-16.2-51.7c-7.7-29.6-24.6-81.4-31.4-96.2c-3.1-6.4-5.4-12.9-5.4-14.1 c0-7.5-41.1-95.1-58.8-125.2c-9.2-15.6-21.4-32.8-34.1-48.1c-5.4-6.6-14.2-17.2-19.6-23.7c-5.3-6.6-10.6-12.9-12-14 c-1.3-1.1-4.5-6.6-7.3-11.9c-4.9-9.8-4.9-9.8-2.2-13.1c1.5-1.8,2.4-3.8,1.8-4.2c-0.4-0.4-2,0.6-3.4,2.2l-2.5,3.2l-3.6-7.4 c-2-3.9-5.7-10.6-8.5-14.7c-2.7-4.2-4.9-7.8-4.9-8.2c0-0.4-2.2-4.3-4.9-8.8c-2.7-4.5-4.9-9.1-4.9-10.5c0-1.3-1.1-2.7-2.7-3.1 c-1.4-0.3-4.1-3.9-5.9-7.8c-1.8-3.9-4.6-8.7-6.1-10.6c-1.5-1.8-2.8-4.3-2.9-5.3c-0.4-2.8-8.8-15.9-11.9-18.4 c-3.2-2.8-9.1-10.5-17.2-22.5c-3.2-5-8.9-12.3-12.6-16.2c-6.1-6.8-8.1-10.2-5-8.2c0.8,0.4,1.4,0.1,1.4-0.7c0-1-1.1-1.3-2.8-0.7 c-1.5,0.4-2.8,0.4-2.8-0.3c0-0.6-2.1-3.4-4.7-6c-4.2-4.6-6-7.3-11.7-17.6c-1-1.8-2.9-3.4-4.3-3.4c-1.5,0-3.4-1.7-4.3-4.2 c-1-2.2-2-4.2-2.1-4.2c-0.1,0-2.5,0.8-5.2,2c-5.7,2.5-7.1,1.7-9.9-5c-1.3-2.9-2.8-5.3-3.5-5.3c-0.8,0-1.8-1.5-2.2-3.4 c-0.4-2-2-3.8-3.4-4.3c-1.3-0.4-5.2-3.4-8.7-6.6c-3.5-3.1-5.2-5.3-3.8-4.7c1.5,0.6,2.2,0.3,1.7-0.7c-0.6-0.8-2-1.1-3.1-0.6 c-1.3,0.4-3.4-0.3-4.7-1.5c-2.9-2.7-3.6-5.4-0.8-3.9c0.8,0.6,0.6-0.3-1-1.7c-1.8-2-2.8-2.1-3.2-1c-0.4,1.3-1.4,1.4-3.4,0.4 c-3.4-1.8-3.5-4.5-0.1-3.2c1.8,0.7,2.1,0.4,0.7-1c-1.7-1.8-7.5-2.8-18.6-3.2c-5.7-0.3-6.3-0.6-5.9-3.5c0.4-2.4-0.6-3.6-4.2-5.2 c-2.5-1.3-5.6-2.8-6.7-3.5c-1.1-0.7-5-2.7-8.8-4.3c-6.6-2.9-7.1-2.9-19.4-0.3c-3.5,0.7-3.9,0.3-3.9-2.8c0-2.4-1.4-4.3-4.5-6.4 c-12.2-7.8-17.2-11.5-18.3-13.6c-0.7-1.3-2.2-1.8-3.8-1.3c-1.8,0.6-3.4-0.3-5-2.8c-1.4-2.2-3.2-3.4-4.5-2.8 c-3.4,1.3-7.3-0.7-7.3-3.6c0-1.7-1.4-3.2-3.5-4.1c-2-0.7-3.5-2-3.5-2.7c0-0.7-1.4-3.5-3.1-6.1c-3.5-5.3-7.8-8.2-22.1-15.1 c-5-2.4-10.2-4.9-11.5-5.6c-1.4-0.7-3.4-1.3-4.5-1.3c-1.3,0-3.6-1.7-5.6-3.8c-3.2-3.5-10.8-7.1-16.9-8c-1.5-0.3-3.2-0.6-3.8-0.7 c-0.7,0-1.1-1.7-1.1-3.4c0-2.5-1.4-3.9-5.4-5.9c-3.1-1.3-6-2.1-6.7-1.7c-0.7,0.4-2.2-0.3-3.5-1.7c-2.7-3.2-22.4-11.5-29.3-12.4 c-4.5-0.6-5.3-0.3-5.4,2c-0.8,12.9-0.7,18.9,0.6,23.5c1.4,4.8,1.3,5.6-1.5,7.7c-2.2,1.7-2.8,3.2-2.4,6.1c0.4,2.1,1,15.6,1.4,30 c0.3,14.4,1.3,28.6,2.2,31.7c0.8,3.1,1.4,9.5,1.3,14.4c-0.1,6,0.6,9.9,2,12.2c1.8,2.7,2,4.2,0.7,7.3c-2.9,7.5-0.8,44.6,3.8,66.8 c3.5,16.9,10.3,45.4,14.7,61.6c2.2,8.5,4.1,17.7,4.1,20.4c0,4.6,4.1,18.9,11.9,42.3c4.5,13.1,5.6,16.8,8.5,25.8 c3.2,10.5,6.3,17.2,8.5,18.6c1,0.6,1.8,2.5,1.8,4.3c0,5.2,7.8,15.9,13.5,18.7c2.9,1.3,6.6,3.5,8.1,4.9c5.4,4.7,7.1,6.1,21,16.3 c7.7,5.6,15.6,11.9,17.7,13.8c5,4.9,7,6.6,18.6,14.9c12.2,8.7,12.4,8.7,58.5,9.8c18.4,0.4,34.5,1.3,36,2.1c1.4,0.7,9.2,1.5,17.5,2 c8.4,0.3,18.6,1.5,22.8,2.8c4.2,1.3,9.9,2.8,12.6,3.5c9.8,2.4,26,7.4,29.6,9.2c2.1,1.1,4.9,2,6.3,2c1.4,0,4.3,1,6.6,2.1 c2.1,1.1,5.3,1.7,7,1.3c3.6-0.8,13.4,2.5,19.1,6.6c2.4,1.7,4.6,2.7,5,2.1c0.4-0.4,2.1,0.1,3.8,1.3c1.5,1.1,4.1,2.1,5.6,2.1 c1.5,0,3.8,0.8,4.9,2c1.3,1,10.5,5.4,20.4,9.9c10.1,4.5,19.1,8.8,20.3,9.6c1.1,1,3.6,2.4,5.6,3.4c2,1,6.4,3.4,10.1,5.4 c3.6,2.2,13.1,7.7,21,12.2c19.7,11.3,26,16.2,43.7,33.8c27.9,27.5,44.8,51.5,57.7,81.9c9.8,22.9,18.9,48.1,25.3,70.3 c2.5,8.5,5.4,18.2,6.4,21.7c1,3.5,3.4,11.6,5.3,18.2c2,6.6,5.2,18.4,7.3,26.5c3.6,14.1,6.1,22.6,14.8,52.4c2.4,7.7,6.7,23,9.8,34.1 c3.1,11.2,5.9,20.7,6.3,21.4C1062,19517.2,1072.5,19517,1073.5,19515.3z M1486.7,19478c3.5-9.1,9.1-22.8,12.3-30.5 c3.1-7.7,7.3-18.2,8.9-23.3l3.4-9.5h-3.4c-3.6,0-4.1,1-21,47.5c-10.9,29.9-11.5,32.1-8.8,32.1 C1479.6,19494.4,1482.6,19488.4,1486.7,19478z M1412,19477.8c2.4-6.6,3.5-10.9,2.5-9.8c-1.1,1.1-3.5,7-5.6,13 C1404.1,19495.4,1406.4,19493,1412,19477.8z M1547,19459.5c2-5.6,3.5-10.9,3.4-11.7c0-1.4-4.9,11.5-7.5,20.4 C1540.5,19475.8,1543.8,19468.8,1547,19459.5z M1015.5,19443c0-7.8-14.1-73.2-21.5-99.5c-14.2-51-30.2-90.8-36.5-90.8 c-2.5,0-7.5-6.7-14.1-18.9c-2.8-5.3-5.9-10.3-6.7-11.2c-0.8-0.7-4.7-5.4-8.5-10.5c-3.9-5-7.4-9.4-8.1-9.5c-0.6-0.3-3.8-4.2-7.3-8.7 c-6.1-8-7.7-9.1-27.9-19.3c-9.4-4.8-26.8-17-32.1-22.5c-2.9-3.1-6.7-5.7-8.2-5.7s-8.8-3.9-16.1-8.8c-20.7-13.4-20.1-13.1-34.6-18.4 c-4.9-1.7-9.6-3.9-10.9-4.9c-1.1-1-4.1-1.4-6.6-1c-2.5,0.3-5.7,0-7-0.7c-1.5-0.7-3.5-0.7-4.9,0c-4.1,2-18.6-0.4-29.1-4.9 c-5.3-2.4-12.9-4.6-16.8-5.2c-3.8-0.4-8.8-1.1-11.2-1.5c-3.9-0.7-15.1-1-23-0.8c-2,0.1-7.5-1.3-12.4-2.8 c-6.7-2.2-10.2-2.7-14.7-1.8c-3.1,0.6-14.8,1.1-26,1.1c-13.5,0.1-20.3,0.7-20.3,1.7c0,0.8,3.2,4.2,7,7.5c3.9,3.2,8.1,7.1,9.5,8.5 c1.4,1.5,3.2,2.7,4.1,2.7c1.7,0,5.4,3.5,54.9,52.1c19.3,18.7,40.9,39.4,48.3,45.8c17.9,15.6,34.2,30.5,47.9,43.4 c6.3,5.9,15.4,14,20.4,18c5,4.1,13.5,11.5,18.9,16.5c11.3,10.8,22.2,20.4,33.7,30.2c4.5,3.9,13.3,11.7,19.4,17.6 c13,12.4,34.1,30.5,36.7,31.6c1.1,0.4,3.4,2.1,5,3.8c6,5.6,71.5,55.3,72.9,55.3c0.4,0,3.4,2.1,6.6,4.8c9.2,7.4,16.6,12,17.9,11.2 C1015,19447,1015.5,19445.1,1015.5,19443z M1611.2,19414.8c0.7-2.4,0.6-2.8-0.3-1.4c-0.7,1.1-1.8,3.6-2.2,5.6 c-0.7,2.4-0.6,2.8,0.3,1.4C1609.6,19419.2,1610.7,19416.7,1611.2,19414.8z M1695.5,19419.5c8.4-5.9,19.8-44,19.8-66.2 c0-11.2-2-22.9-4.6-26.5c-1.5-2.2-1.8-0.7-2.1,10.2c-0.4,27.8-5,53.1-12.7,69.7C1689.1,19421.9,1689,19424.1,1695.5,19419.5z M1621.6,19387.5c4.6-12.3,12.4-31.7,17.5-43.3c11.5-26.8,11.5-26.7,7.5-27.7c-1.7-0.6-3.1-0.7-3.2-0.6 c-3.9,12.3-12.6,38.1-20.8,62c-5.9,17-10.6,31.4-10.6,32C1612,19412.5,1613.7,19408.5,1621.6,19387.5z M1638.5,19406.4 c0.8-1.5,1.4-6.7,1.1-11.6l-0.4-8.7l-3.8,10.2c-2.2,5.6-3.9,10.8-3.9,11.6C1631.6,19410.3,1637,19409.2,1638.5,19406.4z M1646.9,19374.1c0-0.8,2.9-6.1,6.4-12c7-11.5,19.3-36.6,18.4-37.6c-0.3-0.3-2.1-0.7-4.1-0.8c-4.1-0.6-6.1,3.5-16.5,31.4 c-7.3,19.7-8.1,22.8-5.7,21.2C1646.4,19375.9,1646.9,19374.8,1646.9,19374.1z M1676.3,19369.8c2.1-5.9,3.6-26.3,2-26.3 c-2.4,0-8.9,20-8.9,27c0,6.1,0.3,6.6,2.7,5.3C1673.3,19375,1675.3,19372.3,1676.3,19369.8z M1599.1,19335.4c1-4.5,1-5.9-0.1-5.4 c-2.1,0.6-5.4,10.5-4.3,12.4C1595.9,19344.5,1597.5,19342.1,1599.1,19335.4z M267.2,19330.4c5.9-2.5,9.9-7,13.7-15.5 c2.5-5.6,3.4-10.8,4.2-26.5c1-17.3,3.9-33.8,8.9-49.7c0.7-2.2-0.6-2.1-10.8,1.7c-6.4,2.2-12.9,4.7-14.4,5.4 c-3.4,1.4-9.1,2.8-16.8,3.8c-3.1,0.4-7.4,2-9.5,3.5s-4.6,2.5-5.6,2.1c-3.1-1.1-20.5,2.8-23.3,5.3c-2,1.8-6.7,2.8-16.3,3.8 c-11.3,1-14.5,1.8-19.4,5.2c-5.2,3.4-7.8,4.1-20.1,4.9c-19,1.3-20.3,2.1-10.2,5.7c4.6,1.7,23.6,11.3,42.2,21.5 C244.9,19331.7,255.2,19335.6,267.2,19330.4z M1484.9,19230.1c0-0.8-1-0.7-2.1,0.3c-1.1,1-2.1,2.4-2.1,3.1c0,0.8,1,0.7,2.1-0.3 C1483.9,19232.2,1484.9,19230.8,1484.9,19230.1z M383.6,19183.6l27-13.4l6.7-9.2c3.6-5,10.3-13.3,14.8-18.3c4.3-5.2,8-9.8,8-10.3 c0-3.5-11.9,2.7-13.1,7c-1,2.9-10.3,8.7-14.2,8.7c-1.5,0-7.4,4.3-13.3,9.5c-5.7,5.3-15.5,13-21.7,17.3c-11.9,8.5-26.1,22.1-23,22.1 C355.8,19196.9,368.8,19190.8,383.6,19183.6z M512.7,19086.5c9.6-2.9,23.9-6.4,31.8-7.8c8.7-1.5,14.1-3.1,13.8-3.9 s-3.2-2.9-6.7-4.8c-6.7-3.5-20.8-16.6-20.8-19.3c0-1-2.1-3.1-4.5-4.6c-2.5-1.7-7.7-5.2-11.6-7.8c-3.8-2.7-7.4-4.9-8-4.9 c-0.7,0-1.1,4.3-1.1,9.6c0,5.4-0.7,10.2-1.4,10.6c-0.8,0.6-1.1,1.4-0.7,2.1c0.8,1.4-4.5,15.9-10.5,28.8 C488.3,19094.7,486.4,19094.6,512.7,19086.5z M1586.4,18962.5c12.4-24.9,22.2-44.8,21.8-44.4c-2.8,2.7-24.4,39.5-30.5,51.8 c-6.8,13.8-14.7,33.8-14.7,37.4C1563.1,19009.7,1563.2,19009.4,1586.4,18962.5z M1704.2,18925.2c0-2.4-0.3-2.4-1.4-0.7 c-0.7,1.1-1.4,3.4-1.4,4.9c0,2.4,0.3,2.4,1.4,0.7C1703.5,18928.9,1704.2,18926.7,1704.2,18925.2z M749.3,18816.2 c-0.6-1.1-1.8-2.1-2.8-2.1c-1.7,0-1.7,0.4-0.3,2.1C748.6,18818.9,750.3,18818.9,749.3,18816.2z M740.9,18805 c-0.6-1.1-1.4-2.1-2.1-2.1c-0.6,0-0.8,1-0.4,2.1c0.6,1.1,1.4,2.1,2.1,2.1C741,18807.1,741.3,18806.1,740.9,18805z M1787.2,18775.7 c0.4-1.1,0.1-2.4-0.4-2.8c-1.1-0.6-9.9,18.4-9.9,21.2C1776.8,18795.2,1785.6,18779.6,1787.2,18775.7z M1795.6,18738 c4.5-6.8,10.5-16.1,13.3-20.3c2.9-4.2,5.7-8.5,6.4-9.6c2.5-4.5-4.7,2.2-15.8,14.4c-10.6,11.5-11.7,13.3-15.5,25.1 c-2.4,7-4.6,14.1-5.2,15.5c-0.4,1.5,1.3-0.7,3.9-4.9C1785.4,18754,1791.1,18745,1795.6,18738z M1754.9,18748.9 c10.5-11.5,25-29.2,27-33c2-3.6,2-3.8-0.4-2.2c-2.2,1.5-14.4,14.5-31.2,33.8c-5,5.6-5.4,6.6-2.9,6.6 C1748.9,18754,1752.4,18751.7,1754.9,18748.9z M1820.3,18679.7c7.8-6.4,17.3-14,21.1-16.9c8.1-6.3,8.9-8.4,1.3-2.8 c-19.8,14.1-40.2,31.2-37.4,31.2C1805.6,18691.2,1812.5,18686,1820.3,18679.7z M1930.2,18348.7c-12-8.1-54.1-31-55-30 c-1.1,1.1,4.7,4.9,13.7,8.5c11.3,4.8,20.1,10.2,27.9,17.5c6,5.4,9.9,7.1,13.4,6C1931.7,18350.1,1931.7,18349.8,1930.2,18348.7z M1524.3,18288.9l-0.6-5.6h-6.6c-3.5,0-8.9-0.4-12-0.8c-5.2-0.6-4.6-0.1,6.3,5.6c6.6,3.5,12.2,6.3,12.6,6.3 C1524.4,18294.5,1524.6,18292,1524.3,18288.9z M1133.4,18264.9c1-1.8,2.4-5.6,2.8-8.5c0.6-2.9,1.4-6.4,1.8-7.7s-1-0.3-3.1,2.2 c-2,2.4-6.4,6.4-9.9,8.8c-3.4,2.2-6.1,4.8-6.1,5.4c0,0.7,2.1,1.5,4.6,1.8c2.4,0.3,5.3,0.7,6.1,0.7 C1130.6,18267.8,1132.3,18266.5,1133.4,18264.9z M1155.2,18209.3c0.8-1.5,1.1-2.8,0.8-2.8c-0.4,0-1.4,1.3-2.2,2.8 c-0.8,1.5-1.1,2.8-0.8,2.8C1153.4,18212.1,1154.4,18210.8,1155.2,18209.3z"></path> <path d="M791.3,18881.2c-1.8-3.4-1.8-4.1-0.1-3.4c1.1,0.4,2.2,2.2,2.7,4.2C794.7,18886.5,794,18886.2,791.3,18881.2z"></path> <path d="M295.4,18520.8c-7-4.6-13.3-13.8-13.3-19.4c0-8,2.5-15.1,6.3-17.5c3.8-2.5,7.7-2.9,7.7-0.8c0,0.8,0.7,1.4,1.5,1.4 c0.7,0,1-0.7,0.4-1.5c-0.6-1-0.1-1.4,1-1c1.1,0.4,1.8,1.5,1.7,2.4c-0.3,0.8,0.1,1.5,0.7,1.5c2.7,0,12.6,10.8,13,14 c0.4,4.6-2.7,15.5-5.3,18.4C305.2,18522.6,299.8,18523.6,295.4,18520.8z"></path> <path d="M335.3,18495.5c-3.9-4.9-4.3-6.1-3.4-9.9c1-3.2,2.7-4.9,6.1-6.1c8.8-3.2,22.4-2.1,22.4,1.8c0,2.8-5.4,13.1-8.8,16.9 C346.8,18503.3,340.6,18502.3,335.3,18495.5z"></path> </g> </svg>