<svg xmlns="http://www.w3.org/2000/svg" xmlns:xlink="http://www.w3.org/1999/xlink" id="comida" x="0px" y="0px" viewBox="0 0 240 184.9" style="enable-background:new 0 0 240 184.9;" xml:space="preserve"> <g> <path d="M236.2,1.6c0-0.1,0-0.1-0.1-0.1c0,0,0,0-0.1,0c-2.3,1.8-4.1,4-5.3,6.6c-1.6,3.4-3,6.3-3.9,9.3c-1.1,3.8-2,7.3-2.6,11.5 c-0.2,1.2-0.5,2.5-0.7,3.8c0,0.1,0,0.1,0,0.2l0.3,0.5c0,0.1,0,0.1,0,0.2c-0.4,0.6-0.4,1.2-0.2,1.9c0.2,0.4-0.3,1-0.6,1.4 c0,0.1-0.1,0.1,0,0.2l0.4,1.3c0,0.1,0,0.1,0,0.2c-0.2,0.5-0.2,1,0,1.6c0.1,0.3,0,0.7-0.2,1.1c0,0.1,0,0.1,0,0.2 c0.1,0.6-0.2,1.3,0.3,1.8c0,0.1,0.1,0.1,0,0.2l-0.3,0.5c0,0,0,0.1,0,0.1c0.1,0.7-0.1,1.3-0.1,1.9c-0.1,4.7,0,9.5,0,14.2 c0,4.8,0.4,9.7,0.5,14.3c0,0.1,0,0.1,0.1,0.2l0.1,0.1c0.1,0.1,0.1,0.1,0.1,0.2c0,2.3,0.3,4.1,0,6c0,0.1-0.1,0.1-0.1,0.1 c0,0,0,0-0.1,0c-1-1.1-1.2-3.2-1.2-4.7c0-0.1,0-0.1,0.1-0.2c0.3-0.4,0.2-0.8-0.2-1.1c0,0-0.1-0.1-0.1-0.1 c-0.6-6.3-0.6-11.7-0.4-17.5c0-0.9-0.2-2.1,0.1-3c0.1-0.5,0.1-0.9-0.1-1.4c0-0.1,0-0.1,0-0.2c0.2-0.5,0.2-1.1,0.1-1.6 c-0.2-0.8-0.1-1.6-0.1-2.5c0-0.1,0-0.1,0.1-0.2l0.2-0.2c0.1,0,0.1-0.1,0.1-0.2c-0.1-0.6-0.4-1.1-0.2-1.9c0-0.1,0-0.1,0-0.2 c-0.1-0.3-0.1-0.6,0.2-0.9c0,0,0.1-0.1,0.1-0.1c0-0.6,0-1.2,0.1-1.7c0-0.6-0.1-1.2,0-1.8c0-0.6,0.4-1.1,0-1.9c0-0.1,0-0.1,0-0.2 c0.3-0.8,0.3-1.6,0-2.4c0-0.1,0-0.1,0-0.2c0.4-0.4,0.5-0.9,0.6-1.4c0-0.1,0-0.1,0-0.2c-0.3-0.5-0.3-1,0-1.6c0-0.1,0-0.1,0-0.2 c-0.4-1.5,0.4-3.7,0.5-5.3c0.3-3,0.9-6,1.6-8.9c0.9-3.5,2.4-6.7,3.8-10.1c1.1-2.7,2.8-5.9,5.2-7.5c0.7-0.5,1.4-1,2-1.6 c0,0,0.1-0.1,0.2-0.1c0.8,0.1,1.3,1.2,1.7,1.9c0.2,0.4,0.3,1.4,0.3,2c0,1.5,0,3,0.1,4.5c0.1,1-0.2,3.2,0.3,3.9c0,0.1,0,0.1,0,0.2 c-0.7,1.1-0.1,3.2,0,4.3c0.1,1.7,0.2,3.7,0,5.4c-0.1,0.4,0.1,0.7,0.1,1.1c0,3.9,0,7.4,0.1,10.4c0,0.7,0.2,1.3,0.1,2.1 c-0.1,0.8,0.1,1.8,0.1,2.4c0.2,4.2,0.1,8.4,0.3,12.7c0.3,6.8,0.5,13.6,0.3,20.4c0,0.5-0.1,1-0.2,1.4c-0.2,1-0.1,1.9-0.4,2.8 c-0.3,1-0.1,2.1-0.6,2.8c0,0.1-0.1,0.1-0.1,0.2c0,0.5-0.1,0.9-0.1,1.4c0,0.1,0,0.1-0.1,0.1c-0.1,0-0.1,0-0.1-0.1l0.1-1.5 c0,0,0-0.1-0.1-0.1c0,0-0.1,0-0.1,0c-1,1.2-2.2,2.4-3.7,2.9c-0.1,0-0.1,0-0.2,0l-0.7-0.2c-0.1,0-0.1,0-0.2,0 c-0.5,0.2-1.1,0.3-1.7,0.3c-0.1,0-0.1,0-0.2,0.1c-0.4,0.3-0.9,0.3-1.3,0c0,0-0.1-0.1-0.2-0.1c-0.6,0.1-1,0.3-1.5,0.3 c-0.7-0.1-1.4-0.3-2.1-0.4c-0.3,0-0.7-0.1-1-0.1c-0.1,0-0.1-0.1-0.2-0.2l-0.1-0.7c0-0.1,0-0.2,0.2-0.2l3.1-0.2c0.1,0,0.1,0,0.2,0 c1.1-0.5,2.1-0.9,3.2-1.4c2-0.9,3.7-2.2,5.3-3.6c0.5-0.4,0.8-1.1,0.8-1.7c0-3.1,0.1-6.3-0.1-9.4c0-0.5,0-1,0-1.5 c0-1.1-0.2-2.3-0.2-3.4c0-2.5-0.2-5-0.3-7.5c0-0.3-0.1-0.7-0.2-1c0-0.1,0-0.1,0.1-0.1l0.1,0c0.1,0,0.1-0.1,0.1-0.2 c0.1-1.6-0.2-3.4-0.2-4.8c-0.1-8-0.1-16-0.1-24c0-1.5-0.1-3.6-0.1-5.3c0-0.7-0.2-1.4-0.2-2.1c0.1-1.8-0.1-3.5-0.1-5.3 c0-0.6,0-1.2-0.1-1.8C236.2,4.9,236.3,3.3,236.2,1.6z M236.5,1.1c-0.2,0.2-0.1,0.4,0.1,0.5c0.1,0,0.1,0,0.2,0c0,0,0,0,0-0.1l0-0.4 c0-0.1,0-0.1-0.1-0.1C236.6,0.9,236.5,1,236.5,1.1z"></path> <path d="M236.2,50c-0.1,0-0.2,0-0.2,0.1c0,0,0,0,0,0c-0.1,0.6,0,1.1,0.3,1.6c0,0.1,0,0.1,0,0.2l-0.3,0.4c0,0,0,0.1,0,0.1 c0,0.3,0,0.8,0.1,1.5c0.2,2.4,0.1,5.3,0.2,7.6c0.1,1.8,0.1,3.5,0.1,5.3c0,0.1,0,0.3,0.1,0.6c0.1,0.6,0,1.1,0.1,1.7 c0.2,0.8,0.2,1.6,0,2.4c0,0.1,0,0.1,0,0.2c0.5,1.2-0.6,1.4-0.3,2.5c0.1,0.2,0,0.2-0.1,0c-0.5-0.7-0.4-1.4-0.5-2 c-0.2-0.9,0.1-2.4-0.5-3c0,0-0.1-0.1-0.1-0.2c-0.1-1.5-0.1-3-0.2-4.4c-0.3-4.8-0.4-9.5-0.4-14.3c0-0.2,0-1-0.1-2.4 c0-0.9,0-2,0.1-3.2c0.1-1.5,0.1-3.8,0-7c0-1-0.6-1.4,0-2.5c0-0.1,0-0.1,0-0.2c-0.2-0.7-0.3-1.3-0.3-2c0-2.2-0.1-4.3-0.2-6.5 c0-0.1,0-0.2-0.1-0.2c-0.2-0.2-0.2-0.4,0.1-0.6c0.1,0,0.1-0.1,0.1-0.2c0.1-0.5,0.1-1-0.1-1.4c0-0.1,0-0.1,0-0.2 c0.2-0.5,0.2-0.9,0.1-1.2c-0.2-0.6,0.1-1.2,0.1-1.8c0-0.8-0.5-1-0.2-1.9c0.1-0.4,0.1-0.8-0.2-1.3c0-0.1,0-0.1,0-0.2 c0.3-0.4,0.3-0.9,0.1-1.4c0-0.1,0-0.1,0-0.2c0.2-0.4,0.3-0.9,0.1-1.4c0-0.1,0-0.1,0-0.2c0.3-0.6,0.2-1.3-0.1-1.8c0-0.1,0-0.1,0-0.2 c0.3-0.9,0.1-1.7,0.3-2.5c0.1-0.7,0-1.3,0.2-1.9c0.1-0.5,0.2-1,0.2-1.6c0-0.1,0-0.1,0.1-0.1c0.1,0,0.1,0,0.1,0.1 c0.1,1.4,0.1,2.8,0.2,4.2c0.2,2.2,0.2,4,0.2,6c0,0.3-0.1,0.6-0.1,0.9c0.1,0.7,0.2,1.3,0.2,1.9c0,0.4,0.2,0.7,0.2,1.1 c0.1,2.1,0.2,4.4,0,6.4c0,0.4,0.1,0.7,0.1,1c0.1,2.3,0.4,4.7,0.4,7c0.1,3,0.1,6.1,0.1,9.1c0,0.1,0,0.1,0.1,0.2l0.2,0.3 c0,0.1,0,0.1,0,0.2l-0.2,0.1c0,0-0.1,0.1-0.1,0.1c0,1.2,0,2.4,0,3.6c0,0.2,0.2,0.6,0.5,1.3c0.1,0.1,0,0.1-0.1,0.1L236.2,50z M234.3,9.9l0,0.3c0,0,0,0.1,0.1,0.1c0,0,0,0,0.1,0c0-0.1,0-0.2,0-0.3C234.5,9.9,234.4,9.8,234.3,9.9 C234.3,9.8,234.3,9.9,234.3,9.9z"></path> <path d="M74.6,146.4c-2.3-2.3-4.3-4.8-6.2-7.4c-0.2-0.3-0.6-0.6-0.8-1c-0.6-1.3-1.6-2.6-2.3-3.9c-1.9-3.3-3.6-6.7-4.8-10.3 c-0.9-2.6-1.9-5-2.2-7.7c-0.1-0.7-0.2-1.4-0.4-2.1c-0.4-1.5-0.7-2.9-0.7-4.3c0-0.8-0.1-1.6-0.4-2.3c-0.2-0.7,0.6-0.8,0.1-1.4 c0,0-0.1-0.1-0.1-0.2l0.1-9.5c0,0,0-0.1,0-0.1c0.1-0.2,0.2-0.3,0.2-0.5c0.2-2.4,0.4-3.9,0.6-4.7c0.5-1.7,0.7-3.6,1.2-5.2 c1.4-4.6,2.7-8.5,4.6-12.2c1.6-3.1,3.7-6.6,6.1-9.5c2-2.5,4-5.1,6.4-7.2c2.9-2.7,5.9-5.1,9.2-7.3c0.8-0.6,1.9-1.1,2.8-1.7 c0.9-0.6,1.8-0.9,2.7-1.5c1.1-0.7,2.5-1.2,3.6-1.7c1-0.5,2.1-0.9,3.2-1.2c0.1,0,0.2-0.2,0.2-0.3c0,0,0,0,0,0 c-1.3-4.5-2.6-9.1-3.6-13.7c-0.2-0.9,0.1-1.5-0.6-2.4c0-0.1-0.1-0.1-0.2-0.1l-0.6-0.1c-0.2,0-0.3-0.2-0.3-0.3c-0.1-1,0-1.9,0.1-2.8 c0.1-0.7-0.1-1.2,0.1-2c0-0.1,0-0.2-0.1-0.3c-0.1-0.1-0.1,0-0.2,0c-0.1,0.2-0.1,0.4,0,0.6c0,0.1,0,0.1,0,0.2 c-0.6,0.3-1.2,0.6-1.6,0.8c-3.1,1-6.4,2.2-9.3,3.8c-0.6,0.4-1.2,0.7-1.7,0.9c-3.7,1.8-7.1,4.6-10.9,7c-0.4,0.2-0.7,0.8-1.1,1.1 c-2.9,2-5.2,4.5-7.7,6.9c-0.9,0.9-1.7,2-2.4,2.8c-0.6,0.7-1.2,1.3-1.6,1.9c-0.8,1.1-1.3,1.7-1.3,1.7c-2.7,3.3-4.5,6.4-6.6,9.7 c-0.5,0.8-1,1.6-1.4,2.5c-1.6,3.5-3.2,7-4.4,10.7c-1.6,5-2.5,8.6-3.1,13.1c0,0.2-0.2,0.4-0.4,0.4l-1,0.2c-0.1,0-0.3-0.1-0.3-0.2 c0,0,0,0,0-0.1c0.1-1.3,0.2-2.3,0.5-3.6c1-3.6,1.9-7.1,3.1-10.8c1.1-3.4,2.7-6.6,4.2-9.8c0.5-1,1.1-2.1,1.7-3.2 c1.4-2.3,2.7-4.7,4.3-6.8c0.7-1,1.5-2,2.3-3c0.6-0.7,1.1-1.7,1.8-2.4c3.3-3.9,7-7.7,11.1-10.8c0.7-0.5,1.3-1.2,2-1.7 c1.7-1.1,3.3-2.5,4.9-3.5c1.4-0.9,2.9-1.8,4.3-2.7c0.1,0,0.1,0,0.2,0l0.1,0c0.1,0,0.1,0,0.2,0c1.1-0.7,2.2-1.5,3.4-2.1 c1.3-0.7,2.7-1.3,4.1-1.8c0.1,0,0.4-0.2,0.7-0.4c0.5-0.3,0.9-0.2,1.3-0.4c1.9-0.8,3.8-1.5,5.8-2.1c0.1,0,0.1-0.1,0.1-0.1 c0.2-0.6,0.5-1.1,0.8-1.6c2.2-3.4,4.8-5.9,8.1-8.1c3.2-2.1,6.7-3.1,10.6-2.9c1,0.1,2,0.2,3.1,0.4c0.8,0.1,1.9,0.4,2.8,0.4 c0.6,0,0.9,0.1,1.4,0.3c0.4,0.1,0.8,0,1.2,0.2c0.5,0.3,0.7,0.3,1.3,0.2c0.1,0,0.1,0,0.2,0c0.4,0.2,0.8,0.4,1.3,0.4 c0.1,0,0.1,0,0.1-0.1c0.2-0.5,0.6-0.8,1.1-1c2.3-0.9,4.6-1.5,7.3-1.9c2.9-0.4,5.9-0.3,8.8-0.2c2.9,0.2,5.7,0.7,8.4,1.6 c0.4,0.1,1.5,0.5,0.8,1.1c0,0-0.1,0.1-0.2,0.1c-1.2-0.1-2.5,0-3.7-0.2c-0.9-0.1-1.4-0.2-1.5-0.2c-5-0.5-9.4-0.7-14.2-0.1 c-1.5,0.2-3,0.6-4.5,0.9c-0.1,0-0.2,0.1-0.1,0.2c0,0.1,0,0.1,0.1,0.1l1.4,0.8c0,0,0,0.1,0,0.1c0,0,0,0,0,0 c-0.6,0.1-1.1,0.3-1.7,0.3c-2.7-0.1-5.9-0.8-8.2-0.9c-3.4-0.2-6.7-0.9-10,0c-2.5,0.7-5.1,2.4-7.1,4c-1.1,0.8-2,1.8-2.8,2.7 c-1.1,1.3-4.1,5.5-3.7,7.2c0.3,1.2,0.5,2.1,0.7,2.6c0.4,1.3,0.4,2.3,0.9,3.8c0.3,0.8,0.5,1.6,0.6,2.2c0.7,2.9,1.6,5.7,2.4,8.6 c0.1,0.2,0.2,0.5,0.3,0.7c0,0.1,0.1,0.1,0.2,0.1l0.5,0c0.1,0,0.3,0.1,0.3,0.2l0.1,0.7c0,0.1,0,0.1,0,0.2c-0.3,0.6-0.3,1.3-0.1,1.9 c1,2.9,1.3,5.6,2.4,8.6c0,0.1,0,0.1,0,0.2c-0.4,0.4-0.1,0.8,0.2,1.2c0,0,0.1,0.1,0.1,0.1l0.4,0.2c0,0,0.1,0.1,0,0.1c0,0,0,0-0.1,0 c-0.4,0.1-0.5,0.3-0.5,0.7c0.2,1,0.4,2,0.6,3.1c0.1,0.6,0.3,1.5,0.4,2.2c0.5,3.6,1.1,7.1,1.9,11.1c0.1,0.5,0.2,1.4,0.3,2.8 c0,0.5,0.2,1,0.3,1.5c0.1,0.8,0.2,1.7,0.4,2.8c0.2,1.1,0.2,2.5,0.4,3.6c0.3,2,0.6,3.9,0.9,5.9c0.2,1.6,0.5,3.3,0.5,4.9 c0,0.1,0.1,0.2,0.2,0.2c0,0,0,0,0,0c0.4-0.1,0.8-0.2,1.3-0.2c3.8-0.3,7-0.6,11.4-0.5c1,0,1.6,0.5,2.6,0c0.1,0,0.1,0,0.2,0 c0.3,0.2,0.7,0.3,1.1,0.3c1.6,0.2,3.3,0.4,4.8,0.8c0.6,0.1,1.2,0.2,1.7,0.3c1.6,0.5,3.3,0.9,5,1.2c0.1,0,0.2-0.1,0.3-0.2 c0,0,0,0,0-0.1c-0.1-0.8-0.4-1.6-0.4-2.4c-0.2-2.4-0.5-4.8-0.4-7.2c0.2-6.3,0.7-12.6,1.5-18.9c0.2-1.6,0.4-4,0.7-5.9 c0-0.3,0-0.5-0.2-0.8c0-0.1,0-0.1,0-0.2c0.3-0.6,0.5-1.1,0.5-1.8c0-1.2,0.6-2.3,0.7-3.5c0-0.5,0-1,0.2-1.4c0.2-0.7,0.3-1.5,0.3-2.2 c0-0.7,0.4-1.2,0.4-2c0-0.1,0-0.1-0.1-0.1l-0.4-0.2c-0.1,0-0.1-0.1,0-0.1l0.7-0.5c0.1,0,0.1-0.1,0.1-0.2c0.1-1.3,0.6-2.7,0.9-4.2 c0.3-1.7,0.9-3.5,1.2-5.2c0.5-2.9,1.2-5.8,1.8-8.8c0.4-2.3,1-4.7,1.5-7c0.1-0.7-0.1-1.3,0.1-2c0-0.1,0.1-0.1,0.1-0.1l0.4-0.1 c0.1,0,0.1-0.1,0.1-0.1c0.1-0.4,0.1-0.9,0.2-1.2c0.9-3.1,1.5-6.2,1.9-9.4c0-0.1,0.1-0.2,0.2-0.2c0.4,0,0.8,0.1,1.2,0.3 c0.1,0,0.1,0.1,0.1,0.2c-0.2,3.9-1.1,7.3-1.9,11.1c0,0,0,0.1,0,0.1c2,0.9,4.1,1.8,6.1,2.7c2,0.9,3.7,1.9,5.6,3 c4.9,2.8,9.5,6,13.7,9.8c0.8,0.8,1.8,1.4,2.5,2.2c1.2,1.2,2.5,2.4,3.6,3.6c2.1,2.2,3.6,3.9,4.6,5.2c1.8,2.1,2.9,4.1,4.4,6 c0.7,0.9,1.1,1.9,1.7,2.8c0.8,1.3,1.7,2.7,2.4,4c0.9,1.9,2,3.8,2.8,5.8c0.7,1.6,1.4,3.3,2,4.9c1.4,3.8,2.4,7,3.1,9.4 c0.8,3.4,1.3,7.7,2.1,12.2c0.2,1.2,0.1,2.4,0.2,3.6c0,0.4,0,0.8,0,1.2c-0.1,1,0,2.2,0.3,3.5c0.2,0.7-0.3,1.4-0.3,2.2 c0,0.7,0,1.3,0,2c0,0.8-0.3,1.7-0.3,2.7c0.1,1.5-0.1,3.3-0.4,4.9c-0.3,1.9-0.6,3.7-0.9,5.6c-0.3,1.6-0.9,3.2-1.3,4.8 c-0.6,2.5-1.6,5-2.5,7.4c-1.2,3.3-2.7,6.3-4.3,9.4c-0.3,0.6-0.6,1.1-1,1.7c0,0.1-0.1,0.1-0.1,0.2c0,0.3-0.1,0.7-0.3,0.9 c-0.6,1-1.2,2-1.9,2.9c-1.3,2-2.8,3.8-4.2,5.7c-2.7,3.5-5.6,6.7-8.8,9.8c-1,0.9-2.4,1.9-3.5,3c-0.3,0.4-1,0.6-1.5,1 c-0.7,0.6-1.4,1.2-2.2,1.7c-0.9,0.6-1.7,1.3-2.4,1.7c-3.1,2.1-6.2,3.9-9.5,5.6c0,0-0.1,0-0.2,0.1c-0.2,0.1-0.4,0.1-0.5-0.2 c0-0.1-0.1-0.1-0.2-0.1c0,0-0.1,0.1-0.1,0.1c-0.1,0.4-0.2,0.7-0.4,0.8c-2,1.1-4.2,1.8-6.3,2.7c-0.1,0-0.2,0.2-0.2,0.3 c0.1,1.2-0.6,1.8-1.7,2.1c-2,0.6-3.9,1.1-5.9,1.5c-0.4,0.1-0.8,0.1-1.2,0c-0.9-0.1-1.8-0.3-2.7-0.3c-2.6,0.2-5.2,0.8-7.8,1.1 c-1.3,0.2-2.5,0.3-3.8,0.4c-0.6,0-1,0.2-1.6,0.2c-2.9,0-5.6,0.2-8.6-0.2c-0.3,0-0.6,0.1-1,0.3c-0.1,0-0.1,0-0.2,0l-0.5-0.3 c-0.1,0-0.1,0-0.2,0c-0.7,0-1.3-0.1-2-0.3c-0.1,0-0.1,0-0.2,0c-0.5,0.4-0.9,0-1.5,0c-0.1,0-0.1,0-0.2,0l-0.4,0.2 c-0.1,0-0.1,0-0.2-0.1c0,0,0,0,0,0c-0.1-0.6-1-0.4-1.4-0.4c-0.9-0.1-1.8-0.2-2.7,0c-1.2,0.4-2.3,0.7-3.5,1.1c-0.1,0-0.2,0-0.2,0 c-0.8-0.3-1.4-0.8-1.8-1.6c0,0,0-0.1,0-0.1l0.1-0.9c0-0.1,0-0.2-0.1-0.2l-5.9-1.7c-0.1,0-0.1,0-0.2,0c-0.2,0.1-0.3,0-0.4-0.1 c0-0.1-0.1-0.1-0.1-0.1c-4.7-1.6-9.6-3.8-13.4-5.8c-4.3-2.3-8.6-5.1-12.7-8.4c-1.6-1.3-3.4-2.9-5-4.4c-3.2-2.8-6.1-6.1-8.8-9.5 c-2.5-3.1-4.6-6.3-6.5-9.4c-1.2-2-1.9-3.3-2.3-3.9c-0.6-0.9-1-2.3-1.5-3.3c-1.5-2.9-2.7-5.9-3.5-9c-0.3-1.1-0.7-2.2-1-3.1 c-0.5-1.9-1-3.8-1.5-5.7c-0.1-0.2-0.1-0.5,0-0.9c0.1-0.8-0.1-1.5-0.6-2.2c0-0.1-0.1-0.1-0.1-0.2c-0.1-0.8-0.2-1.5-0.3-2.3 c-0.3-1.6-0.3-3.3-0.5-5c0-0.3-0.1-1-0.1-1.3c0.1-1.1,0-2.1-0.2-3.1c-0.1-0.5,0-0.9,0-1.5c0,0,0-0.1,0-0.1 c-0.2-0.3-0.2-0.6,0.1-0.8c0,0,0.1-0.1,0.1-0.2l-0.2-3.3c0-0.1,0-0.1,0.1-0.2c0.5-0.9,0.2-1.4-0.1-2.3c0-0.1,0-0.1,0-0.2 c0.4-0.3,0.5-1.6,0.6-2.1c0-0.1,0.1-0.1,0.1-0.1c0,0,0.1,0,0.1,0c0.1,0.1,0.1,0.2,0.1,0.4c-0.3,2.5-0.3,5-0.1,7.6 c0,0.1,0,0.1,0,0.2c-0.3,0.5,0,0.9,0,1.4c0.1,1.3,0.2,2.6,0.3,3.9c0.1,1.5,0.3,3,0.5,4.5c0,0.1,0,0.1,0,0.2c-0.4,0.9,0.4,2,0.5,2.8 c0.1,0.9,0.3,1.8,0.6,2.7c0.3,0.8,0.3,1.8,0.6,2.7c1.4,5.4,3.1,10.7,5.4,15.8c0,0,0.1,0.3,0.4,0.7c0.6,1,0.8,2,1.4,3 c0.8,1.3,1.4,2.2,1.6,2.6c3.9,7.1,8.7,13,14.4,18.7c1.1,1.1,2.5,2.2,3.8,3.4c3.7,3.4,8.2,6.7,12.5,9.1c2.7,1.5,6.5,3.5,10.5,5.1 c0.7,0.3,1.4,0.9,2,1c0.7,0.1,1.4,0.3,2.2,0.6c0.9,0.4,3.3,1.1,7,2.2c0.1,0,0.1,0,0.1-0.1c0.2-0.9,0.4-1.7,0.5-2.6 c0.3-2.6,0.5-5.3,0.7-7.9c0.2-2.1,0.7-4.1,0.8-6.2c0-0.1,0-0.1-0.1-0.1c-5.2-1.6-10.2-3.4-14.9-6.1 C83.3,154.2,78.8,150.5,74.6,146.4z M170,166.9c1.1-1.1,2.8-1.9,3.6-3.2c0-0.1,0.1-0.1,0.1-0.1c1.5-0.6,2.7-2,3.9-3.2 c2.3-2.4,4.6-5,6.7-7.6c1.4-1.7,2.1-2.9,3.3-4.3c1.4-1.8,2.7-4,3.7-6c0.9-1.9,2-3.6,3.3-6.3c2-4.2,3.5-8.8,4.8-13.3 c0.3-1.2,0.6-2.5,0.9-3.8c0.7-3.9,1.3-7,1.4-10.6c0-0.4,0.1-0.9,0.2-1.5c0.1-0.8-0.1-2.8,0.3-3.3c0.7-1-0.1-1.6-0.2-2.6 c0-0.7,0-1.9,0-3.6c0-0.7-0.4-1.2-0.4-2c0-1.6-0.3-3.5-0.5-4.7c-1.4-10.8-5.2-21.4-10.7-30.7c-0.7-1.2-1.4-2.3-2.1-3.5 c-0.6-1-1.3-1.8-1.9-2.8c-0.6-1-1-1.7-1.3-2c-3.1-3.5-5.8-6.7-9.6-10.4c-4.3-4.1-9.2-8-14.3-11c-4.8-2.8-8.4-4.6-13-6.3 c-0.1,0-0.3,0-0.3,0.1c0,0,0,0,0,0c-1.2,4.4-2,9.1-2.8,13.6c-0.1,0.5-0.1,1.1-0.1,1.8c0,1.4-0.2,2.8-0.6,4.1 c-0.1,0.2,0,0.5,0.3,0.6c5.6,2.6,11.2,6,15.9,10.1c1.2,1.1,2.4,2,3.7,3.3c0.7,0.7,1.5,1.7,2.3,2.5c0.6,0.6,1.1,1.4,1.7,2.1 c2.1,2.4,3.9,4.9,5.5,7.7c0.6,1,1.5,2.1,2,3.3c0.1,0.1,0.2,0.5,0.3,1c0.2,0.7,0.7,1.2,0.9,1.8c1.2,2.6,2.2,5.4,3.1,8.2 c0.4,1.2,0.6,2.7,1,4c0.1,0.3,0.2,1,0.3,2c0.1,1,0.6,1.8,0.7,2.9c0.1,0.8,0.1,1.6,0.2,2.5c0,0.5,0.2,1,0.3,1.5c0,1,0.1,1.9,0.1,2.9 c0,0.5,0.2,0.9,0.1,1.5c-0.3,2.5,0,5.1-0.4,7.7c-0.2,1.1-0.2,2.1-0.4,3.2c-0.4,2.3-0.8,4.5-1.6,6.9c-0.5,1.5-0.9,3.2-1.6,4.9 c-1.4,3.6-2.8,6.7-4.3,9.3c-0.2,0.3-0.5,0.7-0.8,1c-1.1,1.7-2.1,3.3-3.1,5c-0.2,0.4-0.5,0.8-0.9,1.2c-1.6,1.7-3,3.6-4.5,5.3 c-0.4,0.5-0.9,0.9-1.4,1.4c-1.7,1.4-3.5,3.1-5.1,4.3c-3.3,2.5-6.8,4.8-10.5,6.8c-1,0.6-2,1-3.1,1.5c-0.2,0.1-0.3,0.2-0.3,0.4 c0.1,1.3,0.3,2.5,0.7,3.6c0.2,0.5,0.1,1.1,0.2,1.7c0.5,1.8,1,3.7,1.5,5.5c0,0.2,0.1,0.5,0.1,1c0,0.2,0.1,0.3,0.1,0.4 c0.1,0.1,0.3,0.1,0.5-0.1c0.1-0.1,0.2-0.2,0.2-0.2c0.2-0.1,0.4-0.1,0.5,0.1c0.4,0.5,0.6,0.8,0.8,1.4c0.3,1.2,0.6,2.4,1,3.6 c0,0.1,0.1,0.1,0.2,0.1c0,0,0,0,0.1,0c0.4-0.4,1.6-0.6,2.1-0.9c0.1,0,0.1,0,0.2,0l0.2,0c0.1,0,0.1,0,0.2,0c1.6-0.9,3.4-1.6,4.9-2.4 c1.3-0.7,2.6-1.4,3.9-2.1c2.4-1.3,4.6-3,6.9-4.6C169.4,167.2,169.7,167.1,170,166.9z M78.4,28c0,0-0.1,0-0.2,0c0,0,0,0,0,0 c-0.1,0-0.2,0.1-0.1,0.2c0,0,0.1,0,0.2,0c0,0,0,0,0,0C78.3,28.2,78.4,28.1,78.4,28z M77.4,28.4c0,0-0.1,0-0.2,0c0,0,0,0,0,0 c-0.1,0.1-0.2,0.1-0.1,0.2l0,0c0,0,0.1,0,0.2,0C77.4,28.5,77.4,28.5,77.4,28.4C77.4,28.4,77.4,28.4,77.4,28.4z M68.8,34.3 c0.1-0.1,0.2-0.2,0.3-0.3c0,0,0-0.1,0-0.1c0,0,0,0-0.1,0c-0.1,0.1-0.3,0.2-0.4,0.4C68.6,34.5,68.6,34.5,68.8,34.3 C68.8,34.4,68.8,34.4,68.8,34.3z M67.4,35.4C67.4,35.3,67.4,35.3,67.4,35.4l-2.8,2c0,0,0,0,0,0.1l0,0c0,0,0,0,0.1,0L67.4,35.4 C67.4,35.4,67.4,35.4,67.4,35.4L67.4,35.4z M79.2,142.6c1.6,1.4,3.2,3.1,4.4,4.1c1,0.8,2.5,2,4.6,3.5c0.8,0.6,2.7,1.6,5.7,3.2 c0.7,0.4,1.6,0.5,2,1.4c0,0.1,0.1,0.1,0.2,0c0.3-0.3,0.5-0.4,0.7-0.3c0.5,0.4,0.9,0.6,1.4,0.9c0.1,0,0.1,0.1,0.1,0.2l0.1,0.8 c0,0.1-0.1,0.2-0.2,0.2c0,0-0.1,0-0.1,0c-0.9-0.5-1.8-0.9-2.7-1.2c-0.9-0.3-2.4-1.1-4.4-2.3c-0.5-0.3-1.1-0.8-1.9-1.4 c-0.4-0.4-1-0.4-1.4-0.7c-3.4-2.3-5.5-4.1-9-7.3c-0.9-0.8-1.6-1.8-2.5-2.8c-0.7-0.8-1.3-1.6-1.9-2.4c-0.4-0.5-0.9-0.9-1.3-1.5 c-0.5-0.7-0.8-1.1-0.8-1.1c-1.9-2.3-3.4-4.6-4.6-7.3c-0.2-0.5-0.5-1-0.9-1.7c-0.7-1.2-1.3-2.5-1.7-3.8c-0.3-0.9-0.5-1.3-1-2 c-0.2-0.3-0.4-0.7-0.5-1.1c-0.3-0.9-0.7-1.7-0.9-2.7c-0.1-0.5-0.1-1.3-0.4-1.9c-0.6-1-0.8-2.1-0.9-3.1c0-0.7-0.3-1.4-0.4-2.1 c-0.2-1.3-0.4-2.6-0.5-3.9c0,0,0-0.1-0.1-0.1c0,0,0,0,0,0c-0.1,0.1-0.1,0.2-0.1,0.4c0,0.8,0,1.6,0,2.5c0,0.4-0.2,0.5-0.2,0.9 c0.2,1.5-0.4,2.8-0.1,4.2c0.4,1.8,0.6,3.7,1,5c1.8,6.2,4.5,11.9,8.1,17.2c0.2,0.3,0.3,0.6,0.6,0.9c1.6,1.9,2.8,3.9,3.8,4.9 c2.8,2.9,4.7,4.8,5.5,5.5c1.6,1.5,3.2,2.6,4.8,3.8c3.8,2.8,8,5.2,12.4,7c1.4,0.6,3.4,1.3,5.9,2.2c0.6,0.2,1.2,0.2,1.8,0.5 c0.1,0,0.1,0,0.2-0.1c0.2-0.8,0.4-1.6,0.4-2.5c0-0.1,0-0.1-0.1-0.2c-0.1-0.1-0.3-0.2-0.5-0.2c-1.5-0.3-2.8-0.8-4.3-1.3 c-0.8-0.3-1.2-0.7-0.7-1.5c0-0.1,0.1-0.1,0.1-0.1c1.7,0.7,3.4,1.4,5.2,1.8c0.1,0,0.2,0,0.3-0.1c0.4-0.9,0.4-1.9,0.4-2.9 c0.1-1.2,0.4-2.5,0.4-3.8c0-0.2,0.1-0.7-0.1-0.9c-0.8-0.6-2.3-1.6-2-2.7c0.1-0.3,0.2-0.3,0.4-0.1c0.4,0.4,1.5,1.1,1.8,1.6 c0,0.1,0.1,0.1,0.2,0.1c0,0,0.1-0.1,0.1-0.1c0.1-3.1,0.5-6.2,0.7-9.3c0.1-0.7-0.2-1.3-0.2-2.1c0-1.5,0-3.8,0-6.8 c0-0.2,0.1-0.5,0.2-0.8c0.4-1.1-0.3-1.6-0.2-2.7c0-0.1,0-0.1,0.1-0.2c0.3-0.4,0.4-0.8,0.3-1.3c-0.3-0.8-0.4-1.4-0.4-1.8 c0-0.9,0.1-1.7-0.2-2.6c-0.1-0.2-0.1-0.5-0.1-0.7c0-1.8-0.1-3.7-0.1-5.5c0-0.2-0.1-0.4-0.3-0.7c0,0,0-0.1,0-0.2l0.3-0.4 c0.1-0.1,0-0.2-0.1-0.3c0,0,0,0-0.1,0c-0.9-0.3-1.3-0.9-1.4-1.8c0-0.6-0.4-1-0.4-1.7c0-0.8,0.2-3.1-0.5-3.6c-0.1,0-0.1-0.1,0-0.2 l0.4-0.6c0-0.1,0-0.1,0-0.2c-0.1-0.6-0.3-1.1-0.3-1.6c-0.1-1.9-0.1-3.8,0-5.7c0-0.1,0-0.1-0.1-0.1l-0.6-0.3 c-0.2-0.1-0.3-0.3-0.2-0.5c0.1-0.5,0.4-0.8,0.8-1c0.1,0,0.1-0.1,0.1-0.2l0.2-0.8c0,0,0,0,0-0.1l0.7-0.8c0,0,0.1,0,0.1,0 c0,0,0,0,0,0c0.2,0.4,0.2,0.8,0.1,1.3c0,0.1,0,0.2,0.1,0.2c0,0,0.1,0,0.1,0l2.8-0.5c0.1,0,0.2-0.1,0.2-0.3c0,0,0,0,0,0 c-0.6-2.3-1.1-4.4-1.6-7c-0.3-1.6-0.8-3.2-0.8-4.9c0-0.7-0.1-1.2-0.2-1.8c-0.2-0.8-0.6-2-0.3-2.8c0-0.1,0-0.1,0-0.2 c-0.1-0.5-0.3-0.9-0.5-1.3c-0.5-1.3,0-2.7-0.4-4.1c-0.6-2.1-0.7-4.2-1.2-6.9c-0.2-0.9-0.3-1.8-0.3-2.7c-0.1-1.7-0.6-3.3-0.8-5 c0-0.1-0.1-0.2-0.2-0.2c-0.2,0.1-0.5,0.2-0.8,0.4c-1.3,0.9-2.4,1.9-3.8,2.4c-0.1,0-0.1,0.1-0.1,0.1c-0.4,0.6-1.3,1.1-1.9,1.6 c-0.5,0.4-1.2,0.7-1.7,1.4c-0.4,0.6-0.6,0.8-1.1,1.1c-0.8,0.5-1.4,1.1-2.1,1.7c-0.5,0.4-1.3,0.5-2,0.8c0,0-0.1,0-0.1-0.1 c0,0,0,0,0-0.1c0.5-1.2,1.7-2.3,2.7-3.2c0.3-0.3,0.7-0.4,1-0.7c1.3-1.3,2.7-2.3,4.1-3.3c1-0.7,2.4-1.4,3.2-1.9 c0.8-0.5,1.6-1,2.4-1.5c0.1,0,0.1-0.1,0.1-0.2l-0.1-0.6c0-0.1-0.1-0.1-0.1-0.1c0,0,0,0,0,0c-1.2,0.6-2.3,1.3-3.4,2 c-0.7,0.5-1.3,1.2-2.1,1.7c-1.9,1.3-3.6,2.6-5.6,3.8c-0.1,0-0.1,0.1-0.1,0.1c-0.3,0.5-0.6,0.9-1,1.3c-0.5,0.5-0.9,0.9-1.3,1.4 c-1.1,1-2.1,2.1-3.1,3.2c-0.3,0.3-0.4,0.6-0.6,1c0,0.1-0.1,0.1-0.2,0.1c-0.5,0.1-0.8,0.4-0.9,0.9c0,0.1,0,0.1-0.1,0.2 c-0.4,0.4-0.8,0.7-1.4,0.9c0,0-0.1,0-0.1-0.1c0,0,0-0.1,0-0.1c0.5-0.8,0.5-1.7,1-2.4c0.3-0.5,0.6-0.9,0.8-1.1 c2.3-2.6,4.7-5.1,7.4-7.3c0,0,0.1-0.1,0.2-0.1c1-0.2,2.1-1.2,2.8-1.8c2.2-1.9,4.6-3.5,7.3-4.4c0.2-0.1,0.3-0.3,0.3-0.5l-0.1-1.2 c0-0.1-0.1-0.2-0.2-0.2c0,0,0,0-0.1,0c-2.6,1.4-5.2,2.9-7.6,4.8c-1,0.8-2,1.6-3.1,2.4c-0.6,0.4-1,0.9-1.6,1.4 c-0.3,0.2-0.5,0.4-0.7,0.6c-1.1,1.3-2.4,2.5-3.4,3.7c-3,3.5-5.3,6.5-7.4,10.1c-1.8,3.1-3.6,6.1-5.1,9.5c-0.3,0.7-0.6,1.1-1.3,1.3 c0,0-0.1,0-0.1-0.1c0,0,0-0.1,0-0.1c0.4-0.8,0.4-1.5,0.6-2.3c0.4-1.3,0.8-2.6,1.5-3.8c0.5-0.8,0.8-1.3,0.9-1.4 c2-3.6,3.3-6.1,4.7-8.1c0.2-0.2,0.4-0.5,0.8-0.8c0.9-0.7,1.2-1.6,1.9-2.4c1.2-1.5,2.3-3.1,3.6-4.4c0.9-0.9,1.9-1.9,2.9-2.8 c1-1,2.2-1.7,3.4-2.5c0.8-0.5,1.3-1.3,2.1-1.8c1.8-1.2,3.7-2.3,5.6-3.3c0.7-0.3,1.4-0.6,2.1-0.9c0.1,0,0.2-0.2,0.2-0.3 c-0.3-1.4-0.7-2.9-0.8-4.4c-0.1-0.6-0.3-1.1-0.7-1.6c0-0.1-0.1-0.1-0.2,0l-1,0.5c-0.1,0-0.1,0-0.2,0c-0.2,0-0.3,0-0.5,0.1 c-0.1,0-0.1,0.1,0,0.2c0,0.1,0.1,0.1,0.2,0c0.4-0.2,0.9-0.2,1.3,0c0.1,0,0.1,0.1,0.1,0.1c0.5,0.9,0.1,1.4-0.7,1.9 c-2.4,1.4-4.7,2.9-7.1,4.3c-0.9,0.5-2,1.5-2.5,2c-3.7,2.9-6.2,5.5-9.2,8.5c-3.5,3.4-6.6,7.8-9.2,12.1c-0.5,0.9-1,2-1.6,3 c-1,1.6-1.6,3.5-2.3,5.2c-0.9,2-1.1,4-1.6,6.1c-0.1,0.5-0.2,0.9-0.3,1.2c-0.3,1.8-0.8,3.8-1,5.3c-0.2,1.6-0.3,3.3-0.4,4.9 c0,0.7-0.4,0.9-0.2,1.7c0.3,0.8,0.3,1.7,0,2.5c0,0.1,0,0.1,0,0.2c0.3,1.2,0.1,2.2-0.7,3.1c0,0-0.1,0.1,0,0.1c0,0.2,0,0.4-0.1,0.5 c-0.1,0.1-0.1,0.1,0,0.2c0.4,1,1,1.3,0.7,2.5c-0.2,1.1,0.7,1.9,1,2.8c0.4,1.4,0.8,2.9,1.3,4.3c0.1,0.3,0.3,0.7,0.5,1.1 c1,1.5,1.6,3.4,2.2,5.1c0.2,0.5,0.5,0.8,0.7,1.2c2.6,5.2,5.8,9.2,9.8,13.7C78.1,141.3,78.6,142,79.2,142.6z M143.6,50.8l-0.1-0.2 c-0.1-0.1-0.2-0.1-0.3,0c0,0-0.1,0.1-0.1,0.1c-0.5,1.8-0.7,3.6-1.1,5.2c-0.4,1.8-0.6,3.6-0.9,5.4c-0.2,1.3-0.4,2.7-0.6,4.2 c-0.3,3-0.6,5.5-0.7,7.9c0,0.7-0.1,1.5-0.3,2.4c-0.1,0.4,0,0.8,0.2,1.3c0,0.1,0,0.1,0,0.2c-0.2,0.7-0.3,1.4-0.2,2 c0.3,3.8,0.3,7.8,0.5,11.6c0,0.3,0.1,0.6,0.2,0.9c0.3,0.7,0.3,1.4,0.3,2.1c-0.1,1.2-0.1,2.4-0.3,3.5c0,0.2,0.1,0.3,0.2,0.3 c0.7,0.1,1,0.5,1,1.2c0,0.1,0,0.1-0.1,0.2l-0.4,0.1c-0.1,0-0.1,0.1-0.1,0.2c0,0,0,0.1,0,0.1c1,1,1.3,2.1,0.9,3.4 c-1.1,3.4-1.6,6.6-2.2,10c-0.2,1-0.9,2.4-1.9,2.6c-0.2,0-0.4,0.1-0.6,0.1c-0.1,0-0.1,0.1-0.1,0.2c0,0.5,0.3,1,0.3,1.5 c0.1,0.8,0.1,1.6,0.3,2.4c0.2,0.7,0.3,1.4,0.5,2.1c0.2,1.2,0,2.5,0.4,3.7c0.3,0.8,0.5,1.5,0.5,2.4c0.1,1.3,0.2,2.5,0.5,3.7 c0,0.2,0.1,0.5,0.2,0.7c0,0.1,0,0.1,0,0.2c0,0.7,0.1,1.4,0.2,2c0.1,0.8,0.2,1.4,0.3,1.8c0.1,1.2,0.3,2.4,0.5,3.6 c0.3,1.5,0.3,3,0.9,4.6c0.1,0.2,0.2,0.3,0.4,0.3c0.8,0.1,1.5,0.5,2.1,1c0.1,0,0.1,0.1,0.2,0.1c0.5,0.1,1,0.3,1.3,0.6 c0.4,0.4,0.7,0.6,1.2,0.8c0,0,0,0,0,0c0,0,0,0,0,0l0,0c0,0,0,0-0.1,0c-0.3-0.2-0.6-0.2-1-0.2c-0.1,0-0.1,0-0.2-0.1l-1.1-0.9 c-0.1,0-0.1,0-0.1,0c0,0.3-0.2,0.4-0.4,0.3c-0.6-0.2-1.2-0.4-1.9-0.6c0,0-0.1,0-0.1,0.1c0,0,0,0,0,0c0.1,1.7,0.7,3.4,0.8,5.1 c0.1,1.1,0.3,2.2,0.6,3.3c0,0.1,0.1,0.1,0.2,0.1c0,0,0,0,0,0c1.9-0.8,3.8-1.8,5.6-3c2.4-1.6,4.9-3.2,7.1-5.1 c4.9-4.2,9-9.1,12.3-14.6c2.7-4.5,4.5-9.1,6.2-14.2c0.3-0.9,0.6-2.4,1-4.4c0.2-1.1,0.5-2.3,0.7-3.4c0.2-0.9,0.2-2.1,0.4-3.2 c0.1-0.4,0-0.7-0.2-1c0-0.1,0-0.1,0-0.2c0.1-0.3,0.2-0.5,0.3-0.8c0.2-1.9,0.1-4.5,0.1-5.8c0-4.3-0.7-8.8-1.7-12.8 c-0.3-1.2-0.5-2.7-0.9-4c-1.4-4-3.1-8-5-12c-0.4-0.7-0.7-1.3-1-1.8c-0.7-1-1.1-2.1-1.8-3.1c-2-2.9-3.9-5.1-6-7.5 c-2-2.3-4.1-3.9-6.5-5.6c-0.6-0.5-1.3-0.9-2-1.3c-2.6-1.5-5.2-3-8-4.1c-0.1,0-0.2,0-0.2,0.1c0,0,0,0,0,0c-0.2,0.9-0.8,2.8-0.5,3.7 c0,0.1,0.1,0.1,0.1,0.2c0.1,0.1,0.2,0.2,0.1,0.4C143.7,50.9,143.6,50.9,143.6,50.8z M53.6,49.5c0,0,0.3-0.2,0.6-0.5 c0.3-0.3,0.5-0.6,0.5-0.6c0,0-0.3,0.2-0.6,0.5C53.8,49.2,53.5,49.5,53.6,49.5z M88.6,49.8c0,0,0.2-0.1,0.4-0.2c0,0,0,0,0,0 c0.2-0.2,0.3-0.3,0.2-0.4c0,0,0,0,0,0c0,0-0.2,0.1-0.4,0.2c0,0,0,0,0,0C88.6,49.6,88.5,49.8,88.6,49.8z M84.6,51.8l-0.2,0.1 c-0.1,0-0.1,0.1,0,0.1c0,0,0.1,0,0.1,0.1c0.1,0,0.2-0.1,0.2-0.2C84.7,51.8,84.7,51.8,84.6,51.8z M80.5,55.5c0.1,0,0.2-0.1,0.2-0.1 c0,0,0,0,0,0c0-0.1,0-0.2-0.1-0.2s-0.2,0.1-0.2,0.1l0,0C80.4,55.4,80.4,55.5,80.5,55.5z M81.9,56.6c0,0-0.2,0-0.3,0.1l0,0 c-0.1,0.1-0.2,0.2-0.2,0.3c0,0,0.2,0,0.3-0.1l0,0C81.8,56.8,81.9,56.7,81.9,56.6z M78.3,57.1c0,0,0-0.1,0-0.1l0,0c0,0-0.1,0-0.1,0 l-1.8,1.9c0,0,0,0.1,0,0.1c0,0,0,0,0,0l0,0c0,0,0.1,0,0.1,0L78.3,57.1z M76,62.7c0.2-0.3,0.5-0.4,0.7-0.7c0.7-1,1.5-1.8,2.4-2.6 c0.2-0.1,0.3-0.3,0.3-0.5c0-0.1,0-0.1-0.1-0.1c-0.6,0.3-1.1,1-1.6,1.5c-0.5,0.5-0.9,0.8-1.1,1.1c-2.4,2.8-4.1,4.7-5,5.8 c-2.2,2.8-4.2,6-5.7,9.7c-0.2,0.5-0.6,1.2-1,2.1c-0.7,1.3-1.3,3.1-1.7,4.1c-0.3,0.8-0.6,1.6-0.9,2.5c0,0,0,0.1,0,0.1 c0,0,0.1,0,0.1,0c0.1-0.1,0.1-0.2,0.2-0.3c0.5-1.9,1.5-3.7,2.2-5.5c0.5-1.2,1.2-2.4,1.7-3.6c2-4.6,5.2-8.7,8.5-12.4 C75.4,63.6,75.7,63.1,76,62.7z M73.6,62.3c0,0,0-0.1,0-0.1l0,0c0,0-0.1,0-0.1,0c0,0,0,0,0,0l-1,1c0,0,0,0.1,0,0.1l0,0 c0,0,0.1,0,0.1,0c0,0,0,0,0,0L73.6,62.3z M71.2,65.2C71.2,65.2,71.2,65.1,71.2,65.2c0.1-0.2,0.1-0.2,0-0.1l-0.4,0.4c0,0,0,0,0,0.1 c0,0,0,0,0.1,0C70.9,65.5,71.1,65.4,71.2,65.2C71.1,65.2,71.2,65.2,71.2,65.2z M171.2,69.9c0.4,1.1,1.1,2.1,1.5,3.1 c0.6,1.4,1.2,2.8,1.9,4.2c0.1,0.3,0.2,0.8,0.3,1.2c0.7,1.7,1.3,3.5,1.7,5.4c0.6,2.9,1.2,5.5,1.5,8.2c0.2,1.8,0.3,3.6,0.4,5.4 c0,0.5,0.3,1.2,0.2,1.8c-0.1,0.4-0.1,0.8-0.1,1.1c0,0.5,0.3,1,0.3,1.5c-0.2,1.2-0.3,2.4-0.4,3.6c0,0.9-0.2,1.7-0.3,2.6 c-0.4,3.5-1.2,7-1.8,9.6c-0.2,0.8-0.7,1.6-0.9,2.5c-0.2,0.9-0.6,1.8-0.9,2.6c-1.1,2.3-2,4.8-3.1,6.8c-1.4,2.5-2.8,5-4.5,7.4 c-1.8,2.6-4,4.9-6.1,7.2c-3,3.2-7.5,6.3-11.3,9c-0.1,0.1-0.2,0-0.3-0.1c0,0,0,0,0,0l-0.2-0.4c0,0-0.1,0-0.1,0c0,0,0,0.1,0,0.1 c0.2,0.4,0.1,0.8-0.3,1c-1.5,0.8-3,1.6-4.5,2.2c-0.1,0.1-0.2,0.2-0.2,0.4c0.3,0.7,0.4,1.4,0.4,2.1c0,0.1,0,0.1,0.1,0.1c0,0,0,0,0,0 c2.4-1.3,4.9-2.6,7.3-4c1.5-0.9,3-1.9,4.4-2.9c2.6-1.8,4.9-4,7.2-6.3c1-1,2.1-2.3,3.2-3.4c0.4-0.4,0.9-1.4,1.6-1.9 c0.7-0.4,1.2-1.7,1.6-2.4c1-1.5,2-3.1,2.9-4.6c0.1-0.2,0.3-0.4,0.4-0.6c1.1-1.9,2.4-4,3.1-6c0.5-1.4,1.2-3.2,1.6-4.3 c1.1-3.2,1.9-6.5,2.5-9.8c0.4-2,0.5-3.8,0.6-6c0.2-3,0.2-5.4,0.2-7.2c0-0.4-0.2-0.6-0.4-0.8c0-0.1,0-0.1,0-0.2 c0.1-0.3,0.2-0.5,0.2-0.9c-0.2-1.5-0.2-3-0.3-4.3c0-0.1,0-0.1-0.1-0.2c-0.7-1-0.6-1.9-0.8-2.9c-0.5-2.7-1-4.5-1.5-5.7 c-0.8-2.1-1.5-4.3-2.4-6.4c-0.7-1.6-1.3-3.1-2.2-4.5c-0.9-1.3-1.7-2.7-2.6-4.1c0,0-0.1,0-0.1,0c0,0,0,0,0,0.1 C170.8,69.4,171.1,69.7,171.2,69.9z M62,87.7c0,0,0.1-0.2,0.2-0.5c0.1-0.3,0.1-0.6,0.1-0.6c0,0-0.1,0.2-0.2,0.5 C62,87.4,62,87.7,62,87.7z M61.6,89.1c-0.4,1.6-0.6,3.2-0.8,4.8c0,0,0,0.1,0.1,0.1c0,0,0,0,0,0c0.2-0.1,0.4-0.3,0.3-0.6 c-0.1-1.5,0.1-2.9,0.5-4.2c0-0.1,0-0.1,0-0.1C61.8,89,61.7,89,61.6,89.1C61.7,89,61.6,89,61.6,89.1z M60.6,95.7 c0.1,0,0.2-0.3,0.3-0.7c0,0,0,0,0,0c0.1-0.4,0.1-0.8,0-0.8c0,0,0,0,0,0c-0.1,0-0.2,0.3-0.3,0.7c0,0,0,0,0,0 C60.5,95.3,60.5,95.7,60.6,95.7L60.6,95.7z M105.6,108.4c0,1.3,3,1.5,3.8,1.5c0.4,0,0.8,0.2,1.2,0.2c5.2,0.2,10.3,0,15.5,0 c0.2,0,0.6,0,1.2,0.1c0.1,0,0.1,0.1,0.1,0.2v1c0,0.1,0,0.1-0.1,0.1l-1.8,0.1c-0.1,0-0.1,0-0.1,0.1c0.1,0.1,0.2,0.2,0.3,0.2 c1.4-0.1,2.6,0,3.8,0.3c0.7,0.1,2.2-0.1,2.6,0.4c0,0.1,0.1,0.1,0.1,0c0.6-0.3,2.3,0,3,0.1c0.1,0,0.2-0.1,0.2-0.2c0,0,0,0,0,0 c0-0.7,0.1-1.5,0.1-2.2c0-1.1,0.3-2.3,0.4-3.5c0.1-1.5,0.7-2.9,0.9-4.4c0.1-0.5,0.3-0.9,0.4-1.4c0-0.1,0-0.1-0.1-0.2 c-0.8-0.7-1.7-1.5-2.3-2.4c0-0.1-0.1-0.1-0.2-0.1c-1.2-0.2-2.6-0.6-3.8-0.4c-0.1,0-0.1,0-0.2-0.1l-0.2-0.2c0,0-0.1-0.1-0.2-0.1 c-0.6-0.1-1.3,0-1.9-0.2c-2-0.5-4-0.7-6.1-0.8c-0.3,0-0.6-0.2-0.9-0.2c-2.3-0.2-4.7-0.2-7,0c-3.6,0.3-6.4,0.5-9.5,1.1 c-0.1,0-0.2,0.1-0.2,0.2c0,0.5,0,1.1-0.1,1.6c-0.1,1.2,0.2,2.4,0.2,3.7C105.2,104.8,105.6,106.5,105.6,108.4z M139,102.2 c0.1,0,0.1-0.1,0.1-0.2c0-0.1,0-0.2-0.1-0.2l0,0c-0.1,0-0.1,0.1-0.1,0.2c0,0,0,0,0,0C138.9,102.1,138.9,102.2,139,102.2z M60.4,103.7C60.4,103.7,60.3,103.7,60.4,103.7L60.4,103.7L60.4,103.7c-0.1-0.1-0.1,0-0.1,0l0,0l0,1.5c0,0,0,0.1,0.1,0.1l0,0 c0,0,0.1,0,0.1-0.1l0,0L60.4,103.7z M58.5,105.4c0.1,0,0.2-0.4,0.2-0.9c0-0.5-0.1-0.9-0.1-0.9c0,0,0,0,0,0c-0.1,0-0.2,0.4-0.2,0.9 l0,0C58.4,105,58.4,105.4,58.5,105.4C58.5,105.4,58.5,105.4,58.5,105.4z M130.4,176.1c0.1,0,0.2,0.1,0.2,0.2c0,0.1,0,0.1,0,0.1 c-0.3,0.3-0.6,0.6-0.9,0.7c-0.1,0-0.2,0.2-0.1,0.3c0,0,0.1,0.1,0.1,0.1c0.9,0.4,1.7,0.8,2.7,0.9c0.8,0.1,1.5,0.4,2.3,0.4 c0.5,0,1,0,1.6,0c0.4,0,0.8,0.3,1.2-0.2c0,0,0.1-0.1,0.2-0.1l1.3-0.4c0.1,0,0.1,0,0.2,0c0.6,0.5,1.2,0.6,2,0.6c0.1,0,0.1,0,0.1,0.1 c0,0,0,0.1-0.1,0.1l-0.6,0.3c-0.1,0-0.1,0.2-0.1,0.3c0,0,0.1,0.1,0.1,0.1l1.2,0.5c0.1,0,0.1,0,0.2,0c2-0.5,3.6-1,4.8-1.4 c0.3-0.1,0.6-0.2,1-0.5c0.1,0,0.1-0.1,0.1-0.1c-0.4-2.2-1.3-3.8-1.9-5.7c-1-3-2-5.7-2.6-9c-0.1-0.7-0.1-1.6-0.3-2.4 c0-0.1-0.1-0.1-0.2-0.1l-0.8,0.1c-0.1,0-0.3-0.1-0.3-0.2c0,0,0,0,0,0l-0.1-1.3c0-0.1,0-0.1,0.1-0.1l0.4-0.2c0.1,0,0.1-0.1,0.1-0.2 c-0.1-0.6-0.2-2.3-1-2.4c-0.1,0-0.1,0-0.2-0.1c-0.3-0.5-0.2-0.8,0.2-1.1c0.1,0,0.1-0.1,0.1-0.2c0-0.8-0.4-1.5-0.4-2.3 c0-0.7,0-1.3-0.2-2c-0.3-0.9-0.6-1.7-0.6-2.7c0-1.1-0.2-3-0.8-3.9c0-0.1,0-0.1,0-0.2c0.1-0.3,0.1-0.5,0-0.8 c-0.4-1.4-0.3-2.7-0.6-4.1c-0.2-1-0.4-2.2-0.5-3.3c-0.2-2.1-0.6-4.2-1-6.3c-0.4-2.1-0.6-4.3-1-6.4c-0.2-1.1-0.2-2.1-0.3-3.2 c0-0.1,0-0.1-0.1-0.2c-0.4-0.5-0.4-0.9,0-1.4c0,0,0.1-0.1,0-0.2l-0.3-1.3c0-0.1,0-0.1,0-0.2c0.1-0.4,0.3-1,0-1.3 c-0.3-0.3-0.9-0.1-1.1-0.3c-0.6-0.4-1.2-0.8-1.6-1.2c-0.2-0.1-0.4-0.1-0.5,0c0,0,0,0,0,0c-0.4,0.6-0.9,1.1-1.6,1.1 c-2.3,0.1-4.7,0.1-7,0.1c-0.4,0-0.7,0.1-1.1,0.3c-0.1,0-0.1,0-0.2,0c-0.6-0.3-1.2-0.3-1.8,0c0,0-0.1,0-0.1,0 c-0.3-0.2-0.4-0.3-0.7-0.3c-1.3-0.1-2.7-0.1-4-0.1c-0.7,0-1.4-0.3-2.1-0.3c-1,0-2-0.1-3-0.1c-1,0-2-0.7-2.8-1.3c-0.1,0-0.2,0-0.2,0 c0,0,0,0.1,0,0.1c0,1.3,0.1,2.5,0.3,3.7c0.1,0.4,0.1,0.8,0.1,1.2c-0.1,1.4,0.3,2.5,0.3,3.8c0,0.6,0.1,1.2,0.2,1.8 c0,1.8,0.3,3.7,0.4,5.3c0.1,5.2,0.1,8.8,0,10.7c0,1-0.2,2.7-0.6,5.1c-0.1,0.8-0.2,2.2-0.2,4.4c0,0.4,0.1,0.7,0.4,0.9 c0,0,0,0.1,0,0.1c0,0-0.1,0-0.1,0c-0.2-0.1-0.3-0.1-0.4-0.1c-0.1,0-0.1,0.1-0.1,0.3c0.1,0.9-0.1,1.8-0.1,2.5 c-0.2,2.7-0.7,5.3-0.9,8c-0.1,1-0.2,2-0.4,2.9c-0.6,2.8-1.1,5.5-1.4,8.4c-0.2,1.8-0.4,2.9-0.6,3.5c-0.2,0.7-0.3,1.3-0.1,1.7 c0.4,1.4,1.5,1.9,2.9,2.3c0.1,0,0.1,0,0.2,0c3.5-0.9,7-1.8,10.5-2.7c0.5-0.1,1-0.4,1.6-0.6c1.1-0.2,1.6-0.4,2.4-0.7 c0.1,0,0.1-0.1,0.1-0.1c0.1-1.1,0.1-2.4,0.2-3.3c0.1-1.8,0.3-3.5,0.4-5.3c0.2-3,0.7-6.2,0.9-9.3c0.1-1,0.2-2,0.4-3.1 c0.3-2,0.5-4.1,0.8-6c0.4-2,0.8-4.1,0.9-6.1c0.2-3.1,0-6.3,0.1-9.4c0-0.2,0.2-0.4,0.4-0.5l1.4-0.4c0.1,0,0.2,0,0.2,0.1 c0.3,0.5,0.5,1,0.5,1.6c0,4.2,0,8.3,0,12.5c0,1.2,0.3,2.5,0,3.7c-0.1,0.2,0,0.6,0.1,1.1c0,0.1,0.1,0.1,0.1,0.2l0.2,0.1 c0.1,0,0.1,0.1,0.1,0.2c-0.2,0.8-0.3,1.6-0.1,2.5c0,0.1,0,0.1,0,0.2c-0.3,0.8,0.1,1.1,0.1,1.8c0,0.5,0,0.9,0,1.4c0,0,0,0,0,0.1 l-0.3,0.7c0,0.1,0,0.1,0,0.2c0.8,1.1-0.7,2.1,0.2,2.9c0,0,0.1,0.1,0.1,0.2c0,0.4,0,0.8-0.2,1.1c0,0,0,0.1,0,0.1 c0.1,0.6,0,1.3-0.2,1.9c0,0.1-0.1,0.1-0.1,0.2c-0.2,0.2-0.4,0.5-0.4,0.7c0,2.6,0,5.1,0,7.7c0,0.7,0.1,1.3,0.3,2 c0,0.2,0.2,0.3,0.4,0.3L130.4,176.1z M63.3,118c-0.1-0.2-0.1-0.4-0.2-0.5c0,0-0.1,0-0.1,0c0,0,0,0.1,0,0.1l0,0l0.2,0.5 C63.2,118,63.2,118.1,63.3,118C63.3,118,63.3,118,63.3,118L63.3,118z M66.6,125.9c0,0.1,0,0.2,0.1,0.3c0,0,0.1,0,0.1,0 c0,0,0-0.1,0-0.1C66.8,125.9,66.7,125.8,66.6,125.9c0-0.2,0-0.3-0.1-0.4c0,0-0.1,0-0.1,0C66.5,125.6,66.5,125.8,66.6,125.9z M125.3,176c0,0.3-0.2,0.5-0.4,0.8c-0.1,0.1-0.1,0.1,0,0.2c0.1,0.2,0.2,0.3,0.4,0.3c0.2,0,0.4-0.1,0.4-0.4c0-0.4,0.1-0.8,0.1-1.2 c0-0.5-0.3-0.9-0.3-1.3c-0.1-5.1-0.1-10.1-0.1-15.1c0-0.1-0.1-0.1-0.1-0.2c-0.1,0-0.1,0-0.1,0.1c-0.1,0.3-0.1,0.6-0.2,0.9 c0,1.4-0.4,3-0.5,4.2c-0.1,1.2-0.3,2.4-0.4,3.6c-0.2,2.1-0.3,4.2-0.5,6.2c0,0.2,0,0.7,0,1.4c0,0.1,0,0.1,0.1,0.1l1.4-0.1 C125.2,175.7,125.3,175.8,125.3,176C125.3,176,125.3,176,125.3,176z M171.1,166.7C171.1,166.6,171,166.6,171.1,166.7L171.1,166.7 l-1.6,1c0,0,0,0,0,0.1l0,0l0,0c0,0,0,0,0.1,0L171.1,166.7C171.1,166.7,171.1,166.7,171.1,166.7L171.1,166.7L171.1,166.7z M128.2,178.9c0.1,0.1,0.3,0.1,0.4,0c0.1-0.1,0.1-0.2,0.1-0.3c-0.1-0.4,0-0.7,0.4-0.8c0,0,0.1-0.1,0-0.1c0,0,0,0,0,0 C128.1,177.4,127.6,178.2,128.2,178.9z M137,181.3c-0.5,0-0.9,0-1.3,0c-0.9-0.1-1.8,0-2.7-0.2c-0.3-0.1-0.6,0-0.8,0.2 c-0.1,0.1-0.3,0.1-0.5,0c-0.4-0.4-1.3,0-1.8,0c-0.1,0-0.2,0-0.2,0c-0.6-0.3-1.2-0.4-1.8-0.3c-0.1,0-0.1,0-0.2,0 c-0.6-0.5-1.1-0.2-1.8-0.5c-0.5-0.2-1-0.5-1.3-1c-0.1-0.1-0.2-0.1-0.3-0.1l-1.7,0.8c-0.1,0-0.1,0-0.2,0c-0.5,0-0.9,0.1-1.3,0.4 c-0.1,0-0.1,0.1-0.2,0.1c-0.3,0-0.6,0.1-0.9,0.3c0,0-0.1,0-0.1,0c-0.5-0.1-1,0-1.4,0.4c0,0-0.1,0.1-0.2,0c-0.5-0.1-1,0-1.4,0.3 c-0.1,0-0.1,0.1-0.2,0.1c-0.4-0.1-0.8,0-1.1,0.3c0,0,0,0-0.1,0l-1,0.1c-0.1,0-0.1,0-0.1,0.1s0,0.1,0.1,0.1c1.9,0.1,3.7,0.2,5.4,0.2 c0.5,0,0.9,0.1,1.4,0.1c2.3-0.2,4.5-0.1,6.8-0.2c0.1,0,0.3,0,0.5-0.1c0.4-0.1,1-0.1,1.2-0.1C132.4,182,134.7,181.8,137,181.3 C137,181.4,137,181.4,137,181.3C137,181.3,137,181.3,137,181.3z"></path> <path d="M124.9,22c0,0-0.1-0.1-0.1,0c0,0-0.1,0.1-0.1,0.1l-0.1,6.1c0,0.1,0,0.1,0,0.2l-0.3,0.5c0,0.1,0,0.1,0,0.2 c0.2,0.3,0.3,0.6,0.3,1c0,1.7,0,3.4,0,5.1c0,0.7-0.4,1-0.1,1.9c0.2,0.5,0.2,1.1-0.2,1.6c0,0.1-0.1,0.1-0.1,0.2c0,0.8,0.1,1.6,0,2.4 c-0.1,1.4-0.1,2.8-0.1,4.2c0,0.4-0.3,1-0.2,1.2c0.2,0.7,0.2,1.4,0.1,2.1c0,0.1,0,0.1-0.1,0.2c-0.1,0.2-0.2,0.4-0.2,0.6 c0,0.1,0,0.1,0.1,0.2c0.4,0.6-0.1,1.2-0.1,1.8c0,0.3,0.2,0.8,0,1.3c0,0.1-0.1,0.1-0.1,0c0-0.3-0.1-0.6-0.2-1 c-0.1-0.5,0-1.3-0.2-1.8c-0.2-0.4-0.3-0.8-0.3-1.1c0-0.1,0-0.2,0.1-0.2c0.5-0.4,0.5-0.9,0.1-1.4c0-0.1-0.1-0.1-0.1-0.2 c-0.1-0.9,0.2-2.3-0.3-3c0-0.1,0-0.1,0-0.2c0.1-0.7-0.1-1.2-0.1-1.8c0.1-0.5,0.1-0.9,0.2-1.4c0-0.1,0-0.1,0-0.2 c-0.2-0.6-0.3-1.3-0.3-1.9c0.1-1.3,0-2.5,0-3.7c0-0.6,0.3-1.1,0.4-1.8c0-0.1,0-0.1-0.1-0.2c-0.8-1.1,0.4-1.7-0.3-2.9 c0-0.1,0-0.1,0-0.2c0-1,0.3-2,0.3-2.9c0-1.5,0.1-3,0.1-4.6c0.1-2,0.6-4.1,0.1-6.2c-0.3-1-1-3.2-0.4-3.9c0,0,0.1-0.1,0.2-0.1 c0.9-0.1,1,0.4,1.2,1.1c0.2,0.9,0.4,1.7,0.6,2.6c0,0.1,0.1,0.2,0.2,0.4c0,0.1,0.1,0.1,0.1,0.2c0,0.8,0.2,1.6,0.4,2.3 c0.4,1.2,0.6,2,0.6,3.1c0,0.2,0.1,0.5,0.2,0.8c0.3,0.6,0.5,1.3,0.5,2c0,0.1-0.1,0.1-0.1,0.1c0,0-0.1,0-0.1-0.1L124.9,22z"></path> <path d="M4,174.5c-0.3,0.9-0.3,1.9-0.2,2.9c0,0.1,0,0.1,0.1,0.1c0.3,0.1,0.6,0.1,0.8,0c0.6-0.2,1.3-0.3,2.1-0.1 c0.7,0.2,1.1-0.6,1.6-0.2c0.6,0.4,1.1,0.4,1.8,0.3c0.1,0,0.1,0,0.2,0c1.1,0.8,4.2,0.4,5.5,0.4c0.2,0,0.4,0.1,0.5,0.3 c0.4,0.8,1,1.3,1.8,1.5c0.2,0,0.3,0.2,0.2,0.4c0,0,0,0.1-0.1,0.1c-0.6,0.6-2,1-2.9,1.1c-0.6,0.1-1.1,0.4-1.7,0.4 c-2.5,0.1-4.2,0.1-5.1,0c-0.4,0-0.6-0.4-1.1-0.4c-0.7,0-1.4,0.1-2,0c-0.9-0.1-2.1-1.3-2.5-1.9c-0.7-1.1-0.5-2.2-0.5-3.4 c0-0.8,1.2-1.9,0.2-2.5c-1.3-0.9-2.2-2.2-2.3-3.8c0-0.6-0.3-1.3-0.1-1.9c0.3-1,1.5-1.7,2.4-2.1c0.3-0.1,0.6-0.1,0.9-0.2 c0.1,0,0.1-0.1,0.1-0.1c-0.2-0.8-0.6-1.9-0.3-2.7c0.1-0.3,0.2-0.6,0.2-0.8c0.1-3.1,0.4-6.2,0.5-9.3c0.1-5.4,0.5-10.6,0.8-15.8 c0.1-1.1,0.1-2.6,0.2-3.9c0.2-1.9,0.3-3.7,0.3-5.6c0-0.3,0-0.5,0.1-0.8c0.2-1,0.3-2.1,0.3-3.2c0-0.4,0.3-1,0.1-1.5 c-0.1-0.3-0.1-0.5-0.1-0.7c0-2.3,0.2-4.6,0.4-6.9c0.1-0.7,0.3-1.6,0.3-2.4c0,0,0-0.1,0-0.1c-0.2-0.2-0.3-0.6-0.3-1 c0.3-2.5,0.7-5,0.8-7.6c0-1.5,0.1-2.9,0.2-4.4c0.3-4.2,0.6-8.3,0.8-12.5c0.1-2.5,0.3-4.7,0.4-7.6c0-0.5,0.2-0.7,0.7-0.8 c0.1,0,0.1-0.1,0.2-0.1c0-0.2,0-0.2-0.2-0.2c-0.3,0.1-0.5,0.1-0.8,0.2c-0.1,0-0.1,0-0.2,0c-3.7-1.6-6.7-3.6-7.2-8 c-0.2-2.2-0.6-4.2-0.4-6.6c0-0.1,0-0.1,0-0.2c-0.1-0.2-0.2-0.5-0.2-0.8C0,57.7-0.1,53.7,0.4,49.7c0.3-2.5,0.7-5,1.1-7.5 c0.2-1.1,0.2-2.4,0.3-3.6c0.7-5.3,1.5-10.5,2.7-15.4c0.2-0.9,0.3-2.2,0.8-3c0-0.1,0.1-0.1,0.1-0.2c0-0.9,0.4-1.7,1-2.3 c0.1-0.1,0.3-0.1,0.4,0c0,0,0.1,0.1,0.1,0.2c0,0.3,0,0.4-0.3,0.6c-0.2,0.1-0.2,0.3-0.1,0.5c0,0.1,0.1,0.1,0.2,0.2 c0.2,0.1,0.4,0.2,0.4,0.4c0,0,0,0.1,0,0.1l-0.2,0.6c0,0.1,0,0.1,0,0.2l0.3,0.4c0.1,0.1,0.1,0.2,0,0.2c0,0,0,0,0,0 c-0.3,0.2-0.4,0.5-0.3,0.9c0,0.1,0,0.1,0,0.2c-0.4,0.4-0.4,0.9-0.1,1.3c0,0.1,0,0.1,0,0.2c-0.3,0.4-0.3,0.9-0.2,1.4 C7.2,26.1,6.8,27,7,28.1c0,0.2,0,0.3-0.3,0.2l-0.2-0.1c-0.1,0-0.1,0-0.2,0c-0.1,0.2-0.1,0.4,0,0.7c0,0.1,0,0.1,0,0.2 c-0.1,0.4-0.2,0.7-0.1,1.1c0,0.1,0,0.2,0,0.2c-0.1,0.2,0,0.3,0.2,0.4c0.1,0,0.1,0,0.2,0l0.1-0.1c0.1,0,0.2,0,0.2,0.1c0,0,0,0,0,0.1 c0,0.5,0,0.9-0.1,1.4c0,0.3,0.1,0.4,0.1,0.6c0,0.4,0,0.6,0,0.6c-0.1,0.3-0.1,0.6-0.1,0.9C7,38.2,7,41.8,7,45.5 c0,0.7-0.1,2.9,0.3,3.5c0,0.1,0,0.1,0,0.2C7.1,50.8,7,52.4,7.1,54c0,0.5,0.2,0.8,0.7,0.9c0.1,0,0.1,0,0.1-0.1c0,0,0,0,0,0 C8,50.5,8.4,46.2,8.4,42c0-0.1,0-0.2,0.1-0.3c0,0,0.1-0.1,0-0.2c-0.1-0.7-0.2-1.4-0.1-2.1c0-0.1,0-0.1,0.1-0.2 c0.3-0.5,0.2-0.9,0.2-1.4c0-2.2,0-4.4,0.1-6.7c0-0.2-0.1-0.7,0-0.9c0-0.1,0.1-0.1,0.1-0.1l0.2,0c0.1,0,0.1,0,0.1-0.1 C9.2,30.1,9.1,30,9,30c-0.1,0-0.2-0.1-0.2-0.2c0,0,0,0,0,0c0.1-0.7-0.2-1.4,0.1-2.1c0-0.1,0-0.1,0-0.2c-0.2-0.7,0.2-1.1-0.1-1.9 c0-0.1,0-0.1,0.1-0.2l0.3-0.1c0.1,0,0.1-0.1,0.1-0.1l-0.4-1.6c0-0.1,0-0.1,0.1-0.2l0.3-0.1c0.1,0,0.1-0.1,0.1-0.2l-0.2-0.7 c0-0.1,0-0.2,0.1-0.2c0.2-0.1,0.2-0.2,0-0.4c0-0.1-0.1-0.1,0-0.2C9.3,21,8.9,20.5,8.8,20c0-0.1,0-0.1,0.1-0.1l0.2,0 c0.1,0,0.1-0.1,0.1-0.1c-0.2-0.5-0.3-0.9-0.4-1.4c0-0.1,0-0.1,0.1-0.2c0.7-0.3,1.8-0.5,1.8,0.5c0,0.1,0,0.1-0.1,0.1c0,0,0,0-0.1,0 L10,18.4c0,0-0.1,0-0.1,0c0,0,0,0,0,0l0,0.1c0,0.1,0.1,0.1,0.1,0.1c0,0,0,0,0,0c0.4,0,0.6,0.1,0.6,0.4c0,0.1,0.1,0.1,0.1,0.1 c0,0,0.1,0,0.1-0.1l0.1-0.8c0-0.1,0.1-0.1,0.2-0.1c0.1,0,0.1,0.1,0.1,0.1c0.1,0.6,0.1,1.1,0.1,1.7c0,3.6,0.1,7.2,0,10.8 c0,0.3,0.1,0.5,0,0.8c-0.1,4.3,0.1,8.6,0.1,12.9c0,0.1,0.1,0.2,0.2,0.2c0,0,0.1,0,0.1-0.2c0.1-0.3,0.1-0.6,0.1-0.8 c0-3.1,0-6.3,0.1-9.4c0-0.5-0.1-0.9,0.2-1.4c0-0.1,0-0.1,0-0.2c-0.1-0.7,0.1-1.4-0.1-2.1c-0.2-0.7-0.2-1.5-0.1-2.2 c0.2-1,0.1-2.1,0.2-3c0.1-1.2,0.2-2.4,0.3-3.7c0.1-0.9-0.1-2.2,0.1-3.4c0-0.1,0.1-0.1,0.1-0.1c0.6-0.1,1.6-0.3,2,0.2 c0,0.1,0,0.1,0,0.2c-0.3,0.2-0.1,0.6-0.1,0.9c0,0.1,0,0.2-0.1,0.1c-0.1-0.1-0.2-0.2-0.1-0.4c0,0,0,0,0-0.1c0-0.2-0.1-0.3-0.3-0.2 c-0.1,0-0.1,0.1-0.1,0.2l0,0.2c0,0.1,0,0.1-0.1,0.1c0,0,0,0-0.1,0c0,0,0,0-0.1-0.1c0-0.1-0.1-0.2,0-0.3c0-0.1,0-0.1-0.1-0.1 c-0.1,0.1-0.1,0.2-0.1,0.3c0,0.1,0,0.1-0.1,0.1c0,0,0,0,0,0c-0.1,0-0.1,0-0.2-0.1c0,0,0-0.1,0-0.1c0,0,0,0,0-0.1 c0,0-0.1-0.1-0.1-0.1c0,0-0.1,0.1-0.1,0.1l0,0.1c0,0.1,0,0.1,0,0.2c-0.1,0.5,0,0.8,0.5,1c0,0,0.1,0,0,0.1c0,0,0,0,0,0l-0.1,0.1 c0,0,0,0-0.1,0c-0.1-0.1-0.2-0.1-0.3,0c0,0.1,0,0.1,0,0.2c0.1,0.2,0,0.4,0,0.5c0,0.5,0,1,0,1.6c0,0.1,0,0.1,0.1,0.1c0,0,0,0,0,0 c0,0,0,0,0.1,0c0.1,0,0.1,0,0.1,0.1c-0.1,0.4-0.3,0.7-0.3,1.2c0,0.5-0.2,2,0.1,2.4c0,0.1,0,0.1,0,0.2c-0.1,0.3-0.1,0.7-0.1,1 c0.1,0.9-0.2,1.5,0.1,2.4c0,0.1,0,0.1,0,0.1c0,0,0,0.1,0,0.1c0.3,0.5,0.1,1,0.1,1.4c0,0.3,0,0.6,0.1,1c0,0.1,0,0.1,0,0.2l-0.1,0.2 c0,0.1-0.1,0.1-0.1,0.2c0,0.7,0,1.3,0.1,2.1c0.1,0.4,0,0.8,0.1,1.3c0.1,0.6-0.1,1.4,0.1,1.8c0,0.1,0,0.1,0,0.2c0,1,0.1,2.2-0.1,3.2 c-0.1,0.4,0.1,0.7,0.1,1.1c0,1.1,0.1,2.3,0.1,3.4c0,0.1,0,0.1,0.1,0.1c0.1,0,0.1,0,0.1-0.1c0.1-5.9,0.1-10.3,0.1-15.2 c0-2.4,0-4.8,0-7.3c0-0.3,0.1-0.6,0.1-0.9c-0.1-1,0-2,0.1-3c0-0.1,0-0.2-0.1-0.3c0,0,0-0.1,0-0.1c0,0,0,0,0.1,0c0,0,0,0,0,0 c0.1,0.5,0.6,0.2,0.9,0.4c0.1,0,0.1,0.1,0.1,0.2c0,4.5,0.1,9,0,13.5c0,4.5-0.1,9.1,0.1,13.5c0,0.1,0,0.3,0.1,0.6 c0.1,0.3,0,0.7,0,0.9c0.1,1.1,0.1,2.1,0.2,3.2c0,0.1,0,0.1,0.1,0.2c0.5,0.6,0.3,4.8,0.3,5.8c0,0.1,0,0.1,0.1,0.1 c0.2,0.2,0.4,0.6,0.4,0.9c0,0.1,0.1,0.2,0.2,0.2c0.1,0,0.2-0.1,0.2-0.2c0.2-0.8,0.5-1.2,0-2c0-0.1,0-0.1,0-0.2l0.3-0.3 c0-0.1,0.1-0.1,0.1-0.2c0-0.5,0-1,0-1.5c0-3.9,0-7.8-0.1-11.7c0-1-0.4-2.1-0.2-3c0.1-0.7-0.1-1.3-0.1-2c0,0,0-0.2,0.1-0.6 c0.1-0.3-0.1-0.6-0.1-0.9c0-0.9,0-1.7,0-2.6c0-0.1,0-0.1,0-0.2c0.3-0.5-0.1-1-0.1-1.5c0.1-0.9,0-1.9,0.1-2.9c0-0.2-0.1-0.3-0.3-0.5 c-0.1,0-0.1-0.1,0-0.2c0.1-0.1,0.2-0.2,0.2-0.4c0-1,0.1-2,0.2-3.1c0-0.3-0.1-0.6,0-0.9c0.1-0.5,0.2-1,0.3-1.6c0-0.1,0-0.1,0-0.2 c-0.5-0.7,0.1-3,0.4-3.9c0-0.1,0.1-0.1,0.1-0.1c0.2-0.1,0.3-0.2,0.4-0.4c0-0.1,0.1-0.1,0.2-0.1c0,0,0,0,0,0 c0.2,0.1,0.3,0.3,0.3,0.6c0.8,3.5,1.3,6.5,1.6,9c0,0.1,0.1,0.3,0.1,0.6c0.3,1,0,2.3,0.5,3.2c0,0.1,0,0.1,0,0.2 c-0.1,0.3,0,0.6,0,0.9c0.1,1.1,0.1,1.9,0.2,2.3c0,0.3,0.2,0.6,0.2,1c0.1,1.1,0.3,2.2,0.4,3.3c0.1,2.5,0.4,4.7,0.6,6.7 c0.1,0.9,0.4,1.9,0.3,2.8c-0.1,3.3,0.1,6.6,0.4,9.9c0.2,2.1,0.2,4.5,0,6.5c-0.1,0.9-0.5,2.4-1.2,4.4c-0.7,2.2-1.7,4.2-3,5.8 c-0.9,1.2-2,1.9-3.3,2.3c-0.1,0-0.2,0.2-0.2,0.3c0,1.1,0,2.1,0.1,3.2c0,0.5,0,1.2,0.2,1.9c0,0.1,0,0.1,0,0.2l-0.2,0.8 c0,0.1,0,0.1,0,0.2c0.1,0.3,0.2,0.5,0.2,0.8c0.1,1.9,0.1,3.9,0.1,5.8c0,0.1,0,0.1,0.1,0.2c0.3,0.2,0.3,0.5,0,0.8 c-0.1,0-0.1,0.1-0.1,0.2v3.4c0,0.1,0,0.1,0.1,0.2c0.5,0.8,0.3,2,0.1,2.9c-0.1,0.3,0.1,0.7,0.1,1c0,3.3,0.3,6.5,0.4,9.8 c0,3.2,0.3,6.5,0.4,9.8c0,0.1,0,0.1-0.1,0.2c-0.3,0.3-0.3,0.6,0,0.9c0.1,0.1,0.1,0.1,0.1,0.2L17,127c0,0.1,0,0.1,0.1,0.2 c0.2,0.2,0.2,0.4,0,0.7c0,0.1,0,0.1,0,0.2c0,0.7,0.1,1.2,0.1,2c0,0.4,0.2,0.7,0.2,1.1c0,4.1,0.1,8.2,0.3,12.2 c0.2,2.9,0.1,5.8,0.3,8.6c0,0.7-0.1,1.6,0.1,2.3c0.1,0.3,0.1,0.5,0,0.6c-0.3,1.3,0,2.4,0.1,3.6c0.1,1.9,0,3.9,0.1,5.8 c0,0.6-0.1,1.1-0.5,1.6c0,0.1,0,0.2,0,0.2c0,0,0.1,0,0.1,0l0.1,0c0.1,0,0.1,0,0.2,0c0.8,0.7,1.6,1.4,2.1,2.3c1,1.8,1.1,4.2-1.1,5.2 c-0.1,0-0.1,0.1-0.1,0.1c-0.1,0.9-0.3,2.6-0.6,5c0,0.3-0.2,0.6-0.3,0.7c-0.1,0-0.2,0-0.2,0c-1.3-0.9-0.7-3.9-0.6-5.2 c0-0.2-0.1-0.4-0.3-0.4c0,0,0,0-0.1,0c-1.2,0.2-2.4,0.3-3.6,0.5c-0.3,0-1,0-1.5,0.1c-1.3,0.3-3.1,0.2-4.4,0.2 c-0.5,0-1.1-0.2-1.6-0.3c-0.1,0-0.1,0-0.2,0c-0.4,0.2-0.8,0.2-1.2-0.1c-0.1-0.1-0.3-0.1-0.4,0C4.1,174.5,4,174.5,4,174.5z M9.3,18.3c-0.1,0-0.1,0.1,0,0.1c0,0,0.1,0,0.1,0l0.1-0.1c0.1,0,0-0.1,0-0.1C9.4,18.3,9.4,18.3,9.3,18.3 C9.3,18.3,9.3,18.3,9.3,18.3z M10.2,27.2l0.3,0.1c0,0,0.1,0,0.1-0.1c0,0,0,0,0-0.1c-0.1-0.4-0.1-0.7,0.1-1.1c0-0.1,0-0.1,0-0.1 l-0.3-0.3c0-0.1-0.1-0.1,0-0.2c0.1-0.2,0.1-0.3,0-0.5c-0.1,0-0.1-0.1,0-0.2l0.1-0.1c0,0,0,0,0-0.1l0.1-2.4c0-0.1,0-0.1,0-0.2 l-0.2-0.3c0,0,0-0.1,0-0.1c0,0,0,0,0.1,0c0.3,0.1,0.4,0.1,0.4-0.2c0.1-0.5,0-1.2-0.2-1.8c-0.1-0.3-0.3-0.5-0.5-0.6 c-0.1-0.1-0.2,0-0.2,0c0,0,0,0.1,0,0.1c0,0.3,0,0.5-0.1,0.8c0,0.1,0,0.1,0,0.2C10,20.6,10,21,9.8,21.5c0,0.1,0,0.1,0,0.2 c0.1,1.2,0.1,2.3,0.1,3.2c0,0.6,0,1.1,0.1,1.6c0,0.1,0,0.1,0,0.2c-0.1,0.2-0.1,0.3-0.1,0.5c0,4,0,6.6,0,7.7c0,1.5,0,2.8,0.1,3.9 c0.1,0.8,0,1.6,0,2.5c0.1,1.9,0,3.9,0,5.8c0,0.3-0.1,0.5-0.3,0.7c-0.1,0.1-0.1,0.3,0,0.4c0.1,0.1,0.2,0.1,0.3,0l0.2-0.1 c0,0,0.1-0.1,0.1-0.1c0.1-1.7,0.1-3.4,0.1-5.1c0-0.9,0.2-2.7-0.1-3.9c-0.1-0.2-0.1-0.4,0-0.5c0-0.1,0.1-0.1,0.1-0.2 c-0.1-3.3-0.1-6.7,0-10C10.3,27.9,10.2,27.6,10.2,27.2C10,27.2,10.1,27.1,10.2,27.2z M6.4,19.7c0.2,0,0.3,0,0.4-0.2 c0-0.1,0-0.1-0.1-0.1c-0.1,0-0.1,0-0.2,0.1c0,0-0.1,0-0.1,0c-0.2-0.1-0.3,0-0.2,0.3c0,0,0,0.1,0.1,0.1c0,0,0,0,0.1,0L6.4,19.7 C6.4,19.7,6.4,19.7,6.4,19.7z M18.1,23.9c-0.2,0-0.3,0.1-0.3,0.3c0,2.2-0.1,3.7-0.1,4.7c0,0.3,0.1,0.5,0.1,0.8c0,0.1,0,0.1,0.1,0.2 c0.3,0.1,0.4,0.3,0.2,0.6c0,0,0,0.1,0,0.1l0.2,3.4c0,0.1,0,0.1-0.1,0.1l-0.1,0c-0.1,0-0.1,0.1-0.1,0.1l0.1,1.2c0,0,0,0.1,0,0.1 c0,0,0.1,0.1,0.1,0.1c0.1,1,0.2,2.2,0.2,3.5c0,0.1,0.1,0.2,0.2,0.4c0,0.1,0.1,0.1,0,0.2c-0.2,0.9,0,1.9,0.1,2.5 c0,1.5,0.1,2.9,0.3,4.4c0.1,1,0,2.1,0.1,3.2c0.1,2,0,3.7,0.1,5.5c0,0.5,0,1,0,1.6c-0.1,1,0.2,2.3-0.5,3.1c-0.4,0.5-1.1,0.8-1.9,0.9 c0,0-0.1,0-0.1,0L15,60.3c-0.1,0-0.1-0.1-0.1-0.2c0-0.4-0.1-0.8-0.3-1.1c-0.1-0.1-0.1-0.1-0.1-0.2c0-0.7-0.1-1.3-0.2-1.9 c-0.1-0.4-0.2-0.7-0.2-1c0-1.9,0-3.7-0.1-5.6c0-0.7,0.1-1.5,0-2.3c0-0.1-0.1-0.1-0.1-0.1c-0.1,0-0.1,0.1-0.1,0.1l0,1.6 c0,0.1,0,0.1,0,0.2c-0.3,0.6-0.3,1.2-0.2,1.7c0.3,1.1,0.2,2.3,0.3,3.4c0,0.1,0,0.1-0.1,0.2c-0.4,0.5-0.4,1.8-0.1,2.3 c0,0.1,0,0.1,0,0.2c-0.1,0.7-0.3,1.3-0.6,1.9c-0.3,0.7-1,1.2-1.5,1.8c-0.1,0.1-0.4,0.2-0.5,0c0,0-0.1-0.1-0.1-0.1 c-0.3-0.6-1.1-1.5-1.1-2.2c-0.1-0.7,0-1.4,0-2.1c0-0.1,0-0.2,0-0.2c-0.1-0.1-0.1-0.1-0.2-0.1c-0.1,0-0.1,0.1-0.1,0.1 c-0.4,1.6-0.2,3-1.9,3.9c-0.9,0.5-1.9,0.2-1.8-1c0-1.7,0-3.5-0.1-5.2c0-0.1,0-0.1-0.1-0.2c-0.1,0-0.2-0.1-0.2-0.3c0,0,0-0.1,0-0.1 c0.1-0.5,0.2-0.9,0.2-1.4c0.1-2.8,0.2-5.4,0.2-8.4c0-3.7,0.2-7.4,0.1-11.1c0,0,0-0.1,0-0.1C6,32.9,6,32.7,6,32.5 c-0.1-0.5-0.1-1-0.1-1.5c0.2-1.3,0.1-2.5,0.3-3.8c0-0.1,0-0.1,0.1-0.2c0.3-0.3,0.4-0.7,0.3-1.1c0-0.1,0-0.1-0.1,0 c0,0.1-0.1,0.2-0.2,0.2c0,0-0.1,0-0.1,0c-0.1,0-0.1-0.1,0-0.1c0.2-0.2,0.3-0.4,0.1-0.7c0,0,0-0.1,0-0.1l0-2.7c0,0,0,0,0-0.1 c-0.1-0.1-0.1-0.2,0-0.4c0.1,0,0.1-0.1,0-0.2l-0.1-0.1c0,0,0-0.1,0-0.1c0,0,0,0,0,0l0.2-0.1c0.1,0,0.1-0.1,0.1-0.2 c-0.1-0.4,0-0.8,0.1-1.1c0-0.1,0-0.2-0.1-0.2c-0.1,0-0.1,0-0.2,0.1c-0.2,0.2-0.2,0.5-0.2,0.8c0,0.1,0,0.1,0,0.2 C6.1,21.3,6,21.6,6,21.9c-0.6,3.3-1.1,6.7-1.5,10.1c0,0.1,0,0.1,0,0.2c0.1,0.2,0,0.3-0.1,0.5c0,0-0.1,0.1-0.1,0.1 c-0.5,3.5-0.9,7-1.1,10.5c0,0.6-0.2,1.3-0.2,2.1c0,0.1,0,0.1,0.1,0.2c0.3,0.2,0.3,0.5,0,0.7c-0.1,0-0.1,0.1-0.1,0.2 c-0.1,2.8-0.1,5.6-0.1,8.4c0,0.4-0.1,0.8-0.1,1.2c0,1.3,0,2.7,0,4c0,0.6-0.3,1.3-0.3,1.9c0,0.7,0.1,1.4,0.2,2.3 c0.2,1.6,0.2,3,0.3,4.6c0,0.4,0.3,0.9,0.4,1.3C3.8,71.7,4.7,73,6,74c0.7,0.5,1.4,0.9,2,1.6c0.3,0.4,0.7,0.8,1.2,1 c0.1,0,0.1,0.1,0.1,0.1l0.2,1.1c0,0.1,0,0.1,0,0.2c-0.3,0.6-0.5,1.6-0.1,2.1c0,0,0.1,0.1,0.1,0.2c0.1,0.8,0.1,1.7-0.1,2.5 c-0.1,0.6,0,1.2-0.2,1.8c-0.1,0.4-0.1,0.7-0.1,1c0.2,4.6-0.3,8.5-0.4,12.7c0,0.5-0.3,1,0,1.6c0,0.1,0,0.1,0,0.2l0,1.1 c0,0.1,0,0.1-0.1,0.2c-0.3,0.3-0.3,0.7-0.1,1.1c0,0.1,0.1,0.1,0,0.2c-0.3,3.5-0.3,6.8-0.4,10.2c0,0.4-0.2,0.7-0.2,1.1 c0,1.6-0.1,3.2-0.2,4.8c0,0.4-0.4,0.8,0,1.3c0,0.1,0.1,0.1,0.1,0.2c0.1,0.8,0,1.6-0.1,2.4c-0.1,0.7-0.2,1.2-0.2,1.6 c-0.1,3.8-0.3,7.7-0.6,11.5c-0.3,3.3-0.3,6.6-0.6,10c-0.1,1-0.2,2.8-0.2,5.4c0,0.2-0.1,0.5-0.2,0.8c-0.2,0.7-0.2,1.3,0.2,2 c0,0.1,0,0.1,0,0.2l-0.3,0.6c0,0.1,0,0.1,0,0.2c0.3,0.7,0,1.4,0,1.9c-0.1,2.4-0.2,4.9-0.4,7.3c0,0.3,0,0.6,0,0.9 c0,0.1,0.1,0.1,0.1,0.1c0.7,0.1,1.3,0.1,2,0.1c0.8,0,1.4,0.4,2.2,0.3c1.1-0.1,1.7-0.1,2.6-0.2c0.3,0,0.6,0.2,0.9,0.2 c0.9,0,1.7,0,2.5,0c0.2,0,0.3-0.1,0.3-0.3c0-1.2,0-2.4-0.1-3.4c0-0.1,0-0.2,0-0.3c0-0.1,0-0.1,0-0.2c0-0.1-0.1-0.1-0.2-0.1 c-0.1,0-0.1,0-0.2,0.1c0,0,0,0,0,0c-0.1,0.4,0.2,1.1-0.5,0.9c-0.1,0-0.1-0.1-0.1-0.1c-0.1-1.2-0.2-2.4-0.3-3.6 c0-0.3-0.2-0.5-0.4-0.7c-0.1-0.1-0.1-0.1,0-0.2l0.2-0.4c0,0,0-0.1,0-0.1c-0.1-1-0.5-2-0.4-2.9c0-0.5-0.2-0.9-0.3-1.3 c-0.1-0.4,0-0.9-0.2-1.3c-0.2-0.5-0.2-0.8,0.1-1.2c0,0,0-0.1,0-0.2c-0.1-0.4-0.2-0.7-0.2-1.1c-0.2-2.6-0.4-5.2-0.4-7.7 c0-2.8-0.1-5.6-0.1-8.4c0-0.2-0.1-0.5-0.2-0.9c-0.1-0.3-0.1-0.7-0.1-1.2c0-2.8,0-5.6,0-8.5c0-0.3-0.1-0.4-0.2-0.7 c0-0.1,0-0.1,0-0.2c0.1-0.6,0.2-1,0.1-1.2c-0.2-0.7,0.2-1.3-0.1-2.1c-0.1-0.3-0.2-0.6-0.2-0.8c0-3-0.4-5.9-0.4-8.8 c0-2.2-0.1-4.4-0.2-6.5c0-0.1,0-0.1-0.1-0.2c-0.1-0.2-0.2-0.4-0.2-0.7c0-2.3-0.1-4.6-0.1-7c0-0.1,0-0.1-0.1-0.2l-0.2-0.2 c0,0,0,0,0-0.1c0-0.6,0.2-1.1,0.2-1.6c0-0.3,0-0.6,0.1-0.9c0.2-0.9,0.1-1.6,0-2.5c0-0.1,0-0.1-0.1-0.2l-0.2-0.2 c0-0.1-0.1-0.1,0-0.2c0.5-0.8,0.5-2.5,0.4-3.5c0-0.6,0.2-1.1,0.1-1.7c0-0.6,0.2-1.1,0.3-1.7c0-0.1,0.1-0.1,0.1-0.1 c0,0,0.1,0,0.1,0.1c0.2,2.8,0.1,5.6,0.3,8.4c0,0.5,0,0.9,0,1.4c-0.1,1,0,1.7,0,2.6c0,0.3,0.2,0.6,0.2,0.9c0,1.5,0.1,3,0.3,4.5 c0.2,2,0.3,2.9,0.3,2.9c0,0.4,0,1.4,0.2,2.9c0.3,2.6,0.3,5.3,0.4,8c0.1,1.1,0.3,3,0.3,4.5c0,0.3,0.1,0.5,0.3,0.7 c0,0,0.1,0.1,0.1,0.2l0.1,1.5c0,0,0,0,0,0c0,0,0,0,0,0c0,0,0,0,0,0c0-0.4,0-0.7,0-1.1c0-0.8,0.2-1.6,0-2.4 c-0.1-0.5-0.2-0.9-0.2-1.2c-0.1-3.6-0.5-7.2-0.5-10.8c0-5.1,0-10.2-0.1-15.4c0-0.5,0.2-0.9-0.3-1.4c-0.1-0.1,0-0.1,0-0.2l0.2-0.1 c0,0,0.1-0.1,0.1-0.1l0.1-10.3c0-0.1,0-0.1,0.1-0.2c2.4-1.2,3.3-3.1,4.6-5.2c0.8-1.2,1.2-2.4,1.4-3.7c0.1-0.5,0-1,0.1-1.5 c0.2-0.9,0.3-1.8,0.3-2.7c0-0.9,0.5-1.3,0.1-2.3c-0.4-1-0.2-2.9-0.2-4c0-1.3-0.2-2.7-0.1-4c0-0.1,0-0.2-0.1-0.2 c-0.3-0.3-0.3-0.7,0-1c0-0.1,0.1-0.1,0.1-0.2l-0.1-3.8c0-0.1,0-0.1,0.1-0.2l0.2-0.1c0.1,0,0.1-0.1,0.1-0.1c0-0.5,0-0.8,0-1 c-0.3-0.9-0.1-1.7-0.1-2.5c-0.1-0.7-0.1-1.5-0.2-2.2c0-0.4-0.2-0.8-0.2-1.2c0-0.4,0-0.6,0-0.7c-0.2-2.2-0.4-4.5-0.7-6.7 c0-0.2-0.2-0.3,0-0.5c0-0.1,0-0.1,0-0.2l-0.4-2.7c0,0,0,0,0,0l0.1-0.1c0,0,0,0,0-0.1c0.1-0.4,0-0.7-0.2-1c0-0.1-0.1-0.1-0.1-0.2 c0-1.2-0.1-2-0.2-2.5c0-0.1-0.1-0.2-0.2-0.2c-0.1,0-0.1-0.1-0.1-0.1c0.1-0.5,0-0.9,0-1.3c0-0.7,0-1.2-0.3-1.9 c-0.2-0.5-0.2-1.2-0.2-1.6c0-0.3,0-0.6,0-0.9c0-0.1,0-0.1-0.1-0.1c-0.1,0-0.1,0-0.1,0.1c-0.2,0.5-0.3,1-0.4,1.5 c0,0.1,0,0.1-0.1,0.2c-0.2,0.3-0.3,1,0.2,1c0.1,0,0.1,0,0.1,0.1c0.1,0.3,0.1,0.6,0.1,0.9c0,0,0,0.1,0,0.1l0.1,0.1 C18.2,23.8,18.2,23.8,18.1,23.9C18.1,23.9,18.1,23.9,18.1,23.9z M7,20.9c0.1,0,0.1-0.1,0.1-0.1l0,0c0-0.1-0.1-0.1-0.1-0.1 c0,0,0,0,0,0c-0.1,0-0.1,0.1-0.1,0.1C6.9,20.9,6.9,20.9,7,20.9C7,20.9,7,20.9,7,20.9z M11.9,46c0-0.1,0-0.1-0.1-0.1l-0.1,0 c-0.1,0-0.1,0-0.1,0.1v0l0,1.3c0,0.1,0,0.1,0.1,0.1l0.1,0c0.1,0,0.1,0,0.1-0.1v0L11.9,46z M11.8,49.1c0.1,0,0.2-0.2,0.2-0.5 c0,0,0,0,0,0c0-0.3-0.1-0.5-0.1-0.5c0,0,0,0,0,0c-0.1,0-0.2,0.2-0.2,0.5c0,0,0,0,0,0C11.6,48.8,11.7,49.1,11.8,49.1 C11.8,49.1,11.8,49.1,11.8,49.1z M9.8,50.3c0,0,0-0.1,0-0.1c0,0,0,0-0.1,0c0,0,0,0,0,0l0.1,2.9c0,0,0,0.1,0.1,0.1 c0,0,0.1,0,0.1-0.1c0-0.2,0-0.4-0.1-0.6c0-0.1,0-0.1,0-0.2c0.2-0.6,0.2-1.3,0-1.9C9.8,50.4,9.8,50.3,9.8,50.3z M11.4,51.4 c0,0-0.1,0-0.1,0c0,0,0,0,0,0v0.2c0,0.1,0.1,0.1,0.1,0.1c0,0,0.1,0,0.1-0.1C11.5,51.6,11.5,51.5,11.4,51.4z M11.3,54.7 c0.1,0,0.2-0.2,0.2-0.4c0-0.2-0.1-0.4-0.2-0.4c0,0,0,0,0,0c-0.1,0-0.2,0.2-0.2,0.4C11.2,54.5,11.2,54.7,11.3,54.7z M7.1,55.1l0,3.8 c0,0,0,0,0,0l0,0c0.4,0,0.6-0.8,0.7-1.9c0,0,0,0,0,0V57C7.7,55.9,7.4,55.1,7.1,55.1L7.1,55.1C7.1,55.1,7.1,55.1,7.1,55.1z M9.6,55.7c0.1,0,0.2,0,0.2-0.1c0,0,0,0,0,0c0-0.1,0-0.2,0-0.2c-0.1,0-0.2,0-0.2,0.1c0,0,0,0,0,0C9.5,55.5,9.5,55.7,9.6,55.7z M14.9,120.7c0-0.1-0.1-0.2-0.2-0.2h0l0,0c-0.1,0-0.2,0.1-0.2,0.2l0,0l0,6.3c0,0.1,0.1,0.2,0.2,0.2l0,0c0.1,0,0.2-0.1,0.2-0.2l0,0 L14.9,120.7z M14.6,129.2c-0.1,0.9-0.1,1.7,0,2.5c0,0.1,0,0.1,0.1,0.1c0.3,0.1,0.4-0.1,0.4-0.4c0-1.3-0.1-2.6-0.2-4c0,0,0,0,0,0 l0,0c0,0-0.1,0-0.2,0c0,0,0,0,0,0.1C14.7,128,14.6,128.5,14.6,129.2C14.5,129.1,14.5,129.1,14.6,129.2 C14.6,129.1,14.6,129.1,14.6,129.2C14.6,129.1,14.6,129.2,14.6,129.2z M15,136.8c0.1,0.3,0.1,0.5,0,0.8c-0.1,0.1,0,0.2,0.1,0.2 c0.1,0,0.1,0,0.1-0.1c0.1-1,0.4-3.5,0-4.3c0-0.1-0.1-0.1-0.2-0.1c-0.1,0-0.1,0.1-0.1,0.1l0,2.9C14.9,136.6,14.9,136.7,15,136.8z M5.4,167.4c0.1,0.2,0.2,0.3,0.3,0.3c1.2,0.3,2.4,0.5,3.7,0.5c1.4,0,2.9,0.3,4.1,0.4c0.5,0,0.9,0.2,1.2,0.2c1,0,1.9,0.2,2.8,0.6 c0.1,0.1,0.2,0.2,0.1,0.3c0,0,0,0,0,0c-0.3,0.5-1.6,0-2.1,0c-0.1,0-0.1,0-0.2,0.1c-0.6,0.6-1.1,0.1-1.8,0.1c-0.3,0-0.5,0-0.7,0 c-1.7-0.2-3.3-0.3-5-0.2c-0.7,0-1.4-0.4-2.2-0.4c-0.1,0-0.1,0-0.1,0.1c-0.1,0.3-0.3,0.6-0.6,0.8c-0.1,0-0.1,0.1,0,0.2 c0,0,0.1,0.1,0.1,0c1.2-0.4,2,0,3.1,0c0.8,0,1.5,0,2.3,0c0.1,0,0.1,0,0.2,0c0.7,0.4,1.3,0.2,2.1,0.3c1.2,0.1,2.6-0.4,3.4,0.9 c0,0.1,0.1,0.1,0.1,0.1c0.4,0.2,0.8,0.5,1.1,0.9c0.3,0.4,0.7,0.3,0.9-0.1c0.4-0.6,0.8-1.2,0.8-1.9c0-0.7,0.1-1.5-0.3-2.1 c-0.4-0.7-0.9-1.4-1.5-1.9c0,0-0.1-0.1-0.1,0l-1.9,0.5c-0.1,0-0.1,0-0.2,0l-0.7-0.2c-0.1,0-0.1,0-0.2,0c-0.6,0.1-1.2,0.1-1.9,0 c-0.6-0.1-1,0-1.5,0.1c-0.1,0-0.1,0-0.2,0c-0.2-0.1-0.4-0.2-0.7-0.2c-1.7,0-3-0.1-3.8-0.3c-0.9-0.2-1.7-0.1-2.4,0.3 c-0.1,0-0.1,0.1,0,0.1l1.3,0.2C5.3,167.3,5.3,167.3,5.4,167.4z M16.9,172.8c0-0.1-0.1-0.2-0.2-0.2c-0.1,0-0.1,0-0.1,0.1l0.1,0.1 C16.8,172.9,16.9,172.9,16.9,172.8C16.9,172.9,17,172.8,16.9,172.8z M3.6,174.2c-0.1,0.1-0.1,0.1,0,0.2c0.1,0,0.1,0,0.2,0l0.2-0.2 c0.1-0.1,0.1-0.2,0-0.3c0,0-0.1-0.1-0.1-0.1c-0.2,0-0.4,0-0.4,0.2c0,0.1,0,0.1,0.1,0.2C3.7,174.1,3.7,174.1,3.6,174.2z M6.9,179.7 l0-0.1c0,0,0-0.1,0-0.1c0,0,0,0,0,0l-0.1,0c0,0-0.1,0-0.1,0.1c0,0,0,0,0,0.1l0.1,0.1C6.8,179.7,6.8,179.7,6.9,179.7 C6.9,179.7,6.9,179.7,6.9,179.7z"></path> <ellipse cx="138" cy="20.4" rx="0.2" ry="0.1"></ellipse> <path d="M54.2,53.8c-0.2,0.1-0.4,0.3-0.4,0.6c0,0.1-0.1,0.2-0.2,0.2c-0.1,0-0.1-0.1-0.1-0.2c0.5-1.3,1.4-2.4,2.4-3.2 c0.2-0.1,0.3-0.3,0.3-0.5c0-0.1,0-0.1,0.1-0.2c0.2-0.2,0.4-0.4,0.6-0.6c0.5-0.4,0.8-1,1.4-1.4c0.3-0.2,0.6-0.5,0.8-0.8 c0.4-0.6,1-1.3,1.8-2.1c2.5-2.6,4.9-4.8,7.3-6.6c0.2-0.2,0.4-0.5,0.6-0.7c0-0.1,0.1-0.1,0.2-0.1c0.6,0.1,1.1-0.6,1.5-1 c0.4-0.4,0.8-0.5,1.2-0.8c0.5-0.3,0.5-0.8,1.2-1.1c0,0,0,0,0,0l0.2-0.2c0,0,0.1-0.1,0.1,0l0.3,0.2c0.1,0,0.1,0,0.2,0 c0.2-0.2,0.4-0.5,0.6-0.8c0-0.1,0.1-0.1,0.1-0.1l1.3-0.6c0,0,0.1,0,0.1,0c0,0,0,0.1,0,0.1c-0.2,0.2-0.6,0.3-0.8,0.5 c-0.3,0.3-0.5,0.6-0.8,0.9c-0.3,0.3-0.8,0.7-1.4,1.4c-0.3,0.3-1,0.6-1.4,1.1c-0.8,0.8-1.6,1.3-2.4,2c-0.5,0.4-0.8,0.7-1,0.8 c-1.4,1-2.2,1.9-3.3,2.9c-1.5,1.3-2.7,2.6-4,4c-0.5,0.5-1.2,1.5-2,2.1c-1,0.7-1.5,2-2.5,2.8c-0.8,0.6-1.3,1.4-1.8,2.1 c-0.1,0.1-0.2,0.2-0.3,0.2c-0.1,0-0.1,0-0.1-0.1c0,0,0,0,0,0l0.3-0.5C54.4,53.7,54.4,53.7,54.2,53.8z M68.8,39L68.8,39 c-0.1,0.1-0.1,0.1,0,0.1c0.1,0,0.2-0.1,0.2-0.2c0,0,0-0.1,0-0.1c0,0,0,0,0,0c0,0-0.1,0-0.1,0.1C68.8,38.9,68.8,38.9,68.8,39z M61,46.4C61,46.4,61,46.3,61,46.4L61,46.4C60.9,46.3,60.9,46.3,61,46.4C60.9,46.3,60.9,46.3,61,46.4l-1.7,1.7c0,0,0,0.1,0,0.1l0,0 c0,0,0.1,0,0.1,0c0,0,0,0,0,0L61,46.4z M58.2,49.3l0.2,0.1c0,0,0.1,0,0.1,0l0,0c0.3-0.4,0.4-0.8,0.3-0.8c0,0,0,0,0,0l0,0 C58.8,48.5,58.5,48.8,58.2,49.3C58.2,49.2,58.2,49.2,58.2,49.3L58.2,49.3C58.2,49.3,58.2,49.3,58.2,49.3 C58.2,49.3,58.2,49.3,58.2,49.3z M57,50.9c0.3-0.2,0.5-0.4,0.6-0.8c0-0.1,0-0.1,0.1-0.2l0.5-0.4c0,0,0-0.1,0-0.1l0,0 c0,0-0.1,0-0.1,0c-0.4,0.4-0.7,0.8-0.9,1.3C57.1,50.7,57,50.8,57,50.9c-0.1-0.1-0.1-0.1-0.1-0.1c-0.1,0-0.1,0-0.2,0.1l0,0.2 c0,0.1,0,0.2,0.1,0l0.1-0.1C56.9,50.9,56.9,50.9,57,50.9z M55.6,52.2C55.6,52.2,55.6,52.2,55.6,52.2C55.7,52.3,55.7,52.3,55.6,52.2 l0.4-0.3c0.1-0.1,0.1-0.1,0,0C55.8,51.9,55.7,52,55.6,52.2z"></path> <path d="M74.2,37.3C74.2,37.3,74.1,37.3,74.2,37.3c-0.1,0-0.1-0.1-0.1-0.1l2-1.4c0.1-0.1,0.1,0,0.1,0.1c0,0,0,0.1-0.1,0.1 C75.5,36.2,74.9,36.8,74.2,37.3z"></path> <path d="M73.8,37.3C73.8,37.3,73.8,37.3,73.8,37.3C73.8,37.3,73.8,37.3,73.8,37.3L73.8,37.3c0.1,0.1-0.1,0.5-0.6,0.9l-0.1,0.1 c-0.4,0.4-0.9,0.6-1,0.5c0,0,0,0,0,0l0,0c0,0,0,0,0,0c0,0,0,0,0,0L73.8,37.3z"></path> <path d="M69.5,41c-0.1-0.8,1.4-1.9,2-2.3c0.1-0.1,0.3-0.1,0.3,0c0.1,0.1,0.1,0.2,0,0.3c-0.5,1.1-1.1,1.5-2.1,2.2 C69.6,41.2,69.5,41.2,69.5,41z"></path> <path d="M171.3,41.5c-0.5-0.5-1.3-1.2-1.8-1.9c-0.1-0.1-0.1-0.2,0-0.3c0,0,0.1-0.1,0.2,0c0.5,0.1,0.6,0.6,1.2,0.4 c0.1,0,0.1,0,0.2,0c0.4,0.4,0.8,0.9,1.2,1.3c1.5,1.4,2.9,2.8,4.3,4.2c0.4,0.5,1.2,1.1,1.8,1.8c2,2.4,3.5,4.1,4.4,5.2 c0.6,0.8,1.3,1.8,1.9,2.6c2.6,3.4,4.6,7,6,11c0.2,0.6,0.2,1.1,0.2,1.7c0,0.1,0,0.1-0.1,0.1c0,0-0.1,0-0.1,0 c-0.7-0.6-1.3-1.2-1.7-2.1c-1.5-3.2-2.7-5.7-4.6-8.3c-0.6-0.9-1.4-1.5-1.9-2.7c-0.4-1.1-1.2-1.5-1.9-2.3c-0.8-1-1.6-2-2.5-3.1 C176,46.5,173.6,44,171.3,41.5z"></path> <path d="M61.6,48.1l0.5-0.1c0.1,0,0.1,0,0.1,0.1c0,0,0,0.1,0,0.1c-0.2,0.2-0.5,0.4-0.7,0.5c-0.1,0-0.1,0.1-0.2,0.1 c-0.9,1.4-2.1,1.9-3.3,2.8c-0.1,0.1-0.1,0-0.1-0.1c0.2-0.5,0.6-0.6,0.9-0.9c1.2-1.2,2.6-3,4.1-4.4c0.3-0.3,0.4-0.8,1-0.9 c0.1,0,0.1-0.1,0.2-0.1c0.5-0.8,1.5-2.1,2.4-2.3c0,0,0,0,0.1,0l2.4-2.4c0.1-0.1,0.2-0.1,0.2,0c0,0,0.1,0.1,0,0.2 c-0.1,0.1-0.1,0.3,0,0.4c0,0.1,0,0.1,0,0.2c-0.5,1-2,2.2-3,2.8c-0.3,0.2-0.6,0.5-0.9,0.8c-0.8,1-1.7,1.7-2.6,2.5 c0,0-0.1,0.1-0.2,0.1c-0.4,0-0.8,0.2-1.1,0.5C61.5,48,61.5,48,61.6,48.1C61.6,48.1,61.6,48.1,61.6,48.1z M64,45.7c0,0,0-0.1,0-0.1 l0,0c0,0-0.1,0-0.1,0h0l-1.2,1.3c0,0,0,0.1,0,0.1l0,0c0,0,0.1,0,0.1,0c0,0,0,0,0,0L64,45.7z M60.8,49.1c0.1,0,0.2-0.1,0.4-0.3 c0.2-0.2,0.2-0.4,0.2-0.5l0,0c-0.1,0-0.2,0.1-0.4,0.3C60.8,48.9,60.7,49.1,60.8,49.1L60.8,49.1z"></path> <path d="M177.9,51.7c0.8,0.8,1.4,1.8,2.1,2.6c1.9,2.1,3.7,4.7,4.3,7.6c0,0.1,0,0.1-0.1,0.1c0,0-0.1,0-0.1,0 c-1.1-1.1-1.9-2.5-2.6-3.4c-2.5-3.4-5.1-7-8.3-9.8c-0.9-0.8-1-2.1-2.3-2.4c-0.1,0-0.1,0-0.2-0.1c-1.5-2-4.3-3-4.9-5.2 c0-0.1,0-0.1,0.1-0.1c0.4,0.1,0.7,0.3,1,0.5c1,0.9,2.1,1.7,3.1,2.6c0.2,0.1,0.4,0.3,0.8,0.4c0.1,0,0.1,0.1,0.1,0.1 c0.3,0.7,0.9,0.8,1.4,1.3C174.2,47.8,176,49.8,177.9,51.7z"></path> <path d="M177.4,60.4c-2.6-4.4-6.4-8-9.7-11.8c-1.3-1.4-3.8-2.5-4.4-4.4c0-0.1,0-0.2,0.1-0.2c0,0,0.1,0,0.1,0 c1.3,0.8,2.6,1.7,3.8,2.6c1,0.8,2,1.8,3.1,2.8c1.1,1,2.3,2.5,3.1,3.4c1.7,1.9,3.3,3.6,4.6,5.9c0.6,1.1,1.5,2.4,1.9,3.8 c0.1,0.4,0.2,0.7,0.4,1c0,0,0,0.1,0,0.1c0,0,0,0-0.1,0C179.2,63.4,177.8,61.1,177.4,60.4z"></path> <ellipse transform="matrix(0.9799 -0.1994 0.1994 0.9799 -6.5761 26.3866)" cx="127.7" cy="45.8" rx="0.1" ry="0.2"></ellipse> <path d="M161.3,48.1c-0.4-0.3-0.6-0.6-0.7-1.1c0-0.1,0.1-0.2,0.2-0.2c0,0,0,0,0.1,0c0.3,0,0.6,0.1,0.9,0.3c2.1,1.3,3.9,2.2,5.9,4 c0.2,0.2,0.6,0.6,1.3,1.3c0.6,0.6,1.3,1.1,1.8,1.8c1,1.3,2.2,2.5,3.4,4.3c0.6,0.9,0.8,1.5,0.7,2.5c0,0,0,0.1-0.1,0.1c0,0,0,0,0,0 c-0.5-0.5-0.9-1-1.5-1.5c-0.5-0.4-0.9-0.8-1.4-1.5c-1.6-2-3.5-4.1-5.8-6.3C164.7,50.4,163,49.3,161.3,48.1z"></path> <path d="M145.3,51.7c-0.6-0.5-2-2.3-1.1-3c0,0,0.1-0.1,0.2-0.1c1.2,0.1,1.7,2.2,2.3,3.3c0,0,0,0.1,0,0.1 C146,52.1,145.6,52,145.3,51.7z"></path> <path d="M56.7,58.7l-1,1.3c0,0-0.1,0-0.1,0c0,0,0-0.1,0-0.1c1.4-2.5,3.1-4.7,5.1-6.7c0.3-0.3,0.8-0.6,1.1-1c0,0,0-0.1,0-0.2l0-0.1 c0,0,0-0.1,0-0.1c0.4-0.4,0.8-0.8,1.2-1.2c0.4-0.4,0.7-1,1.2-1.5c0.1-0.1,0.1,0,0.1,0l0,0.1c0,0,0,0.1,0,0.1 c-0.3,0.3-0.5,0.7-0.5,1.2c0,0.1,0,0.1-0.1,0.2c-0.9,1.1-1.6,2.4-2.6,3.5c-1.1,1.3-1.7,2-1.7,2c-1.3,1.6-2.4,3.4-3.8,4.9 c-0.2,0.2-0.4,0.5-0.5,0.8c-0.3,0.7-0.5,1.1-1,1.6c-0.1,0.1-0.2,0.1-0.2,0c0,0-0.1-0.1,0-0.2c0.5-1,0.8-2.4,1.6-3.2c0,0,0,0,0,0 c0,0,0,0,0,0l0,0.1c0,0.1,0,0.1,0.1,0c0.6-0.4,0.7-0.9,1.2-1.5C56.7,58.9,56.8,58.8,56.7,58.7C56.8,58.7,56.7,58.7,56.7,58.7z"></path> <path d="M149.8,53.1l-0.4,0.1c-0.1,0-0.1,0-0.2,0c-0.5-0.5-1.5-1.2-1.8-1.8c-0.2-0.4-0.3-1.6,0.5-1.5c0.2,0,0.3,0.1,0.4,0.3 c0.3,0.5,0.4,0.9,0.8,1.4c0.3,0.3,0.5,0.7,0.6,1.1c0,0.1,0.1,0.1,0.1,0.2c0.2,0.2,0.5,0.3,0.8,0.2c0.1,0,0.1,0,0.2,0 c1.3,0.3,1.4,1.1,1.7,2.2c0,0.1,0,0.1-0.1,0.1c-0.5-0.1-0.9-0.2-1.2-0.7c-0.4-0.5-0.7-1.1-1.3-1.4 C149.9,53.1,149.8,53.1,149.8,53.1z"></path> <ellipse transform="matrix(0.9934 -0.1149 0.1149 0.9934 -5.1733 14.6752)" cx="124.7" cy="52.2" rx="0.1" ry="0.4"></ellipse> <path d="M63.3,58.4c-0.5,0.4-0.8,0.9-1.5,1.2c0,0-0.1,0-0.1-0.1c0,0,0-0.1,0-0.1c0.8-1.2,1.7-2.3,2.6-3.4c0.5-0.6,1.1-1.6,1.8-2.1 c0.8-0.6,1.4-1,1.7-1.4c0,0,0.1,0,0.1,0c0,0,0,0,0,0.1c-0.3,0.4-0.5,0.6-1,1c-0.7,0.5-0.6,1.1-1,1.7C65.2,56.4,64.3,57.5,63.3,58.4 z"></path> <path d="M124.9,53.6l-0.1-0.5c0-0.1,0-0.1,0.1,0c0.1,0.2,0.2,0.3,0.1,0.5C125,53.6,125,53.6,124.9,53.6 C124.9,53.6,124.9,53.6,124.9,53.6z"></path> <path d="M61,57c-0.7,0.8-0.7,2-1.6,2.4c0,0,0,0,0,0l-0.8,1.3c-0.1,0.1-0.2,0.1-0.3,0.1c-0.1,0-0.1-0.1-0.1-0.2 c0.5-1.3,1.2-2.4,2.2-3.4c0.3-0.4,0.6-0.9,0.8-1.5c0,0,0.1-0.1,0.1-0.1c0,0,0,0,0,0l0.2,0.1c0.1,0,0.1,0,0.2,0 c0.8-0.6,1.4-1.4,1.8-2.4c0,0,0,0,0.1,0c0,0,0,0,0,0c0,0,0,0,0,0.1c-0.3,1.2-1,1.7-2,2.7c-0.1,0-0.1,0.1-0.1,0.2 c0.1,0.5-0.1,1-0.4,1.4c0,0-0.1,0.1-0.1,0c0,0,0-0.1,0-0.1L61,57C61.1,56.9,61.1,56.9,61,57z M59.5,59l0.4-0.6c0,0,0-0.1,0-0.1 c0,0,0,0-0.1,0c-0.2,0.2-0.4,0.4-0.4,0.6C59.4,59,59.4,59,59.5,59C59.5,59.1,59.5,59.1,59.5,59z"></path> <path d="M123.8,66.4c-0.8-0.8-0.2-1.8,0.1-2.6c0.4-1.2-0.6-2.2,0.4-3.5c0-0.1,0.1-0.1,0.1-0.2c0.1-0.7,0-1.5-0.3-2.1 c0-0.1,0-0.1,0-0.2c0.1-0.2,0.1-0.5,0.1-0.7c0-0.1,0-0.1,0-0.2c0.3-0.6,0.4-1.4,0.2-2c0-0.1,0-0.2,0.1-0.3c0,0,0.1,0,0.1,0 c0.2,0.6,0.2,1,0.1,1.6c-0.1,0.5-0.2,1-0.2,1.6c0,0.1,0,0.1,0.1,0.2c0.3,0.2,0.3,0.3,0,0.6c-0.1,0-0.1,0.1-0.1,0.2l0.3,1.4 c0,0.1,0,0.1,0,0.1c-0.7,0.8-0.4,2.1-0.1,3c0,0.1,0,0.1,0,0.2c-0.3,0.8-0.6,1.6-0.7,2.5c0,0.1,0,0.1,0,0.2c0.3,0.5,0.4,1,0.3,1.5 c-0.3,1.1-0.4,1.7-0.3,2.9c0.1,1.5-0.3,2.4-0.5,3.6c-0.2,1.6-0.5,3.2-0.6,4.8c0,0.1,0,0.1,0,0.1c0,0,0,0-0.1,0 c-0.1,0-0.1,0-0.1-0.1c0.2-2.2,0.4-4.5,0.5-6.7c0-0.5,0.2-1,0.2-1.5c0-0.1,0-0.1-0.1-0.2l-0.2-0.2c-0.1-0.1-0.1-0.1-0.1-0.2 l0.7-3.5C123.9,66.4,123.8,66.4,123.8,66.4z"></path> <path d="M115.9,60.2L115.9,60.2c0.1-0.1,0.1-0.1,0.1-0.1c-0.2-0.3-0.2-0.5,0-0.8c0,0,0-0.1,0-0.1v-0.3c0-0.1,0-0.1,0.1-0.1 c0.2,0.2,0.3,0.4,0.2,0.6c-0.2,0.5-0.1,0.9,0.1,1.3c0,0.1,0.1,0.1,0.1,0.2c0.1,0.8,0,2.1,0.6,2.7c0.1,0,0.1,0.1,0,0.2 c-0.4,0.6-0.1,1.1-0.1,1.6c0.3,4.9,0.8,9.7,1,14.8c0,1,0.5,1.5,0.1,2.6c-0.2,0.6-0.8,0.6-1,0c-0.2-0.7-0.4-1.5-0.4-2.2 c-0.1-1-0.1-2-0.3-3.1c-0.1-0.5-0.1-1.1-0.1-1.5c-0.4-3.7-0.5-7.4-0.5-11.1c0-0.9,0.2-1.5-0.3-2.4c0-0.1,0-0.1,0-0.1h0.1 c0.1,0,0.1,0,0.1-0.1c0.1-0.8,0.3-1.4-0.2-2.1c0-0.1,0-0.1,0-0.2c0,0,0.1,0,0.1,0L115.9,60.2C115.9,60.2,115.9,60.2,115.9,60.2 C115.9,60.2,115.9,60.2,115.9,60.2z"></path> <path d="M5.5,72.7c-0.8-0.7-3-3.4-0.9-3.9c0.2,0,0.3,0,0.4,0.2c0.8,1.4,1.7,2.1,3,3.1c0.8,0.5,2.3,1.8,2.3,2.8c0,0.1,0,0.1-0.1,0.1 C8.8,75,6.6,73.6,5.5,72.7z"></path> <path d="M14.7,74.7c-0.7,0.5-1.6,0.6-2.1-0.3c-0.2-0.4,0-0.6,0.3-0.7c1-0.5,1.8-0.9,2.8-1.6c0.7-0.4,1.9-1.3,2.8-1.3 c0.1,0,0.1,0,0.1,0.1c0,0,0,0,0,0C18.1,72.4,16,73.8,14.7,74.7z"></path> <path d="M237.9,163.9c1,0.4,1.2,1.3,1.6,2.2c0.1,0.4,0.2,0.9,0.5,1.3c0,0.1,0,0.1,0,0.2c-0.6,0.9,0,1.7-0.9,2.6 c-0.9,0.8-1.9,1.1-3.1,1c-0.3,0-0.4,0-0.7,0.2c-0.1,0-0.1,0.1-0.2,0.1c-0.8,0-1.4,0.3-2.1-0.1c-0.1,0-0.1,0-0.2,0 c-0.9,0.5-3.5,0.2-4.6,0.2c-0.3,0-0.4-0.1-0.6-0.3c-0.1,0-0.1-0.1-0.2-0.1h-0.9c-0.1,0-0.1,0-0.1-0.1l-0.1-0.4c0-0.1,0-0.1-0.1-0.2 c-0.3-0.1-0.5-0.2-0.8-0.1c-0.1,0-0.1,0.1-0.1,0.1c-0.2,0.7-0.7,0.8-1.2,0.4c-1.7-1.2-2.7-3.1-2.5-5.2c0.1-1.1,1.3-1.8,2.2-2.2 c0.1,0,0.1-0.1,0.1-0.1l-0.3-4.6c0-0.1,0-0.1,0.1-0.2c0.4-0.5,0.5-1.1,0.2-1.7c0-0.1,0-0.1,0-0.2c0.1-1,0.2-2,0.1-2.9 c0-0.1,0-0.1-0.1-0.2c-0.1-0.1-0.1-0.2-0.1-0.3c0.3-2.4,0.1-4.6,0.1-7c0-1.1,0-2.2-0.1-3.4c0-0.4,0.1-1,0.1-1.4 c0-10.8,0.1-21.5,0.1-32.3c0-0.6,0.1-1.7,0-2.6c-0.1-1.2,0.7-2.3-0.1-3.5c0-0.1,0-0.1,0-0.2c0.3-0.5,0.4-1,0.2-1.6c0,0,0-0.1,0-0.1 c0.1-0.4,0.1-0.7,0.1-1.1c0-0.4-0.3-0.9-0.2-1.3c0.3-1.5,0.2-2.6,0.2-4.1c0-0.6-0.3-1.2-0.2-1.8c0.1-0.4,0.2-0.7,0.2-1.1 c0-2.9,0.1-5.7,0.1-8.6c0-0.2,0.1-0.3,0.3-0.3l0.5,0c0.1,0,0.1,0.1,0.1,0.1c0,0,0,0,0,0c-0.1,2.9,0.1,5.7,0,8.6 c0,0.2-0.1,0.5-0.2,0.9c-0.3,0.9,0.2,1.3,0.2,2.2c0,3.3,0.1,6.7,0.1,9.9c0,12.2,0,24.4,0,36.6c0,4.6,0.1,9.1,0,13.6 c0,0.3,0.1,0.9,0,1.3c-0.2,0.7,0.1,1.5,0.1,2.2c0,0.1,0,0.1-0.1,0.2c-0.3,0.4-0.3,0.7,0,1.1c0,0,0,0.1,0,0.1l0.1,2.9 c0,0.1,0,0.1-0.1,0.2l-0.2,0.3c0,0.1,0,0.1,0,0.2c0,0,0,0,0.1,0c0.6,0,1.1-0.3,1.7-0.4c1.2-0.1,3.2,0.1,3.7-0.3 c0.1,0,0.1-0.1,0.2,0l0.5,0.2c0,0,0,0,0,0l3.6,0.1c0.1,0,0.1,0,0.2,0.1c0.2,0.2,0.4,0.3,0.7,0.4c0.2,0,0.3-0.1,0.4-0.2 c0,0,0,0,0-0.1c0-0.8,0.1-1.7,0.2-2.6c0.1-0.8-0.1-1.6-0.1-2.3c0-2.9-0.1-5.7-0.1-8.6c0-1.1-0.3-2.1-0.3-3.2c0-1.9-0.1-4.3-0.2-7.4 c0-0.9-0.2-1.7-0.2-2.4c-0.1-2-0.1-3.9-0.1-5.9c0-0.2-0.1-0.4-0.3-0.6c-0.1,0-0.1-0.1-0.1-0.2l0.2-0.6c0,0,0,0,0,0 c-0.1-0.8-0.2-1.9-0.1-3.1c0.1-2.6-0.4-5.8-0.4-8.4c-0.1-2.1-0.1-4.3-0.2-6.4c0-0.5-0.4-0.9-0.3-1.5c0.2-1.3,0-2.9,0-3.9 c-0.1-5.9-0.1-11.8,0-17.8c0-1.7,0.3-3.6,0.3-5.4c0-0.8,0.2-1.2,0.9-1.5c0.2-0.1,0.3,0,0.3,0.2c0.2,1.3,0.7,2.5,0.4,4 c0,0.1,0,0.1,0,0.2c0.2,0.5,0,1,0,1.4c0.1,2.2,0.1,3.9,0.2,6.5c0.1,3.3,0.1,6.2,0.5,9.9c0,0.1,0,0.2-0.2,0.4c0,0.1-0.1,0.1,0,0.2 c0.1,1.1,0,2.2,0.1,3.3c0.1,0.5,0.1,1,0.1,1.4c0.1,2.7,0.1,5.5,0.3,8.2c0.2,4.3,0.2,8.7,0.2,13c0,0.1,0.1,0.3,0.2,0.4 c0,0,0,0.1,0,0.1c-0.1,0.1-0.2,0.2-0.2,0.4c0.1,2.5,0,5,0.2,7.4c0.3,3.7,0.2,7.5,0.3,11.2c0,0.7,0.1,1.3,0.1,2 c-0.2,3.7,0.2,7.2,0.3,10.8c0,0.5-0.1,1-0.5,1.3C237.9,163.7,237.9,163.8,237.9,163.9C237.9,163.9,237.9,163.9,237.9,163.9z M229.2,164.4c0.4,0.4,0.5,0.9,0.3,1.4c0,0,0,0.1-0.1,0.1l-1.1,0.6c-0.1,0-0.1,0.1,0,0.1c0.7,0.1,1.4,0.1,2,0c0.3,0,0.4,0,0.6,0.2 c0,0,0.1,0.1,0.2,0.1c1.2,0,2.7-0.2,3.9,0.2c0.5,0.2,1,0.4,1.5,0.6c0,0,0.1,0,0.2,0l1.1-0.2c0,0,0,0,0.1,0c0.1,0,0.2,0,0.3,0 c0.1,0,0.1-0.1,0.1-0.2c-0.2-0.7-0.5-1.5-0.8-2.2c-0.2-0.4-0.3-0.8,0.1-1c0.1-0.1,0.1-0.2,0-0.3c-0.1-0.1-0.1-0.1-0.2-0.1 c-0.9,0.4-1.1,1-2.3,0.4c-0.1,0-0.1,0-0.2,0c-1.8,0.2-3.8-0.1-5.6-0.1c-0.2,0-0.4-0.1-0.7-0.1c-0.9,0.1-1.9,0.2-2.9,0.2 c-0.1,0-0.1,0.1-0.1,0.1c0,0,0,0.1,0,0.1c0.1,0.1,0.2,0.1,0.3,0.1c1-0.1,2.1-0.1,3.1-0.1C229.1,164.3,229.2,164.3,229.2,164.4z M225.5,168.2c0.1,0,0.1-0.2,0-0.3l0,0c-0.1-0.1-0.2-0.1-0.3-0.1c-0.1,0-0.1,0.2,0,0.3c0,0,0,0,0,0 C225.3,168.2,225.4,168.2,225.5,168.2z M236.5,169.7c0,0.1,0.1,0.1,0.1,0.1c0,0,0,0,0,0l1-0.2c0.1,0,0.1-0.1,0.1-0.1 c0.2-0.5,0.2-1,0.2-1.5c0-0.1-0.1-0.1-0.1-0.1l-1.2,0.3c-0.1,0-0.1,0.1-0.1,0.1L236.5,169.7z M236.3,168.3c0-0.1-0.3-0.2-0.6-0.2 c0,0,0,0,0,0c-0.3,0-0.6,0.1-0.6,0.2c0,0.1,0.3,0.2,0.6,0.2c0,0,0,0,0,0C236.1,168.5,236.3,168.4,236.3,168.3z M229.2,168.4 c0-0.1-0.6-0.2-1.5-0.2c-0.8,0-1.5,0-1.5,0.1c0,0.1,0.6,0.2,1.5,0.2C228.5,168.5,229.2,168.5,229.2,168.4z M231.1,168.5 C231.1,168.5,231.1,168.4,231.1,168.5c0-0.1,0-0.1,0-0.1c-0.2,0-0.5-0.1-0.7-0.1c-0.1,0-0.1,0-0.1,0.1c0,0,0,0.1,0.1,0.1 C230.6,168.5,230.8,168.5,231.1,168.5z M233.7,168.4c0,0-0.1-0.1-0.3-0.1c-0.2,0-0.3,0-0.3,0.1c0,0,0.1,0.1,0.3,0.1c0,0,0,0,0,0 C233.6,168.4,233.7,168.4,233.7,168.4L233.7,168.4z"></path> <ellipse transform="matrix(0.8738 -0.4863 0.4863 0.8738 -30.2011 81.6136)" cx="142.1" cy="99" rx="0.2" ry="0.3"></ellipse> <path d="M109.5,105.7c0.6,0.5,1.2,0.8,1.9,0.7c0.1,0,0.1,0,0.2,0l0.6,0.4c0,0,0.1,0,0.2,0c0.4-0.2,0.7-0.1,0.9,0.1 c0,0.1,0.1,0.1,0.2,0.1c0.6,0.1,1.1,0.1,1.7,0c0.1,0,0.1,0,0.2,0l0.7,0.4c0,0,0,0,0,0c1.4-0.2,2.9,0.2,4.2,0.1c0.4,0,0.7,0.1,1,0.2 c0.1,0,0.1,0.1,0.2,0.1l3.6,0.1c0.1,0,0.1,0,0.2,0.1c0.5,0.4,1.7,0.3,2.4,0.3c0,0,0.1,0,0.1,0l1,0.7c0,0,0.1,0.1,0,0.1c0,0,0,0,0,0 c-0.5,0.3-0.9,0.4-1.5,0.4c-3.7,0-7.4,0-11.1-0.1c-0.5,0-1.2,0.1-1.8-0.1c-1.8-0.5-4.4-0.4-5.8-1.8c-1.7-1.7-1.2-3.2-1.3-5.5 c0-1.2-0.2-3,1.6-2.7c0.1,0,0.2,0.1,0.2,0.3c0,0,0,0,0,0c-0.3,1,0.1,1.5,0.1,2.4c0,1.1,0.1,2.1,0.2,3.1 C109.3,105.5,109.4,105.6,109.5,105.7z"></path> <path d="M175.9,105.4C175.9,105.5,175.9,105.5,175.9,105.4L175.9,105.4c-0.4,0.4-1,0.3-1.3,0l0,0c-0.3-0.4-0.2-0.9,0.1-1.3 c0,0,0,0,0,0l0,0c0,0,0,0,0.1,0c0,0,0,0,0,0L175.9,105.4z"></path> <path d="M174.3,108.6c0,0,0,0.1,0,0.1l0,0c-0.2,0.2-0.6,0.2-0.9-0.1c0,0,0,0,0,0l-0.2-0.2c-0.3-0.3-0.3-0.7-0.1-0.9l0,0 c0,0,0.1,0,0.1,0c0,0,0,0,0,0L174.3,108.6z"></path> <ellipse transform="matrix(0.3322 -0.9432 0.9432 0.3322 6.073 237.4966)" cx="170.8" cy="114.5" rx="0.4" ry="1.2"></ellipse> <path d="M169,119.4l0-0.1c0-0.1,0-0.1,0.1-0.1c0,0,0,0,0,0c0.4,0.1,0.8,0.3,1.1,0.5c0.1,0.1,0.1,0.2,0,0.3c0,0.1-0.1,0.1-0.2,0.1 c-0.4,0-0.8-0.2-1.1-0.4c-0.1,0-0.1,0-0.2,0c-0.3,0.1-0.5-0.1-0.7-0.3c0-0.1,0-0.1,0.1-0.2c0,0,0,0,0,0l0.2-0.1 c0.1,0,0.1,0,0.1,0.1c0.1,0.2,0.2,0.3,0.4,0.4C168.9,119.5,169,119.5,169,119.4C169,119.4,169,119.4,169,119.4z"></path> <path d="M49.1,131.7c-0.9-0.6-2.2-1.5-2.7-2.4c-0.5-0.9-1-1.8-1.3-2.8c-0.3-0.8-2.7-5.4-1.6-5.9c0.2-0.1,0.4,0,0.5,0.2 c0,0,0,0.1,0,0.1c0.1,1,0.5,1.9,1.1,2.8c0.3,0.5,0.5,0.8,0.7,1.1c0.8,1.8,1.7,3.6,2.8,5.3c0.3,0.5,0.5,1,0.7,1.5 C49.2,131.6,49.2,131.7,49.1,131.7C49.1,131.7,49.1,131.7,49.1,131.7z"></path> <path d="M46.9,122.6c0.6,0.3,1,0.6,1.1,1.4c0.2,1.4,0.8,2.5,1.8,3.5c0.1,0.1,0.2,0.4,0.4,0.9c0,0.1,0,0.1,0,0 c-0.5-0.5-0.6-1-1.2-1.4c-0.6-0.4-1-1.1-1.3-1.8c-0.2-0.4-0.1-1-0.2-1.5c-0.2-0.6-1.5-1.4-1-2.1c0-0.1,0-0.1,0-0.2l-0.1-0.4 c0-0.1,0-0.2,0.1-0.1c0.1,0,0.2,0.1,0.2,0.1c0.2,0.4,0.2,0.9,0.2,1.4C46.7,122.5,46.8,122.6,46.9,122.6z"></path> <path d="M166.9,122.4C166.9,122.4,166.9,122.4,166.9,122.4L166.9,122.4c-0.3,0.2-0.7,0.1-1-0.3l-0.1-0.1c-0.3-0.4-0.3-0.9-0.1-1.1 l0,0c0,0,0,0,0,0c0,0,0,0,0,0L166.9,122.4z"></path> <path d="M53.1,126.3c-0.6-0.5-1.1-1.2-1.4-1.9c-0.2-0.5-0.1-0.9-0.1-1.4c0-0.4,0.2-0.5,0.5-0.2c0,0,0.1,0.1,0.1,0.1 c0.3,0.5,0.5,1,0.8,1.4c0.3,0.6,0.4,1.1,0.5,1.7c0,0.2-0.1,0.3-0.2,0.3C53.3,126.4,53.2,126.4,53.1,126.3z"></path> <path d="M52.7,128.2c-0.8-1.2-1.9-1.8-2.8-3.1c-0.4-0.6-0.5-1.2-0.1-1.8c0-0.1,0.1-0.1,0.2,0c0,0,0,0,0,0c0.3,0.2,0.5,0.5,0.6,0.9 c0,0.1,0,0.1,0.1,0.2c0.3,0.3,0.6,0.7,0.8,1.2c0.3,0.5,0.1,1.1,0.8,1.5c0.1,0,0.1,0.1,0.1,0.1l0.4,0.9c0,0,0,0.1,0,0.1 S52.7,128.2,52.7,128.2z"></path> <path d="M55.6,126.2c-0.4-0.5-1-1.3-1.6-1.9c-0.1-0.1-0.2-0.3-0.2-0.4c0-0.1,0.1-0.2,0.2-0.1c0,0,0.1,0,0.1,0.1l1.6,2.3 c0,0.1,0,0.1,0,0.1C55.7,126.2,55.6,126.2,55.6,126.2z"></path> <path d="M161.4,125.3l0.2-1c0-0.1,0.1-0.1,0.2-0.1c0,0,0,0,0,0l2.4,1.3c0,0,0.1,0.1,0.1,0.1l0.2,1.2c0,0.1,0,0.2-0.1,0.2 c0,0-0.1,0-0.1,0l-2.9-1.4C161.4,125.5,161.4,125.4,161.4,125.3z"></path> <path d="M161.9,130.7c-0.6,0-2.2-0.4-2.3-1.1c0-0.1,0.1-0.3,0.2-0.3c0,0,0.1,0,0.1,0c0.2,0,0.3,0.2,0.5,0.3 c0.4,0.5,0.9,0.8,1.5,0.9C162,130.5,162,130.6,161.9,130.7C162,130.6,161.9,130.7,161.9,130.7z"></path> <path d="M155,134.3c-0.2-0.1-0.2-0.3,0-0.5c0,0,0-0.1,0-0.1l-0.4-0.9c0-0.1,0-0.1,0.1-0.1c0,0,0.1,0,0.1,0c0.1,0,0.2,0.1,0.3,0.1 c0.8,0.7,1.7,1.3,2.7,1.8c0.2,0.1,0.4,0.3,0.6,0.5c0.4,0.5,1,0.8,1.7,0.9c0.1,0,0.2,0.2,0.3,0.4c0,0.1,0,0.1-0.1,0.1 c-0.6-0.2-1.2-0.3-1.8-0.3c-0.1,0-0.1,0-0.2-0.1c-0.7-0.7-1.4-0.8-2.3-1.1C155.6,134.8,155.3,134.5,155,134.3z"></path> <path d="M231.2,161.2c-0.1,0.1-0.2,0.2-0.3,0.2c-1-0.3-3.7-0.9-3.6-2.3c0-0.6-0.1-1.3-0.1-1.8c0-2.2-0.3-4.7-0.4-6.5 c-0.1-2.2,0-4.5-0.2-6.7c0-0.2,0-0.5,0-0.9c0-0.5-0.1-0.9-0.1-1.4c0.1-1.3,0.2-2.7,0.2-4c0-0.5,0.2-0.8,0.2-1.3c0-0.1,0-0.1,0-0.2 c-0.2-0.3-0.2-0.6-0.1-1c0-0.1,0.1-0.1,0.2-0.1c0,0,0.1,0,0.1,0.1c0.2,0.5,0.5,0.9,0.4,1.6c-0.1,2.7,0.1,4.8,0.4,7.7 c0.2,1.3,0.2,2.9,0.4,4.4c0.2,2.2,0.4,4.6,0.6,7.2c0,0.4-0.3,0.6-0.3,0.9c0,1-0.1,2.4,1.1,2.4c0,0,0.1,0,0.1,0l1.3,0.9 c0.1,0,0.1,0,0.2,0c0,0,0,0,0,0l0.2-0.5c0-0.1,0.1-0.1,0.2-0.1l1.8,0.1c0.2,0,0.3-0.1,0.3-0.3c0-1.2,0.2-2.5,0.2-3.6 c0-0.9,0.3-2.6-0.2-3.4c0-0.1,0-0.1,0-0.2c0.2-0.4,0.4-0.8,0.3-1.3c-0.1-0.7-0.5-2.1-0.2-2.7c0-0.1,0-0.1,0-0.2 c-0.1-0.7-0.2-1.4,0.1-2.1c0.2-0.5,0.2-1,0-1.5c-0.1-0.3,0-0.5,0.2-0.6c0.1,0,0.1-0.1,0.1-0.2c0.1-0.8-0.1-1.6-0.1-2.5c0,0,0,0,0,0 c0,0,0,0,0.1,0c0,0,0,0,0,0c0.4,2.3,0.7,4.7,0.8,7.1c0,0.5,0.2,1.1,0.2,1.8c0.2,3.2,0.1,6.5-0.1,9.7c-0.1,0.7-0.2,1.3-0.9,1.6 c-0.1,0-0.1,0-0.2,0c-0.8-0.4-1.3-0.3-2.1-0.4c-0.2,0-0.4,0-0.7,0C231.3,161.1,231.3,161.2,231.2,161.2z"></path> <path d="M155.3,138.8c0.2-0.1,0.5-0.1,0.7,0.1c0,0,0,0.1,0,0.1c0,0,0,0-0.1,0c-0.8,0-1.4,0.3-2-0.4c0,0-0.1,0-0.1,0c0,0,0,0,0,0 c-0.1,0.2-0.3,0.3-0.5,0.1c-0.8-0.4-1.5-0.9-2.2-1.4c0,0-0.1-0.1-0.1-0.1c-0.2-0.4-0.2-0.6,0.2-0.6c0.3-0.1,0.5,0.2,0.7,0.3 c1.2,0.6,2.9,1.2,3.2,1.9C155.2,138.8,155.2,138.9,155.3,138.8z"></path> <path d="M149.3,142.2c0.6-0.3,2.3,0.8,2.8,1.2c0,0,0,0.1,0,0.1c0,0-0.1,0-0.1,0c-0.5-0.2-1-0.4-1.5-0.7c-0.6-0.3-1.1,0-1.7,0 c-0.1,0-0.1,0-0.2-0.1c-0.7-0.8-2.2-1-2.3-2.2c0-0.3,0.1-0.3,0.3-0.2c0.9,0.5,1.9,0.9,2.5,1.8C149.2,142.2,149.3,142.2,149.3,142.2 z"></path> <path d="M97.3,148.6c1,0.6,1.6,1.4,2.6,2.1c0,0,0.1,0.1,0.1,0.1l0.2,0.7c0,0,0,0.1,0,0.1c0,0,0,0-0.1,0c-1.1-0.8-2.2-1.3-3.3-2.2 c-0.6-0.5-0.9-1.1-0.2-1.7c0.1,0,0.1,0,0.2,0c0,0,0,0,0,0l0.4,0.7C97.2,148.6,97.2,148.6,97.3,148.6z"></path> <path d="M179.4,152.2c0.8-0.9,1.9-1.8,2.4-2.9c0-0.1,0.1-0.1,0.1-0.1c0,0,0.1,0,0.1,0c0.1,0,0.1,0,0.1-0.1c0.2-0.2,0.3-0.4,0.6-0.5 c0.2-0.1,0.2-0.1,0.1,0.1c-1.8,3.1-3.4,5.8-6.7,7.3c-0.1,0-0.1,0.1-0.1,0.1c-0.5,0.6-1.2,0.9-1.7,1.2c-0.9,0.5-3,1.9-4,1.9 c-0.1,0-0.1,0,0-0.1c0.3-0.4,0.6-0.9,1-1.2c1.3-1.1,2.5-1.6,3.7-2.5c0.5-0.3,0.9-0.6,1.2-0.7c0.6-0.3,1.1-0.5,1.6-0.9 C178.3,153.3,178.9,152.7,179.4,152.2z M172.2,157.9C172.2,157.9,172.2,157.9,172.2,157.9C172.2,157.9,172.2,157.9,172.2,157.9 l-0.5,0.1c0,0,0,0,0,0.1c0,0,0,0,0,0C171.9,158.2,172.1,158.1,172.2,157.9z"></path> <path d="M160.3,161c-0.1,0-0.2-0.1-0.2-0.2c0-0.1,0.1-0.3,0.2-0.4c0.3-0.2,0.6-0.5,1-0.7c2.8-1.4,5.5-3.1,8-5.2 c0.7-0.6,1.4-0.5,2.1-1.4c0-0.1,0.1-0.1,0.1-0.1c0.5-0.2,0.7-0.6,1-0.9c0.4-0.3,0.7-0.6,1.1-0.9c0,0,0.1-0.1,0.1,0c0,0,0,0,0.1,0 c0,0,0,0.1,0,0.1c0,0,0,0,0,0c-0.8,1-1.6,2-2.4,3c-0.1,0.1-0.4,0.3-0.8,0.4c-0.1,0-0.1,0.1-0.2,0.1c-0.3,0.5-0.5,0.9-1,1.3 c-0.6,0.5-1.2,1.1-1.7,1.5c-1.4,1-2.8,2-4.3,2.8C162.2,160.9,161.4,161.2,160.3,161z"></path> <path d="M156.6,160c-0.1-0.1-0.1-0.1,0-0.2c0.4-0.4,0.7-0.8,1.3-1c1.7-0.7,2.7-1.6,4-2.5c0.4-0.3,0.9-0.4,1.4-0.5 c0.1,0,0.1,0,0.2,0.1c0.2,0.4-0.1,0.5-0.3,0.7c-1.1,1.3-2.4,2.3-3.9,3c-0.1,0.1-0.4,0.1-0.8,0.2C157.8,160.1,157.4,160.7,156.6,160 z"></path> <path d="M151.9,159l-0.7,0.5c-0.1,0-0.2,0-0.2,0c-0.1-0.1-0.1-0.2,0.1-0.3c0.8-0.7,4.8-4.1,5.5-3.1c0.1,0.1,0.1,0.3-0.1,0.5 c-0.4,0.4-1.4,1.2-2.9,2.2c-0.1,0.1-0.2,0.1-0.3,0.1c-0.1,0-0.2-0.1-0.3-0.2c0-0.1-0.1-0.1-0.2-0.1c0,0-0.1,0.1-0.1,0.1 c0,0.3-0.1,0.5-0.4,0.6c-0.1,0-0.2,0-0.2-0.1l-0.2-0.3C152,159,151.9,159,151.9,159C151.9,159,151.9,159,151.9,159z"></path> <path d="M133.5,159.4C133.5,159.4,133.5,159.3,133.5,159.4L133.5,159.4c0-0.6,0-1,0-1h0.1c0.1,0,0.1,0.4,0.1,1c0,0,0,0,0,0v0 c0,0,0,0,0,0H133.5z"></path> <path d="M170,159C170,159.1,170,159.1,170,159L170,159c-0.3,0.4-0.6,0.7-0.7,0.6c0,0,0,0,0,0l0,0c-0.1-0.1,0.2-0.4,0.5-0.7l0,0 c0,0,0.1,0,0.1,0c0,0,0,0,0,0L170,159z"></path> <path d="M120.9,165C120.9,165,120.9,165,120.9,165C120.9,164.9,120.9,164.9,120.9,165c0.2-0.1,0.3,0,0.5,0c0,0,0,0,0,0c0,0,0,0,0,0 L120.9,165z"></path> <path d="M224.9,175.1C224.9,175.1,224.9,175.1,224.9,175.1c0.1,0,0.1,0,0.1,0c0.5-1.3,2.8-0.7,3.9-0.7c0.6,0,1,0.5,1.6,0.3 c0.9-0.3,1.2,0.2,1.9,0.3c1.2,0.2,2.4,0.2,3.5,0.2c0.1,0,0.1,0,0.2,0.1c0.5,0.5,0.7,1,0.9,1.6c0,0.1,0.2,0.2,0.3,0.2 c0.1,0,0.2-0.1,0.2-0.2c0.1-0.3-0.2-0.7-0.2-1c-0.1-0.5-0.1-1-0.1-1.6c0.1-0.4,0-0.5-0.2-0.7c0,0-0.1-0.1,0-0.1 c0.5-0.7,0.1-1.5,0.9-2.1c0,0,0.1,0,0.1,0l0.8,0.5c0.1,0,0.1,0.1,0,0.2c0,0,0,0,0,0l-0.3,0.4c0,0,0,0.1,0,0.1 c0,0.7-0.2,1.3-0.3,1.9c-0.1,0.7-0.2,1.5-0.5,2.2c-0.2,0.7,0,1.3-1,1.5c-0.8,0.1-1.6,0-2.4,0.4c-0.1,0-0.1,0-0.2,0 c-0.9-0.5-1.3,0.1-2.2,0.2c-1,0-1.8,0-2.8-0.2c-0.7-0.2-1.4-0.2-2.1-0.4c-0.9-0.3-1.5-0.4-2.4-0.8c-0.1-0.1-0.2-0.2-0.2-0.4 l0.1-0.6c0-0.1,0-0.1-0.1-0.2c-0.1,0-0.1,0-0.1,0.1l-0.4,0.6c0,0.1-0.1,0.1-0.2,0.1c-1.1,0.3-0.8-2.3-0.8-2.9 c0-0.6,0.3-0.9,0.4-1.5c0.1-0.8,0.6-1.2,1.5-1c0.1,0,0.1,0.1,0.1,0.1C225.2,172.7,225.2,173.8,224.9,175.1 C224.8,175,224.8,175.1,224.9,175.1C224.9,175.1,224.9,175.1,224.9,175.1z"></path> </g> </svg>