<svg xmlns="http://www.w3.org/2000/svg" xmlns:xlink="http://www.w3.org/1999/xlink" id="Capa_1" x="0px" y="0px" viewBox="0 0 150 69.5" style="enable-background:new 0 0 150 69.5;" xml:space="preserve"> <g> <path d="M134,56c0.1,0,0.2,0.1,0.4,0.2c0.2,0,0.4,0,0.4-0.1c0.2-0.1,0.3-0.3,0.3-0.5l0,0c0-0.1,0.1-0.4-0.1-0.6 c-0.1-0.1-0.2-0.2-0.4-0.2s-0.4,0-0.4,0c-0.4,0-0.6,0.1-0.7,0.3c0,0.1-0.1,0.1-0.1,0.1s0.1,0.1,0.1,0.2 C133.5,55.6,133.6,55.8,134,56z"></path> <path d="M138.2,38v0.1c0,0.1,0.1,0.2,0.1,0.4c0,0.1,0,0.2,0.1,0.3c0,0.1,0,0.3,0.1,0.4c0,0.1,0,0.1,0.1,0.2c0.1,0,0.1,0.1,0.1,0.1 s0.1,0,0.2,0.1l0.7,0.2c0.6,0.2,1.1,0.5,1.3,0.6c0.1,0.1,0.2,0.2,0.3,0.3c0-0.2,0-0.4-0.1-0.6c-0.1-0.5-0.3-1.2-0.8-1.8 c-0.1-0.2-0.3-0.4-0.6-0.5c-0.3-0.2-0.7-0.3-1.2-0.3c-0.2,0-0.4,0-0.6,0c0,0.1,0,0.1,0.1,0.2C138.1,37.7,138.1,37.8,138.2,38z"></path> <path d="M62.8,42.8c0.5-0.2,1-0.3,1.5-0.5c0.4-0.2,0.9-0.3,1.4-0.5l0.9-0.3c0.1,0,0.2-0.1,0.4-0.1c0.1,0,0.3-0.1,0.4-0.1 c0.3-0.1,0.6-0.2,1-0.3c2.3-0.6,5.1-1,6.9-1.2c2.3-0.2,4.6-0.4,6.3-0.5l2.8-0.1c0,0,4.4-0.2,9-0.3c2.3,0,4.8-0.1,6.9,0h1.9 c0.5,0,0.9,0,1.3,0c0.6,0,1.1,0,1.8,0l0,0c0.1,0,0.2,0.1,0.3,0.2c0,0.1-0.1,0.3-0.2,0.3c-0.7,0-1.2,0.1-1.8,0.1 c-0.4,0-0.8,0.1-1.3,0.1l-2.3,0.1L93.5,40l-12.6,0.6c-1.5,0.1-3.4,0.2-5.4,0.3c-2.7,0.2-5,0.5-6.8,0.8c-0.3,0.1-0.7,0.1-1,0.2 c-0.2,0-0.3,0.1-0.5,0.1L66,42.3c-0.4,0.1-0.7,0.2-1,0.3c-0.7,0.2-1.3,0.3-2,0.5h-0.1c-0.1,0-0.2-0.1-0.2-0.2 C62.6,43,62.7,42.8,62.8,42.8z"></path> <path d="M147,51.5c-0.1,0-0.2-0.1-0.3-0.1c-0.2,1.5-0.6,2.3-1.1,3.3c0.1,0.1,0.1,0.1,0.2,0.2l0.1,0.1c0.1,0.1,0.3,0.3,0.5,0.5 c0.1,0.1,0.2,0.1,0.2,0.1h0.1c0.1,0,0.2,0,0.2,0c0.1,0,0.2-0.1,0.4-0.5c0.1-0.2,0.1-0.4,0.1-0.4s0.1-0.2,0.1-0.5 c0.1-0.3,0.1-0.7,0.1-1.1l0.1-1.3l0,0l0,0C147.4,51.6,147.2,51.6,147,51.5z"></path> <path d="M149.1,53.1c0-0.5-0.1-1.1-0.2-1.4v-0.1c0-0.1,0-0.2-0.1-0.3c-0.1-0.3-0.3-0.5-0.5-0.5l-0.2-0.1H148h-0.1h-0.1 c-0.3,0-0.5,0-0.7,0.1c-0.1,0-0.3,0-0.4,0c0-0.2,0-0.3,0-0.5v-0.2c0-0.2,0-0.4,0-0.6v-0.3c0-0.1,0-0.2,0-0.3v-0.1 c0-0.3-0.1-0.5-0.1-0.8c-0.1-0.5-0.2-1-0.4-1.6c-0.4-1.2-0.9-2.2-1.5-3.1c-0.5-0.8-1.5-1.9-2.9-2.4c0-0.3,0.1-0.7,0-1 c0-0.7-0.1-1.5-0.6-2.4c-0.1-0.2-0.3-0.5-0.8-0.8c-0.3-0.2-0.5-0.3-0.8-0.4c-0.3-0.1-0.7-0.2-1.1-0.2h-0.3c-0.4,0-0.9,0-1.4,0 L135,36c-1.1,0-2.4-0.1-3.8-0.1c-2.3,0-4.2,0-4.2,0l-4.9,0.1c-2.6,0.1-5.7,0.2-7.7,0.2l-1.8,0.1c-0.7,0-1.2,0.1-1.8,0.1 c-0.6,0-1.2,0.1-1.8,0.1c-0.1-0.2-0.2-0.4-0.3-0.6c-0.4-0.8-0.8-1.6-1.3-2.3c-0.1-0.2-0.2-0.4-0.4-0.6c-0.6-1.1-1.4-2.3-2.5-3.3 c-0.7-0.6-1.6-1-2.5-1.2s-1.7-0.2-2.6-0.2l-8.8,0.1L87,28.6c0,0-1.5,0-3.8,0.2c-2.4,0.2-5.6,0.6-8.8,1l-2.5,0.4 c-0.9,0.1-1.8,0.3-2.5,0.6c-1.5,0.5-2.9,1.4-4.2,2.4c-0.5,0.4-1.1,0.9-1.6,1.4c-0.2,0.2-0.4,0.4-0.5,0.5c-0.3,0.3-0.6,0.6-0.7,0.8 c-0.7,0.9-1.3,1.5-1.7,2.2c-0.3,0.4-0.5,0.7-0.9,1.1c-0.5,0.2-0.9,0.4-1.4,0.5c-0.6,0.2-1.3,0.4-2.1,0.8L56,40.6 c-0.3,0.1-0.7,0.3-1.4,0.7c-0.7,0.3-1.8,0.9-2.7,1.4c-0.5,0.3-0.9,0.5-1.2,0.7l-0.5,0.3c0,0-0.2,0.1-0.4,0.3l-1,0.7l-1.2,0.9 l-1,0.9L46.3,47c-0.3,0.3-0.6,0.6-0.8,0.8l-0.6,0.8c-0.7,0.9-1.2,1.7-1.6,2.5c-0.2,0.4-0.4,0.8-0.7,1.2c-0.1,0.1,0,0.3,0.1,0.3h0.1 c0.1,0,0.2,0,0.2-0.1c0.6-1,1.3-1.6,2.1-2.4c0.2-0.2,0.4-0.4,0.7-0.6l0.7-0.7c0.2-0.2,0.4-0.3,0.6-0.6c0.2-0.2,0.4-0.3,0.6-0.5 l1-0.8l2.1-1.5c0.2-0.2,0.4-0.3,0.4-0.3l0.5-0.3c0.3-0.2,0.7-0.4,1.1-0.7c0.7-0.5,1.6-1,2.2-1.4l1.8-1.1c0.6-0.4,1.1-0.7,1.5-1 c0.2-0.2,0.5-0.3,0.7-0.4c0,0.1,0.1,0.1,0.1,0.2c0,0.1,0.1,0.2,0.1,0.3v0.1c0,0.1,0.1,0.2,0.2,0.3l0.3,0.6c0.2,0.4,0.4,0.7,0.4,0.7 s0.2,0.4,0.5,0.7c0.1,0.1,0.2,0.2,0.3,0.3c-0.2,0.1-0.4,0.1-0.6,0.2C60,43.8,59.6,44,59,44.2c-0.3,0.1-0.9,0.3-1.8,0.7 c-0.9,0.4-2.2,0.9-3.4,1.5c-1.1,0.5-1.9,1-1.9,1s-1,0.5-2.1,1.3c-1.1,0.7-2.4,1.7-3.2,2.3c-0.4,0.3-0.7,0.6-0.8,0.7 c-0.1,0.1-0.1,0.1-0.2,0.2c-0.6,0.5-1,1-1.3,1.4c-0.3,0.3-0.5,0.6-0.8,0.9c0,0,0,0.1-0.1,0.1c-0.1-0.2-0.2-0.4-0.3-0.5 s-0.1-0.2-0.2-0.2c-0.1-0.1-0.1-0.1-0.1-0.2c0-0.1-0.1-0.1-0.1-0.1l0,0c0-0.2-0.1-0.5-0.3-0.6c-0.2-0.2-0.5-0.2-0.8-0.1 c-0.1,0-0.4,0.2-0.6,0.4c-0.2,0.1-0.4,0.4-0.6,0.6c-0.5,0.2-1,0.4-1.7,0.5h-0.1c-0.3,0-0.8,0.1-1.6,0.1c-0.6,0-1.4-0.1-2.2-0.2 c-0.7-0.1-1.7-0.2-2.7-0.1c-0.8,0.2-1.5,0.5-2,0.8l-1.5,0.9c-0.4,0.3-1.1,0.6-1.9,0.8c-0.6,0.1-1.3,0-2-0.1c-0.2,0-0.3-0.1-0.5-0.1 c-1-0.1-1.8-0.2-2.4-0.2s-0.9,0-1.1,0h-0.1c-0.5,0-0.9,0.1-1.3,0.2c0-0.2,0.1-0.4,0.1-0.5v-0.1v-0.2v-0.1c0,0,0-0.1-0.1-0.1 c0-0.1-0.1-0.1-0.2-0.1c-0.4,0-0.7-0.1-1.1-0.2c-0.8-0.1-1.7-0.2-2.6-0.3h-0.1c-0.1,0-0.1,0-0.2,0H15h-0.1c-0.2,0-0.3,0.1-0.4,0.2 l-0.1,0.1V55v0.1c-0.1,0.8-0.2,1.6-0.3,2.4v0.1c0,0.1,0.1,0.1,0.2,0.2c0,0,0.1,0.1,0.2,0.1c0.9,0,1.8,0.2,2.9,0.4 c0.4,0,0.7,0,0.8,0h0.1h0.3h0.1l0,0c0.1,0,0.2,0,0.2-0.1c0.1,0,0.1-0.1,0.2-0.2c0-0.4,0.1-0.7,0.1-1.1v-0.2c0.4,0,0.8,0,1.2,0h0.4 c0.2,0,0.5,0,1,0.1c0.5,0,1.4,0.1,2.3,0.3c0.1,0,0.3,0.1,0.4,0.1c0.6,0.1,1.2,0.2,1.8,0.2c0.2,0,0.4,0,0.6,0c1-0.1,1.8-0.6,2.3-0.9 l1.5-0.9c0.4-0.2,1-0.5,1.6-0.7c0.6-0.1,1.4-0.1,2.3,0c0.8,0.1,1.7,0.1,2.4,0c0.9-0.1,1.5-0.2,1.8-0.3s0.6-0.2,0.9-0.3 c0,0.1-0.1,0.2-0.1,0.2s-0.1,0.2-0.1,0.4s0,0.4,0,0.7c-0.1,0-0.1,0-0.2,0c-0.7,0.1-1.3,0.1-2.2,0.3c-0.2,0-0.8,0.2-1.7,0.5 c-1.5,0.5-3.7,1.2-5.9,2c-1.6,0.6-3.1,0.7-4.5,0.8c-0.3,0-0.6,0-0.8,0c-0.9,0.1-1.5,0.2-1.8,0.2c-0.4,0.1-0.7,0.2-0.7,0.2 s-1,0.3-2.4,0.7c-0.7,0.2-1.5,0.5-2.4,0.6c-0.9,0.1-1.9,0.1-3,0c-0.8-0.1-1.6-0.2-2.4-0.3c-1.3-0.2-2.6-0.3-3.8-0.3 c-0.4,0-0.8,0-1.4,0.1H6.1c-0.1,0-0.2,0-0.3,0H5.7v-0.1v-0.1c0,0,0-0.1-0.1-0.1C5.6,60,5.5,60,5.4,60c-0.3-0.1-0.7-0.1-1-0.2 c-0.8-0.1-1.6-0.2-2.5-0.3H1.7c-0.1,0-0.1,0-0.3,0c-0.1,0-0.1,0-0.1,0c-0.2,0-0.3,0.1-0.4,0.2l-0.1,0.1v0.1V60 c-0.2,0.8-0.3,1.5-0.4,2.3v0.1c0,0.1,0.1,0.1,0.1,0.2c0,0,0.1,0.1,0.2,0.1c0.8,0.1,1.7,0.2,2.8,0.4c0.3,0,0.6,0,0.8,0h0.1h0.3 c0,0,0.1,0,0.2,0l0,0c0.1,0,0.2,0,0.2,0c0.1,0,0.1-0.1,0.2-0.2c0-0.3,0.1-0.7,0.1-1l0.1-0.5H5.3l0,0h0.3c0,0,0,0,0-0.1v-0.1 c0.1,0,0.2,0,0.3,0h0.5c0.3,0,0.8,0,1.3,0c1,0,2.2,0.2,3.3,0.4c0.9,0.2,1.8,0.3,2.8,0.4c1.2,0.1,2.3,0.1,3.2,0 c1-0.1,1.8-0.4,2.6-0.6c1.4-0.4,2.3-0.7,2.3-0.7l0.6-0.1c0.3-0.1,0.9-0.2,1.7-0.2c0.3,0,0.5,0,0.8-0.1c0.5,0,1.1-0.1,1.7-0.1 c1-0.1,2-0.4,3.1-0.8c0.4-0.2,0.9-0.3,1.3-0.5c0.6-0.2,1.1-0.5,1.7-0.7l2.8-1.1c0.7-0.3,1.3-0.5,1.6-0.5c0.9-0.3,1.5-0.4,2.3-0.5 c0.1,0.5,0.2,0.9,0.2,1.2c0,0.2,0.1,0.3,0.1,0.4v0.1h-0.1c-0.2,0.1-0.7,0.2-1.6,0.3c-0.3,0-0.8,0-1.2,0.1c-0.5,0-1,0-1.5,0.1 c-0.9,0.1-1.6,0.3-1.6,0.3s-0.2,0.1-0.6,0.2c-0.4,0.1-0.9,0.4-1.2,0.7c-0.2,0.2-0.5,0.3-0.7,0.5c-0.2,0.1-0.4,0.3-0.6,0.4 c-0.4,0.3-0.8,0.5-1,0.6c-0.5,0.3-0.8,0.4-1.1,0.4c-0.5,0.2-0.9,0.3-1.3,0.4c0-0.2-0.1-0.4-0.1-0.7V61l-0.1-0.2c0,0,0-0.1-0.1-0.1 l-0.1-0.1c-0.1,0-0.1,0-0.2,0c-0.4,0.1-0.7,0.2-1.1,0.2c-0.8,0.2-1.7,0.5-2.5,0.7H23c-0.1,0-0.1,0-0.2,0.1h-0.1c0,0-0.1,0-0.1,0.1 c-0.1,0.1-0.2,0.2-0.3,0.3v0.1v0.1v0.1c0.2,0.8,0.4,1.6,0.6,2.4c0,0,0,0.1,0.1,0.1c0.1,0.1,0.1,0.1,0.2,0.1c0,0,0,0,0.1,0h0.1 c0.8-0.3,1.7-0.5,2.9-0.7c0.3-0.1,0.6-0.2,0.8-0.3l0.4-0.1c0,0,0.1,0,0.2-0.1c0.1,0,0.1-0.1,0.2-0.1c0.1-0.1,0.1-0.2,0.1-0.3 c-0.1-0.3-0.2-0.7-0.3-1l0,0c0.4,0,0.8,0,1.4-0.1h0.1c0.2,0,0.6-0.1,1.2-0.3c0.3-0.1,0.8-0.3,1.3-0.6c0.3-0.2,0.5-0.3,0.7-0.5 c0.2-0.1,0.4-0.2,0.5-0.4c0.7-0.5,1.4-0.6,1.5-0.6c0,0,0.6-0.2,1.4-0.3c0.3,0,0.7-0.1,1-0.1c0.6,0,1.2-0.1,1.7-0.2 c1-0.2,1.6-0.4,1.8-0.5c0.4-0.2,0.8-0.4,1.1-0.6c0.5,0,1,0,1.6,0.1c0.5,0,1.1,0,1.8,0.1l4.9,0.1c2.8,0.1,6,0.1,9.2,0.2 c0.1,0.4,0.1,0.7,0.3,1.1c0.2,0.6,0.4,1.4,1,2.2c0.1,0.2,0.3,0.5,0.6,0.8c0.4,0.4,0.8,0.8,1.3,1.2c0.4,0.3,1,0.6,1.6,0.9 c0.2,0.1,0.5,0.2,0.7,0.3l0.2,0.1c0.3,0.1,0.7,0.2,0.9,0.2c0.4,0.1,0.9,0.1,1.2,0.1c0.1,0,0.2,0,0.3,0h0.1c0.3,0,0.5,0,0.5,0 s0.3,0,0.7-0.1h0.1c0.4-0.1,1-0.2,1.5-0.3c0.5-0.1,1.2-0.4,1.9-0.8c0.3-0.1,0.5-0.3,0.8-0.5c0.1-0.1,0.1-0.1,0.2-0.2 c0.2-0.1,0.3-0.2,0.4-0.3l0.1-0.1c0.4-0.3,0.7-0.6,0.8-0.8l0.4-0.5l0.1-0.2c0.2-0.3,0.4-0.6,0.5-0.9c0-0.1,0.1-0.2,0.1-0.3 c0.1-0.2,0.2-0.4,0.2-0.7l0.1-0.3c0-0.1,0.1-0.3,0.1-0.4c2.5,0,4.5,0,5.9,0c1,0,1.6,0,1.6,0c0.1,0,9.2,0,19-0.1l7.5-0.1l9.7-0.2 c0.7,0,1.3,0,1.8-0.1c0.7,0,1.3-0.1,2-0.1l-0.1,0.3c0,0.1,0.1,0.3,0.2,0.3l0,0c0.1,0,0.2-0.1,0.2-0.2c0-0.2,0.1-0.3,0.1-0.4 c0.1,0,0.2-0.1,0.2-0.2c0-0.1,0-0.1-0.1-0.2c0.2-0.8,0.6-1.6,1.1-2.5L125,55c0.1-0.3,0.3-0.7,0.8-1.4c0.4-0.7,0.9-1.5,1.6-2.3 c0.6-0.8,1.5-1.5,2.4-2.1c1-0.6,1.9-1,2.4-1.1c0.2-0.1,0.4-0.1,0.6-0.2l0.4-0.1c0,0,0.4-0.1,0.9-0.2c0.4-0.1,1.3-0.1,2.3,0 s1.9,0.4,2.7,0.8c1,0.5,1.7,1.1,2.1,1.6c0.4,0.4,0.7,0.8,0.9,1.2c0.2,0.2,0.3,0.5,0.4,0.6l0.7,1.2c0.3,0.6,0.6,1,0.9,1.6 c-0.1,0-0.2,0.1-0.2,0.3c0,0.1,0.1,0.2,0.3,0.2c0.1,0,0.2,0,0.3,0.1s0.1,0.2,0.2,0.4v0.1v0.1c0,0.1,0,0.1,0.1,0.2l0,0 c0,0,0,0.1,0.1,0.1c0.1,0.2,0.2,0.5,0.5,0.8s0.5,0.5,0.9,0.6c0.2,0,0.4,0.1,0.6,0.1c0.2,0,0.3,0,0.5-0.1c0.6-0.2,1-0.6,1.4-1.3 c0.2-0.4,0.2-0.6,0.2-0.6l0,0c0,0,0.1-0.3,0.1-0.6C149.1,54.1,149.2,53.6,149.1,53.1z M43.6,54.5c0.1,0,0.1,0,0.2-0.1 c0.6-0.6,1.1-0.9,1.8-1.4l0.6-0.4c0.1,0,0.1-0.1,0.3-0.2c0.2-0.1,0.4-0.3,0.8-0.6c0.7-0.5,2-1.3,3.2-2c1.1-0.7,2.1-1.2,2.1-1.2 l1.9-1c1-0.5,2.3-1.2,3.2-1.6l1.7-0.9c0.5-0.2,0.9-0.4,1.2-0.6c0.3-0.2,0.6-0.3,0.8-0.4l0.1,0.1c0.1,0.1,0.2,0.2,0.3,0.2 c0.1,0.1,0.2,0.1,0.3,0.2c0,0.1,0.1,0.1,0.2,0.1h0.1c0.1-0.1,0.1-0.2,0.1-0.3c-0.1-0.1-0.1-0.2-0.1-0.3s0-0.2-0.1-0.4 c0,0,0,0,0-0.1s0-0.1,0-0.2c0-0.1-0.1-0.1-0.1-0.1c-0.1-0.2-0.2-0.5-0.3-0.7c-0.2-0.4-0.4-0.8-0.4-0.8s-0.2-0.4-0.5-0.7 c-0.2-0.2-0.3-0.4-0.5-0.5c-0.1-0.1-0.2-0.2-0.3-0.2L60,40.1c-0.1-0.1-0.2-0.1-0.3-0.2c0,0-0.1,0-0.1-0.1c0.3-0.2,0.5-0.3,0.9-0.5 c0.1-0.1,0.2-0.2,0.1-0.3l0,0c0.7-0.9,1.4-1.5,2.5-2.6c0.2-0.2,0.4-0.4,0.7-0.7c0.2-0.1,0.3-0.3,0.5-0.5c0.5-0.4,1-0.9,1.6-1.2 c1.3-0.9,2.6-1.6,4-2.1c0.7-0.2,1.5-0.4,2.3-0.4l2.5-0.3c3.4-0.4,6.5-0.7,8.7-0.9c2.3-0.2,3.8-0.2,3.8-0.2l12.6-0.4 c1.5-0.1,3.1-0.1,4.3,0.9c1,0.8,1.8,1.9,2.4,2.9c0.1,0.2,0.3,0.4,0.4,0.6c0.7,1.1,1.3,1.9,1.4,2.2l0.2,0.3c0,0-0.1,0.1-0.1,0.2 c0,0.1,0.1,0.3,0.2,0.3h0.1c0.7,1.1,1.1,1.9,1.6,2.9c0,0.1,0.1,0.1,0.2,0.1h0.1c0.1-0.1,0.2-0.2,0.1-0.3c-0.2-0.5-0.4-0.9-0.6-1.3 c-0.2-0.5-0.4-0.9-0.6-1.4c0.4,0,0.8,0.1,1.2,0.1c0.6,0.1,1.3,0.1,2.1,0.2l1.8,0.1c1.9,0.1,5.1,0.2,7.7,0.2h4.9l9.8-0.1 c0.2,0,0.3,0,0.5,0c0,0.1,0,0.1,0,0.2c0,0.1-0.1,0.2-0.1,0.4v0.1c0,0.1,0,0.3,0,0.4c0,0.1,0,0.1,0,0.2c0,0.1,0,0.1,0,0.2 c-0.6,0-1.1,0-1.6-0.1c-0.4,0-0.9-0.1-1.4-0.1l-1.9-0.1c-1.5-0.1-3.5-0.1-5.2-0.1h-3h-3.5c-2,0-4.2,0.1-5.4,0.1l-1.3,0.1 c-0.5,0-1,0.1-1.4,0.1c-0.6,0-1.1,0.1-1.7,0.1c-0.1,0-0.2,0.1-0.2,0.3s0.1,0.2,0.2,0.3c0.6,0,1.1,0,1.7,0.1c0.4,0,0.9,0.1,1.4,0.1 l1.3,0.1c1.2,0.1,3.5,0.1,5.4,0.1h3.5h3c1.7,0,3.7-0.1,5.2-0.1l1.9-0.1c0.5,0,1-0.1,1.4-0.1c0.6,0,1-0.1,1.6-0.1 c0,0.4,0.3,0.7,0.5,0.9c-1.1,0-2.3,0-3.5,0c-5.6,0.1-10.5,0.7-12.9,1c-3.4,0.5-5.5,0.9-5.6,0.9c0,0-2.2,0.4-5.5,1.2 c-2.3,0.5-7,1.7-12.4,3.7c-4.8,1.7-9.8,3.8-13.1,5.2l-2.4,1c-0.7,0.3-1.2,0.5-1.7,0.8c-0.4,0.2-0.9,0.4-1.3,0.6c0-0.2,0-0.5,0-0.8 v-0.1c0-0.5,0-1.3-0.2-2.6c-0.1-0.7-0.3-1.6-0.8-2.5c-0.4-0.8-1.1-1.5-2.1-2.2s-1.8-1.1-2.6-1.5c-0.9-0.4-1.9-0.6-2.8-0.7 c-1.8-0.2-3.4,0-4.6,0.2c-1.1,0.2-1.8,0.4-1.8,0.4s-1.2,0.3-2.9,0.7c-1.5,0.4-3.9,1.2-6.4,2.2c-2.3,0.9-4.7,2.1-6.7,3.3l-1.3,0.8 l-0.9,0.6c-0.2,0.2-0.4,0.3-0.6,0.4c-0.9,0.6-1.5,1.2-2.1,1.7C43.7,54.8,43.6,54.6,43.6,54.5L43.6,54.5 C43.5,54.5,43.5,54.5,43.6,54.5z M74.8,58.9c0,0.1-0.1,0.2-0.1,0.3c-0.3,0.5-0.7,1-1.2,1.7L73,61.3c-0.1,0.1-0.3,0.3-0.6,0.5 L72.1,62c-0.1,0.1-0.2,0.1-0.3,0.2c-0.1,0-0.1,0.1-0.2,0.1c-0.2,0.2-0.5,0.3-0.7,0.4c-0.6,0.3-1.2,0.5-1.6,0.6s-0.9,0.2-1.2,0.3 h-0.2c-0.4,0-0.6,0-0.6,0s-0.2,0-0.5,0c-0.1,0-0.2,0-0.3,0c-0.3,0-0.6,0-0.9-0.1c-0.2,0-0.5-0.1-0.7-0.1c-0.1,0-0.2,0-0.2-0.1 c-0.2,0-0.4-0.1-0.5-0.2c-0.5-0.2-1-0.4-1.3-0.6c-1-0.6-1.5-1.2-1.8-1.5l-0.3,0c-0.5-0.6-0.9-1.1-1.2-1.7c-0.1-0.2-0.3-0.5-0.4-0.8 c1.1,0,2.3,0,3.4,0c0,0.1,0.1,0.2,0.1,0.3c0.3,0.8,0.8,1.5,1.6,2l0.1,0.1c0.1,0.1,0.3,0.2,0.6,0.3c0.4,0.2,0.8,0.3,1.3,0.4 c0.1,0,0.4,0,0.4,0H67c0.1,0,0.2,0,0.3,0c1.3,0,2.2-0.4,2.6-0.6c0.8-0.5,1.3-1.1,1.6-2c0.1-0.2,0.1-0.3,0.2-0.5c1.1,0,2.1,0,3.1,0 C74.8,58.7,74.8,58.8,74.8,58.9z M63.7,58.6c0.1,0,0.2,0,0.3,0c2.3,0,4.6,0,6.7,0.1l0,0c-0.4,0.5-0.9,0.9-1.5,1.1 C68.8,60,68,60.2,67,60.1h-0.2c0,0-0.2,0-0.3,0c-0.7-0.1-1-0.3-1.3-0.4c-0.1,0-0.1,0-0.1-0.1C64.5,59.4,64.1,59,63.7,58.6z M78.6,57c-1.8,0-4,0-6.5,0c0-0.1-0.1-0.2-0.2-0.2s-0.3,0-0.3,0.2l0,0c-2.4,0-5,0-7.6,0.1c-0.3,0-0.7,0-1,0c0-0.1,0-0.2,0-0.3 s-0.1-0.3-0.2-0.3c-0.2,0-0.3,0.1-0.3,0.2c0,0.1,0,0.2,0,0.3c-4.6,0.1-9.2,0.1-13.1,0.2l-4.9,0.1c-0.7,0-1.3,0-1.8,0.1 c-0.4,0-0.7,0-1,0c0.2-0.2,0.4-0.5,0.6-0.8v-0.1c0.1-0.1,0-0.3-0.1-0.3c-0.1-0.1-0.3,0-0.3,0.1c0,0,0,0,0,0.1 c-0.2,0.3-0.4,0.6-0.8,0.8c-0.1,0.1-0.3,0.2-0.5,0.2c0-0.1,0-0.2,0.1-0.3c0-0.2,0.1-0.9,0.1-1.4s0.1-0.9,0.1-0.9s0.1-0.4,0.4-0.8 c0.1-0.2,0.3-0.4,0.5-0.6c0.2-0.2,0.2-0.3,0.3-0.3c0.1-0.1,0.1-0.1,0.2-0.1c0,0.1,0.1,0.1,0.1,0.2v0.1c0,0.1,0,0.1,0,0.2 c0,0.1,0,0.2-0.1,0.3c0,0.2,0,0.5,0,0.9c0,0.3,0.1,0.6,0.1,0.6s0.1,0.2,0.1,0.5c0,0-0.1,0-0.1,0.1c-0.1,0.1-0.1,0.2,0,0.4 c0.1,0.1,0.2,0.1,0.3,0.1c0,0.1,0.1,0.2,0.1,0.2c0,0.1,0.1,0.1,0.1,0.2c0,0.1,0.1,0.1,0.1,0.1c0,0.1,0,0.1,0,0.2s0.1,0.2,0.2,0.3 l0,0c0.1,0,0.2-0.1,0.2-0.2c0,0,0-0.1,0.1-0.2c0.1-0.1,0.1-0.2,0.2-0.4c0-0.2,0.1-0.6,0-0.9c0-0.1,0-0.1,0-0.2 c0.7-0.5,1.4-1,2.5-1.6c0.1-0.1,0.3-0.2,0.5-0.3c0.1-0.1,0.3-0.2,0.4-0.2l2-1.1c2-1,4.4-2.1,6.7-2.9c2.5-0.9,4.8-1.6,6.3-2 c1.7-0.5,2.8-0.7,2.8-0.7s0.7-0.2,1.7-0.4c1.1-0.2,2.6-0.4,4.2-0.3c0.9,0.1,1.7,0.3,2.4,0.6c0.7,0.3,1.5,0.7,2.4,1.2 c0.8,0.5,1.4,1.1,1.8,1.7c0.4,0.7,0.7,1.5,0.8,2.1c0.3,1.2,0.4,2,0.4,2.4v0.1c0,0.4,0.1,0.7,0.1,1.1l0,0c-0.1,0.1-0.2,0.2-0.1,0.3 c0,0.1,0.1,0.1,0.2,0.1C78.7,56.1,78.6,56.6,78.6,57z M145.2,54.3c-0.1-0.1-0.2-0.1-0.3-0.2c-0.2-0.4-0.3-0.8-0.5-1.2 c-0.2-0.6-0.4-1.2-0.8-1.9l-0.1-0.2c-0.1-0.2-0.2-0.4-0.4-0.7c-0.3-0.5-0.6-1-0.9-1.5c-0.4-0.5-1.2-1.4-2.4-2.1 c-0.9-0.5-2.1-0.9-3.2-1.1c-1.2-0.2-2.2-0.1-2.7,0c-0.7,0.1-1.1,0.2-1.1,0.2l-0.5,0.1c-0.2,0.1-0.5,0.1-0.7,0.2 c-0.5,0.2-1.6,0.6-2.8,1.3c-1,0.7-2,1.6-2.7,2.5c-0.7,1-1.2,2-1.5,2.6c-0.3,0.7-0.5,1.2-0.6,1.5l-0.1,0.2c-0.5,1.4-0.7,2.3-0.9,3.4 c-0.7,0-1.4,0-2.1-0.1c-0.5,0-1.1,0-1.8-0.1l-9.7-0.2l-7.5-0.1C92.2,57,83.1,57,83,57c0,0-1.5,0-3.8,0c0.1-0.5,0.2-1,0.2-1.6 c0.6-0.2,1.1-0.4,1.7-0.6c0.5-0.2,1-0.4,1.6-0.6l2.4-0.9c4.3-1.6,8.8-3.3,13.2-4.7c5.4-1.8,10-2.9,12.3-3.4 c3.3-0.7,5.4-1.1,5.4-1.1s2.2-0.4,5.5-0.9c2.3-0.3,7.1-0.9,12.7-1.2c1.2-0.1,2.4-0.1,3.6-0.1c1.2,0,2.4-0.1,3.4,0.3 c0,0.1,0.1,0.1,0.2,0.1l0,0l0,0c0.8,0.3,1.6,0.9,2.2,1.8c0.6,0.8,1.1,1.7,1.5,2.8c0.2,0.5,0.4,1,0.5,1.4c0.1,0.2,0.1,0.5,0.1,0.7 v0.1c0,0.1,0,0.1,0,0.2v0.3c0,0.2,0,0.4,0,0.5v0.2c0,0.5,0,0.8,0,1C145.8,52.6,145.6,53.5,145.2,54.3z"></path> <path d="M139.6,48.7c-1.5-1-3.5-1.4-5.4-1.2c-0.2,0-0.4,0.1-0.6,0.1l-0.3,0.1c-0.2,0-0.4,0.1-0.5,0.1s-0.1,0-0.2,0.1 c-0.3,0.1-0.5,0.2-0.7,0.3c-0.1,0-0.2,0.1-0.2,0.1c-1.5,0.7-2.3,1.3-3.1,2.3c-0.1,0.1-0.2,0.2-0.3,0.3l0,0l0,0l-0.2,0.3 c-0.3,0.5-0.6,0.9-0.8,1.5l-0.2,0.5c0,0.1-0.1,0.2-0.1,0.3l-0.1,0.4c-0.1,0.3-0.1,0.6-0.1,1c0,0.1,0,0.2,0,0.3c0,0.2,0,0.5,0,0.8 l0.1,0.7c0,0.2,0.1,0.4,0.1,0.6l0.1,0.2c0,0.1,0,0.2,0.1,0.3c0,0.2,0.1,0.4,0.2,0.6c0.4,1.2,1.1,2.3,2,3.3s2.2,1.8,3.5,2.3 c0.7,0.3,1.5,0.3,2.2,0.3s1.3-0.1,1.9-0.2l0.5-0.2c0.4-0.1,0.8-0.3,1.2-0.4l0.2-0.1c0.2-0.1,0.3-0.2,0.5-0.3l0.7-0.4 c0.8-0.6,1.4-1.1,1.7-1.6c0.2-0.2,0.3-0.4,0.4-0.5l0.1-0.2c0,0,0.1-0.2,0.3-0.5l0.1-0.1c0.2-0.3,0.4-0.7,0.6-1.2 c0.3-0.7,0.9-2.6,0.3-4.9C142.7,51.6,141.4,49.8,139.6,48.7z M141.4,57.9c-0.4,0.9-0.7,1.5-0.8,1.5l-0.1,0.2 c-0.1,0.1-0.2,0.2-0.3,0.4c-0.3,0.4-0.8,0.9-1.4,1.3l-0.4,0.2l-0.8,0.4c-0.3,0.1-0.6,0.2-0.9,0.3c-0.2,0.1-0.4,0.1-0.5,0.2 c-1,0.2-2.2,0.4-3.3,0.1c-1.1-0.3-2.3-0.9-3.1-1.7c-0.9-0.9-1.5-1.8-2-2.9c-0.1-0.2-0.1-0.3-0.2-0.5c0-0.1-0.1-0.2-0.1-0.3v-0.2 c-0.1-0.2-0.1-0.4-0.1-0.5l-0.1-0.7c0-0.3,0-0.5,0-0.7c0-0.1,0-0.2,0-0.3c0-0.3,0-0.6,0.1-0.9l0.1-0.4c0-0.1,0-0.2,0.1-0.3l0.2-0.5 c0.2-0.5,0.4-0.9,0.7-1.4l0.2-0.3c0.2-0.2,0.3-0.4,0.5-0.5c0.7-0.8,1.5-1.3,2.8-1.9c0.1,0,0.2-0.1,0.3-0.1c0.2-0.1,0.4-0.1,0.6-0.2 c0.1,0,0.2,0,0.2-0.1c0.1,0,0.3-0.1,0.4-0.1c0.1,0,0.2,0,0.3,0c0.2,0,0.4,0,0.6-0.1c1.7-0.1,3.5,0.4,4.7,1.4c0.8,0.6,1.4,1.3,1.8,2 c0.5,0.8,0.8,1.6,1,2.3C142.2,55.7,141.7,57.3,141.4,57.9z"></path> <path d="M140.2,53.4c-0.1-0.4-0.6-1.5-1.5-2.3c-0.8-0.7-1.9-1.2-3-1.3c-1.2-0.1-2.3,0.3-2.8,0.5c-0.9,0.5-1.3,0.8-1.5,1.1l-0.1,0.1 c-0.7,0.8-1,1.6-1.2,2.1c-0.2,0.8-0.2,1.5,0.1,2.1c0,0.1,0.2,0.2,0.3,0.2s0.2-0.2,0.2-0.3c-0.2-0.7,0-1.3,0.2-1.7 c0.3-0.6,0.7-1.1,1.2-1.6l0.1-0.1c0.2-0.2,0.6-0.4,1.3-0.7c0.4-0.2,1.2-0.4,2-0.2c0.8,0.1,1.6,0.5,2.2,1c0.6,0.6,0.9,1.3,1.1,1.7 c0.2,0.5,0.2,0.8,0.2,0.9c0,0,0.1,0.3,0.1,0.7c0,0.6-0.1,1.1-0.3,1.6c-0.3,0.6-0.8,1.2-1.5,1.6c-0.3,0.2-0.6,0.4-1,0.5 c-0.3,0.1-0.6,0.2-0.9,0.2c-0.6,0.1-1.1,0-1.4-0.1c-0.3-0.1-0.6-0.2-0.8-0.2c-0.7-0.3-1.2-0.6-1.7-1.1s-0.8-1-1-1.5 c0-0.1-0.2-0.2-0.3-0.2s-0.2,0.2-0.2,0.3l0,0c0.2,0.7,0.5,1.3,0.9,1.9c0.3,0.4,0.9,1.1,1.8,1.6c0.3,0.2,0.6,0.3,1,0.4 c0.4,0.1,1,0.3,1.7,0.3h0.1c0.5,0,0.9-0.1,1.4-0.2c0.5-0.2,0.9-0.4,1.3-0.6c0.9-0.5,1.7-1.3,2.1-2.2c0.5-1,0.6-1.9,0.5-2.4 c0-0.6-0.1-1-0.1-1C140.5,54.5,140.4,54.1,140.2,53.4z"></path> <path d="M76.5,38.5v0.1c0.1,0.2,0.2,0.3,0.4,0.4c0.1,0,0.3,0.1,0.4,0.1h0.2c0.3,0,0.5,0,0.8,0c0.9,0,1.7,0,1.7,0l1.5-0.1l4.5-0.3 c0.4,0,0.8-0.1,1.1-0.1c0.7-0.1,1.2-0.1,1.9-0.1c0.2,0,0.3-0.1,0.3-0.2c0-0.1-0.1-0.3-0.2-0.3s-0.2,0-0.3,0c0-0.5,0-1,0.1-1.5 c0-0.4,0.1-0.9,0.1-1.5v-1.9v-1.5c0-0.1,0-0.2,0-0.4V31c0-0.1,0-0.2-0.1-0.3c0,0-0.1,0-0.2,0l0,0L84.2,31c-0.8,0.1-1.7,0.2-2.4,0.3 l-1.6,0.2c-0.6,0.1-1,0.2-1.5,0.3c-0.5,0.1-1,0.2-1.6,0.3c-0.1,0-0.1,0.1-0.2,0.1l0,0l0,0c-0.1,0-0.2,0.1-0.2,0.3 c0,0.6,0,1.1-0.1,1.6c0,0.4-0.1,0.9-0.1,1.5v1.3L76.5,38.5C76.5,38.4,76.5,38.4,76.5,38.5z M78.8,32.5c0.4,0,0.9,0,1.5,0l1.3-0.1 c1.3-0.1,4.4-0.3,4.4-0.3l1.7-0.1l0.3,3c0.1,0.6,0.1,1,0.2,1.5s0.1,0.9,0.2,1.4c-0.1,0-0.3,0-0.4-0.1c-0.6-0.1-1.1-0.2-1.9-0.2 c-0.3,0-0.9,0-1.8,0c-0.1,0-0.1,0-0.2,0c-1.5,0-4,0.1-4,0.1l-1.7,0.1h-0.6l-0.2-2.3c-0.1-0.6-0.1-1-0.2-1.5s-0.1-0.9-0.2-1.5 C77.8,32.5,78.2,32.5,78.8,32.5z"></path> <path d="M64.6,40.8V41c0,0.1,0.1,0.3,0.2,0.3l0,0c0.1,0,0.2-0.1,0.2-0.2c0-0.2,0-0.4,0.1-0.6c0.5-0.1,1-0.2,1.6-0.2 c0.3,0,0.7-0.1,1.2-0.1l5.3-0.7l2.2-0.3h0.1c0.1,0,0.3,0,0.4-0.2c0-0.1,0.1-0.2,0-0.3l0.1-3c0-0.7-0.1-1.3-0.1-1.9 c0-0.3-0.1-0.7-0.1-1c0.1,0,0.2,0,0.3,0c0.1,0,0.2-0.1,0.2-0.3c0-0.1-0.1-0.2-0.3-0.2c-0.4,0-0.8,0-1.2,0c-0.6,0-1.2,0-2,0.1h-0.1 c-0.3,0-0.9,0.1-1.9,0.4c-0.5,0.1-1.2,0.4-1.8,0.7c-0.6,0.3-1,0.6-1,0.6s-0.5,0.4-1,0.9s-1,1.2-1.3,1.6c-0.3,0.6-0.5,0.9-0.6,1.1 L65,37.8c-0.4,0.9-0.5,1.6-0.5,2.3c-0.1,0.1-0.1,0.1-0.1,0.2c0,0,0,0.1,0.1,0.1C64.6,40.6,64.6,40.7,64.6,40.8z M66.1,38.3l0.1-0.1 c0.1-0.2,0.3-0.5,0.6-0.9c0.3-0.4,0.8-1,1.2-1.4c0.4-0.4,0.9-0.7,0.9-0.7s0.3-0.2,0.8-0.5s1.2-0.5,1.6-0.7c0.9-0.3,1.5-0.5,1.8-0.6 c0.4-0.1,0.7-0.2,1-0.3c0.4-0.1,0.8-0.2,1.2-0.3c0,0.5-0.1,1-0.2,1.5c-0.1,0.4-0.1,0.8-0.2,1.3v0.1c0,0.2-0.1,0.6-0.1,1.2 c0,0.2,0,0.5,0,0.9L73,38.1c-0.1,0-2.2,0.3-3.4,0.5c-0.9,0.2-1.5,0.3-1.9,0.4c-0.7,0.2-1.3,0.4-1.8,0.6c-0.2,0.1-0.3,0.1-0.5,0.2 C65.5,39.4,65.8,38.9,66.1,38.3z"></path> <path d="M89.7,36.6c0,0.4,0.1,0.8,0.1,1.2c-0.1,0-0.2,0.1-0.2,0.2c0,0.1,0.1,0.2,0.2,0.2c0,0.1,0.1,0.2,0.2,0.2l0,0 c0.1,0,0.2-0.1,0.2-0.2c0.4,0,0.8,0.1,1.2,0.1c0.4,0,0.9,0.1,1.4,0.1l1.9,0.1c1,0,2.3,0.1,3.2,0.1c0.1,0,0.3,0,0.4,0 c0.9,0,1.5,0,1.5,0h0.6l2.1-0.1c0,0,0,0,0.1,0s0.2-0.1,0.2-0.3v-0.1c0,0.1,0.1,0.2,0.2,0.2h0.1h0.1c0.2,0,0.3,0,0.5,0h1.3h0.7 c0.6,0,1.1,0,1.6-0.1c0.5,0,1-0.1,1.5-0.1l0,0c0.1,0,0.2-0.1,0.3-0.2c0-0.1-0.1-0.3-0.2-0.3c-0.5,0-1-0.1-1.5-0.2 c-0.5-0.1-1-0.2-1.6-0.3l-1.6-0.2v-0.6c0,0,0-1.1-0.1-1.6c0-0.7-0.1-1.1-0.1-1.3c-0.1-0.7-0.2-1.3-0.3-1.8 c-0.1-0.4-0.2-0.8-0.2-1.3c0-0.1-0.1-0.2-0.3-0.2c-0.1,0-0.2,0.1-0.2,0.3c0.1,0.6,0,1.1,0,1.7c0,0.4-0.1,0.8-0.1,1.3v1.3 c0,0.1,0,0.3,0,0.5l-0.1-2.1c0-0.6-0.1-1-0.1-1.5c-0.1-0.6-0.1-1-0.1-1.6c0-0.1-0.1-0.2-0.3-0.2l0,0c-0.1,0-0.2,0.1-0.2,0.2 s0,0.1,0,0.2c-0.5,0-1,0-1.5-0.1c-0.4,0-0.9-0.1-1.5-0.1h-1.3c-0.8,0-2,0-3.1,0L91,30.5h-1.2c-0.1,0-0.2,0-0.2,0.1 c0,0-0.1,0.1-0.1,0.2v1l0.1,3.3C89.6,35.7,89.7,36.1,89.7,36.6z M90.5,36.6c0.1-0.4,0.1-0.9,0.2-1.5l0.1-1.9l0.1-1.4l3.9-0.2 c1.1-0.1,2.3-0.1,3-0.2l1.3-0.1c0.6-0.1,1-0.1,1.5-0.2s0.9-0.1,1.4-0.2c0,0.3,0,0.6-0.1,0.9c0,0.4-0.1,0.9-0.1,1.5l-0.1,3.9 l-6.8,0.2L93,37.5c-0.6,0-1.1,0.1-1.5,0.1s-0.7,0.1-1.1,0.1C90.4,37.3,90.4,37,90.5,36.6z"></path> <path d="M62.9,43.3L62.9,43.3c0.8-0.2,1.3-0.4,2.1-0.6c0.3-0.1,0.6-0.2,1-0.3l1.2-0.3c0.1,0,0.3-0.1,0.5-0.1c0.3-0.1,0.6-0.1,1-0.2 c1.8-0.4,4.1-0.6,6.8-0.8c2-0.2,3.9-0.2,5.4-0.3l12.6-0.6l6.5-0.3l2.3-0.1c0.5,0,0.9-0.1,1.3-0.1c0.6-0.1,1.1-0.1,1.8-0.1 c0.1,0,0.2-0.1,0.2-0.3c0-0.1-0.1-0.2-0.3-0.2l0,0c-0.6,0-1.2,0-1.8,0c-0.4,0-0.8,0-1.3,0h-1.9c-2.2,0-4.7,0-6.9,0 c-4.7,0.1-9,0.3-9,0.3l-2.8,0.1c-1.6,0.1-3.9,0.2-6.3,0.5c-1.9,0.2-4.6,0.5-6.9,1.2c-0.3,0.1-0.7,0.2-1,0.3c-0.2,0-0.3,0.1-0.4,0.1 s-0.2,0.1-0.4,0.1l-0.9,0.3c-0.6,0.2-1,0.4-1.4,0.5c-0.5,0.2-0.9,0.4-1.5,0.5c-0.1,0-0.2,0.2-0.2,0.3 C62.7,43.2,62.8,43.3,62.9,43.3z"></path> <path d="M36.3,45c1.3,1.1,2.8,1.6,4.3,1.6c1.6-0.1,2.9-0.7,3.9-2c0.2-0.3,0.5-0.6,0.7-0.9s0.4-0.5,0.5-0.7s0.3-0.4,0.4-0.7 c0.1-0.3,0.3-0.5,0.3-0.6c0.1-0.1,0.2-0.3,0.3-0.6s0.2-0.4,0.2-0.5s0.1-0.3,0.2-0.5c0.1-0.3,0.1-0.4,0.2-0.5 c0.1-0.2,0.1-0.3,0.1-0.4c0-0.1,0-0.2,0-0.2l-0.1-0.1c0,0-0.1-0.1-0.2-0.2c-0.1-0.1-0.2-0.1-0.3-0.2c0,0,0,0-0.1-0.1 c0,0,0-0.1-0.1-0.1l-2.1-2.5c-0.2-0.2-0.2-0.5-0.1-1c0.2-0.4,0.3-0.7,0.5-0.9c0.1-0.1-0.1-0.2-0.4-0.5c-0.9,1.2-1.4,1.9-1.5,2 c0,0-0.6,0.6-1.7,1.9c0,0.2,0.1,0.3,0.3,0.5c0.1,0.1,0.1,0.1,0.1,0c0.1-0.2,0.4-0.4,0.8-0.6s0.6-0.3,0.7-0.2 c0.1,0.1,0.1,0.1,0.2,0.2s0.1,0.2,0.2,0.2l0.1,0.1l2.1,2.6c0.1,0.2,0.2,0.3,0.1,0.5c-0.2,0.7-0.7,1.6-1.5,2.6 c-0.9,1.1-2,1.5-3.3,1.4S38.5,44,37.4,43c-1-0.8-1.7-1.8-2.3-3.1s-0.9-2.6-0.9-3.9c0-1.3,0.4-2.4,1.1-3.3c0.5-0.6,0.9-1,1.4-1.2 c0.5-0.3,0.9-0.4,1.2-0.5c0.3,0,0.7,0,1,0.1c0.4,0.1,0.6,0.2,0.8,0.3c0.1,0.1,0.3,0.2,0.5,0.4c0.1,0,0.2,0,0.3-0.1 c0.2-0.3,0.3-0.4,0.2-0.5c-0.3-0.4-1-1.2-2-2.3c-2,1.3-3.3,2.3-4,3.2c-1,1.2-1.6,2.6-1.7,4.3c-0.1,1.7,0.1,3.3,0.7,4.9 C34.2,42.8,35.1,44,36.3,45z"></path> <path d="M47.7,32.2c0.1,0.1,0.2,0.1,0.3,0.1c0.1-0.2,0.1-0.4,0.2-0.5s0.1-0.3,0.2-0.4s0.1-0.3,0.2-0.4c0.1-0.1,0.1-0.2,0.2-0.2 c0.1-0.1,0.3,0.1,0.5,0.4c0,0.1,0.1,0.4,0.3,0.9l1.8,7.1c0.3-0.1,0.5-0.2,0.8-0.3c0.2-0.1,0.4-0.2,0.7-0.4l-0.7-2.4 c-0.3-1.3-0.4-2.7-0.2-4.3c0.2-1.6,0.5-2.5,1-2.7c0.2-0.1,0.4-0.1,0.6,0s0.4,0.1,0.5,0.1c0.5-0.2,0.6-0.8,0.1-1.8 c-0.5-0.3-1-0.4-1.5-0.1c-0.5,0.2-0.9,1-1.1,2.2c-0.3,1.2-0.4,2.4-0.3,3.4L50.8,31c-0.1-0.5-0.3-0.9-0.4-1.2 c-0.2-0.3-0.3-0.6-0.6-0.7c-0.2-0.1-0.4-0.2-0.7-0.1c-0.4,0.2-0.7,0.6-1,1.3c-0.3,0.7-0.5,1.3-0.5,1.6C47.5,32,47.6,32.1,47.7,32.2 z"></path> <path d="M56.9,33c0.5,0.7,1.1,1.2,1.8,1.5s1.3,0.2,1.9-0.2c0.3-0.2,0.5-0.5,0.6-0.8c0.2-0.4,0.3-0.8,0.3-1.3 c0.1-0.5,0.1-0.9,0.1-1.2c0-0.4,0-0.7,0-1c0,0,0,0.1,0.1,0.2c0,0.1,0.1,0.2,0.2,0.4c0.2,0.5,0.4,0.9,0.6,1.1 c0.2,0.3,0.4,0.5,0.7,0.6c0.2,0.1,0.5,0.1,0.7-0.1c0.4-0.3,0.7-0.8,0.9-1.7c0.2-0.8,0.3-1.4,0.3-1.8c0-0.1-0.1-0.1-0.3-0.2 c-0.2-0.1-0.2-0.1-0.3-0.1v0.2c0,0.1,0,0.3-0.1,0.4c0,0.2-0.1,0.3-0.1,0.5s-0.1,0.3-0.1,0.5c-0.1,0.1-0.1,0.2-0.2,0.3 c-0.1,0.1-0.3,0-0.5-0.3c-0.1-0.2-0.2-0.3-0.3-0.5l-3.1-6.9c-0.6,0.1-1.1,0.4-1.6,0.7c-0.9,0.6-1.5,1.5-2,2.7s-0.6,2.4-0.5,3.7 C55.9,31,56.2,32.1,56.9,33z M58.1,24.7c0.4-0.3,0.7-0.4,1-0.3l1,2.2c0.5,1.1,0.8,2.3,0.8,3.6c0.1,1.3-0.1,2.2-0.6,2.5 c-0.7,0.5-1.4,0.1-2.3-1.2c-0.8-1.1-1.1-2.4-1.1-3.8C56.9,26.2,57.3,25.2,58.1,24.7z"></path> <path d="M66.8,28.8c0.7,0.4,1.4,0.4,2.1,0c0.6-0.3,1-0.8,1.4-1.6c0.3-0.8,0.5-1.4,0.5-1.8c0-0.1-0.1-0.1-0.3-0.2 c-0.1-0.1-0.2-0.1-0.3-0.1v0.1c0,0,0,0.1,0,0.2s0,0.1-0.1,0.2s-0.1,0-0.1,0.1s-0.1,0.2-0.1,0.3c0,0.1-0.1,0.2-0.2,0.3 c-0.1,0.1-0.1,0.2-0.2,0.3c-0.1,0.1-0.2,0.2-0.2,0.3S69,27,68.9,27.1c-0.9,0.5-1.8,0-2.5-1.5c-0.7-1.3-0.9-2.6-0.8-3.9 s0.5-2.1,1.1-2.4c0.2-0.1,0.6,0,1,0.2c0.4,0.3,0.8,0.3,1,0.2c0.2-0.1,0.4-0.3,0.4-0.5s0-0.5-0.1-0.7c-0.1-0.1-0.1-0.2-0.3-0.4 c-0.8-0.2-1.5-0.1-2.2,0.2c-1.1,0.5-1.7,1.7-2.1,3.6c-0.3,1.9-0.1,3.5,0.6,4.8C65.5,27.7,66.1,28.4,66.8,28.8z"></path> <path d="M72.6,13.3c0.2,0.2,0.4,0.2,0.6,0.2c0.4-0.1,0.6-0.3,0.8-0.6c0.2-0.3,0.2-0.7,0.1-1c-0.1-0.2-0.2-0.4-0.4-0.6 c-0.2-0.1-0.4-0.2-0.6-0.1c-0.3,0.1-0.6,0.3-0.8,0.6c-0.2,0.3-0.2,0.6-0.1,1C72.3,12.9,72.5,13.1,72.6,13.3z"></path> <path d="M71.8,19l0.1-0.2c0.1-0.1,0.1-0.2,0.2-0.3c0.1-0.1,0.2-0.2,0.2-0.4c0.1-0.1,0.2-0.2,0.3-0.3s0.2-0.1,0.2-0.2 c0.2,0,0.3,0.1,0.4,0.5c0,0.1,0.1,0.5,0.1,0.9l0.1,5c0,0.6,0,1,0.1,1.2c0.1,0.4,0.2,0.6,0.4,0.8c0.2,0.2,0.4,0.3,0.6,0.2 c0.5-0.1,1-0.5,1.5-1.2s0.8-1.2,0.9-1.6c0-0.1-0.1-0.2-0.2-0.3c-0.1-0.1-0.2-0.2-0.2-0.2l-0.1,0.2c-0.1,0.1-0.1,0.2-0.2,0.4 c-0.1,0.1-0.2,0.3-0.3,0.4c-0.1,0.2-0.2,0.3-0.3,0.4c-0.1,0.1-0.2,0.2-0.3,0.2c-0.2,0-0.3-0.1-0.4-0.5c0-0.2-0.1-0.4-0.1-0.6 l-0.1-5.3c0-0.5-0.1-0.9-0.1-1.2c-0.1-0.4-0.2-0.6-0.4-0.8C74,16,73.8,16,73.6,16c-0.4,0.1-0.8,0.4-1.3,1.1 c-0.5,0.6-0.8,1.1-0.9,1.5c0,0.1,0.1,0.2,0.2,0.3C71.7,19,71.7,19,71.8,19z"></path> <path d="M80.5,25.7c0.3,0,0.6-0.1,1-0.4c0.3-0.2,0.7-0.5,1-0.9s0.6-0.7,0.8-1c0.2-0.3,0.4-0.6,0.5-0.9c0,0,0,0.1,0,0.2 s0,0.2-0.1,0.4c-0.1,0.6-0.1,1-0.1,1.2c0,0.4,0.1,0.7,0.2,0.9c0.1,0.2,0.3,0.3,0.6,0.3c0.5,0,1-0.3,1.7-0.9c0.6-0.6,1-1,1.2-1.4 c0-0.1,0-0.2-0.1-0.3s-0.1-0.2-0.2-0.2L86.8,23c-0.1,0.1-0.2,0.2-0.3,0.3c-0.1,0.1-0.2,0.2-0.4,0.4c-0.1,0.1-0.3,0.2-0.4,0.3 c-0.1,0.1-0.2,0.1-0.3,0.1c-0.2,0-0.2-0.2-0.2-0.6c0-0.2,0-0.4,0.1-0.6l1.3-7.4c-0.6-0.2-1.1-0.3-1.7-0.3c-1,0-2.1,0.4-3.1,1.1 c-1,0.7-1.9,1.7-2.5,2.8c-0.6,1.1-0.9,2.3-0.9,3.4c0,0.9,0.2,1.6,0.7,2.2C79.3,25.4,79.8,25.7,80.5,25.7z M81.1,18.2 c0.8-1.2,1.7-1.8,2.6-1.9c0.5,0,0.8,0.1,1,0.3L84.3,19c-0.2,1.2-0.6,2.3-1.3,3.5c-0.7,1.2-1.3,1.7-1.8,1.8c-0.8,0-1.2-0.7-1.3-2.3 C79.9,20.7,80.3,19.4,81.1,18.2z"></path> <path d="M90.5,26c1,0.1,1.8-0.1,2.5-0.6s1-1.1,1.1-2c0-0.5-0.1-1.1-0.3-1.6c-0.3-0.5-0.6-1-0.9-1.4s-0.6-0.8-0.9-1.3 s-0.4-0.9-0.3-1.3c0-0.3,0.1-0.5,0.3-0.7c0.2-0.2,0.5-0.3,0.8-0.3c0.4,0,0.7,0.2,1,0.4c0.2,0.3,0.4,0.5,0.6,0.7s0.3,0.4,0.6,0.4 c0.2,0,0.4-0.1,0.6-0.3c0.2-0.2,0.3-0.4,0.3-0.7c0-0.1,0-0.3-0.1-0.5c-0.5-0.6-1.1-1-2-1.1s-1.7,0.2-2.4,0.8 c-0.7,0.6-1,1.2-1.1,1.8c0,0.5,0.1,1.1,0.3,1.6s0.6,1,0.9,1.4s0.6,0.8,0.9,1.3s0.4,0.9,0.3,1.3c0,0.3-0.1,0.5-0.4,0.7 C92,24.9,91.7,25,91.4,25c-0.4,0-0.7-0.2-1-0.4c-0.2-0.3-0.4-0.5-0.6-0.7s-0.3-0.4-0.6-0.4c-0.2,0-0.4,0.1-0.6,0.3 c-0.2,0.2-0.3,0.4-0.3,0.7c0,0.2,0,0.3,0.1,0.5C88.9,25.5,89.6,25.9,90.5,26z"></path> </g> </svg>